<svg viewBox="0 0 24 24" xmlns="http://www.w3.org/2000/svg"><path fill="currentColor" d="m9.422 10.723h-1.35v3.807h2.458v-4.048h2.94v4.337h-1.35v1.35h-1.349v2.458h2.458v-2.7h2.699v-5.204h-1.35v-1.35h-5.156zm1.35 11.952h2.457v-2.458h-2.459v2.458zm-2.676-20h-1.349v1.35h-1.35v1.348h-1.348v1.35h-1.35v6.699h-1.349v1.35h-1.35v2.457h1.35v1.35h1.349v1.349h2.458v-7.856h-1.35v-4.24h1.35v-1.35h1.349v-1.35h1.35v-1.348h8.289v1.35h1.349v1.349h1.35v1.35h1.349v4.24h-1.35v7.856h2.458v-1.35h1.35v-1.35h1.349v-2.457h-1.35v-1.35h-1.349v-6.698h-1.35v-1.35h-1.349v-1.35h-1.349v-1.35h-1.35v-1.348h-7.806v1.35z"/></svg>