<svg viewBox="0 0 24 24" xmlns="http://www.w3.org/2000/svg"><path fill="currentColor" d="m10.51 10.013v-2.714c0-.306.248-.554.554-.554h1.911c.306 0 .554.248.554.554v4.968c0 .076-.038.134-.076.191l-.478.478c-.115.115-.115.287 0 .382l.478.478c.057.057.076.115.076.191v2.713c0 .306-.248.554-.554.554h-1.911c-.306 0-.554-.248-.554-.554v-4.968c0-.076.038-.134.076-.191l.478-.478c.115-.115.115-.287 0-.382l-.478-.478c-.057-.057-.076-.114-.076-.19zm8.617 1.987c0-3.936-3.191-7.127-7.127-7.127s-7.127 3.191-7.127 7.127 3.191 7.127 7.127 7.127 7.127-3.191 7.127-7.127zm2.255 0c0 5.178-4.204 9.363-9.363 9.363-5.178 0-9.363-4.204-9.363-9.363 0-5.178 4.204-9.363 9.363-9.363s9.363 4.185 9.363 9.363zm-20.618 0c0 6.21 5.025 11.236 11.236 11.236s11.236-5.026 11.236-11.236-5.026-11.236-11.236-11.236-11.236 5.026-11.236 11.236zm-.764 0c0-6.631 5.369-12 12-12s12 5.369 12 12-5.369 12-12 12-12-5.369-12-12z"/></svg>