<svg viewBox="0 0 24 24" xmlns="http://www.w3.org/2000/svg"><path fill="currentColor" d="m11.07 8.82s-1.267-7.741-5.925-7.723c-3.139.012-4.365 3.027-2.09 3.705 0 0-2.698.973-2.698 2.697 0 1.725 4.274 3.54 10.713 1.32zm1.931 5.924s.904 7.791 5.558 7.991c3.136.135 4.503-2.82 2.262-3.604 0 0 2.74-.845 2.82-2.567.08-1.723-4.105-3.737-10.64-1.82zm-3.672-1.55s-7.532 2.19-6.952 6.813c.39 3.114 3.53 3.969 3.93 1.63 0 0 1.29 2.559 3.002 2.351s3-4.67.02-10.794zm5.623-2.467s7.727-1.35 7.66-6.008c-.046-3.138-3.074-4.333-3.728-2.051 0 0-1-2.686-2.726-2.668-1.724.018-3.494 4.312-1.206 10.727z"/></svg>