<svg viewBox="0 0 24 24" xmlns="http://www.w3.org/2000/svg"><path fill="currentColor" d="m10.53 10.73c-.1-.31-.19-.61-.29-.92s-.19-.6-.27-.89c-.08-.28-.15-.54-.22-.78h-.02c-.09.43-.2.86-.34 1.29-.15.48-.3.98-.46 1.48-.14.51-.29.98-.44 1.4h2.54c-.06-.211-.14-.46-.23-.721-.09-.269-.18-.559-.27-.859zm9.22-10.43h-15.5c-2.35 0-4.25 1.9-4.25 4.25v14.9c0 2.35 1.9 4.25 4.25 4.25h15.5c2.35 0 4.25-1.9 4.25-4.25v-14.9c0-2.35-1.9-4.25-4.25-4.25zm-5.05 16.53h-2.091c-.069.01-.139-.04-.159-.11l-.82-2.38h-3.72l-.76 2.35c-.02.09-.1.15-.19.141h-1.88c-.11 0-.14-.061-.11-.18l3.22-9.271c.03-.1.06-.21.1-.33.04-.21.06-.43.06-.65-.01-.05.03-.1.08-.11h2.59c.08 0 .12.03.13.08l3.65 10.3c.03.109 0 .16-.1.16zm3.4-.15c0 .11-.039.16-.129.16h-1.961c-.1 0-.15-.061-.15-.16v-7.7c0-.1.041-.14.131-.14h1.98c.09 0 .129.05.129.14zm-.209-9.03c-.231.24-.571.37-.911.35-.33.01-.65-.12-.891-.35-.23-.25-.35-.58-.34-.92-.01-.34.12-.66.359-.89.242-.23.562-.35.892-.35.391 0 .689.12.91.35.22.24.34.56.33.89.01.34-.11.67-.349.92z"/></svg>