<svg viewBox="0 0 24 24" xmlns="http://www.w3.org/2000/svg"><path fill="currentColor" d="m4.25.3c-2.35 0-4.25 1.9-4.25 4.25v14.9c0 2.35 1.9 4.25 4.25 4.25h15.5c2.35 0 4.25-1.9 4.25-4.25v-14.9c0-2.35-1.9-4.25-4.25-4.25zm11.31 5.13h2.03c.05-.01.09.03.1.07v9.54c0 .18.01.38.02.6.02.21.03.41.04.58 0 .07-.03.13-.1.16-.52.22-1.07.38-1.63.48-.5.09-1.02.14-1.54.14-.74.01-1.48-.14-2.15-.45-.63-.29-1.15-.77-1.51-1.36-.37-.61-.55-1.37-.55-2.28-.01-.74.18-1.47.55-2.11.38-.65.93-1.19 1.59-1.55.7-.39 1.54-.58 2.53-.58.05 0 .12 0 .21.01s.19.01.31.02v-3.16c0-.07.03-.11.1-.11zm-8.93.86h1.95c.06-.01.12.03.13.1.01.01.01.02.01.03v10.26c0 .11-.05.16-.14.16h-1.96c-.09 0-.13-.05-.13-.16v-10.26c0-.09.05-.13.14-.13zm8.23 4.24c-.39 0-.78.08-1.13.26-.34.17-.63.42-.85.74s-.33.75-.33 1.27c-.01.35.05.7.17 1.03.1.27.25.51.45.71.19.18.42.32.68.4.27.09.55.13.83.13.15 0 .29-.01.42-.02.13.01.25-.01.36-.05v-4.4c-.09-.02-.18-.04-.27-.05-.11-.01-.22-.02-.33-.02z"/></svg>