<svg viewBox="0 0 24 24" xmlns="http://www.w3.org/2000/svg"><path fill="currentColor" d="m10.44 0-.48.831 5.88 10.185 6.36-11.016zm12.84 0-8.577 14.856h9.297v-14.145a.72.72 0 0 0 -.72-.711zm-13.86 1.767-3.66 6.339h7.32zm1.563 7.257h-.018c-.36.005-.7.216-.879.523l-1.083 1.88-.008.014a1.052 1.052 0 0 0 0 1.02 16710.388 16710.388 0 0 0 1.093 1.894c.184.31.53.5.885.501.002 0 1.38.002 2.067-.001.36-.005.699-.205.878-.512.364-.631.731-1.261 1.093-1.894.176-.314.17-.703-.007-1.011l-.01-.015-1.078-1.87-.006-.009a1.053 1.053 0 0 0 -.879-.52h-.012zm-5.763.016-5.22 9.042v.39l.003 4.871a.72.72 0 0 0 .662.655l8.635-14.958zm2.94 3.845-6.424 11.115h12.84zm2.757 2.906 4.74 8.209h7.623a.72.72 0 0 0 .72-.72v-7.488z"/></svg>