<svg viewBox="0 0 24 24" xmlns="http://www.w3.org/2000/svg"><path fill="currentColor" d="m11.992 1.966c-.434 0-.87.086-1.28.257l-8.933 3.694c-.503.208-.49.908.012 1.116l8.982 3.558a3.266 3.266 0 0 0 2.454 0l8.982-3.558c.503-.196.503-.908.012-1.116l-8.957-3.694a3.255 3.255 0 0 0 -1.272-.257zm11.408 6.09a.589.589 0 0 0 -.222.045l-10.012 3.877a.612.612 0 0 0 -.38.564v8.896a.6.6 0 0 0 .821.552l10.013-3.89a.583.583 0 0 0 .38-.551v-8.896a.6.6 0 0 0 -.6-.596zm-22.724.039a.644.644 0 0 0 -.48.19c-.11.111-.196.245-.196.405v8.355c0 .442.515.737.908.54l6.27-3.006.307-.147 2.969-1.436c.466-.22.43-.908-.061-1.092l-9.51-3.766a.57.57 0 0 0 -.207-.044z"/></svg>