<svg viewBox="0 0 24 24" xmlns="http://www.w3.org/2000/svg"><path fill="currentColor" d="m8.705 4.718a980.02 980.02 0 0 1 1.211 3.19l2.962 7.886c.198.526-.054 1.17-.583 1.366-.311.116-.655.06-.926-.11l-1.454 1.418c.81.775 1.985 1.034 3.116.614 1.602-.593 2.387-2.416 1.79-4.008l-3.837-10.356zm4.153.013 4.57 11.72 1.924.008 4.648-11.676-2.404-.011-3.193 8.832-3.141-8.861zm-8.309.013-4.549 11.677 2.354.01 1.092-2.91 4.112.019 1.08 2.92 2.355.012-4.421-11.718zm.999 2.592 1.602 4.604-3.316-.016z"/></svg>