<svg viewBox="0 0 24 24" xmlns="http://www.w3.org/2000/svg"><path fill="currentColor" d="m15.652 0c-.354.002-.714.09-1.047.276l-10.13 5.648c-.456.26-.881.716-1.075 1.362l-2.718 9.44c-.326 1.13.311 2.314 1.423 2.646l15.968 4.542c1.111.33 2.277-.318 2.603-1.448l2.641-9.258c.172-.543.076-1.213-.192-1.737l-5.535-10.309a2.19 2.19 0 0 0 -1.938-1.162zm-2.682 6.373s-.008 4.23 0 4.225c.899-1.295 1.712-2.577 3.234-2.577 1.684-.001 2.597 1.409 2.602 2.595l-.007 7.596h-1.891l-.009-7.19c0-.988-.793-.986-.804-.986-.64 0-1.816 1.605-3.125 3.386v4.793l-1.913.002-.002-2.219s-1.265 2.219-3.158 2.222c-2.148 0-2.877-1.476-2.882-5.015-.004-3.37.474-5.175 2.777-5.177 1.751-.001 3.256 2.55 3.256 2.55v-1.615zm-5.15 3.658c-.88 0-.957.93-.954 3.17.003 2.242.124 3.115.95 3.115 1.124-.001 2.895-2.86 2.895-2.86s-1.756-3.426-2.891-3.426z"/></svg>