<svg viewBox="0 0 24 24" xmlns="http://www.w3.org/2000/svg"><path fill="currentColor" d="m3.996 4.517h5.291l-1.277 1.807-3.857 1.182a1.668 1.668 0 0 0 -1.165 1.601v5.786a1.668 1.668 0 0 0 1.165 1.6l3.857 1.183 1.277 1.807h-5.291a3.996 3.996 0 0 1 -3.996-3.996v-6.974a3.996 3.996 0 0 1 3.996-3.996m16.008 0h-5.291l1.277 1.807 3.857 1.182c.715.227 1.17.889 1.165 1.601v5.786a1.668 1.668 0 0 1 -1.165 1.6l-3.857 1.183-1.277 1.807h5.291a3.996 3.996 0 0 0 3.996-3.996v-6.974a3.996 3.996 0 0 0 -3.996-3.996m-4.007 8.345h-7.995v-1.804h7.995z"/></svg>