<svg viewBox="0 0 24 24" xmlns="http://www.w3.org/2000/svg"><path fill="currentColor" d="m16.076 13.732c.862-1.494 1.55-3.196 2.003-5.045h-4.731v-1.699h5.795v-.948h-5.795v-2.833h-2.365c-.415 0-.415.408-.415.408v2.425h-5.861v.948h5.861v1.699h-4.839v.948h9.386c-.343 1.18-.805 2.288-1.352 3.294-3.045-1.002-6.295-1.814-8.337-1.314-1.305.321-2.146.893-2.641 1.493-2.267 2.751-.641 6.929 4.147 6.929 2.831 0 5.559-1.574 7.673-4.168 3.153 1.512 9.395 4.107 9.395 4.107v.157c0 2.117-1.719 3.833-3.843 3.833h-16.312c-2.125 0-3.845-1.717-3.845-3.834v-16.264c0-2.118 1.72-3.834 3.845-3.834h16.312c2.124 0 3.843 1.716 3.843 3.834v12.409s-.784-.062-4.24-1.216c-.96-.321-2.249-.811-3.684-1.329zm-10.242-.698c-.6.059-1.725.324-2.341.866-1.845 1.604-.741 4.537 2.993 4.537 2.17 0 4.339-1.384 6.042-3.599-2.424-1.179-4.476-2.022-6.694-1.804z"/></svg>