<svg viewBox="0 0 24 24" xmlns="http://www.w3.org/2000/svg"><path fill="currentColor" d="m.588 1.077a.615.615 0 0 0 -.588.613v20.617c0 .34.275.615.615.615h8.309c.34 0 .615-.275.615-.615v-1.746l.647 1.94a.615.615 0 0 0 .584.421h6.77a.615.615 0 0 0 .585-.427l.035-.11c.04.307.3.537.61.537h4.615c.34 0 .615-.275.615-.615v-14.154a.615.615 0 0 0 -.447-.592l-4.307-1.23a.615.615 0 0 0 -.744.37l-1.887 4.907v-5.55a.615.615 0 0 0 -.443-.593l-3.385-.98a.615.615 0 0 0 -.787.59v6.15l-2.809-7.48a.615.615 0 0 0 -.408-.375l-8-2.272a.615.615 0 0 0 -.195-.021zm.027.613 8 2.272 4 10.652v-9.54l3.385.984v8.865l3.076-8 4.309 1.231v14.154h-4.615v-2.463h1.845v-7.076l-3.076 9.54h-6.77l-4.614-13.849v11.078h2.77v2.77h-8.31zm.615.816v19.184h7.08v-1.537h-2.156a.615.615 0 0 1 -.615-.615v-11.078c.002-.698.979-.855 1.2-.194l4.474 13.424h5.877l2.94-9.111c.215-.668 1.201-.513 1.2.19v7.075c0 .34-.275.615-.615.616h-1.23v1.23h3.385v-13.074l-3.32-.947-2.876 7.474c-.245.635-1.188.46-1.19-.22v-8.403l-2.154-.625v8.719c0 .685-.95.857-1.19.217l-3.893-10.364zm5.54 9.747 2.224 6.67c-.734-.01-1.485 0-2.224 0zm13.23 4.43v2.546h-.822z"/></svg>