<svg viewBox="0 0 24 24" xmlns="http://www.w3.org/2000/svg"><path fill="currentColor" d="m5.998 1.607-5.998 10.393 5.998 10.393h12.004l5.998-10.393-5.998-10.393zm3.967 5.513 2.695 2.78 1.598 1.595.002-.002 2.41 2.363c-.2.14-.386.252-.563.344a3.756 3.756 0 0 1 -.496.217 2.702 2.702 0 0 1 -.425.111c-.131.023-.25.034-.358.034-.13 0-.242-.014-.338-.034a1.317 1.317 0 0 1 -.24-.072.95.95 0 0 1 -.2-.113l-1.062-1.092-3.039-3.041-1.1 1.053-3.07 3.072a.974.974 0 0 1 -.2.111 1.274 1.274 0 0 1 -.237.073c-.096.02-.209.033-.338.033-.108 0-.227-.009-.358-.031a2.7 2.7 0 0 1 -.425-.114 3.748 3.748 0 0 1 -.496-.217 5.228 5.228 0 0 1 -.563-.343zm4.72.785 4.579 4.598 1.382 1.353a5.24 5.24 0 0 1 -.564.344 3.73 3.73 0 0 1 -.494.217 2.697 2.697 0 0 1 -.426.111c-.13.023-.251.034-.36.034-.129 0-.241-.014-.337-.034a1.285 1.285 0 0 1 -.385-.146c-.033-.02-.05-.036-.053-.04l-1.232-1.218-2.111-2.111-.334.334-1.56-1.547 1.896-1.897zm-5.966 4.12v2.529a2.128 2.128 0 0 1 -.356-.035 2.765 2.765 0 0 1 -.422-.116 3.708 3.708 0 0 1 -.488-.214 5.217 5.217 0 0 1 -.555-.34l1.82-1.825z"/></svg>