<svg viewBox="0 0 24 24" xmlns="http://www.w3.org/2000/svg"><path fill="currentColor" d="m18.324 9.137 1.559 1.56h2.556v2.557l1.561 1.56v-5.677zm-16.324.383-2 4.96h1.309l.37-.982h2.221l.408.982h1.338l-2.214-4.96zm4.209 0v4.955h1.238v-3.092l1.338 1.562h.188l1.338-1.556v3.091h1.238v-4.96h-1.079l-1.592 1.845-1.591-1.845zm6.283 0v4.96h2.057c1.979 0 2.88-1.046 2.88-2.472 0-1.36-.937-2.488-2.747-2.488zm1.237.91h.792c1.17 0 1.63.711 1.63 1.57 0 .728-.372 1.572-1.616 1.572h-.806zm-10.985.273.791 1.932h-1.527zm17.137.307-1.604 1.603v2.25h2.246l1.604-1.607h-2.246z"/></svg>