<svg viewBox="0 0 24 24" xmlns="http://www.w3.org/2000/svg"><path fill="currentColor" d="m19.11 8.975-3.454 6.05h3.432l3.455-6.05zm3.933 0-3.455 6.05h.959l3.453-6.05zm-10.01.781h1.767l.403 5.27h-1.31l-.025-.58a.206.206 0 0 0 -.202-.227h-1.867l.429-.757h1.21c.151 0 .328.026.328-.202l-.202-2.37c0-.15-.126-.226-.227-.075l-2.144 4.185h-.882zm-9.983 0h1.74l.353 5.27h-1.31l-.026-.58a.226.226 0 0 0 -.227-.227h-2.017l.429-.757h1.386c.151 0 .328.026.328-.202l-.151-2.37c0-.15-.126-.226-.227-.075l-2.446 4.185h-.882zm3.278 0h1.79l1.16 4.084c.05.126.15.101.176 0l.756-4.084h.782l-.933 5.27h-1.815l-1.135-4.034c-.025-.101-.151-.127-.176 0l-.706 4.033h-.832z"/></svg>