<svg viewBox="0 0 24 24" xmlns="http://www.w3.org/2000/svg"><path fill="currentColor" d="m17.523 15.3414c-.5511 0-.9993-.4486-.9993-.9997s.4483-.9993.9993-.9993c.5511 0 .9993.4483.9993.9993.0001.5511-.4482.9997-.9993.9997m-11.046 0c-.5511 0-.9993-.4486-.9993-.9997s.4482-.9993.9993-.9993.9993.4483.9993.9993c0 .5511-.4483.9997-.9993.9997m11.4045-6.02 1.9973-3.4592a.416.416 0 0 0 -.1521-.5676.416.416 0 0 0 -.5676.1521l-2.0223 3.503c-1.5466-.7058-3.2835-1.0989-5.1368-1.0989s-3.5902.3931-5.1367 1.0989l-2.0223-3.503a.4161.4161 0 0 0 -.5677-.1521.4157.4157 0 0 0 -.1521.5676l1.9973 3.4592c-3.4296 1.8653-5.7753 5.3375-6.1185 9.4396h24c-.3435-4.1021-2.6892-7.5743-6.1185-9.4396"/></svg>