<svg viewBox="0 0 24 24" xmlns="http://www.w3.org/2000/svg"><path fill="currentColor" d="m15.6 11.28v1.44a.48.48 0 0 1 -.48.48h-6.24a.48.48 0 0 1 -.48-.48v-1.44a.48.48 0 0 1 .48-.48h6.24a.48.48 0 0 1 .48.48zm-3.6 4.32a1.2 1.2 0 1 0 0 2.4 1.2 1.2 0 0 0 0-2.4zm3.12-8.4h-6.24a.48.48 0 0 0 -.48.48v1.44c0 .265.215.48.48.48h6.24a.48.48 0 0 0 .48-.48v-1.44a.48.48 0 0 0 -.48-.48zm8.04-3.204-1.716 14.736-9.468 5.268-9.456-5.268-1.68-14.736 11.136-3.996zm-6.36 2.244a1.44 1.44 0 0 0 -1.44-1.44h-6.72a1.44 1.44 0 0 0 -1.44 1.44v11.52c0 .795.645 1.44 1.44 1.44h6.72a1.44 1.44 0 0 0 1.44-1.44z"/></svg>