<svg viewBox="0 0 24 24" xmlns="http://www.w3.org/2000/svg"><path fill="currentColor" d="m24 15.2372a20.744 20.744 0 0 0 -9.86-7.5087 31.2657 31.2657 0 0 1 6.9097 1.0135l-1.5536-1.3192a29.1614 29.1614 0 0 0 -10.4464-1.9138 29.0797 29.0797 0 0 0 -6.4051.7036l-2.6446 1.8194c.335 0 .8376-.021 1.1747-.021a25.1537 25.1537 0 0 1 20.4571 10.48zm-14.8037-2.2614h3.3334l-.3329 1.183h-1.0532l-1.2103 4.3322h-1.1641l1.206-4.3322h-1.1097zm-3.771 0h1.0427l.4376 2.9544.8229-2.9544h1.1977l-1.537 5.5152h-1.1682l-.4041-2.743-.7643 2.743h-1.1685zm-5.4253 5.5152 2.8225-5.5131h1.181l-.2345 5.5131h-1.1852l.0545-.7391h-1.1119l-.3601.7391zm2.0206-1.8844h.6889l.2094-1.9474zm8.2122 1.8844 2.8288-5.5131h1.1768l-.2346 5.5131h-1.181l.0524-.7391h-1.1076l-.3644.7391zm2.0247-1.8844h.689l.2093-1.9474z"/></svg>