<svg viewBox="0 0 24 24" xmlns="http://www.w3.org/2000/svg"><path fill="currentColor" d="m13.07 9.334c2.526 0 3.74 1.997 3.74 3.706s-1.214 3.706-3.74 3.706c-2.527 0-3.74-1.997-3.74-3.706s1.213-3.706 3.74-3.706m0 5.465c.9 0 1.663-.741 1.663-1.759s-.763-1.759-1.663-1.759-1.664.741-1.664 1.759.764 1.76 1.664 1.76m4.913-7.546h2.104v9.298h-2.104zm4.618 6.567a1.398 1.398 0 1 0 .002 2.796 1.398 1.398 0 0 0 -.002-2.796m-17.065-6.567h-1.874l-3.662 9.296h2.482l.49-1.343h3.23l.452 1.343h2.506zm-1.91 6.068.974-3.242.974 3.242z"/></svg>