<svg viewBox="0 0 24 24" xmlns="http://www.w3.org/2000/svg"><path fill="currentColor" d="m20.741 3.8-11.815 12.773 14.849-6.851a11.979 11.979 0 0 0 -3.034-5.922m-8.766-3.8c-1.637 0-3.197.328-4.619.921l-1.585 13.36 7.922-14.157a12.168 12.168 0 0 0 -1.718-.124m11.918 10.459-14.07 7.874 13.201-1.566a11.976 11.976 0 0 0 .869-6.308m-5.188 11.527a12.084 12.084 0 0 0 3.8-4.16l-12.374 2.457zm-4.288-21.737-6.887 14.928 12.776-11.817a11.978 11.978 0 0 0 -5.889-3.111m-1.437 23.751a11.938 11.938 0 0 0 3.774-.945l-6.931-.822zm-11.964-16.92a11.944 11.944 0 0 0 -1.013 3.864l1.867 3.337zm5.298-5.665a12.076 12.076 0 0 0 -4.236 3.784l1.743 8.773z"/></svg>