<svg viewBox="0 0 24 24" xmlns="http://www.w3.org/2000/svg"><path fill="currentColor" d="m22.8575 6.1211c-.0092-.0866-.0486-.1598-.121-.2104.0016-.0009-10.6171-5.8787-10.618-5.8807a.2487.2487 0 0 0 -.2372 0c-.003 0-10.6129 5.8784-10.6145 5.8797-.0744.0497-.1156.1241-.1243.2124v11.8365c.0149.0565.0178.1253.071.161.0183.0788 10.6175 5.7985 10.6694 5.8507a.2456.2456 0 0 0 .2343 0c.0025-.0017 10.6135-5.7957 10.6147-5.7984.0748-.0489.115-.1262.1256-.2133zm-17.633 9.3292-3.5922 2.0837v-10.9939l3.5922 2.011zm13.551-6.8993 3.5922-2.0109v10.9938l-3.5922-2.0836zm-.7407-.1455c-2.0115 1.1316-4.0232 2.263-6.0348 3.3943a125706.698 125706.698 0 0 1 -6.0349-3.3943l6.0349-3.4706zm-12.3205 7.0418v-6.6208l6.0408 3.398v6.5444zm6.5305 3.3216v-6.5444l6.0409-3.398v6.6208c-2.0135 1.1074-4.0272 2.2145-6.0408 3.3216zm-.2448-18.2442 10.1094 5.5984-3.5771 2.003-6.4104-3.6858a.2418.2418 0 0 0 -.2439 0l-6.4104 3.6857-3.577-2.003 10.1094-5.5982zm-6.5272 15.3484 6.2823 3.4547v4.014l-9.8683-5.3898zm6.772 7.4686v-4.014l6.2824-3.4546 3.586 2.0789z"/></svg>