<svg viewBox="0 0 24 24" xmlns="http://www.w3.org/2000/svg"><path fill="currentColor" d="m18.545.545h-13.09l-5.455 8.728 2.182 14.182h3.886l-.273-3.273h1.909l.273 3.273h8.045l.273-3.273h1.909l-.273 3.273h3.886l2.183-14.182zm0 17.455h-13.09l-1.091-8.727 2.182-4.364h3.506l-.234 1.636h4.364l-.234-1.636h3.506l2.182 4.364zm-3-6.955c.301 0 .545.908.545 2.029s-.244 2.029-.545 2.029-.545-.908-.545-2.029c0-1.12.244-2.029.545-2.029zm-6.886.17c.301 0 .545.908.545 2.029s-.244 2.029-.545 2.029-.545-.908-.545-2.029.244-2.029.545-2.029z"/></svg>