<svg viewBox="0 0 24 24" xmlns="http://www.w3.org/2000/svg"><path fill="currentColor" d="m12 0c-6.628 0-12 5.373-12 12 0 6.628 5.372 12 12 12 6.627 0 12-5.372 12-12a12.014 12.014 0 0 0 -.473-3.343.6.6 0 0 0 -1.127.409h-.002c.265.943.402 1.928.402 2.934a10.73 10.73 0 0 1 -3.163 7.637 10.729 10.729 0 0 1 -7.637 3.163 10.73 10.73 0 0 1 -7.637-3.163 10.728 10.728 0 0 1 -3.163-7.637 10.73 10.73 0 0 1 3.163-7.637 10.728 10.728 0 0 1 7.637-3.163c2.576 0 5.013.896 6.958 2.54a1.466 1.466 0 1 0 .862-.84 11.953 11.953 0 0 0 -7.82-2.9zm-1.44 5.88-4.2 10.902h2.63l.687-1.848h3.969l-.719-2.042h-2.613l1.7-4.691 3.024 8.58h2.631l-4.199-10.901z"/></svg>