<svg viewBox="0 0 24 24" xmlns="http://www.w3.org/2000/svg"><path fill="currentColor" d="m17.7875 18.6811c.7687 0 .7695.7105.7695.7517.0003.2888-.1047.4303-.2229.5535l-3.6066 3.6127c-.2547.2557-.5963.4006-.9567.401h-12.8918c-.1444.0002-.2889-.0409-.4238-.1226-.2628-.1525-.46-.4826-.4551-.8042v-4.3921zm5.2757-18.681c.3202-.0053.6491.1893.8014.4518.0814.1348.1354.279.1354.4234v12.8817c0 .3601-.1402.7054-.3946.9602l-3.5466 3.5524c-.137.1371-.274.2744-.6027.2744-.0411 0-.8225 0-.8225-.7681v-17.7758zm-18.5093 5.4819s.824 0 .824.7699v12.0934h-5.3778v-8.0648c0-.361.1397-.7072.3945-.9625l3.5554-3.561c.1372-.1376.2744-.275.6039-.275zm13.7444-5.4818v5.377h-12.0433c-.7669 0-.7669-.8233-.7669-.8233 0-.3292.137-.4663.2739-.6035l3.5467-3.5524a1.3545 1.3545 0 0 1 .9585-.3977h8.0311z"/></svg>