<svg viewBox="0 0 24 24" xmlns="http://www.w3.org/2000/svg"><path fill="currentColor" d="m22.5896 16.3222c-.779 0-1.4104-.6315-1.4104-1.4105s.6314-1.4104 1.4104-1.4104 1.4104.6315 1.4104 1.4104c0 .779-.6315 1.4105-1.4104 1.4105zm-22.4389 3.505c-.35.6959-.0696 1.5438.6263 1.8938s1.5438.0695 1.8938-.6263c0 0 7.8494-16.0114 14.2545-16.1487 4.2299-.0907 4.2313 5.642 4.2313 5.642 0 .779.6314 1.4104 1.4104 1.4104s1.4104-.6314 1.4104-1.4104c0 0 .0566-8.3813-7.0196-8.4569-8.1944-.26-16.8071 17.6961-16.8071 17.6961z"/></svg>