<svg viewBox="0 0 24 24" xmlns="http://www.w3.org/2000/svg"><path fill="currentColor" d="m0 0v24h24v-24h-9.225c0 1.406-1.04 2.813-2.756 2.813a2.766 2.766 0 0 1 -2.785-2.813zm18.204 10.947c.707 0 1.314.137 1.82.412.517.264.96.717 1.33 1.361l-1.726 1.108c-.19-.338-.395-.58-.617-.728a1.422 1.422 0 0 0 -.807-.222c-.327 0-.586.09-.776.27a.896.896 0 0 0 -.285.68c0 .337.106.596.317.775.222.17.57.36 1.045.57l.554.238c.474.2.891.411 1.25.633.37.21.675.453.918.728.253.264.443.57.57.918.137.337.206.738.206 1.203a3 3 0 0 1 -.285 1.33c-.18.38-.433.701-.76.965a3.419 3.419 0 0 1 -1.171.601c-.443.127-.929.19-1.456.19a5.31 5.31 0 0 1 -1.41-.174 4.624 4.624 0 0 1 -1.139-.475 3.922 3.922 0 0 1 -.886-.712 4.48 4.48 0 0 1 -.602-.902l1.806-1.046c.242.39.527.712.855.966.337.253.78.38 1.33.38.463 0 .827-.1 1.091-.301.275-.211.412-.475.412-.792 0-.38-.143-.664-.428-.854s-.68-.396-1.187-.618l-.554-.237a8.12 8.12 0 0 1 -1.092-.554 3.64 3.64 0 0 1 -.839-.696 2.887 2.887 0 0 1 -.538-.903 3.375 3.375 0 0 1 -.19-1.187c0-.411.074-.796.222-1.155a2.91 2.91 0 0 1 .649-.934c.285-.264.628-.47 1.029-.617.4-.148.849-.222 1.345-.222zm-8.796.032h.19l4.922 10.858h-2.327l-.506-1.219h-4.369l-.506 1.219h-2.137zm.063 3.988a22.21 22.21 0 0 1 -.206.697l-.205.649a6.979 6.979 0 0 1 -.222.585l-.776 1.868h2.834l-.776-1.868a15.492 15.492 0 0 1 -.237-.633 23.741 23.741 0 0 1 -.412-1.298z"/></svg>