<svg viewBox="0 0 24 24" xmlns="http://www.w3.org/2000/svg"><path fill="currentColor" d="m16.074 16.86c-.72.616-2.157 1.035-3.812 1.035-2.032 0-3.735-.632-4.187-1.483-.161.488-.198 1.046-.198 1.402 0 0-.106 1.75 1.111 2.968 0-.632.513-1.145 1.145-1.145 1.083 0 1.082.945 1.081 1.712v.069c0 1.164.711 2.161 1.723 2.582a2.347 2.347 0 0 1 -.236-1.029c0-1.11.652-1.523 1.41-2.003.602-.383 1.272-.807 1.733-1.66a3.129 3.129 0 0 0 .378-1.494 3.14 3.14 0 0 0 -.148-.954zm-.523-16.26c.196.244.296.572.496 1.229l4.368 14.347a18.18 18.18 0 0 0 -5.222-1.768l-2.843-9.608a.37.37 0 0 0 -.71.002l-2.81 9.603a18.175 18.175 0 0 0 -5.245 1.771l4.389-14.349c.2-.656.3-.984.497-1.227a1.613 1.613 0 0 1 .654-.484c.29-.116.632-.116 1.318-.116h3.135c.686 0 1.03 0 1.32.117a1.614 1.614 0 0 1 .652.483z"/></svg>