<svg viewBox="0 0 24 24" xmlns="http://www.w3.org/2000/svg"><path fill="currentColor" d="m0 21.653s3.154-.355 5.612-2.384c2.339-1.93 3.185-3.592 3.77-5.476.584-1.885.671-6.419.671-7.764v-3.683h-1.455v1.365c-.024 2.041-.2 5.918-1.135 8.444-2.26 6.087-7.463 6.62-7.463 6.62zm24 0s-3.154-.355-5.61-2.384c-2.342-1.93-3.187-3.592-3.772-5.476-.583-1.885-.671-6.419-.671-7.764v-3.683h1.453l.001 1.365c.024 2.041.202 5.918 1.138 8.444 2.258 6.087 7.46 6.62 7.46 6.62zm-13.341-19.305h2.685v19.306h-2.684z"/></svg>