<svg viewBox="0 0 24 24" xmlns="http://www.w3.org/2000/svg"><path fill="currentColor" d="m12 0a11.992 11.992 0 0 0 -11.985 11.985 12.019 12.019 0 0 0 11.985 12.015 12.019 12.019 0 0 0 11.985-12.015 11.992 11.992 0 0 0 -11.981-11.985zm0 .903a11.078 11.078 0 0 1 11.085 11.078c0 6.123-4.958 11.112-11.085 11.112a11.104 11.104 0 0 1 -11.078-11.108 11.078 11.078 0 0 1 11.074-11.078zm.087 1.16-.43 1.252-5.674 16.063-.204.604h12.654l-.23-.604-5.679-16.068zm0 2.797 2.007 5.643-3.024 8.553h-4.014zm2.502 7.038 2.532 7.155h-5.09z"/></svg>