<svg viewBox="0 0 24 24" xmlns="http://www.w3.org/2000/svg"><path fill="currentColor" d="m12 24c-6.627 0-12-5.373-12-12s5.373-12 12-12 12 5.373 12 12-5.373 12-12 12zm-4.575-20.786c-.621 0-1.125.503-1.125 1.124v6a1.124 1.124 0 0 0 2.25 0v-6c0-.62-.504-1.124-1.125-1.124zm0 9.314c-.621 0-1.125.503-1.125 1.125v6a1.124 1.124 0 0 0 2.25 0v-6c0-.622-.504-1.125-1.125-1.125zm4.152-6.856c-.621 0-1.125.504-1.125 1.125v10.388a1.124 1.124 0 0 0 2.25 0v-10.388c0-.621-.504-1.125-1.125-1.125zm4.151 6.856c-.62 0-1.124.503-1.124 1.125v1.056a1.124 1.124 0 1 0 2.249 0v-1.056c0-.622-.504-1.125-1.125-1.125zm0-4.37c-.62 0-1.124.503-1.124 1.124v1.056a1.124 1.124 0 0 0 2.249 0v-1.056c0-.62-.504-1.124-1.125-1.124zm4.152 2.422c-.62 0-1.124.503-1.124 1.124v.574a1.124 1.124 0 1 0 2.249 0v-.574c0-.62-.504-1.124-1.125-1.124z"/></svg>