<svg viewBox="0 0 24 24" xmlns="http://www.w3.org/2000/svg"><path fill="currentColor" d="m19.848 7.848c-.992 0-1.902.348-2.616.928-.714-.58-1.624-.928-2.616-.928s-1.902.348-2.616.928c-.714-.58-1.624-.928-2.616-.928s-1.902.348-2.616.928c-.714-.58-1.624-.928-2.616-.928-2.293 0-4.152 1.859-4.152 4.152s1.859 4.152 4.152 4.152c.992 0 1.902-.348 2.616-.928.714.58 1.624.928 2.616.928s1.902-.348 2.616-.928c.714.58 1.624.928 2.616.928s1.902-.348 2.616-.928c.714.58 1.624.928 2.616.928 2.293 0 4.152-1.859 4.152-4.152s-1.859-4.152-4.152-4.152zm-2.616 6.018c-.376-.526-.598-1.17-.598-1.866s.222-1.34.598-1.866c.376.526.598 1.17.598 1.866s-.222 1.34-.598 1.866zm-5.232 0c-.376-.526-.598-1.17-.598-1.866s.222-1.34.598-1.866c.376.526.598 1.17.598 1.866s-.222 1.34-.598 1.866zm-5.232 0c-.376-.526-.598-1.17-.598-1.866s.222-1.34.598-1.866c.376.526.598 1.17.598 1.866s-.222 1.34-.598 1.866zm-5.83-1.866c0-1.775 1.439-3.214 3.214-3.214.736 0 1.414.248 1.956.665-.548.703-.876 1.588-.876 2.549s.328 1.846.876 2.549c-.542.416-1.22.665-1.956.665-1.775 0-3.214-1.439-3.214-3.214zm6.49 2.549c.548-.703.876-1.588.876-2.549s-.328-1.846-.876-2.549c.542-.416 1.22-.665 1.956-.665s1.414.248 1.956.665c-.549.704-.876 1.588-.876 2.549s.328 1.846.876 2.549c-.542.416-1.22.665-1.956.665s-1.414-.248-1.956-.665zm5.232 0c.549-.704.876-1.588.876-2.549s-.328-1.846-.876-2.55c.542-.416 1.22-.665 1.956-.665s1.414.248 1.956.665c-.549.704-.876 1.588-.876 2.549s.328 1.846.876 2.549c-.542.416-1.22.665-1.956.665-.736.001-1.414-.247-1.956-.664zm7.188.665c-.736 0-1.414-.248-1.956-.665.548-.704.876-1.588.876-2.549s-.328-1.846-.876-2.549c.542-.416 1.22-.665 1.956-.665 1.775 0 3.214 1.439 3.214 3.214s-1.439 3.214-3.214 3.214z"/></svg>