<svg viewBox="0 0 24 24" xmlns="http://www.w3.org/2000/svg"><path fill="currentColor" d="m15.716 4.636-2.226 1.486-2.295-3.439 2.228-1.486zm1.811 10.331 3.806 5.703-4.533 3.025-3.806-5.703-.664-.995 4.533-3.025zm-5.71 3.81.838 1.256-3.45 2.303-1.503-2.25.754-.504 2.697-1.8zm7.596-6.507.968-.645 1.501 2.25-2.227 1.487-.838-1.256 1.26-.84zm-.596 1.836-.664-.995 1.26-.84.664.994zm-15.025-1.513-.753.503-2.295-3.439 3.45-2.302 1.61 2.41-2.698 1.8 2.697-1.8.686 1.029zm7.721-6.639.687 1.029-4.534 3.025-.686-1.028-3.77-5.65 4.532-3.025zm3.236-.672-1.26.84-.686-1.028-1.609-2.41 2.228-1.487 2.295 3.439zm-5.629 15.295-.664-.995 2.697-1.8.664.995zm9.697-6.471-.664-.995 1.26-.84.664.994zm-15.025-1.513-.686-1.028 2.697-1.8.686 1.029zm9.697-6.471-.686-1.028 1.26-.84.686 1.028zm4.038 8.845-4.533 3.025-.664-.995 4.533-3.025zm-6.014-9.013.687 1.029-4.534 3.025-.686-1.028zm-9.006-.822.855 1.283-1.282.855-.856-1.282zm4.62 15.373.856 1.283-1.282.855-.856-1.282zm-3.373 1.292-3.754-5.672 20.063-13.419 3.937 5.581z"/></svg>