<svg viewBox="0 0 24 24" xmlns="http://www.w3.org/2000/svg"><path fill="currentColor" d="m14.521 8.11a1.497 1.497 0 0 1 .433 2.102l-3.511 5.441a1.496 1.496 0 0 1 -2.068.457 1.507 1.507 0 0 1 -.44-2.08l3.513-5.44c.215-.335.554-.57.943-.655.39-.085.796-.04 1.13.175zm-2.541 14.92c-7.267 0-11.98-5.24-11.98-10.692v-.676c0-5.545 4.713-10.692 11.98-10.692 7.266 0 12.02 5.147 12.02 10.692v.676c0 5.453-4.713 10.692-12.02 10.692zm8.133-11.31c0-3.974-2.888-7.51-8.133-7.51s-8.087 3.542-8.087 7.51v.497c0 3.974 2.888 7.578 8.087 7.578 5.198 0 8.133-3.604 8.133-7.578z"/></svg>