<svg viewBox="0 0 24 24" xmlns="http://www.w3.org/2000/svg"><path fill="currentColor" d="m20.514.508v.002h-18.711c-.75 0-1.724.625-1.803 1.76v17.133h.002v2.325c.08 1.136 1.05 1.763 1.8 1.763h1.505l.002-.002h18.869c1.256-.053 1.766-1.066 1.822-1.699v-3.023h-.002v-16.558c-.056-.633-.567-1.648-1.824-1.701zm-17.102 1.115h17.154c.898 0 1.618.72 1.618 1.617v16.64c0 .898-.72 1.62-1.618 1.62h-17.154a1.616 1.616 0 0 1 -1.619-1.62v-16.64c0-.897.722-1.617 1.62-1.617zm3.315 12.412-1.895 5.037h.703l.526-1.467h2.02l.497 1.467h.744l-1.824-5.037zm8.43.008v5.037h.679v-1.767l.793-.758 1.76 2.525h.884l-2.154-3.002 2.098-2.035h-.94l-2.441 2.441v-2.441h-.68zm-5.153.027v5.037h.682v-2.351h2.628v2.351h.682v-5.037h-.682v2.084h-2.628v-2.084zm-2.926.717h.014l.742 2.217h-1.563z"/></svg>