<svg viewBox="0 0 24 24" xmlns="http://www.w3.org/2000/svg"><path fill="currentColor" d="m10.2941 2.991a3.0286 3.0286 0 0 1 4.4499 1.2039l7.0018 14.8042a11.937 11.937 0 0 0 2.2539-6.9131c.0467-6.6291-5.2885-12.039-11.9163-12.0856-6.6278-.0467-12.0364 5.2885-12.083 11.9163a11.9356 11.9356 0 0 0 2.2213 7.0344l.2813-.0613 4.5692-1.008c.1287-.0286.1967.1454.084.2127l-3.7826 2.2425a11.9563 11.9563 0 0 0 8.5431 3.6625c3.76.0267 7.1258-1.68 9.3444-4.3705l-11.4516-12.0555a3.0272 3.0272 0 0 1 .4846-4.5826zm2.1493 13.6089-7.3731.64a1.302 1.302 0 1 1 .1866-2.5666l7.2031 1.6972c.1287.0314.114.2174-.0166.2294zm-3.4134-6.4839 8.9404 7.2324c.102.0827.01.2447-.1133.198l-10.7536-4.0751a1.9593 1.9593 0 1 1 1.9266-3.3552z"/></svg>