<svg viewBox="0 0 24 24" xmlns="http://www.w3.org/2000/svg"><path fill="currentColor" d="m4.9855 0c-.2941.0031-.5335.2466-.534.5482l-.0055 4.9078c0 .1451.06.2835.159.3891a.5322.5322 0 0 0 .3806.1562h3.4282l8.197 17.6805a.5365.5365 0 0 0 .4885.3181h5.811c.2969 0 .5426-.2448.5426-.5482v-4.9077c0-.3035-.2392-.5482-.5425-.5482h-2.0138l-8.1572-17.6805c-.0924-.1913-.283-.3153-.4942-.3153h-7.254zm.5397 1.0907h6.3678l8.16 17.6804a.5365.5365 0 0 0 .4885.3181h1.8178v3.8173h-4.9223l-8.1968-17.6805a.536.536 0 0 0 -.4885-.318h-3.2294zm2.0137 8.2366c-.2098.0011-.3937.1193-.4857.3096l-6.453 13.5764a.5506.5506 0 0 0 .0313.5282.5334.5334 0 0 0 .4544.25h6.169a.5468.5468 0 0 0 .497-.3096l3.38-7.166a.5405.5405 0 0 0 -.0029-.4686l-3.093-6.4103a.5468.5468 0 0 0 -.4942-.3096zm.0057 1.8036 2.488 5.1522-3.1214 6.6206h-4.9647z"/></svg>