<svg viewBox="0 0 24 24" xmlns="http://www.w3.org/2000/svg"><path fill="currentColor" d="m5.2 0c-.552 0-1 .43-1 .958v10.542h15.6v-10.542c0-.529-.448-.958-1-.958zm3.2 2.3h2.4c.331 0 .6.257.6.575a.588.588 0 0 1 -.6.575h-2.4a.588.588 0 0 1 -.6-.575c0-.318.269-.575.6-.575zm-7.336 9.7c-.588 0-1.064.448-1.064 1v10c0 .552.476 1 1.064 1h7.736a1 1 0 0 1 -1-1v-8h-3a.6.6 0 1 1 0-1.201h3v-1.799zm21.936 0h-14.701v11c0 .552.477 1 1.064 1h13.637a1 1 0 0 0 1-1v-10a1 1 0 0 0 -1-1zm-9.8 10.2h-3.6v-1.2h3.6zm2.4-1.8h-6v-1.2h6zm-.6-5.4h-2.4a.6.6 0 0 1 0-1.201h2.4a.602.602 0 0 1 0 1.201z"/></svg>