<svg viewBox="0 0 24 24" xmlns="http://www.w3.org/2000/svg"><path fill="currentColor" d="m1.7997 22.1998h4.2001v1.8002h-5.9994v-6.0002h1.7993zm10.8232-12.3023-7.6353 7.6353 1.4792 1.4792 7.6345-7.6362zm-8.2579 5.2818-.391-.3908c-.5042-.5042-.5828-1.3004-.1869-1.8934l4.6036-6.8958h-7.3928c-.5513.0014-.9975.4487-.9975 1v5.5002l3.5021 3.6036zm19.6346-14.1794v8.9306a2 2 0 0 1 -.8893 1.6632l-12.2834 8.2005a.9999.9999 0 0 1 -1.2622-.1246l-1.5247-1.5239c.3313-.3313 6.4656-6.4672 6.7684-6.7698l-2.1855-2.1855-6.7696 6.7696-1.5258-1.525a1.0001 1.0001 0 0 1 -.1246-1.2623l8.2005-12.2834a2 2 0 0 1 1.6632-.8893h8.9331c.5522 0 .9999.4477.9999.9999zm-2.9997 5.0003c0-1.6567-1.343-2.9997-2.9997-2.9997s-2.9997 1.343-2.9997 2.9997 1.343 2.9997 2.9997 2.9997 2.9997-1.343 2.9997-2.9997zm-10.7279 14.4623c-.4008 0-.7776-.156-1.0609-.4392l-.368-.3679-.8435.8417 3.4996 3.4996h5.5003c.5522 0 .9999-.4477.9999-.9999v-7.3899l-6.8949 4.6031a1.4944 1.4944 0 0 1 -.8325.2525z"/></svg>