<svg viewBox="0 0 24 24" xmlns="http://www.w3.org/2000/svg"><path fill="currentColor" d="m10.537.904-3.935 11.136 4.798.037-3.748 11.018v.002l10.344-14.707h-5.022l4.873-7.487h-3.824zm-3.634 4.006a.585.585 0 0 0 -.412.17l-6.336 6.205a.682.682 0 0 0 0 .865l6.448 6.396a.625.625 0 0 0 .824 0 .638.638 0 0 0 0-.865l-5.436-5.53a.641.641 0 0 1 0-.865l5.324-5.344a.574.574 0 0 0 0-.865.586.586 0 0 0 -.412-.169zm10.193 0a.585.585 0 0 0 -.412.17.572.572 0 0 0 0 .864l5.435 5.343a.64.64 0 0 1 0 .866l-5.548 5.53a.64.64 0 0 0 0 .865.625.625 0 0 0 .824 0l6.45-6.396a.68.68 0 0 0 0-.865l-6.337-6.208a.585.585 0 0 0 -.412-.169z"/></svg>