<svg viewBox="0 0 24 24" xmlns="http://www.w3.org/2000/svg"><path fill="currentColor" d="m7.8857.7537c3.3235-1.2537 7.2043-.9353 10.269.8956 2.826 1.6916 5.055 4.7166 5.5526 7.5028-1.2538 0-1.5523.0398-2.7862.0398-.796-2.5872-3.7216-5.4729-6.1097-6.07-3.1246-.6567-5.6321-.199-7.8014 1.3335-1.592 1.0946-3.0847 3.005-3.642 4.8758-.8159 2.408-.1592 5.8112 1.234 7.9208 1.0945 1.5722 3.005 3.0648 4.836 3.642 1.7911.5572 4.7166.0397 6.4878-.5971 2.4877-.9155 4.3186-3.1842 5.1147-5.6918l-3.4628.0398c-.1593 1.1543-.3384 1.5523-1.035 2.8857l-9.4929-.0199v-11.085h9.473c1.1345 1.4328 1.3136 3.6817 1.3335 5.5723 0 0 3.8011.02 6.1296 0-.0398 3.6022-1.5523 7.1645-4.4181 9.3935-2.0897 1.6518-4.7166 2.607-7.3834 2.607-3.7216.0598-7.4232-1.7314-9.6522-4.7166-1.433-1.8309-2.1892-4.0798-2.4877-6.3485-.0796-1.3931.02-2.0897.0398-2.1693.2587-1.612.6767-3.2041 1.4927-4.5971 1.3731-2.4878 3.642-4.4381 6.3087-5.4133m1.811 8.1795v6.2291l4.5972.02c1.0349-1.1942.995-1.9703-.0398-3.0649 1.0349-1.0946 1.0946-2.2488.02-3.1842h-4.5775z"/></svg>