<svg viewBox="0 0 24 24" xmlns="http://www.w3.org/2000/svg"><path fill="currentColor" d="m2.05 3.54-.88 4.16h3.28c2.52 0 3.28-1.23 3.28-2.34 0-.82-.47-1.82-2.52-1.82zm8.49 0-.88 4.16h3.28c2.56 0 3.28-1.23 3.28-2.34 0-.82-.47-1.82-2.52-1.82zm7.78 3.69-.93 4.16h3.28c2.57 0 3.33-1.17 3.33-2.34 0-.82-.47-1.82-2.5-1.82zm-17.44 2.57-.88 4.16h3.28c2.57 0 3.28-1.23 3.28-2.34 0-.82-.47-1.82-2.52-1.82zm8.55 0-.93 4.16h3.27c2.57 0 3.34-1.23 3.34-2.34 0-.82-.47-1.82-2.52-1.82h-3.17m7.67 3.93-.87 4.15h3.28c2.5 0 3.27-1.17 3.27-2.34 0-.82-.47-1.81-2.51-1.81zm-8.89 2.57-.88 4.16h3.28c2.51 0 3.27-1.23 3.27-2.34 0-.82-.46-1.82-2.51-1.82z"/></svg>