<svg viewBox="0 0 24 24" xmlns="http://www.w3.org/2000/svg"><path fill="currentColor" d="m21.809 5.524-9.003-5.345-.013-.007.078-.045h-.166a1.282 1.282 0 0 0 -1.196.043l-.699.403-8.604 4.954a1.285 1.285 0 0 0 -.644 1.113v10.718c0 .46.245.884.644 1.113l9.304 5.357c.402.232.898.228 1.297-.009l9.002-5.345c.39-.231.629-.651.629-1.105v-10.741c0-.453-.239-.873-.629-1.104zm-19.282.559 9.316-5.364a.642.642 0 0 1 .636.012l9.002 5.345a.638.638 0 0 1 .207.203l-4.543 2.555-4.498-2.7a.963.963 0 0 0 -.968-.014l-4.849 2.728-4.543-2.519a.644.644 0 0 1 .24-.246zm14.13 8.293-4.496-2.492v-5.243a.32.32 0 0 1 .155.045l4.341 2.605zm-4.763-1.906 4.692 2.601-4.431 2.659-4.648-2.615a.317.317 0 0 1 -.115-.112zm-.064 10.802-9.304-5.357a.643.643 0 0 1 -.322-.557v-10.34l4.496 2.492v5.324c0 .348.188.669.491.84l4.811 2.706.157.088v4.887a.637.637 0 0 1 -.329-.083z"/></svg>