<svg viewBox="0 0 24 24" xmlns="http://www.w3.org/2000/svg"><path fill="currentColor" d="m6.375 23.999c-.95 0-1.95-.749-1.95-2.2v-3.4c0-1.349.85-2.899 2.05-3.548l4.75-2.8-4.75-2.8c-1.15-.751-2.05-2.251-2.05-3.601v-3.45c0-1.45 1-2.2 2.002-2.2.4 0 .849.1 1.249.35l10.7 6.35c.75.45 1.15 1.149 1.15 1.849 0 .75-.452 1.45-1.15 1.85l-2.55 1.5 2.55 1.501c.75.45 1.2 1.15 1.2 1.85 0 .75-.452 1.45-1.2 1.85l-10.702 6.55c-.45.25-.85.35-1.3.35zm7.15-10.599-5.85 3.45c-.45.25-.9 1.05-.9 1.55v3.05l10.15-6zm-6.75-10.8v3.05c0 .5.45 1.3.9 1.55l5.85 3.45 3.45-2.05z"/></svg>