<svg viewBox="0 0 24 24" xmlns="http://www.w3.org/2000/svg"><path fill="currentColor" d="m12 0c-6.627 0-12 5.373-12 12s5.373 12 12 12 12-5.373 12-12-5.373-12-12-12zm0 .78c6.196 0 11.219 5.023 11.219 11.22 0 6.196-5.022 11.219-11.219 11.219s-11.219-5.023-11.219-11.219 5.023-11.22 11.219-11.22zm-.678.63c-.33.014-.66.042-.992.078l-.107 2.944a9.95 9.95 0 0 1 .71-.094l.07-1.988-.013-.137.043.13.664 1.489h.606l.664-1.488.04-.131-.01.137.07 1.988c.232.022.473.054.71.094l-.109-2.944a14.746 14.746 0 0 0 -.992-.078l-.653 1.625-.023.12-.023-.12zm6.696 1.824-1.543 2.428c.195.15.452.371.617.522l1.453-.754.092-.069-.069.094-.752 1.453c.163.175.398.458.53.63l2.43-1.544a16.135 16.135 0 0 0 -.46-.568l-1.539 1.014-.105.092.078-.115.68-1.356-.48-.48-1.356.68-.115.078.091-.106 1.018-1.539c-.18-.152-.351-.291-.57-.46zm-12.518.551c-.36.037-.638.283-1.393 1.125a18.97 18.97 0 0 0 -.757.914l2.074 1.967c.687-.76.966-1.042 1.508-1.613.383-.405.6-.87.216-1.317-.208-.242-.558-.295-.85-.175l-.028.01.01-.026a.7.7 0 0 0 -.243-.734.724.724 0 0 0 -.537-.15zm.006.615c.136-.037.277.06.308.2.032.14-.056.272-.154.382-.22.25-1.031 1.098-1.031 1.098l-.402-.383c.417-.51.861-.974 1.062-1.158a.55.55 0 0 1 .217-.139zm6.494.483a7.114 7.114 0 0 0 -7.08 6.388v.002a7.122 7.122 0 0 0 8.516 7.697 7.112 7.112 0 0 0 5.68-6.97 7.122 7.122 0 0 0 -7.116-7.115zm-5.537.242c.047 0 .096.013.14.043.088.059.128.16.106.26-.026.119-.125.231-.205.318l-1.045 1.12-.42-.4s.787-.832 1.045-1.099c.102-.106.168-.17.238-.205a.331.331 0 0 1 .14-.037zm5.537.693a6.175 6.175 0 0 1 6.182 6.182h-6.182v6.182a6.175 6.175 0 0 1 -6.182-6.182h6.182z"/></svg>