<svg viewBox="0 0 24 24" xmlns="http://www.w3.org/2000/svg"><path fill="currentColor" d="m12.53029 7.32626v16.64847c-.2018.02527-.30306.02527-.5302.02527-.22738 0-.3539 0-.55609-.02527v-16.64847zm-2.39964.00006v16.57275c-.42958-.076-.85921-.2022-1.08628-.27786v-16.29489zm4.79978-.00006v16.26937c-.55577.17692-.78316.25265-1.08628.30344v-16.57281zm-7.1998 7.73063v8.15995c-.22739-.07574-.32864-.1262-.55577-.2274-.17693-.07572-.30312-.12619-.53051-.25264v-7.67991zm9.62502 0v7.67984c-.42932.20219-.73237.3539-1.11155.48004v-8.15987h1.11155zm-5.3555-15.05689c6.64404 0 11.99985 5.38108 11.99985 12.05063 0 2.65267-.8589 5.22935-2.42528 7.225-.7075.93488-1.3894 1.54112-2.9306 2.70314v-6.92188h1.08629v4.90097c2.27388-2.6022 3.25891-4.9767 3.25891-7.9325 0-6.16424-4.90097-11.14126-10.98922-11.14126-6.08858 0-11.01481 5.00222-11.01481 11.19173 0 2.82934.90936 5.02717 3.25891 7.88203v-4.90097h1.11155v6.92188c-1.23794-.73238-2.39996-1.91998-3.41057-3.41032-1.28848-1.94517-1.94518-4.11779-1.94518-6.44215 0-6.74522 5.33061-12.1263 12.00016-12.1263zm.00001 2.65267 3.63777 2.85454-.63151.73276-3.00626-2.34955-3.00658 2.34955-.63144-.7075z"/></svg>