<svg viewBox="0 0 24 24" xmlns="http://www.w3.org/2000/svg"><path fill="currentColor" d="m12 0c-6.627 0-12 5.373-12 12s5.373 12 12 12 12-5.373 12-12c-.004-6.626-5.374-11.996-12-12zm0 22.88c-6.009 0-10.88-4.871-10.88-10.88s4.871-10.88 10.88-10.88 10.88 4.871 10.88 10.88c-.006 6.006-4.874 10.874-10.88 10.88zm4.954-18.374h-.821v4.108h-8.24v-4.108h-.847a8.978 8.978 0 0 0 0 14.988h.846v-4.108h8.24v4.108h.822a8.978 8.978 0 0 0 0-14.988zm-10.207 13.37a7.86 7.86 0 0 1 0-11.752zm9.386-3.635h-8.24v-4.507h8.24zm1.12 3.61v-11.727a7.882 7.882 0 0 1 0 11.727z"/></svg>