<svg viewBox="0 0 24 24" xmlns="http://www.w3.org/2000/svg"><path fill="currentColor" d="m0 23.291h19.601v-2.978h-16.621v-16.624h16.626v10.911h-1.422l2.908 2.909 2.908-2.91h-1.417v-13.89h-22.583zm16.148-9.935c-.191-.406-.432-.739-.72-.997-.287-.258-.599-.454-.933-.583-.337-.132-.641-.217-.916-.254.251-.034.496-.134.735-.296.241-.161.455-.364.647-.609.192-.247.345-.535.458-.863.115-.33.171-.686.171-1.069 0-.648-.126-1.186-.377-1.617-.252-.432-.597-.775-1.033-1.033s-.948-.44-1.536-.547c-.586-.108-1.21-.162-1.868-.162-.754 0-1.382.018-1.887.054-.502.037-.945.083-1.329.145v12.933c.684.083 1.293.141 1.834.171.539.03 1.082.044 1.634.044.718 0 1.404-.054 2.057-.162.652-.107 1.227-.304 1.723-.592.499-.288.893-.68 1.187-1.177.294-.498.441-1.135.441-1.914 0-.575-.096-1.065-.288-1.472zm-5.983-6.035c.91-.111 1.873-.054 2.301.304.38.317.607.599.607 1.42 0 .751-.357 1.195-.608 1.356s-.59.368-1.403.368-.897 0-.897 0zm3.029 8.68c-.449.39-1.114.552-1.816.552-.79 0-1.213-.072-1.213-.072v-3.737h1.132c.711 0 1.438.126 1.832.464.509.437.611.895.611 1.505.001.609-.212.998-.546 1.288z"/></svg>