<svg viewBox="0 0 24 24" xmlns="http://www.w3.org/2000/svg"><path fill="currentColor" d="m13.556 12.924c.21 0 .386.017.585.056 1.043.206 1.898.964 2.246 1.956.101.319.234.797.319 1.125l.111.433.446-.009c3.552-.075 6.456-2.965 6.456-6.546.001-5.426-4.524-9.939-11.438-9.939-2.852.009-5.556 1.046-7.603 2.715-2.683 2.2-4.397 5.543-4.397 9.286.002.96.118 1.926.334 2.818.788 3.268 2.91 6.015 5.759 7.628 1.723.971 3.784 1.547 5.909 1.553.521 0 1.052-.036 1.554-.099 3.126-.405 5.873-2.012 7.765-4.339l.124-.152-.24-.868-.463.122c-1.436.381-2.908.578-4.463.576-1.243 0-2.428-.128-3.598-.375-1.054-.212-1.911-.979-2.248-1.98-.109-.315-.158-.608-.156-.958-.011-.782.257-1.425.741-1.975.549-.631 1.357-1.028 2.257-1.028zm-1.275-11.799c6.398 0 10.313 4.11 10.313 8.813 0 2.811-2.168 5.119-4.919 5.397-.073-.261-.152-.536-.219-.746-1.741-5.457-5.889-9.682-11.226-11.632 1.735-1.177 3.78-1.839 6.051-1.832zm-10.876 10.876c0-3.283 1.455-6.227 3.756-8.223 4.377 1.403 7.964 4.397 10.058 8.371-.272-.12-.559-.212-.859-.272-1.219-.253-2.511-.394-3.807-.394-3.24.006-6.345.859-9.001 2.325-.098-.586-.147-1.183-.147-1.807zm11.324 7.966c1.224.257 2.526.398 3.829.398.996 0 1.986-.083 2.948-.234-1.519 1.352-3.418 2.282-5.519 2.614-.799-.938-1.493-1.95-2.072-3.032.259.109.531.195.814.254zm-.084 2.904c-.12.004-.242.006-.364.006-1.825.006-3.486-.424-4.994-1.209.433-1.907 1.172-3.675 2.171-5.277.034.294.099.587.186.848.67 2.041 1.703 3.963 3.001 5.632zm-2.192-9.664c-1.954 2.19-3.43 4.913-4.176 7.864-2.143-1.421-3.752-3.582-4.467-6.117 2.586-1.508 5.532-2.351 8.744-2.346.18 0 .358.002.536.008-.232.174-.446.371-.637.591z"/></svg>