<svg viewBox="0 0 24 24" xmlns="http://www.w3.org/2000/svg"><path fill="currentColor" d="m16.414 14.62h1.103v-2.896a2.484 2.484 0 0 0 -2.483-2.483 2.484 2.484 0 0 0 -2.482 2.483v2.897h1.103v-2.897c0-.837.618-1.517 1.38-1.517.76 0 1.379.68 1.379 1.517zm-6.07-5.24h1.104v2.896a2.484 2.484 0 0 1 -2.482 2.483 2.484 2.484 0 0 1 -2.483-2.483v-2.897h1.103v2.897c0 .837.618 1.517 1.38 1.517.76 0 1.379-.68 1.379-1.517zm-10.344-2.346v4.966c0 .046.001.093.004.139h-.004v2.482h.965l.055-.48a2.76 2.76 0 0 0 4.498-2.141 2.76 2.76 0 0 0 -4.414-2.208v-2.757zm2.69 3.172c.951 0 1.724.803 1.724 1.793s-.773 1.793-1.725 1.793c-.951 0-1.724-.803-1.724-1.793s.773-1.793 1.724-1.793zm18.552-.965a2.76 2.76 0 0 0 -2.76 2.759 2.76 2.76 0 0 0 4.414 2.207v2.758h1.104v-4.965a2.15 2.15 0 0 0 -.004-.139h.004v-2.481h-.965l-.055.48a2.741 2.741 0 0 0 -1.738-.617zm.069.965c.951 0 1.724.803 1.724 1.793s-.773 1.793-1.724 1.793c-.952 0-1.725-.803-1.725-1.793s.773-1.793 1.725-1.793z"/></svg>