<svg viewBox="0 0 24 24" xmlns="http://www.w3.org/2000/svg"><path fill="currentColor" d="m11.746.254c-6.481 0-11.746 5.265-11.746 11.746s5.265 11.746 11.746 11.746c6.482 0 11.746-5.265 11.746-11.746 0-1.44-.26-2.82-.734-4.097l-.264-.709-1.118 1.118.1.288c.373 1.064.575 2.207.575 3.4a10.297 10.297 0 0 1 -10.305 10.305 10.297 10.297 0 0 1 -10.305-10.305 10.297 10.297 0 0 1 10.305-10.305c1.817 0 3.52.47 5.002 1.293l.32.178 1.054-1.053-.553-.316a11.699 11.699 0 0 0 -5.823-1.543zm11.224.587-13.92 13.92-3.722-3.721-1.031 1.03 4.752 4.753 14.951-14.951z"/></svg>