<svg viewBox="0 0 24 24" xmlns="http://www.w3.org/2000/svg"><path fill="currentColor" d="m6.162 1.557c-.18.006-.263.137-.293.18l-5.819 10.083c-.07.142-.06.27-.004.356 1.942 3.36 3.882 6.723 5.822 10.085a.337.337 0 0 0 .305.182h11.65c.138.003.26-.09.31-.182 1.94-3.36 3.878-6.721 5.82-10.08a.361.361 0 0 0 0-.358l-5.82-10.085c-.112-.193-.308-.181-.308-.181zm.804.719h9.513l-6.343 3.664zm-.427.603 2.964 3.426-2.963 1.713zm10.3.018-3.86 6.685-5.789-1.113zm1.341.357 4.756 8.246-4.756-.916zm-12.36.002v5.176l-4.48 2.587zm11.64 0v11.142l-3.857-4.457zm-10.333 5.93 5.847 1.126 3.898 4.502-5.842-1.125zm-1.307.074v3.425l-4.45-.855zm.72.341 3.856 4.457-3.857 6.685zm11.64 1.713 4.447.856-4.447 2.57zm-17.118 1.186 4.76.916v7.33zm21.597.48-4.479 7.763v-5.175zm-11.64 1.437 5.79 1.114-9.649 5.572zm6.44 1.565v5.138l-2.964-3.425zm-3.597 2.078 3.172 3.664h-9.514z"/></svg>