<svg viewBox="0 0 24 24" xmlns="http://www.w3.org/2000/svg"><path fill="currentColor" d="m11.901 11.554.802-4.1.798 4.1zm2.869-6.52h-4.15l-2.42 10.85 4.503-3.635 4.695 3.934zm-2.067 8.156-7.509 6.072h14.756zm11.297-8.17v2.77h-2.066v11.45h-.882l-2.436-2.04v-9.41h-2.057v-2.77zm-17.128 11.844c.548-.458.642-1.024.642-1.532v-2.132h-2.98v2.894a.75.75 0 0 1 -.748.751c-.414 0-.722-.336-.722-.75v-8.202c0-.414.308-.75.722-.75a.75.75 0 0 1 .749.75v2.913h2.975v-3.021c0-1.67-1.092-3.044-3.75-3.047-2.728 0-3.76 1.38-3.76 3.05v8.563c0 1.655 1.314 2.907 2.995 2.907h.922z"/></svg>