<svg viewBox="0 0 24 24" xmlns="http://www.w3.org/2000/svg"><path fill="currentColor" d="m12 24c-6.686 0-11.932-5.413-11.932-12.051 0-6.536 5.246-11.949 11.932-11.949s11.932 5.413 11.932 11.949c0 6.638-5.246 12.051-11.932 12.051zm0-5.106c5.452 0 9.36-3.473 11.109-6.945-1.234-2.655-4.937-6.843-11.109-6.843-5.452 0-9.36 3.37-11.109 6.843 1.646 3.471 5.657 6.945 11.109 6.945zm0-.613c-3.497 0-6.377-2.86-6.377-6.332s2.88-6.332 6.377-6.332 6.377 2.86 6.377 6.332c0 3.574-2.88 6.332-6.377 6.332z"/></svg>