<svg viewBox="0 0 24 24" xmlns="http://www.w3.org/2000/svg"><path fill="currentColor" d="m18.942 20.154c-.687.323-1.719.302-2.986-.072l.213.547-.389-.226-1.537-.907h.001l-.033-.158c.572.171 3.535 1.169 4.731.816zm-11.013 1.891c-.127.229.179.645.179.645-.687-.534-1.276.346-1.276.346-.039-.385.397-.669.397-.669-.715.113-1.549.78-1.549.78-.097-.333.319-.556.319-.556 0-.263.361-.236.763-.347.272-.074.679-.186.919-.252.005-.004.007-.01.011-.013 0-.002.303-.348.671-.745.291-.31.614-.648.868-.88.118.018.226.031.294.037-.243.199-.651.62-.999.994-.26.28-.487.536-.597.66zm2.239-7.962 8.822 6.05c-.013.007-.029.011-.042.018-.008-.004-.163-.064-.328-.129-.081-.033-.178-.072-.29-.118h-.001c-.005-.002-.012-.005-.019-.009-.772-.317-2.27-.951-4.634-2.041-2.4-1.112-3.815-1.798-5.028-2.388l.001.002s-.001-.002-.002-.002l4.363 3.974.006.004.011.011h.002l.256.211-1.153.348c-.001-.006-.005-.013-.006-.018-.006-.016-.011-.033-.017-.051-.003-.008-.006-.017-.009-.025-.006-.017-.012-.033-.018-.05-.003-.007-.006-.015-.009-.023-.011-.023-.021-.047-.032-.073l-.202.094c.09.197.121.356.121.482-.001.16-.064.282-.109.353-.025.037-.07.086-.071.086l.064.088c-.004.011-.008.023-.014.035-.341.545-.652 1.308-.786 1.653-.044.114-.069.183-.069.183s0 .002-.001.005c.227.009.767.073.627.504l-.122.444c-.268-.478-.154-.606-.154-.606-.781-.201-2.357.905-2.357.905.052-.411.506-.697.768-.847-.221-.026-.494.165-.64.283.137-.27.335-.433.539-.522-.002-.002-.002-.002-.003-.004.359-.135.712-.069.753-.029l-.002.001c.122-.038.131-.043.241-.068.036-.026.071-.112.088-.158.001-.005.363-1.014.81-1.774-.217-.021-.388-.274-.388-.581 0-.018.001-.037.002-.055-.475.069-.973.088-1.484.043-.016 0-.032-.003-.049-.005v.001c-.024-.002-.131-.012-.262-.029-.945-.128-1.803-.45-2.507-.911l.002.01s-1.279-.682-1.551-2.233l-.309.195c0-1.39.238-2.365.563-3.111l-.38.037.38-.534c-.05.103-.096.212-.143.332l.233-.039v-.002c.047-.096.092-.184.138-.27.092-.169.188-.328.295-.484.024-.035.069-.098.111-.152.062-.08.147-.179.204-.245.051-.06.166-.172.22-.221.041-.037.114-.096.147-.12l-.229 1.072c.669-.832 1.912-2.075 2.535-2.665-.118-.222-.248-.418-.386-.581l-.584.429-.025.019s-.416.314-.565.412c-.409.267-.706-.07-.722-.09.088.074.201.12.328.12.14 0 .267-.055.357-.144.092-.088.147-.209.147-.343 0-.068-.014-.132-.038-.191-.044-.097-.12-.178-.214-.23h.002s-.104-.06-.082-.158c.022-.099.206-.291.206-.291l.225-.229.36-.367.777-.79c.047-.052.077-.087.077-.087l-.682.292-.002-.006c0-.009.006-.037.053-.123.065-.119.22-.335.224-.343l.001-.001-1.265.904c0-.001 0-.001 0-.002.074-.35.824-1.365.858-1.412l-.83.761c0-.002-.001-.004-.003-.006-.043-.258.371-1.141.428-1.261.002-.004.003-.007.005-.01-.302.301-.52.628-.527.636 0-.291.223-.709.223-.709-.064.062-.124.128-.182.193-.868.978-1.119 2.122-1.187 2.566 0 0 0 .001-.001.001-.145.089-.056-.02-.126.148-.256.073-.47.202-.642.346-.287.237-.459.511-.513.605.034-.043.07-.083.105-.119.53-.554 1.142-.494 1.142-.494s.682 1.26.542 1.405c-.015.015-.039.017-.072.006-.09-.031-.149-.017-.182.024-.105.117-.009.454-.008.462l-1.809-.778c.858-.318 1.47-.1 1.47-.1 0 .212.48.184.48.184v-.001h.001c0-.196-.365-.43-.365-.43s-.327.136-.716 0c-.077-.027-.161-.038-.242-.034-.071.002-.145.017-.217.038-.206.059-.357.174-.357.174v-.001l-.002.001 1.131-4.139.119 1.591 2.295-5.395.039 4.037 6.255-7.404-3.847 8.316.023.041 2.713-1.954-.573 1.149 3.793-1.481-3.539 2.585 6.612-.81-8.021 3.471 4.105-1.001zm1.344-2.764h.001l-.001-.004zm-1.997.862c-.095-.395-.223-.757-.371-1.076l-.944 2.077zm-2.3-1.094c.208-.071.314-.308.239-.529l-.208.071c.013.031.022.064.022.099 0 .031-.005.06-.017.086l.095.057c-.032.051-.081.095-.141.12-.036.016-.074.022-.112.022-.122 0-.236-.074-.286-.195-.004-.01-.01-.022-.012-.034l-.092.03c.075.224.305.344.512.273z"/></svg>