<svg viewBox="0 0 24 24" xmlns="http://www.w3.org/2000/svg"><path fill="currentColor" d="m12.076.066-3.193 3.214h-5.535v5.434l-3.348 3.296 3.349 3.298v5.39h5.374l3.285 3.236 3.285-3.236h5.43v-5.374l3.277-3.298-3.232-3.252v-5.453h-5.458zm0 .749 2.49 2.506h-1.69v6.441l-.8.805-.81-.815v-6.472h-1.639zm-8.2 2.991h4.483l-1.874 1.886 4.253 4.279v.654h-.798l-4.266-4.202-1.798 1.77zm5.227 0h1.635v5.415l-3.509-3.53zm4.302.043h1.687l1.83 1.842-3.517 3.539zm2.431 0h4.404v4.394l-1.83-1.842-4.241 4.267h-.764v-.69l4.261-4.287zm2.574 3.3 1.83 1.843v1.676h-5.327zm-12.735.013 3.515 3.462h-5.314v-1.69zm-2.327 2.292v1.697h6.377l.871.858-.782.77h-6.464v1.786l-2.597-2.555zm17.42.068 2.488 2.503-2.533 2.55v-1.796h-6.41l-.75-.754.825-.83h6.38zm-9.502.978.81.815.186-.188.614-.618v.686h.768l-.825.83.75.754h-.719v.808l-.842-.83-.741.73v-.707h-.7l.781-.77-.188-.186-.682-.672h.788zm-7.39 2.807h5.402l-3.603 3.55-1.798-1.772zm6.154 0h.708v.7l-4.404 4.338 1.852 1.824h-4.31v-4.342l1.798 1.77zm3.348 0h.715l4.317 4.343.186-.187 1.599-1.61v4.316h-4.366l1.853-1.825-.188-.185-4.116-4.054zm1.46 0h5.357v1.798l-1.785 1.796zm-2.83.191.842.829v6.37h1.691l-2.532 2.495-2.533-2.495h1.79v-6.467zm-1.27 1.251v5.42h-1.799l-1.852-1.823zm2.64.097 3.552 3.499-1.853 1.825h-1.7z"/></svg>