<svg viewBox="0 0 24 24" xmlns="http://www.w3.org/2000/svg"><path fill="currentColor" d="m22.2235 5.8311-9.9928-5.7692a.4617.4617 0 0 0 -.4615 0l-9.9927 5.7692a.4615.4615 0 0 0 -.2308.3997v11.5385c0 .1649.088.3173.2308.3997l9.9928 5.7692a.4617.4617 0 0 0 .4615 0l9.9928-5.7692a.4615.4615 0 0 0 .2308-.3997v-11.5385a.4618.4618 0 0 0 -.2309-.3997zm-.6304 11.7074-9.5931 5.5384-9.5931-5.5385v-11.0769l9.5931-5.5384 9.5931 5.5385zm-10.2974-9.3527c.3873-.2769.7918-.4965 1.2137-.6588s.8427-.2434 1.2624-.2434c.2596 0 .5019.0379.7269.1136s.4197.185.5841.3278.2942.3202.3894.5322.1428.4543.1428.7269c0 .3288-.0649.6555-.1947.98s-.304.6252-.5225.9022-.4706.5192-.7561.7269-.582.357-.8892.4478l-.1363-.2272a2.0872 2.0872 0 0 0 .4998-.3505 2.2747 2.2747 0 0 0 .3894-.4835c.1082-.1796.1915-.37.2499-.5712a2.1893 2.1893 0 0 0 .0876-.6133c0-.238-.0346-.463-.1038-.675s-.1709-.397-.305-.5549-.2996-.2823-.4965-.3732-.423-.1363-.6782-.1363c-.3115 0-.5971.0606-.8567.1817-.2596.1212-.4933.2845-.701.49s-.3883.4413-.5419.7075a4.874 4.874 0 0 0 -.3829.8373 5.6168 5.6168 0 0 0 -.2304.8859c-.0519.2986-.0779.5798-.0779.8438 0 .2683.0281.5452.0844.8308s.1385.5668.2466.8438c.1082.2769.2423.5387.4024.7853s.3451.463.5549.649a2.583 2.583 0 0 0 .701.4446c.2575.1103.5376.1655.8405.1655.2077 0 .41-.0281.6069-.0844a2.9874 2.9874 0 0 0 .5679-.2272 3.2094 3.2094 0 0 0 .516-.3375 3.9668 3.9668 0 0 0 .4511-.4219l.2142.2077c-.1904.251-.4165.4922-.6782.7237a5.5434 5.5434 0 0 1 -.847.6166 4.6241 4.6241 0 0 1 -.9508.4284c-.331.106-.6588.159-.9833.159-.3159 0-.6133-.0552-.8924-.1655s-.5355-.2596-.7691-.4478-.4424-.4089-.6263-.662-.3397-.5225-.4673-.8081-.225-.5798-.2921-.8827-.101-.5992-.101-.8891c0-.4197.0703-.8513.2109-1.2948s.3343-.874.5809-1.2916.5376-.8124.873-1.1845c.3353-.3721.6966-.6967 1.0839-.9736z"/></svg>