<svg viewBox="0 0 24 24" xmlns="http://www.w3.org/2000/svg"><path fill="currentColor" d="m6.544.12a6.553 6.553 0 0 0 -6.544 6.544v10.674a6.551 6.551 0 0 0 6.544 6.542h10.912a6.551 6.551 0 0 0 6.544-6.542v-.831a2.193 2.193 0 0 0 -4.388 0v.83c0 1.19-.967 2.157-2.156 2.157h-10.912a2.16 2.16 0 0 1 -2.158-2.156v-10.59c0-1.19.969-2.16 2.158-2.16 3.843.004 7.814-.009 11.612.001.556.138.892.445 1.058.848.193.47.343 1.118-.404 1.748l-6.26 4.596-1.892-2.441a2.191 2.191 0 0 0 -3.075-.391 2.191 2.191 0 0 0 -.391 3.076l3.198 4.133a2.197 2.197 0 0 0 3.035.424l7.252-5.301a56.68 56.68 0 0 0 1.22-.977c2.106-1.926 2.517-4.393 1.627-6.553-.921-2.241-3.256-3.631-6.089-3.631z"/></svg>