<svg viewBox="0 0 24 24" xmlns="http://www.w3.org/2000/svg"><path fill="currentColor" d="m13.607 14.583h-3.215l-1.626-2.764 1.626-2.802h3.215l1.626 2.802zm.579-6.583h-4.387l-2.2 3.813 2.2 3.787h4.387l2.213-3.787zm-4.387 8.4-2.2 3.813 2.2 3.787h4.387l2.213-3.787-2.213-3.813zm-1.034 3.819 1.627-2.802h3.215l1.626 2.802-1.626 2.765h-3.215zm1.034-20.219-2.2 3.813 2.2 3.787h4.387l2.213-3.787-2.213-3.813zm-1.034 3.819 1.627-2.802h3.215l1.626 2.802-1.626 2.764h-3.215zm8.234 8.581-2.2 3.813 2.2 3.787h4.388l2.213-3.787-2.213-3.813zm-1.034 3.819 1.627-2.802h3.215l1.626 2.802-1.626 2.765h-3.215zm1.034-12.219-2.2 3.813 2.2 3.787h4.388l2.213-3.787-2.213-3.813zm-1.034 3.819 1.627-2.802h3.215l1.626 2.802-1.626 2.764h-3.215zm-13.366 4.581-2.2 3.813 2.2 3.787h4.387l2.213-3.787-2.213-3.813zm-1.034 3.819 1.627-2.802h3.214l1.627 2.802-1.627 2.765h-3.214zm1.034-12.219-2.2 3.813 2.2 3.787h4.387l2.213-3.787-2.213-3.813zm-1.034 3.819 1.627-2.802h3.214l1.627 2.802-1.627 2.764h-3.214z"/></svg>