<svg viewBox="0 0 24 24" xmlns="http://www.w3.org/2000/svg"><path fill="currentColor" d="m19.422.453a1.113 1.113 0 0 0 -1.113 1.115 1.113 1.113 0 0 0 1.112 1.114c1.31 0 2.35 1.042 2.35 2.363 0 1.32-1.04 2.363-2.35 2.363h-18.309a1.113 1.113 0 0 0 -1.112 1.112 1.113 1.113 0 0 0 1.113 1.117h18.31c1.308 0 2.35 1.042 2.35 2.363 0 1.32-1.042 2.363-2.35 2.363h-18.311a1.113 1.113 0 0 0 -1.112 1.117 1.113 1.113 0 0 0 1.113 1.112h18.31c1.308 0 2.35 1.042 2.35 2.363 0 1.32-1.042 2.363-2.35 2.363h-18.311a1.113 1.113 0 0 0 -1.112 1.114 1.113 1.113 0 0 0 1.113 1.115h18.31a1.113 1.113 0 0 0 .206-.022c2.42-.112 4.37-2.12 4.37-4.57 0-1.393-.642-2.634-1.63-3.478.987-.845 1.631-2.084 1.631-3.477s-.643-2.632-1.63-3.477c.987-.843 1.63-2.085 1.63-3.478 0-2.52-2.06-4.592-4.578-4.592z"/></svg>