<svg viewBox="0 0 24 24" xmlns="http://www.w3.org/2000/svg"><path fill="currentColor" d="m13.3512 20.4035c1.1108 0 2.169-.2217 3.139-.6157l2.6913 2.6944c-1.726.9636-3.7127 1.5178-5.8303 1.5178-6.6222 0-11.9918-5.373-11.9918-11.9994 0-6.6277 5.3695-12.0006 11.9918-12.0006 2.0964 0 4.0652.5406 5.7789 1.4865l-2.6467 2.6495c-.9687-.3918-2.0236-.6134-3.1322-.6134-4.6379 0-8.3976 3.779-8.3976 8.441 0 4.6609 3.7597 8.4399 8.3976 8.4399zm2.176-12.1544 5.5104-5.5139 1.5773 1.5772-5.5104 5.514zm-2.2328 5.6348c-1.0784 0-1.952-.8775-1.952-1.961 0-1.0825.8736-1.9611 1.952-1.9611s1.952.8786 1.952 1.961c0 1.0836-.8736 1.9611-1.952 1.9611zm9.3462 5.6953-1.5772 1.5783-5.5105-5.514 1.5774-1.5783z"/></svg>