<svg viewBox="0 0 24 24" xmlns="http://www.w3.org/2000/svg"><path fill="currentColor" d="m6.87.283c-3.789 0-6.87 3.037-6.87 6.767 0 3.732 3.082 6.767 6.87 6.767h2.429v-3.495h-2.43c-1.83 0-3.319-1.468-3.319-3.272s1.488-3.27 3.32-3.27c.734 0 1.377.19 1.928.567l2.51-2.473c-1.248-1.06-2.728-1.59-4.438-1.59zm5.152 2.231c-.066-.005-.141.08-.35.252a.457.457 0 0 0 -.028.026l-1.922 1.882c-.323.315-.29.203-.066.556a3.204 3.204 0 0 1 .532 1.749v9.991c0 3.73 3.096 6.747 6.908 6.747 3.811 0 6.904-3.017 6.904-6.747 0-3.728-3.093-6.75-6.904-6.75h-3.336v-3.241c0-1.495-.512-3.002-1.436-4.158-.175-.203-.234-.3-.3-.307zm5.246 11.209c1.762.088 3.168 1.502 3.168 3.247 0 1.802-1.5 3.264-3.342 3.264s-3.335-1.477-3.335-3.28v-3.219h3.509z"/></svg>