<svg viewBox="0 0 24 24" xmlns="http://www.w3.org/2000/svg"><path fill="currentColor" d="m12 0c-6.617 0-12 5.382-12 12s5.383 12 12 12 12-5.383 12-12-5.383-12-12-12zm0 1.799a10.19 10.19 0 0 1 10.207 10.201 10.19 10.19 0 0 1 -10.207 10.201 10.186 10.186 0 0 1 -10.201-10.201 10.186 10.186 0 0 1 10.201-10.201zm4.016 5.285c-.49-.018-1.232.368-1.899 1.031l-1.44 1.43-4.31-1.447-.842.867 3.252 2.47-.728.723a4.747 4.747 0 0 0 -.639.787l-1.959-.145-.476.484 1.947 1.444 1.424 1.943.48-.48-.144-1.98c.246-.16.497-.361.74-.603l.765-.76 2.495 3.274.869-.84-1.455-4.332 1.394-1.385c.89-.885 1.298-1.92.918-2.322a.547.547 0 0 0 -.392-.158z"/></svg>