<svg viewBox="0 0 24 24" xmlns="http://www.w3.org/2000/svg"><path fill="currentColor" d="m11.986 23.972c-6.575 0-11.986-5.411-11.986-11.986s5.411-11.986 11.986-11.986 11.986 5.411 11.986 11.986a11.9 11.9 0 0 1 -2.492 7.281l2.062 2.062c.293.293.458.691.458 1.106 0 .859-.706 1.565-1.565 1.565-.415 0-.813-.165-1.106-.458l-2.062-2.062a11.9 11.9 0 0 1 -7.281 2.492zm6.664-6.001a8.936 8.936 0 0 0 2.31-5.985c0-4.923-4.051-8.974-8.974-8.974-2.702 0-5.141 1.22-6.792 3.135h5.255v2.458h-6.768a8.851 8.851 0 0 0 -.536 1.844h6.075v2.459h-6.16c.087.845.297 1.673.621 2.459h4.31v2.458h-2.797c1.651 1.915 4.09 3.135 6.792 3.135 2.29 0 4.392-.877 5.985-2.31a1.59 1.59 0 0 1 .679-.679zm-9.43-.146h7.376v-2.458h-7.376zm6.147-4.917h4.917v-2.459h-4.917zm-4.918 0h3.074v-2.459h-3.074zm1.844-4.303h4.918v-2.458h-4.918z"/></svg>