<svg viewBox="0 0 24 24" xmlns="http://www.w3.org/2000/svg"><path fill="currentColor" d="m19.734 11.603c.078.376.116.76.116 1.144 0 1.44-.562 2.846-1.556 3.889-.989 1.037-2.358 1.668-3.789 1.741-1.445.074-2.885-.418-3.979-1.365-1.079-.933-1.776-2.265-1.921-3.684-.148-1.445.273-2.914 1.17-4.057.877-1.118 2.168-1.879 3.574-2.095 1.439-.222 2.934.127 4.123.97 1.155.819 1.976 2.068 2.262 3.457zm4.266-5.603v12c0 3.314-2.686 6-6 6h-12c-3.314 0-6-2.686-6-6v-12c0-3.314 2.686-6 6-6h12c3.314 0 6 2.686 6 6zm-2.172 3.483c-.465-1.398-1.274-2.674-2.334-3.697-1.025-.988-2.279-1.731-3.639-2.152.159.423.239.874.238 1.326-1.109-1.455-2.809-2.4-4.632-2.564-1.112-.1-2.245.084-3.265.538.829.257 1.555.807 2.03 1.533-1.843-.658-3.936-.45-5.611.561-.684.413-1.291.952-1.784 1.581 1.151-.247 2.375.069 3.262.843-.74.709-1.754 1.087-2.778 1.039.154.251.337.482.544.689-.01.017-.021.034-.031.051-.696.314-1.288.842-1.68 1.496-.438.729-.613 1.6-.498 2.442.066.481.226.947.469 1.367-.108-.934.684-1.758 1.622-1.686.921.071 1.576.983 1.351 1.88-.16.635-.732 1.107-1.386 1.142.87 1.547 2.362 2.701 4.08 3.146.608.157 1.238.226 1.866.206-.471.358-1.029.608-1.637.711 1.493 1.016 3.275 1.567 5.08 1.578 1.455.009 2.905-.33 4.202-.991 1.249-.636 2.345-1.562 3.184-2.684.851-1.139 1.43-2.475 1.676-3.876.26-1.49.148-3.043-.329-4.479z"/></svg>