<svg viewBox="0 0 24 24" xmlns="http://www.w3.org/2000/svg"><path fill="currentColor" d="m13.69 7.499c-.919-.965-1.577-2.105-1.6-3.116.655-.187 2.017.001 3.35.558 1.354.566 2.668 1.514 3.158 2.831.014.039.029.078.041.116a2.337 2.337 0 0 1 -.529 1.14c-.26.279-.586.487-.948.605-1.143-.23-2.464-1.074-3.472-2.134zm5.581 2.244c-.957.334-1.839 1.311-2.473 2.482v.001c-.697 1.284-1.093 2.799-.96 3.957.225.307.523.553.869.713.394.163.826.215 1.247.151.038-.027.07-.053.1-.075 1.103-.872 1.6-2.413 1.72-3.875.119-1.437-.122-2.79-.503-3.354zm-7.939-3.389a2.23 2.23 0 0 0 -.283-1.088 2.332 2.332 0 0 0 -.92-.853l-.123.002c-1.406.058-2.714 1.013-3.672 2.126-.941 1.092-1.543 2.329-1.566 3.009.969.288 2.257.017 3.459-.559v.002c1.32-.631 2.532-1.625 3.105-2.639zm-3.372 8.287c-.193-1.449-.765-2.907-1.553-3.767a2.252 2.252 0 0 0 -1.123-.067c-.415.099-.794.31-1.097.61l-.036.118c-.38 1.355.125 2.893.886 4.146.749 1.233 1.741 2.185 2.382 2.418.577-.832.718-2.139.54-3.459zm5.297 2c-1.439-.264-3.004-.172-4.065.311a2.227 2.227 0 0 0 -.411 1.046c-.034.426.05.852.243 1.233.033.025.067.047.1.068 1.172.779 2.793.774 4.223.438 1.405-.332 2.619-.978 3.039-1.515-.614-.807-1.817-1.344-3.128-1.584zm10.743-4.641c0 6.622-5.364 11.992-11.985 12-6.628.008-12.007-5.358-12.015-11.985-.008-6.628 5.358-12.007 11.985-12.015h.001c6.631-.004 12.01 5.369 12.014 12zm-1.547 0c-.003-5.778-4.69-10.459-10.468-10.456-5.774.007-10.45 4.693-10.443 10.468s4.693 10.45 10.468 10.443c5.77-.007 10.443-4.685 10.443-10.455z"/></svg>