<svg viewBox="0 0 24 24" xmlns="http://www.w3.org/2000/svg"><path fill="currentColor" d="m22.394 6c-.167-.29-.398-.543-.652-.69l-8.816-5.09c-.509-.294-1.34-.294-1.848 0l-8.818 5.09c-.508.293-.923 1.013-.923 1.6v10.18c0 .294.104.62.271.91s.398.543.652.69l8.816 5.09c.508.293 1.34.293 1.848 0l8.816-5.09c.254-.147.485-.4.652-.69s.27-.616.27-.91v-10.18c.003-.294-.1-.62-.268-.91zm-10.394 13.11c-3.92 0-7.109-3.19-7.109-7.11s3.19-7.11 7.11-7.11a7.133 7.133 0 0 1 6.156 3.553l-3.076 1.78a3.567 3.567 0 0 0 -3.08-1.78 3.56 3.56 0 0 0 -3.557 3.557 3.56 3.56 0 0 0 3.556 3.555 3.57 3.57 0 0 0 3.08-1.778l3.078 1.78a7.135 7.135 0 0 1 -6.158 3.553zm7.11-6.715h-.79v.79h-.79v-.79h-.79v-.79h.79v-.79h.79v.79h.79zm2.962 0h-.79v.79h-.79v-.79h-.79v-.79h.79v-.79h.79v.79h.79z"/></svg>