<svg viewBox="0 0 24 24" xmlns="http://www.w3.org/2000/svg"><path fill="currentColor" d="m21.6 0h-19.2a2.41 2.41 0 0 0 -2.4 2.4v19.2a2.41 2.41 0 0 0 2.4 2.4h19.2a2.41 2.41 0 0 0 2.4-2.4v-19.2a2.41 2.41 0 0 0 -2.4-2.4zm-14.555 14.465a2.11 2.11 0 0 0 2.795-1.045h1.66a3.69 3.69 0 1 1 0-1.75h-1.66a2.11 2.11 0 1 0 -2.795 2.795zm11.345.845a3.55 3.55 0 0 1 -1.06.63 3.68 3.68 0 0 1 -3.39-.38v.38h-1.51v-10.57h1.5v4.11a3.74 3.74 0 0 1 1.8-.63h.27a3.67 3.67 0 0 1 2.39 6.46zm-.223-2.766a2.104 2.104 0 1 1 -4.207 0 2.104 2.104 0 0 1 4.207 0z"/></svg>