<svg viewBox="0 0 24 24" xmlns="http://www.w3.org/2000/svg"><path fill="currentColor" d="m.803 14.8169c0-.5342.433-.9665.9665-.9665s.9665.4323.9665.9665c0 .5335-.433.9657-.9665.9657s-.9666-.4322-.9666-.9657m2.736 0c0-.1963-.0532-.376-.1119-.5525-.2344-.7024-.876-1.2169-1.6575-1.2169-.1249 0-.2344.0465-.3524.0708-.8022.1682-1.4171.8463-1.4171 1.6987 0 .9764.7923 1.7694 1.7695 1.7694s1.7694-.793 1.7694-1.7694m-1.7694-7.149c.5335 0 .9665.433.9665.9665s-.433.9665-.9665.9665c-.5343 0-.9666-.433-.9666-.9665s.4323-.9665.9666-.9665m0 2.7359c.9772 0 1.7694-.7923 1.7694-1.7694 0-.1956-.0532-.376-.1119-.5525-.2344-.7024-.8767-1.2169-1.6575-1.2169-.1249 0-.2344.0465-.3524.0716-.8022.1673-1.4171.8453-1.4171 1.6977 0 .9771.7923 1.7694 1.7695 1.7694m13.221-5.694c-.5342 0-.9665-.433-.9665-.9664a.966.966 0 0 1 .9666-.9665c.5335 0 .9658.4322.9658.9665 0 .5334-.4323.9664-.9658.9664m-9.6 16.5133c-.5335 0-.9666-.433-.9666-.9665 0-.5342.433-.9665.9666-.9665a.966.966 0 0 1 .9665.9665c0 .5335-.4323.9665-.9665.9665m9.6-19.2491c-.978 0-1.7695.7922-1.7695 1.7694 0 .2085.0525.4025.1187.5882l-8.3008 14.2265c-.803.1681-1.4179.8462-1.4179 1.6985 0 .9772.7923 1.7694 1.7695 1.7694s1.7694-.7922 1.7694-1.7694c0-.1963-.0525-.3759-.111-.5525l8.3427-14.2728c.7778-.1865 1.3683-.8531 1.3683-1.688 0-.977-.793-1.7693-1.7694-1.7693m7.24 2.7359c-.5343 0-.9666-.433-.9666-.9665a.966.966 0 0 1 .9665-.9665c.5335 0 .9666.4322.9666.9665 0 .5334-.433.9665-.9666.9665m-9.5992 16.5131c-.5343 0-.9665-.433-.9665-.9665a.966.966 0 0 1 .9665-.9665c.5335 0 .9658.4323.9658.9665 0 .5335-.4323.9665-.9658.9665m9.5992-19.249c-.9772 0-1.7694.7922-1.7694 1.7694 0 .2085.0525.4025.1187.5882l-8.3009 14.2265c-.8021.1681-1.417.8462-1.417 1.6985 0 .9772.7922 1.7694 1.7694 1.7694.9764 0 1.7687-.7922 1.7687-1.7694 0-.1963-.0525-.3759-.1111-.5525l8.3427-14.2728c.7778-.1865 1.3684-.8531 1.3684-1.688 0-.977-.7923-1.7693-1.7695-1.7693"/></svg>