<svg viewBox="0 0 24 24" xmlns="http://www.w3.org/2000/svg"><path fill="currentColor" d="m3.21 9.967c-2.288 0-2.615 1.49-2.83 2.393-.287 1.178-.38 1.66-.38 1.66h8.947c2.29 0 2.617-1.492 2.832-2.394.285-1.178.379-1.66.379-1.66zm12.51-7.707h-8.738l-.722 4.047 7.884.01c3.885 0 5.03 1.41 4.997 3.748-.019 1.196-.537 3.225-.762 3.884-.598 1.753-1.827 3.749-6.435 3.744l-7.666-.004-.725 4.052h8.718c3.075 0 4.38-.36 5.767-.995 3.071-1.426 4.9-4.455 5.633-8.41 1.089-5.888-.268-10.076-7.951-10.076z"/></svg>