<svg viewBox="0 0 24 24" xmlns="http://www.w3.org/2000/svg"><path fill="currentColor" d="m0 0v24h24v-24zm17.1797 2.9477a5.452 5.452 0 0 1 3.9047 1.364l-1.3766 1.6603a3.672 3.672 0 0 0 -2.596-1.0086c-1.6 0-2.8555 1.408-2.8555 3.096v.0282c0 1.816 1.2517 3.1523 3.0117 3.1523a3.492 3.492 0 0 0 2.064-.5921v-1.4244h-2.2v-1.8874h4.3157v4.3157a6.436 6.436 0 0 1 -4.2438 1.5757c-3.096 0-5.2242-2.1797-5.2242-5.1117v-.0281a5.1 5.1 0 0 1 5.2-5.1398zm-14.7438.1718h3.8758c3.12 0 5.2805 2.1439 5.2805 4.9399v.028c0 2.8-2.1605 4.968-5.2805 4.968h-3.8757zm4.075 1.9688a2.852 2.852 0 0 0 -.1992.003h-1.6914v6h1.6914a2.832 2.832 0 0 0 2.9923-2.9678v-.036a2.852 2.852 0 0 0 -2.793-2.9991zm-4.303 14.407h9v1.5h-9z"/></svg>