<svg viewBox="0 0 24 24" xmlns="http://www.w3.org/2000/svg"><path fill="currentColor" d="m14.774 8.291.772-2.596.79 2.596zm3.848 2.268-2.025-6.128c-.045-.135-.097-.224-.154-.266-.059-.041-.152-.063-.28-.063h-1.12a.485.485 0 0 0 -.284.068c-.06.045-.11.132-.149.261l-2.045 6.128c-.025.032-.038.096-.038.192 0 .149.09.223.27.223h.84c.076 0 .139-.003.187-.01a.207.207 0 0 0 .116-.048.326.326 0 0 0 .077-.116c.022-.051.046-.119.072-.202l.318-1.071h2.306l.327 1.051c.026.09.051.16.077.213a.395.395 0 0 0 .087.12c.031.028.07.047.114.053h.002c.045.006.103.01.173.01h.897c.18 0 .27-.074.27-.223a.59.59 0 0 0 -.005-.09.878.878 0 0 0 -.036-.108zm-.994 2.467h-.646c-.168 0-.279.024-.333.072-.055.049-.082.147-.082.295v3.638l-1.91-3.647c-.076-.155-.152-.253-.226-.295-.074-.041-.204-.063-.39-.063h-.599c-.167 0-.278.025-.332.073-.055.048-.082.147-.082.294v6.138c0 .148.025.246.077.294s.16.072.328.072h.656c.167 0 .278-.024.332-.072.055-.048.082-.146.082-.294v-3.648l1.91 3.657c.077.155.152.253.227.295.073.042.204.062.39.062h.598c.167 0 .278-.024.333-.072.054-.048.082-.146.082-.294v-6.138c0-.148-.028-.246-.082-.294-.055-.048-.166-.073-.333-.073zm3.203-.581 1.665 1.665v8.385h-20.991v-8.385l1.663-1.664a.63.63 0 0 0 0-.89l-1.664-1.665v-8.386h20.991v8.384l-1.665 1.666a.63.63 0 0 0 0 .89zm3.169-12.445h-24v10.613l1.387 1.387-1.387 1.387v10.613h24v-10.613l-1.387-1.387 1.387-1.387zm-13.33 18.469h-2.71l2.855-4.014a.67.67 0 0 0 .087-.155.425.425 0 0 0 .019-.135v-.772c0-.148-.028-.246-.082-.294-.055-.048-.166-.073-.334-.073h-4.123c-.149 0-.245.028-.29.082-.045.055-.068.169-.068.343v.58c0 .172.023.287.068.341.045.055.141.083.29.083h2.545l-2.817 4.014a.438.438 0 0 0 -.107.27v.792c0 .148.027.245.082.294.055.048.167.072.334.072h4.25c.148 0 .245-.027.29-.081.045-.055.068-.17.068-.344v-.579c0-.173-.023-.287-.068-.342s-.142-.082-.29-.082zm-1.262-10.236c0 .264-.017.484-.052.661-.036.177-.093.32-.174.43a.648.648 0 0 1 -.318.231 1.523 1.523 0 0 1 -.487.068h-.79v-4.17h.79c.366 0 .63.11.79.324.16.215.241.571.241 1.067zm1.38-2.789c-.225-.457-.533-.795-.921-1.013-.39-.219-.88-.328-1.47-.328h-1.979c-.167 0-.278.024-.333.072-.054.049-.082.147-.082.294v6.138c0 .148.028.246.082.295.055.048.166.072.333.072h2.218c1.048 0 1.765-.447 2.15-1.342.09-.205.153-.413.188-.622a4.91 4.91 0 0 0 .054-.796v-1.303c0-.367-.018-.656-.054-.868a2.2 2.2 0 0 0 -.193-.612l.006.013z"/></svg>