<svg viewBox="0 0 24 24" xmlns="http://www.w3.org/2000/svg"><path fill="currentColor" d="m10.22 11.506.111.018c-.038-.006-.075-.011-.111-.018zm4.475 8.073c.636-2.816-2.172-4.8-6.955-4.814l-7.027 9.235h9.586c.132-.025.256-.056.384-.085 2.258-1.057 3.598-2.501 4.012-4.336zm-4.396 4.421h.203l.021-.01c-.075.003-.148.008-.224.01zm13.701-12.681c0-8.169-5.289-11.916-15.866-11.242l-8.134 11.242h7.568c3.323 0 8.457.719 8.457 6.153 0 3.622-1.909 5.798-5.727 6.528.099-.003.194-.009.291-.013l-.011.001-.076.012h.912l.247-.077c8.224-.653 12.339-4.853 12.339-12.604z"/></svg>