<svg viewBox="0 0 24 24" xmlns="http://www.w3.org/2000/svg"><path fill="currentColor" d="m19.69 13.419h-2.527l-2.667-4.555a1.292 1.292 0 0 0 1.035-1.28v-3.424c0-.725-.576-1.312-1.302-1.312h-4.458c-.726 0-1.312.576-1.312 1.301v3.435c0 .619.426 1.152 1.034 1.28l-2.666 4.555h-2.518c-.725 0-1.312.576-1.312 1.301v3.435c0 .725.576 1.312 1.302 1.312h4.458c.726 0 1.312-.576 1.312-1.302v-3.434c0-.726-.576-1.312-1.301-1.312h-.437l2.645-4.523h2.059l2.656 4.523h-.438c-.725 0-1.312.576-1.312 1.301v3.435c0 .725.576 1.312 1.302 1.312h4.457c.726 0 1.312-.576 1.312-1.302v-3.434c0-.726-.576-1.312-1.301-1.312zm4.31 9.557c0 .565-.459 1.024-1.013 1.024h-21.963a1.022 1.022 0 0 1 -1.024-1.013v-21.963c0-.565.459-1.024 1.013-1.024h21.963c.565 0 1.024.459 1.024 1.013z"/></svg>