<svg viewBox="0 0 24 24" xmlns="http://www.w3.org/2000/svg"><path fill="currentColor" d="m1.7422 11.982c0-5.6682 4.61-10.2782 10.2758-10.2782 1.8238 0 3.5372.48 5.0251 1.3175l.8135-1.4879c-1.6798-.9454-3.6092-1.4974-5.6658-1.531h-.1944c-6.5873.012-11.9244 5.3083-11.9964 11.8836v.1152c.0072 3.4389 1.4567 6.5345 3.7748 8.7207l1.1855-1.2814c-1.9798-1.8743-3.218-4.526-3.218-7.4585zm18.6198-8.5767-1.1543 1.2406c1.903 1.867 3.0885 4.4636 3.0885 7.3361 0 5.6658-4.61 10.2758-10.2758 10.2758-1.783 0-3.4605-.456-4.922-1.2575l-.8542 1.5214c1.7086.9384 3.6692 1.4735 5.7546 1.4759 6.6257 0 12.0012-5.373 12.0012-11.9988-.0048-3.3717-1.399-6.4146-3.638-8.5935zm-18.399 8.5767c0 2.8701 1.2119 5.4619 3.146 7.2953l1.1808-1.2767c-1.591-1.5166-2.587-3.6524-2.587-6.0186 0-4.586 3.7293-8.3152 8.3152-8.3152 1.483 0 2.875.3912 4.082 1.0751l.8351-1.5262c-1.4541-.8207-3.1317-1.2887-4.9171-1.2887-5.5434-.0024-10.055 4.5092-10.055 10.055zm18.3702 0c0 4.586-3.7293 8.3152-8.3152 8.3152-1.4327 0-2.7837-.3648-3.962-1.0055l-.852 1.5166c1.4303.7823 3.0718 1.2287 4.814 1.2287 5.5434 0 10.055-4.5116 10.055-10.055 0-2.8077-1.1567-5.3467-3.0165-7.1729l-1.183 1.2743c1.519 1.507 2.4597 3.5924 2.4597 5.8986zm-1.9486 0c0 3.5109-2.8558 6.3642-6.3642 6.3642a6.3286 6.3286 0 0 1 -3.0069-.756l-.8471 1.507c1.147.624 2.4597.9768 3.854.9768 4.4636 0 8.0944-3.6308 8.0944-8.0944 0-2.239-.9143-4.2692-2.3902-5.7378l-1.1783 1.267c1.1351 1.152 1.8383 2.731 1.8383 4.4732zm-14.4586 0c0 2.3014.9671 4.382 2.515 5.8578l1.1734-1.2695c-1.207-1.159-1.9606-2.786-1.9606-4.5883 0-3.5108 2.8557-6.3642 6.3642-6.3642 1.1423 0 2.215.3048 3.1437.8352l.8303-1.5167c-1.1759-.6647-2.5317-1.0487-3.974-1.0487-4.4612 0-8.092 3.6308-8.092 8.0944zm12.5292 0c0 2.4502-1.987 4.4372-4.4372 4.4372a4.4192 4.4192 0 0 1 -2.0614-.5088l-.8351 1.4879a6.1135 6.1135 0 0 0 2.8965.727c3.3885 0 6.1434-2.7548 6.1434-6.1433 0-1.6774-.6767-3.1989-1.7686-4.3076l-1.1615 1.2503c.7559.7967 1.2239 1.8718 1.2239 3.0573zm-10.5806 0c0 1.7374.7247 3.3069 1.8886 4.4252l1.1568-1.2503.0144.0144c-.8351-.8063-1.3559-1.9366-1.3559-3.1869 0-2.4502 1.9846-4.4372 4.4372-4.4372.8087 0 1.5646.2184 2.2174.5976l.8207-1.4975a6.097 6.097 0 0 0 -3.0381-.8063c-3.3837-.0048-6.141 2.7525-6.141 6.141zm6.681 0c0 .2952-.2424.5351-.5376.5351s-.5375-.24-.5375-.5351c0-.2976.24-.5375.5375-.5375.2952 0 .5375.24.5375.5375zm-3.9405 0c0-1.879 1.5239-3.4029 3.4005-3.4029 1.879 0 3.4005 1.5215 3.4005 3.4029 0 1.879-1.5239 3.4005-3.4005 3.4005s-3.4005-1.5215-3.4005-3.4005zm.1488 0c.0048 1.7974 1.4567 3.2493 3.2517 3.2517 1.795 0 3.254-1.4567 3.254-3.2517-.0023-1.7974-1.4566-3.2517-3.254-3.254-1.795 0-3.2517 1.4566-3.2517 3.254z"/></svg>