<svg viewBox="0 0 24 24" xmlns="http://www.w3.org/2000/svg"><path fill="currentColor" d="m12.438 23.654c-2.853 0-5.46-1.04-7.476-2.766l-4.962.68 1.917-4.733c-.667-1.475-1.042-3.11-1.042-4.835 0-6.436 5.175-11.654 11.565-11.654 6.38 0 11.56 5.218 11.56 11.654 0 6.438-5.176 11.654-11.562 11.654zm6.315-11.687v-.033c0-3.363-2.373-5.76-6.462-5.76h-4.414v11.656h4.35c4.12 0 6.525-2.5 6.525-5.863h.004zm-6.415 2.998h-1.29v-5.925h1.29c1.897 0 3.157 1.08 3.157 2.945v.03c0 1.884-1.26 2.95-3.157 2.95z"/></svg>