<svg viewBox="0 0 24 24" xmlns="http://www.w3.org/2000/svg"><path fill="currentColor" d="m22.903 11.728-4.528-1.697v-5.086a1.69 1.69 0 0 0 -1.097-1.58l-4.687-1.757a1.668 1.668 0 0 0 -1.186 0l-4.688 1.758a1.687 1.687 0 0 0 -1.097 1.58v5.085l-4.528 1.697a1.69 1.69 0 0 0 -1.092 1.58v5.16c0 .638.36 1.224.933 1.51l4.687 2.344a1.68 1.68 0 0 0 1.51 0l4.87-2.438 4.87 2.438a1.68 1.68 0 0 0 1.51 0l4.687-2.344a1.69 1.69 0 0 0 .933-1.51v-5.16c0-.703-.436-1.331-1.097-1.58zm-6.122-1.66-3.984 1.496v-3.197l3.984-1.734zm-9.561-5.188 4.78-1.79 4.781 1.79v.028l-4.781 1.94-4.781-1.94zm3.937 13.645-3.984 1.992v-3.707l3.984-1.818zm0-5.25-4.781 1.94-4.781-1.94v-.028l4.781-1.79 4.781 1.79zm11.25 5.25-3.984 1.992v-3.707l3.984-1.818zm0-5.25-4.781 1.94-4.781-1.94v-.028l4.781-1.79 4.781 1.79z"/></svg>