<svg viewBox="0 0 24 24" xmlns="http://www.w3.org/2000/svg"><path fill="currentColor" d="m24 11.986a7.599 7.599 0 0 0 -7-7.559v7.574a5 5 0 0 1 -10 0c0-3.604 3.707-6.022 7-4.583v-7.248c-7.385-1.239-14 4.46-14 11.83 0 6.628 5.373 12 12 12 6.628 0 12-5.372 12-12zm-14 .015a2 2 0 1 0 4 0 2 2 0 0 0 -4 0m14-.015a7.599 7.599 0 0 0 -7-7.559v7.574a5 5 0 0 1 -10 0c0-3.604 3.707-6.022 7-4.583v-7.248c-7.385-1.239-14 4.46-14 11.83 0 6.628 5.373 12 12 12 6.628 0 12-5.372 12-12zm-14 .015a2 2 0 1 0 4 0 2 2 0 0 0 -4 0z"/></svg>