<svg viewBox="0 0 24 24" xmlns="http://www.w3.org/2000/svg"><path fill="currentColor" d="m15.78 5.113c-1.69-1.688-3.3-3.298-3.782-5.113-.48 1.815-2.09 3.425-3.778 5.113-2.534 2.53-5.405 5.4-5.405 9.702a9.184 9.185 0 1 0 18.368 0c0-4.303-2.871-7.171-5.405-9.702m-9.058 11.841c-.563-.019-2.64-3.6 1.215-7.416l2.55 2.788a.218.218 0 0 1 -.016.325c-.61.625-3.204 3.227-3.527 4.126-.066.186-.164.18-.222.177m5.28 4.723a3.158 3.158 0 0 1 -3.158-3.159 3.291 3.291 0 0 1 .787-2.087c.57-.696 2.37-2.655 2.37-2.655s1.774 1.988 2.367 2.649a3.09 3.09 0 0 1 .792 2.093 3.158 3.158 0 0 1 -3.158 3.159m6.046-5.123c-.068.15-.223.398-.431.405-.371.014-.411-.177-.686-.583-.604-.892-5.864-6.39-6.848-7.455-.866-.935-.122-1.595.223-1.94.432-.434 1.696-1.696 1.696-1.696s3.766 3.574 5.336 6.016c1.57 2.443 1.029 4.556.71 5.253"/></svg>