<svg viewBox="0 0 24 24" xmlns="http://www.w3.org/2000/svg"><path fill="currentColor" d="m10.1062 12.0046c0 1.5815-1.2842 2.8636-2.8685 2.8636-1.5842 0-2.8684-1.282-2.8684-2.8636 0-1.5815 1.2842-2.8635 2.8684-2.8635 1.5843 0 2.8685 1.2821 2.8685 2.8635zm-2.8685-12.0046c-1.5841 0-2.8684 1.2817-2.8684 2.8628s1.2842 2.8629 2.8684 2.8629 2.8685-1.2817 2.8685-2.8629c0-1.5811-1.2842-2.8628-2.8685-2.8628zm9.5246 18.2781c-1.5838 0-2.8677 1.2764-2.8677 2.8636 0 1.5763 1.2835 2.8583 2.8677 2.8583 1.5845 0 2.8684-1.282 2.8684-2.8583 0-1.5872-1.2843-2.8636-2.8684-2.8636zm-2.8685-6.2735c0-1.5815 1.2842-2.8635 2.8685-2.8635 1.5842 0 2.8684 1.282 2.8684 2.8635s-1.2842 2.8636-2.8684 2.8636c-1.5843 0-2.8685-1.282-2.8685-2.8636zm.5 0c0 1.3033 1.0625 2.3636 2.3685 2.3636s2.3684-1.0603 2.3684-2.3636c0-1.3032-1.0624-2.3635-2.3684-2.3635s-2.3685 1.0603-2.3685 2.3635z"/></svg>