<svg viewBox="0 0 24 24" xmlns="http://www.w3.org/2000/svg"><path fill="currentColor" d="m12.023 1.3366c2.6912 0 5.3825-.008 8.0745.004a3.8428 3.8428 0 0 1 2.9636 1.3079 3.7223 3.7223 0 0 1 .9389 2.2984 9.6627 9.6627 0 0 1 -.2783 2.319c-.3571 2.0539-.7288 4.1038-1.0939 6.155-.3147 1.7665-.6162 3.5355-.9474 5.3006-.4644 2.038-2.1287 3.5843-4.1953 3.8978a6.3255 6.3255 0 0 1 -.7428.0444c-3.1458.003-6.2916.003-9.4375 0-2.4536-.0049-4.551-1.7673-4.9784-4.1834a3553.0608 3553.0608 0 0 0 -1.9055-10.5711c-.126-.6977-.265-1.3914-.3639-2.0944-.3576-2.05 1.0018-4.0057 3.048-4.3848a5.003 5.003 0 0 1 .9713-.0888c2.6489-.0075 5.2978-.009 7.9467-.0046zm-2.1356 16.6859c-.0302.6861.5343 1.2506 1.2204 1.2204h1.7472c.7367.071 1.3552-.548 1.2834-1.2847 0-1.3775 0-2.7556-.0067-4.133a.385.385 0 0 1 .218-.385c1.7016-1.0082 2.525-3.025 2.0155-4.936-.66-2.3766-3.103-3.7856-5.4906-3.1664a4.2099 4.2099 0 0 0 -3.0345 2.5005c-.7947 2.0883-.0042 4.4472 1.8883 5.635a.2895.2895 0 0 1 .1636.287c-.0073 1.4795-.0046 2.7056-.0046 4.2622z"/></svg>