<svg viewBox="0 0 24 24" xmlns="http://www.w3.org/2000/svg"><path fill="currentColor" d="m7.257 9.132 4.559-2.632a.369.369 0 0 1 .368 0l4.559 2.632a.369.369 0 0 1 .184.32v5.263a.37.37 0 0 1 -.184.319l-4.559 2.632a.369.369 0 0 1 -.368 0l-4.559-2.632a.369.369 0 0 1 -.184-.32v-5.262a.37.37 0 0 1 .184-.32m16.595 2.398-5.446-9.475c-.198-.343-.564-.596-.96-.596h-10.891c-.396 0-.762.253-.96.596l-5.446 9.454a1.127 1.127 0 0 0 0 1.117l5.447 9.398c.197.342.563.517.959.517h10.893c.395 0 .76-.17.959-.512l5.446-9.413a1.069 1.069 0 0 0 0-1.086m-4.51 4.556a.4.4 0 0 1 -.204.338l-6.939 4.002a.395.395 0 0 1 -.392 0l-6.943-4.002a.4.4 0 0 1 -.205-.338v-8.006c0-.14.083-.269.204-.338l6.936-4.002c.12-.07.272-.07.392 0l6.943 4.003a.4.4 0 0 1 .206.338z"/></svg>