<svg viewBox="0 0 24 24" xmlns="http://www.w3.org/2000/svg"><path fill="currentColor" d="m24 18.588a1.529 1.529 0 0 1 -1.895-.72l-3.45-4.771-.5-.667-4.003 5.444a1.466 1.466 0 0 1 -1.802.708l5.158-6.92-4.798-6.251a1.595 1.595 0 0 1 1.9.666l3.576 4.83 3.596-4.81a1.435 1.435 0 0 1 1.788-.668l-1.862 2.471-2.522 3.283a.666.666 0 0 0 0 .994l4.804 6.412zm-23.998-7.012.42-2.075c1.154-4.103 5.858-5.81 9.094-3.27 1.895 1.489 2.368 3.597 2.275 5.973h-10.675c-.173 4.243 2.889 6.805 6.804 5.496a4.078 4.078 0 0 0 2.582-2.876c.207-.666.548-.78 1.174-.588a5.417 5.417 0 0 1 -2.589 3.957 6.272 6.272 0 0 1 -7.306-.933 6.575 6.575 0 0 1 -1.64-3.858c0-.235-.08-.455-.134-.666a88.33 88.33 0 0 1 -.007-1.159zm1.127-.286h9.654c-.06-3.076-2.001-5.258-4.59-5.278-2.882-.04-4.944 2.094-5.071 5.264z"/></svg>