<svg viewBox="0 0 24 24" xmlns="http://www.w3.org/2000/svg"><path fill="currentColor" d="m3.673 9.204v-1.04h-3.673v5.722h3.68v-1.048h-2.494v-1.378h2.158v-1.017h-2.158v-1.24zm2.162 6.633 2.532-5.906h-1.24l-.902 2.357-.91-2.357h-1.234l1.546 3.604-1.01 2.303zm6.625-3.572v-.445c0-1.232-.75-1.966-1.89-1.966-1.179 0-2.013.78-2.013 2.059 0 1.27.834 2.057 2.043 2.057.926 0 1.684-.536 1.821-1.285l-1.124-.054c-.085.275-.337.436-.727.436-.505 0-.804-.314-.827-.803zm-1.898-1.539c.505 0 .75.314.773.796h-1.592c.031-.505.345-.796.82-.796zm6.478-1.524v-1.04h-3.672v5.724h3.68v-1.048h-2.495v-1.378h2.158v-1.018h-2.158v-1.24zm5.46.65c-.597 0-.987.269-1.216.629-.26-.406-.697-.627-1.24-.627s-.864.206-1.04.482v-.407h-1.056v3.956h1.117v-2.195c0-.474.268-.796.711-.796.406 0 .643.283.643.788v2.205h1.117v-2.333c.046-.399.291-.659.689-.659.428 0 .658.284.658.789v2.204h1.117v-2.428c0-1.002-.597-1.606-1.5-1.606z"/></svg>