<svg viewBox="0 0 24 24" xmlns="http://www.w3.org/2000/svg"><path fill="currentColor" d="m12 0c-6.61 0-11.996 5.388-11.996 12s5.386 12 11.996 12 11.996-5.388 11.996-12-5.369-12-11.996-12zm0 21.314c-5.131 0-9.294-4.164-9.294-9.297s4.163-9.297 9.294-9.297 9.294 4.164 9.294 9.297-4.163 9.297-9.294 9.297zm-.561-10.725-1.92-1.904-1.41 1.411-1.359-1.377-1.92 1.904 1.376 1.377-1.444 1.445 1.92 1.921 1.427-1.445 1.478 1.479 1.92-1.921-1.478-1.479zm7.748-.051-1.41 1.411 1.478 1.479-1.92 1.904-1.478-1.479-1.444 1.445-1.903-1.921 1.444-1.428-1.376-1.377 1.903-1.921 1.376 1.377 1.41-1.411z"/></svg>