<svg viewBox="0 0 24 24" xmlns="http://www.w3.org/2000/svg"><path fill="currentColor" d="m9.4777 7.8108a.4611.4611 0 0 0 -.462.462v7.452a.461.461 0 0 0 .462.462h14.0603v.0024a.4611.4611 0 0 0 .462-.462v-7.4544a.4611.4611 0 0 0 -.462-.462zm-5.2862.0072c-2.3125 0-4.1915 1.8742-4.1915 4.189 0 2.0922 1.533 3.8267 3.5376 4.1394v-2.9284h-1.071v-1.211h1.071v-.924c0-1.0497.6208-1.6326 1.578-1.6326.4573 0 .9336.0877.9336.0877v1.0236h-.5237c-.5213 0-.6871.327-.6871.6563v.7866h1.1634l-.1872 1.2108h-.9786v2.9286c2.0093-.3104 3.5447-2.0448 3.5447-4.137 0-2.315-1.8766-4.1891-4.1892-4.1891zm7.1676 2.4073h.635v2.9926h1.6278v.5544h-2.2629zm2.9452 0h.635v3.547h-.635zm1.2439 0h.7014l.8932 2.8078h.0427l.8862-2.8078h.6752l-1.2273 3.547h-.7322zm3.81.0024h2.296v.5473h-1.6609v.9407h1.5709v.5165h-1.5709v.9928h1.661v.5497h-2.296z"/></svg>