<svg viewBox="0 0 24 24" xmlns="http://www.w3.org/2000/svg"><path fill="currentColor" d="m13.664 6.956-5.614 1.54 1.14 4.224 5.615-1.54 1.145 4.22-5.615 1.49 1.093 4.224-5.615 1.49-1.393-5.064c.846-.995 1.194-2.386.846-3.728-.398-1.342-1.392-2.385-2.584-2.832l-1.392-5.217 11.28-2.983zm7.106-.198-1.838-6.708-18.932 5.018 1.838 6.758c1.093.2 2.087 1.043 2.385 2.236.348 1.193-.1 2.385-.944 3.18l1.788 6.708 18.933-5.068-1.79-6.708c-1.142-.2-2.086-1.043-2.434-2.236-.298-1.193.1-2.435.994-3.18z"/></svg>