<svg viewBox="0 0 24 24" xmlns="http://www.w3.org/2000/svg"><path fill="currentColor" d="m13.919 3.036v-1.736h.632v-1.3h-5.174v1.3h.631v1.749a10.572 10.572 0 0 0 -8.575 10.384c0 5.842 4.737 10.567 10.567 10.567 5.842 0 10.567-4.737 10.567-10.567 0-5.186-3.729-9.486-8.648-10.397zm-1.628 15.826v-.607h-.619v.607c-2.757-.158-4.955-2.38-5.101-5.137h.607v-.62h-.607a5.436 5.436 0 0 1 5.101-5.089v.607h.62v-.607a5.435 5.435 0 0 1 5.137 5.114h-.607v.619h.607a5.444 5.444 0 0 1 -5.138 5.113zm2.26-7.712-.39-.389-1.979 1.725a.912.912 0 0 0 -.316-.06c-.534 0-.971.448-.971.995s.437.996.971.996c.535 0 .972-.45.972-.996a.839.839 0 0 0 -.049-.304z"/></svg>