<svg viewBox="0 0 24 24" xmlns="http://www.w3.org/2000/svg"><path fill="currentColor" d="m20.472 10.081h-16.944c-.877 0-1.589.711-1.589 1.589v10.59c0 .877.711 1.589 1.589 1.589h16.944c.877 0 1.589-.711 1.589-1.589v-10.59c0-.878-.712-1.589-1.589-1.589zm-8.472 12.444c-3.066 0-5.56-2.494-5.56-5.56s2.494-5.56 5.56-5.56 5.56 2.494 5.56 5.56-2.494 5.56-5.56 5.56zm0-10.114c-2.511 0-4.554 2.043-4.554 4.554s2.043 4.554 4.554 4.554 4.554-2.043 4.554-4.554-2.043-4.554-4.554-4.554zm0 7.863c-1.563 0-2.881-1.103-3.221-2.568h1.67c.275.581.859.979 1.551.979.96 0 1.721-.761 1.721-1.721s-.761-1.721-1.721-1.721c-.649 0-1.2.352-1.493.874h-1.702c.378-1.412 1.669-2.462 3.195-2.462 1.818 0 3.309 1.491 3.309 3.309 0 1.819-1.491 3.31-3.309 3.31zm11.849-19.878c-.001.001-.002.002-.002.003-.002-.002-.004-.003-.006-.005.001-.001.002-.003.004-.004-.116-.137-.279-.231-.519-.238-.202.005-.391.097-.512.259l-1.818 2.353c-.164-.058-.339-.095-.523-.095h-16.945c-.184 0-.358.038-.523.095l-1.818-2.354c-.121-.162-.31-.253-.512-.259-.24.006-.403.1-.519.238.001.001.002.003.004.004-.003.002-.005.004-.007.006 0-.001-.001-.002-.002-.003-.066.078-.297.426-.012.824l1.909 2.471c-.067.176-.108.366-.108.566v3.707c0 .877.711 1.589 1.589 1.589h16.944c.877 0 1.589-.711 1.589-1.589v-3.707c0-.2-.041-.39-.109-.566l1.909-2.471c.284-.398.053-.746-.013-.824zm-16.945 7.832c-.987 0-1.787-.8-1.787-1.787s.8-1.787 1.787-1.787 1.787.8 1.787 1.787-.8 1.787-1.787 1.787zm10.325 0c-.987 0-1.787-.8-1.787-1.787s.8-1.787 1.787-1.787 1.787.8 1.787 1.787-.8 1.787-1.787 1.787z"/></svg>