<svg viewBox="0 0 24 24" xmlns="http://www.w3.org/2000/svg"><path fill="currentColor" d="m17.51401 18.08466-1.38301-1.32804c.54374-.37213 1.00379-.80881 1.35811-1.2949.00498-.00632.00938-.01398.01417-.02068l3.36395-3.49285.09997-.10763.43898-.45698-4.10802-3.94408-.92335.96108-1.01853 1.06124-.69351.72281-1.3083 1.36232.00076.00077-.11319.11778.38152.36543 1.77007 1.72603c-.38745.36658-.87967.68087-1.43529.91204-.00019.00019-.00076.00019-.00095.00038l-1.1685-1.12138-1.14666-1.10165-.78046-.73967 1.85434-1.93153.93139-.97046 1.0124-1.05396 2.52909-2.63423 6.65837 6.3728zm.85822-5.59866c.03007-.19708.04711-.39225.04711-.57937 0-1.10414-.50007-2.26804-1.3399-3.13603l.21872-.2281 3.40301 3.2676-2.81771 2.93417c.29916-.69581.4926-1.55404.4926-2.1696 0-.02605-.00134-.05631-.00383-.08867m-2.82883 1.12157-1.60651-1.56457 1.3606-1.41709c.48398.40354.84213.88561 1.03136 1.41537-.01168.08656-.02643.17352-.04769.26066-.11453.46924-.36352.90783-.73776 1.30563m-.26698 2.33871c-.24822.12621-.51137.24055-.78276.34091-.93216.34417-1.93728.51865-2.98722.51865-1.48834 0-2.89739-.35394-4.07412-1.0237-.65042-.37041-1.19703-.81915-1.62394-1.33435-.16337-.19746-.30759-.40297-.42902-.61097-.2509-.42787-.41637-.87871-.49164-1.33972-.03428-.20569-.05076-.39894-.05076-.59047 0-.71304.20455-1.39928.6081-2.04223l1.08269 1.09572c-.07355.25128-.1107.50677-.1107.76073 0 .21126.02624.42615.07795.63874.07373.30069.20071.59488.37692.87489.13943.2214.30931.43265.50467.62743.53722.53666 1.26617.95878 2.1083 1.22117.63874.19918 1.31904.30011 2.02155.30011.5673 0 1.12789-.06722 1.66646-.20071.30663-.07661.60235-.17391.87891-.28863.6372-.26526 1.19799-.63472 1.62202-1.0689.43074-.44185.71439-.93484.84367-1.46536.05229-.21413.07891-.42902.07891-.63874 0-.60292-.22734-1.28551-.59756-1.80723l.92124-.95935c.78831.82165 1.25544 1.9164 1.25544 2.95236 0 .19019-.01685.38899-.04999.59047-.1423.86876-.6033 1.69634-1.33339 2.3933-.42768.40872-.93771.76399-1.51573 1.05588m-10.62926-3.40953c.00134.00785.00364.01513.00498.02318-.00287.03083-.00498.05956-.00498.08235 0 .3254.19938 1.09763.28001 1.40579 0 .00039.00039.00077.00039.00115l-1.0578.45219 1.00857-5.25678.41446.40967c-.46272.70519-.69906 1.46229-.69906 2.25233 0 .20474.01762.41102.05343.63012m2.46857.62112c-.01168-.01801-.02662-.03505-.03792-.05325-.16242-.2576-.27867-.52803-.34628-.80268-.00709-.02892-.00996-.05784-.01571-.08695.07834-.27656.20264-.54125.3662-.79043l1.2859 1.27192zm4.8791.73047 1.1051 1.06105c-.51501.12603-1.0509.19038-1.59349.19038-.678 0-1.33397-.0973-1.94934-.28921-.08217-.02547-.16222-.05381-.2419-.08235l2.44884-1.10146zm-10.79569 4.37865 2.37395-13.22461 3.38884 3.21168 1.06163 1.00589.8113.76916 1.92597 1.83615v.83754l.81877.7866-2.55762 1.16428c-.57783-.24477-1.08078-.57228-1.47321-.96414-.009-.00881-.01628-.01896-.02509-.02777l1.96255-.91664-4.61556-4.29782-.09097-.09155-.11013.59507-1.08997 5.68101-.16873.88293.28901-.12391.00115-.0069 1.48259-.63548c.23175.48858.56385.94269.97774 1.34872zm11.50567-8.77319-1.98037 2.06272-1.73943-1.64883c.74714-.32483 1.62471-.5131 2.56433-.5131.39818 0 .78468.03524 1.15547.09921m-1.42609-2.68729c1.07407 0 2.51032.2758 3.42217.60848l-.04099.04271-1.0124 1.05396-.00345.00345c-.63644-.21279-1.34585-.33268-2.09471-.33268-1.30735 0-2.49461.36332-3.37735.95456l-.01322-.01245-1.06162-1.00608-.0948-.08982c1.16064-.7006 2.66622-1.22213 4.27637-1.22213m12.72071 4.52689v-.00268l-.00134.00153-6.8091-6.50879-2.29045 2.38564c-.94613-.3662-2.43428-.66038-3.56524-.66038-1.64539 0-3.34173.56194-4.52631 1.29509l-3.19368-3.02667.00057-.00325-.00363.00019-.00211-.00192-.00058.0023-1.14206.1197-2.4655 13.50041 1.14762.11951.00057-.00402 5.20259-2.27551c.00842.00728.01628.01513.02471.02279 1.23763 1.09189 3.0958 1.78732 5.17385 1.78732 1.4418 0 2.77673-.33556 3.87321-.90534l2.09146 2.00852 6.48542-6.75413v-1.09878l.00057-.00077z"/></svg>