<svg viewBox="0 0 24 24" xmlns="http://www.w3.org/2000/svg"><path fill="currentColor" d="m3.52 8.254c-.347 0-.667.08-1.014.213-.427.186-.666.454-.746.8l-1.76 6.481h2.533l.801-3.015h3.28l.4-1.464h-3.282l.375-1.362c.027-.133.133-.185.346-.185h3.014l.346-1.467h-4.293zm4.826 0-2 7.492h2.534l2-7.492zm2.8 0-.373 1.467h1.84c.16 0 .24.053.24.16v.025l-1.574 5.84h2.534l1.574-5.84c.026-.133.132-.185.345-.185h1.842l.319-1.467zm8.534 0c-.347 0-.667.08-1.014.213-.427.186-.666.453-.746.773l-1.467 5.492c0 .027-.027.081-.027.108v.107c0 .267.162.48.455.614.24.106.505.185.799.185h4.32l.4-1.467h-3.013c-.16 0-.24-.053-.24-.16v-.025l.373-1.387h3.28l.4-1.467h-3.28l.348-1.334c.053-.133.159-.185.345-.185h3.014l.373-1.467z"/></svg>