<svg viewBox="0 0 24 24" xmlns="http://www.w3.org/2000/svg"><path fill="currentColor" d="m22.4 24h-5.225c-.117 0-.455-1.127-1.026-3.375-1.982-6.909-3.124-10.946-3.417-12.12l3.37-3.325h.099c.454 1.42 2.554 7.676 6.299 18.768zm-10.058-16.916h-.048a3.382 3.385 0 0 1 -.098-.492v-.098a102.619 102.715 0 0 1 3.272-3.275c.13.196.196.356.196.491v.05a140.694 140.826 0 0 1 -3.322 3.324zm-6.348 3.816h-.05c.67-2.12 1.076-3.209 1.223-3.275l7.325-7.282c.08 0 .258.524.533 1.562zm1.37-4.014h-.05c1.499-4.544 2.298-6.838 2.396-6.886h4.495v.05a664.971 664.971 0 0 1 -6.841 6.839zm-2.69 7.874h-.05c.166-.798.554-1.418 1.174-1.855a312.918 313.213 0 0 1 5.71-5.717h.05c-.117.672-.375 1.175-.781 1.52zm-3.076 9.24-.098-.05c1.399-4.172 2.148-6.322 2.248-6.45l6.74-6.694v.05c-.256 1.024-1.514 5.407-3.758 13.144z"/></svg>