<svg viewBox="0 0 24 24" xmlns="http://www.w3.org/2000/svg"><path fill="currentColor" d="m3.833 1.333a.993.993 0 0 0 -.333.061v-.394c0-.551.449-1 1-1h14.667c.551 0 1 .449 1 1v.333zm17.334 2.334h-18.334c-.551 0-1 .449-1 1v18.333c0 .551.449 1 1 1h7.3l1.098-5.645h-2.24c-.051 0-5.158-.241-5.158-.241l4.639-.327-.078-.366-1.978-.285 1.882-.158-.124-.449-3.075-.467s3.341-.373 3.392-.373h3.232l.247-1.331c.289-1.616.945-2.807 1.973-3.693 1.033-.892 2.344-1.332 3.937-1.332.643 0 1.053.151 1.231.463.118.186.201.516.279.859.074.352.14.671.095.903-.057.345-.461.465-1.197.465h-.253c-1.327 0-2.134.763-2.405 2.31l-.243 1.355h1.54c.574 0 .781.402.622 1.306-.17.941-.539 1.36-1.111 1.36h-1.538l-1.096 5.646h7.362c.551 0 1-.449 1-1v-18.333a1 1 0 0 0 -.999-1zm-.667-1.334a.334.334 0 0 0 -.333-.333h-16.334a.334.334 0 0 0 -.333.333v.667h17z"/></svg>