<svg viewBox="0 0 24 24" xmlns="http://www.w3.org/2000/svg"><path fill="currentColor" d="m17.948 20.162c-1.81 1.527-4.078 2.366-6.466 2.366-2.682 0-5.19-1.047-7.088-2.933-1.897-1.897-2.933-4.416-2.933-7.088 0-2.399.84-4.667 2.366-6.466l-.916-1.167c-1.81 2.028-2.911 4.711-2.911 7.644 0 6.346 5.136 11.482 11.482 11.482 2.933 0 5.616-1.101 7.644-2.911zm-9.617-17.174c1.003-.327 2.061-.502 3.151-.502 2.682 0 5.19 1.047 7.088 2.933 1.897 1.897 2.933 4.416 2.933 7.088 0 1.09-.174 2.148-.502 3.151l1.134 1.134c.534-1.319.829-2.77.829-4.285 0-6.346-5.136-11.482-11.482-11.482-1.516 0-2.966.294-4.285.829zm1.352 3.456-6.237-6.444-.97 1.516c-.088.141-.077.327.032.458l5.408 6.946zm-2.028 8.516-2.508-1.886-.458.774c-.055.087-.044.196.033.273l2.115 2.29zm4.503-5.953-.578-.6.153-.611c.065-.273.087-.491.065-.622-.087-.393-.273-.687-.273-.687l-5.474 5.866s.371.36.905-.055c.24-.185 1.189-.96 2.203-1.799l.927 1.189zm5.343 5.256.153-.611c.055-.207.087-.382.065-.502-.065-.393-.218-.687-.218-.687l-5.866 5.474s.36.371.916 0c.273-.185 1.428-.992 2.584-1.821l6.891 5.365c.131.109.316.12.458.033l1.516-.971zm-8.44 2.126c.883-.676 2.115-1.625 3.217-2.475l1.243.97 2.039-2.475-.676-.654.218-.774c.109-.393.153-.698.12-.883-.109-.567-.36-.981-.36-.981l-8.069 8.069s.251.207.774 0l2.279 2.104c.076.065.185.076.273.033l.774-.458z"/></svg>