<svg viewBox="0 0 24 24" xmlns="http://www.w3.org/2000/svg"><path fill="currentColor" d="m19.706 21.919a4.295 4.295 0 0 0 4.293-4.296 4.295 4.295 0 1 0 -4.293 4.296zm-15.41-11.247a4.295 4.295 0 0 0 4.293-4.295 4.295 4.295 0 1 0 -4.294 4.295zm10.412 0h4.975a4.277 4.277 0 0 0 4.293-4.295 4.277 4.277 0 0 0 -4.293-4.296h-4.975a4.277 4.277 0 0 0 -4.294 4.296 4.277 4.277 0 0 0 4.294 4.295zm-10.413 11.248h4.976a4.277 4.277 0 0 0 4.293-4.296 4.277 4.277 0 0 0 -4.293-4.295h-4.976a4.277 4.277 0 0 0 -4.293 4.295c.068 2.318 1.976 4.296 4.293 4.296z"/></svg>