<svg viewBox="0 0 24 24" xmlns="http://www.w3.org/2000/svg"><path fill="currentColor" d="m24 .857v18c-3.375 1.232-4.393 1.714-6.375 1.714-3.375 0-4.66-1.714-8.036-1.714-1.071 0-1.928.214-2.732.429v-3.429c.804-.214 1.661-.428 2.732-.428 3.375 0 4.661 1.714 8.036 1.714 1.071 0 1.875-.16 2.946-.482v-11.143c-1.071.321-1.875.482-2.946.482-3.375 0-4.66-1.714-8.036-1.714-2.732 0-4.017 1.125-6.16 1.553v16.447a1.693 1.693 0 0 1 -1.715 1.714 1.693 1.693 0 0 1 -1.714-1.714v-20.572a1.693 1.693 0 0 1 1.714-1.714 1.693 1.693 0 0 1 1.716 1.714v.697c2.142-.429 3.427-1.554 6.159-1.554 3.375 0 4.661 1.715 8.036 1.715 1.982 0 3-.483 6.375-1.715z"/></svg>