<svg viewBox="0 0 24 24" xmlns="http://www.w3.org/2000/svg"><path fill="currentColor" d="m19 4.035h1.4c.331 0 .6.269.6.6v14.73c0 .331-.269.6-.6.6h-1.4zm3 1.991h1.4c.331 0 .6.269.6.6v10.747c0 .331-.269.6-.6.6h-1.4zm-21.4-3.982h16.8c.331 0 .6.269.6.6v18.712c0 .331-.269.6-.6.6h-16.8c-.331 0-.6-.269-.6-.6v-18.712c0-.331.269-.6.6-.6zm3.6 3.186c-.11 0-.2.09-.2.2v7.35c0 .045.015.089.044.125.069.086.195.101.281.032l9.228-7.35c.048-.038.075-.096.075-.156 0-.11-.09-.2-.2-.2zm-.2 11.955c0 .04.012.08.035.113.062.091.187.114.278.052l7.576-5.184c.054-.037.087-.099.087-.165 0-.11-.09-.2-.2-.2h-4.886c-.045 0-.088.015-.123.042l-2.69 2.102c-.049.038-.077.096-.077.158zm.086 1.157c-.054.037-.086.099-.086.164v.087c0 .106.086.192.192.192h2.808c.11 0 .2-.09.2-.2v-2.022c0-.041-.012-.081-.036-.114-.063-.091-.188-.113-.278-.05z"/></svg>