<svg viewBox="0 0 24 24" xmlns="http://www.w3.org/2000/svg"><path fill="currentColor" d="m17.727 3.465-.535 2.799c-.064.303-.445.623-.801.623h-4.981c-.562 0-.963.391-.963.945v.614c0 .569.405.96.966.96h4.23c.395 0 .785.436.697.855l-.535 2.76c-.051.24-.314.63-.785.63h-3.457c-.63 0-.818.091-1.239.601-.42.524-4.206 5.069-4.206 5.069-.037.045-.074.029-.074-.015v-15.886c0-.359.311-.78.776-.78h10.274c.375 0 .73.356.633.821zm.451 10.98c.145-.578 1.746-8.784 2.281-11.385m-1.973-3.06h-12.803c-1.765 0-2.283 1.328-2.283 2.164v20.34c0 .94.504 1.291.789 1.405.284.117 1.069.214 1.541-.328 0 0 6.044-7.014 6.146-7.117.165-.157.165-.157.315-.157h3.914c1.65 0 1.906-1.17 2.086-1.86.15-.569 1.754-8.774 2.279-11.385.405-1.982-.105-3.062-1.98-3.062z"/></svg>