<svg viewBox="0 0 24 24" xmlns="http://www.w3.org/2000/svg"><path fill="currentColor" d="m2.867 10.631.341-1.024h-3.208v4.779h1.16v-1.72h1.434l.341-1.024h-1.775v-1.01zm3.03-1.085a2.454 2.454 0 1 0 -.006 4.908 2.454 2.454 0 0 0 .007-4.908zm0 3.74a1.287 1.287 0 1 1 -.007-2.574 1.287 1.287 0 0 1 .008 2.575zm6.506-3.679h-1.297l-.812 1.304-.82-1.304h-1.297l1.468 2.335-1.536 2.444h1.297l.888-1.405.88 1.405h1.297l-1.529-2.444zm.102 1.024h1.413v3.755h1.16v-3.756h1.23v-1.023h-3.16zm7.304 0 .341-1.024h-3.208v4.779h2.867l.341-1.024h-2.046v-.915h1.432l.341-1.024h-1.773v-.792zm2.143 2.73v-3.753h-1.16v4.779h2.867l.341-1.025z"/></svg>