<svg viewBox="0 0 24 24" xmlns="http://www.w3.org/2000/svg"><path fill="currentColor" d="m23.682 2.406c-.001-.149-.097-.187-.24-.189h-.25v.659h.108v-.282h.102l.17.282h.122l-.184-.29c.102-.012.175-.065.172-.18zm-.382.096v-.193h.13c.06-.002.145.011.143.089.005.09-.08.107-.153.103h-.12zm-1.449-1.012c1.172 1.171-2.077 6.319-2.626 6.869-.549.548-1.944.044-3.115-1.128-1.172-1.171-1.676-2.566-1.127-3.115.549-.55 5.697-3.798 6.868-2.626zm-20.199 5.12c-1.026-1.792-2.196-4.395-1.376-5.215.81-.81 3.355.319 5.144 1.334a11.003 11.003 0 0 0 -3.768 3.881zm18.95.418a10.584 10.584 0 0 1 1.368 5.218c0 5.874-4.762 10.636-10.637 10.636-5.874 0-10.636-4.762-10.636-10.636 0-5.875 4.762-10.636 10.636-10.636 1.771 0 3.441.433 4.909 1.199-.361.201-.69.398-.969.574-.428-.077-.778-.017-.998.202-.402.402-.269 1.245.263 2.2.273.539.701 1.124 1.25 1.674.103.104.208.202.315.297 1.519 1.446 3.205 2.111 3.829 1.486.267-.267.297-.728.132-1.287.167-.27.35-.584.538-.927zm2.814-5.088c-.322 0-.584.266-.584.595s.261.595.584.595.584-.266.584-.595-.261-.595-.584-.595zm0 1.087c-.252 0-.457-.22-.457-.492s.204-.492.457-.492c.252 0 .457.22.457.492s-.204.492-.457.492z"/></svg>