<svg viewBox="0 0 24 24" xmlns="http://www.w3.org/2000/svg"><path fill="currentColor" d="m12.1706 1.2719a.732.732 0 0 0 -.7186.732v13.914a.732.732 0 0 0 .732.732.732.732 0 0 0 .7318-.732v-13.9139a.732.732 0 0 0 -.7452-.732zm11.0741 4.1685a.7339.7339 0 0 0 -.2764.063l-6.2823 2.8036a.7329.7329 0 0 0 0 1.3361l6.2823 2.8134a.7378.7378 0 0 0 .2993.0648.732.732 0 0 0 .2973-1.401l-4.786-2.1443 4.786-2.1366a.7339.7339 0 0 0 .3698-.9664.7339.7339 0 0 0 -.69-.4327zm-22.499 5.032a.7316.7316 0 0 0 -.7223.9149c1.736 6.677 7.7748 11.341 14.6822 11.341a.732.732 0 0 0 0-1.464 13.7055 13.7055 0 0 1 -13.266-10.2449.7316.7316 0 0 0 -.6939-.547z"/></svg>