<svg viewBox="0 0 24 24" xmlns="http://www.w3.org/2000/svg"><path fill="currentColor" d="m12 0a12 12 0 1 0 0 24 12 12 0 0 0 0-24zm.122 5.143c.45 0 .9.044 1.342.132l-1.342 2.806c-2.16-.001-3.919 1.759-3.919 3.919s1.76 3.92 3.92 3.92c.937 0 1.844-.338 2.553-.951l1.483 2.572a6.856 6.856 0 0 1 -10.893-5.541 6.856 6.856 0 0 1 6.856-6.856zm3.498.49a1.262 1.262 0 0 1 .026 0c.427 0 .792.113 1.101.34.31.229.466.546.466.946 0 .639-.36 1.03-1.035 1.376l-.377.191c-.403.204-.602.385-.657.706h2.05v.85h-3.101v-.144c0-.526.103-.96.314-1.306.211-.345.576-.65 1.102-.917l.242-.117c.427-.216.538-.401.538-.625 0-.266-.228-.458-.6-.458-.44 0-.773.228-1.004.694l-.592-.595c.13-.279.338-.502.619-.675a1.7 1.7 0 0 1 .908-.266zm-2.094 5.388h3.394l1.697 2.937-1.697 2.94-1.697-2.94h-3.393z"/></svg>