<svg viewBox="0 0 24 24" xmlns="http://www.w3.org/2000/svg"><path fill="currentColor" d="m12 0c-6.6 0-12 5.4-12 12s5.4 12 12 12 12-5.4 12-12-5.4-12-12-12zm0 2.571c3.171 0 5.915 1.543 7.629 3.858l-1.286 1.115c-1.457-1.972-3.772-3.258-6.343-3.258-3.343 0-6.171 2.143-7.286 5.143l9.857 9.857c2.486-.857 4.373-3 4.973-5.572h-4.115v-1.714h6c0 4.457-3.172 8.228-7.372 9.17l-11.227-11.226c.942-4.201 4.713-7.374 9.17-7.374zm-9.429 9.6 9.344 9.258c-2.4-.086-4.801-.943-6.601-2.743s-2.743-4.201-2.743-6.515z"/></svg>