<svg viewBox="0 0 24 24" xmlns="http://www.w3.org/2000/svg"><path fill="currentColor" d="m3.34 0a3.345 3.345 0 0 0 -3.34 3.34v17.32a3.345 3.345 0 0 0 3.34 3.34h17.32a3.345 3.345 0 0 0 3.34-3.34v-17.32c-.018-1.84-1.499-3.34-3.34-3.34zm0 1.535h17.32c.992 0 1.805.813 1.805 1.806v17.3c0 .993-.813 1.806-1.806 1.806h-17.318a1.811 1.811 0 0 1 -1.806-1.806v-17.3c0-.993.813-1.806 1.806-1.806zm2.98 4.677a1.877 1.877 0 0 0 -1.878 1.878v4.569c0 1.03.85 1.86 1.879 1.878h1.552v.343c-.018.85-.505 1.337-1.679 1.355h-.74v1.535h.74c2.167 0 3.395-1.03 3.431-2.908v-8.65zm4.623 0v8.307h1.752v-6.789h1.68v6.79h1.752v-6.79h1.01c.362 0 .669.289.669.668v6.14h1.752v-6.448c-.018-1.029-.85-1.878-1.879-1.878zm-4.08 1.518h1.01v5.273h-1.01a.666.666 0 0 1 -.669-.668v-3.938c0-.36.29-.668.668-.668zm4.08 8.506v1.535h8.596v-1.535z"/></svg>