<svg viewBox="0 0 24 24" xmlns="http://www.w3.org/2000/svg"><path fill="currentColor" d="m22.058 19.93c-1.01-2.29-1.185-4.228-1.212-4.99v-6.27c0-4.788-3.96-8.67-8.846-8.67s-8.85 3.882-8.85 8.671v6.36c-.037.82-.236 2.7-1.207 4.899-1.306 2.955-.226 2.603.742 2.36.968-.242 3.13-1.192 3.805-.022s1.238 2.184 2.814 1.523c1.576-.663 2.318-.883 2.543-.883h.306c.225 0 .968.22 2.543.882 1.576.662 2.14-.353 2.814-1.522.676-1.17 2.837-.22 3.805.022.968.243 2.048.595.743-2.36m-12.79-15.202c.953 0 1.725 1.198 1.725 2.676s-.772 2.677-1.725 2.677-1.726-1.198-1.726-2.677c0-1.478.773-2.676 1.726-2.676m2.73 10.697c-2.1 0-3.867-2.025-4.4-4.279 1.029 1.387 2.617 2.277 4.4 2.277 1.784 0 3.372-.89 4.401-2.277-.533 2.254-2.3 4.28-4.4 4.28m2.73-5.345c-.953 0-1.725-1.198-1.725-2.677 0-1.478.772-2.676 1.726-2.676.953 0 1.725 1.198 1.725 2.676s-.772 2.677-1.725 2.677z"/></svg>