<svg viewBox="0 0 24 24" xmlns="http://www.w3.org/2000/svg"><path fill="currentColor" d="m14.033 1.195a2.387 2.387 0 0 1 -.87 3.235l-6.98 4.04a.602.602 0 0 0 -.3.522v6.342a.6.6 0 0 0 .3.521l5.524 3.199a.585.585 0 0 0 .586 0l5.527-3.199a.603.603 0 0 0 .299-.52v-3.945l-4.969 2.838a2.326 2.326 0 0 1 -3.19-.9 2.388 2.388 0 0 1 .89-3.23l7.108-4.062c2.165-1.236 4.842.348 4.842 2.865v6.914a4.524 4.524 0 0 1 -2.245 3.919l-6.345 3.672a4.407 4.407 0 0 1 -4.422 0l-6.344-3.672a4.524 4.524 0 0 1 -2.244-3.918v-7.306a4.524 4.524 0 0 1 2.245-3.918l7.393-4.28a2.326 2.326 0 0 1 3.195.883z"/></svg>