<svg viewBox="0 0 24 24" xmlns="http://www.w3.org/2000/svg"><path fill="currentColor" d="m21.038 4.9-7.577-4.498c-.452-.268-.956-.402-1.461-.402s-1.009.134-1.462.403l-7.577 4.497c-.904.537-1.461 1.529-1.461 2.603v8.995c0 1.073.557 2.066 1.462 2.603l7.577 4.497c.452.268.956.402 1.461.402s1.009-.134 1.461-.402l7.577-4.497c.904-.537 1.462-1.529 1.462-2.603v-8.995c0-1.074-.557-2.066-1.462-2.603zm-5.868 14.046.013.646c.001.078-.05.167-.111.198l-.383.22c-.061.031-.111-.007-.112-.085l-.007-.635c-.328.136-.66.169-.872.084-.04-.016-.057-.075-.041-.142l.139-.584c.011-.046.036-.092.069-.121.012-.011.024-.02.036-.026.022-.011.043-.014.062-.006.229.077.521.041.802-.101.357-.181.596-.545.592-.907-.003-.328-.181-.465-.613-.468-.55.001-1.064-.107-1.072-.917-.007-.667.34-1.361.889-1.8l-.007-.652c-.001-.08.048-.168.111-.2l.37-.236c.061-.031.111.007.112.087l.006.653c.273-.109.511-.138.726-.088.047.012.067.076.048.151l-.144.578c-.011.044-.036.088-.065.116-.012.012-.025.021-.038.028-.019.01-.038.013-.057.009-.098-.022-.332-.073-.699.113-.385.195-.52.53-.517.778.003.297.155.387.681.396.7.012 1.003.318 1.01 1.023.007.689-.362 1.433-.928 1.888zm3.973-1.087c0 .06-.008.116-.058.145l-1.916 1.164c-.05.029-.09.004-.09-.056v-.494c0-.06.037-.093.087-.122l1.887-1.129c.05-.029.09-.004.09.056zm1.316-11.062-7.168 4.427c-.894.523-1.553 1.109-1.553 2.187v8.833c0 .645.26 1.063.66 1.184-.131.023-.264.039-.398.039-.42 0-.833-.114-1.197-.33l-7.577-4.497c-.741-.44-1.201-1.261-1.201-2.142v-8.995c0-.881.46-1.702 1.201-2.142l7.577-4.498c.363-.216.777-.33 1.197-.33.419 0 .833.114 1.197.33l7.577 4.498c.624.371 1.046 1.013 1.164 1.732-.252-.536-.818-.682-1.479-.296z"/></svg>