<svg viewBox="0 0 24 24" xmlns="http://www.w3.org/2000/svg"><path fill="currentColor" d="m7.15 15.24h-2.79a.4.4 0 0 0 -.4.4v2c0 .21.18.4.4.4h2.8v1.32h-3.5c-.56 0-1.02-.46-1.02-1.03v-3.39c0-.56.46-1.02 1.03-1.02h3.48zm1.01-3.7c0 .58-.47 1.05-1.05 1.05h-4.48v-1.35h3.78a.4.4 0 0 0 .4-.4v-4.45a.4.4 0 0 0 -.4-.4h-2.02a.4.4 0 0 0 -.41.4v2.02c0 .23.18.4.4.4h1.62v1.35h-2.32c-.58 0-1.05-.46-1.05-1.04v-3.44c0-.57.47-1.04 1.05-1.04h3.42c.58 0 1.05.47 1.05 1.04v5.86zm13.2 7.82h-1.32v-4.12h-.93a.4.4 0 0 0 -.4.4v3.72h-1.33v-4.12h-.93a.4.4 0 0 0 -.4.4v3.72h-1.33v-4.42c0-.56.46-1.02 1.03-1.02h5.61zm.01-7.82c0 .58-.47 1.05-1.05 1.05h-4.48v-1.35h3.78a.4.4 0 0 0 .4-.4v-4.45a.4.4 0 0 0 -.4-.4h-2.03a.4.4 0 0 0 -.4.4v2.02c0 .23.18.4.4.4h1.62v1.35h-2.31c-.58 0-1.05-.46-1.05-1.04v-3.44c0-.57.47-1.04 1.05-1.04h3.43c.58 0 1.05.47 1.05 1.04v5.86zm-7.65-6.9h-3.44c-.58 0-1.04.47-1.04 1.04v3.44c0 .58.46 1.04 1.04 1.04h3.44c.57 0 1.04-.46 1.04-1.04v-3.44c0-.57-.47-1.04-1.04-1.04m-.3 1.75v2.02a.4.4 0 0 1 -.4.4h-2.03a.4.4 0 0 1 -.4-.4v-2.01c0-.22.17-.4.4-.4h2.01c.23 0 .4.18.4.4zm-.79 7.53h-3.39c-.57 0-1.03.46-1.03 1.02v3.39c0 .57.46 1.03 1.03 1.03h3.39c.57 0 1.03-.46 1.03-1.03v-3.39c0-.56-.46-1.02-1.03-1.02m-.3 1.72v2a.4.4 0 0 1 -.4.4v-.01h-1.99a.4.4 0 0 1 -.4-.4v-1.99c0-.22.18-.4.4-.4h2c.22 0 .4.18.4.4zm11.16-14.54a1.74 1.74 0 0 0 -1.24-.52h-20.5a1.74 1.74 0 0 0 -1.75 1.75v19.34a1.74 1.74 0 0 0 1.75 1.75h20.5a1.74 1.74 0 0 0 1.75-1.75v-19.34c0-.48-.2-.92-.51-1.24m0 20.58a1.23 1.23 0 0 1 -1.24 1.24h-20.5a1.23 1.23 0 0 1 -1.25-1.24v-19.34a1.23 1.23 0 0 1 1.24-1.24h20.5a1.24 1.24 0 0 1 1.24 1.24v19.34z"/></svg>