<svg viewBox="0 0 24 24" xmlns="http://www.w3.org/2000/svg"><path fill="currentColor" d="m0 0v24h24v-24zm6.764 3a5.448 5.448 0 0 1 3.892 1.356l-1.372 1.656a3.652 3.652 0 0 0 -2.588-1.012c-1.6 0-2.844 1.4-2.844 3.08v.028c0 1.812 1.244 3.14 3 3.14a3.468 3.468 0 0 0 2.048-.596v-1.424h-2.192v-1.88h4.292v4.296a6.428 6.428 0 0 1 -4.228 1.572c-3.076 0-5.196-2.164-5.196-5.092v-.028a5.08 5.08 0 0 1 5.188-5.096zm10.432 0c3.052 0 5.244 2.276 5.244 5.088v.028a5.116 5.116 0 0 1 -5.272 5.12c-3.056-.02-5.248-2.296-5.248-5.112v-.028a5.116 5.116 0 0 1 5.276-5.096zm-.028 2a2.96 2.96 0 0 0 -2.968 3.068v.028a3.008 3.008 0 0 0 3 3.112 2.96 2.96 0 0 0 2.964-3.084v-.028a3.004 3.004 0 0 0 -2.996-3.096zm-14.916 14.5h9v1.5h-9z"/></svg>