<svg viewBox="0 0 24 24" xmlns="http://www.w3.org/2000/svg"><path fill="currentColor" d="m8.548 1.156-1.716 1.716v1.682h1.716zm0 3.398v.035h-1.716v-.035h-3.446l-3.386 3.29v3.577h2.826v-2.481c0-.525.429-.954.954-.954h16.476c.525 0 .954.43.954.954v2.48h2.754v-3.576l-3.386-3.29h-3.278v.035h-1.717v-.035zm7.035 0h1.717v-1.682l-1.717-1.716zm-6.904-3.366v1.652h6.773v-1.652zm11.471 7.07a.834.834 0 0 0 -.132.01l-.543.002c-5.216.014-10.432-.008-15.648.01-.435-.063-.794.436-.716.883v2.264h17.812c-.016-.888.045-1.782-.034-2.666-.104-.342-.427-.502-.739-.502zm-15.422.634a.689.698 0 0 1 .689.698.689.698 0 0 1 -.689.697.689.698 0 0 1 -.688-.697.689.698 0 0 1 .688-.698zm2.134 0a.689.698 0 0 1 .689.698.689.698 0 0 1 -.689.697.689.698 0 0 1 -.688-.697.689.698 0 0 1 .688-.698zm-6.826 2.753v9.156c0 1.05.858 1.908 1.907 1.908h.883v-11.064zm21.174 0v11.064h.882c1.05 0 1.908-.858 1.908-1.908v-9.156zm-17.153 1.488v6.85h6.137v-6.85zm13.243.021v3.777l-1.708.977-1.708-.977v-3.758a4.006 4.006 0 0 0 0 7.23v2.441h3.457v-2.442a4.006 4.006 0 0 0 -.041-7.248zm-13.243 8.26v1.43h7.925v-1.43z"/></svg>