<svg viewBox="0 0 24 24" xmlns="http://www.w3.org/2000/svg"><path fill="currentColor" d="m3.9998 22.9291c-2.209 0-3.9998-1.7908-3.9998-3.9998s1.7908-3.9998 3.9998-3.9998 3.9998 1.7908 3.9998 3.9998-1.7908 3.9998-3.9998 3.9998zm19.4643-6.0004-8.0009-13.8567c-1.1046-1.9133-3.5511-2.5692-5.4644-1.4646s-2.5693 3.5511-1.4647 5.4644l8.0009 13.8567c1.1046 1.9133 3.5511 2.5679 5.4644 1.4646 1.9134-1.1046 2.568-3.5511 1.4647-5.4644zm-15.9504-12.0849-5.9492 10.3046a4.5 4.5 0 0 1 2.4355-.7187c2.5597-.0075 4.6248 2.1585 4.4941 4.7148l3.2168-5.5723-3.6094-6.25c-.4499-.7793-.6322-1.6394-.5878-2.4784z"/></svg>