<svg viewBox="0 0 24 24" xmlns="http://www.w3.org/2000/svg"><path fill="currentColor" d="m21.2666 21.2a.6141.6141 0 0 1 -.6128.6128h-17.3092a.614.614 0 0 1 -.6128-.6128v-13.0847a.6141.6141 0 0 1 .6128-.6128h17.3091a.6141.6141 0 0 1 .6128.6128v13.0847zm-3.0315-3.4196v-1.1957a.0803.0803 0 0 0 -.0803-.0803h-5.3725v1.3619h5.3725a.0817.0817 0 0 0 .0804-.083zm.8171-2.5875v-1.2012a.0803.0803 0 0 0 -.079-.0817h-6.191v1.3619h6.1896a.079.079 0 0 0 .0804-.0776v-.0041zm-.8171-2.5875v-1.2066a.0803.0803 0 0 0 -.0803-.0803h-5.3725v1.3619h5.3725a.0816.0816 0 0 0 .0803-.079zm-10.0859 1.4394v1.2257h1.7704c-.1457.749-.8049 1.2924-1.7704 1.2924-1.0906-.0405-1.9418-.9574-1.9013-2.048.0384-1.0338.8676-1.8629 1.9013-1.9013a1.77 1.77 0 0 1 1.2529.4903l.9342-.9329a3.1405 3.1405 0 0 0 -2.1871-.8525c-1.8051 0-3.2684 1.4633-3.2684 3.2684s1.4633 3.2684 3.2684 3.2684c1.8889 0 3.1323-1.3278 3.1323-3.1976a3.941 3.941 0 0 0 -.0518-.6183zm-5.8791-6.3911a.6156.6156 0 0 1 .6128-.6128h12.1545l-1.2692-3.4904a.5952.5952 0 0 0 -.7436-.3827l-12.657 4.6071a.5938.5938 0 0 0 -.3228.7749l2.2253 6.112zm0 0a.6156.6156 0 0 1 .6128-.6128h12.1545l-1.2692-3.4904a.5952.5952 0 0 0 -.7436-.3827l-12.657 4.6071a.5938.5938 0 0 0 -.3228.7749l2.2253 6.112zm21.3116-.3105-8.803-2.3683.7517 2.0659h5.5836a.6141.6141 0 0 1 .6128.6128v8.7948l2.2471-8.3659a.5923.5923 0 0 0 -.3922-.7393zm-4.4955-1.6738v-2.8748a.6101.6101 0 0 0 -.6115-.6074h-12.9511a.6101.6101 0 0 0 -.6156.6046v2.8368l8.3904-3.0519a.5937.5937 0 0 1 .7422.3895l.5447 1.498z"/></svg>