<svg viewBox="0 0 24 24" xmlns="http://www.w3.org/2000/svg"><path fill="currentColor" d="m19.527 4.799c1.212 2.608.937 5.678-.405 8.173-1.101 2.047-2.744 3.74-4.098 5.614-.619.858-1.244 1.75-1.669 2.727-.141.325-.263.658-.383.992-.121.333-.224.673-.34 1.008-.109.314-.236.684-.627.687h-.007c-.466-.001-.579-.53-.695-.887-.284-.874-.581-1.713-1.019-2.525-.51-.944-1.145-1.817-1.79-2.671zm-10.982 2.906-3.959 4.707c.724 1.54 1.821 2.863 2.871 4.18.247.31.494.622.737.936l4.984-5.925-.029.01c-1.741.601-3.691-.291-4.392-1.987a3.377 3.377 0 0 1 -.209-.716c-.063-.437-.077-.761-.004-1.198zm-3.053-4.556-.003.004c-1.947 2.466-2.281 5.88-1.117 8.77l4.785-5.689-.058-.05zm9.169-2.713-3.838 4.563a.295.295 0 0 1 .027-.01c1.6-.551 3.403.15 4.22 1.626.176.319.323.683.377 1.045.068.446.085.773.012 1.22l-.003.016 3.836-4.561a8.382 8.382 0 0 0 -4.622-3.896zm-5.195 5.432 4.696-5.583-.047-.012a8.31 8.31 0 0 0 -2.129-.273 8.439 8.439 0 0 0 -6.169 2.766l-.016.018z"/></svg>