<svg viewBox="0 0 24 24" xmlns="http://www.w3.org/2000/svg"><path fill="currentColor" d="m16.9414 4.9757a7.033 7.033 0 0 0 -4.9308 2.0646 7.033 7.033 0 0 0 -.1232 9.8068l2.395-2.395a3.6455 3.6455 0 0 1 5.1497-5.1478l2.397-2.3989a7.033 7.033 0 0 0 -4.8877-1.9297zm-9.8714.0098a7.033 7.033 0 0 0 -4.8878 1.9316l2.3911 2.3911a3.6434 3.6434 0 0 1 5.0227.1271l1.7341-2.9737-.0997-.0802a7.033 7.033 0 0 0 -4.1604-1.3959zm15.0093 2.1721-2.3892 2.3911a3.6455 3.6455 0 0 1 -5.1497 5.1497l-2.4067 2.4068a7.0362 7.0362 0 0 0 9.9456-9.9476zm-20.1473.0098a7.033 7.033 0 0 0 -.002 9.6816l2.397-2.397a3.6434 3.6434 0 0 1 -.004-4.8916zm7.664 7.4235c-1.38 1.3816-3.5863 1.411-5.0168.1134l-2.397 2.395c2.4693 2.3328 6.263 2.5753 9.0072.5455l.1368-.1115z"/></svg>