<svg viewBox="0 0 24 24" xmlns="http://www.w3.org/2000/svg"><path fill="currentColor" d="m1.503 9.678c-.83 0-1.5.67-1.5 1.5v1.63a1.5 1.5 0 1 0 3 0v-1.63c0-.83-.67-1.5-1.5-1.5zm20.994 0c-.83 0-1.5.67-1.5 1.5v1.63a1.5 1.5 0 1 0 3 0v-1.63c0-.83-.67-1.5-1.5-1.5zm-15.817 4.909c-.83 0-1.5.67-1.5 1.5v1.63a1.5 1.5 0 1 0 3 0v-1.62c0-.83-.67-1.5-1.5-1.5zm0-9.817c-.83 0-1.5.67-1.5 1.5v5.357a1.5 1.5 0 0 0 3 0v-5.369c0-.83-.67-1.5-1.5-1.5zm10.638 0c-.83 0-1.5.67-1.5 1.5v1.64a1.5 1.5 0 0 0 3 0v-1.64c0-.83-.67-1.5-1.5-1.5zm-5.318-4.77c-.83 0-1.5.67-1.5 1.5v1.63a1.5 1.5 0 1 0 3 0v-1.63c0-.83-.67-1.499-1.5-1.499zm0 19.355c-.83 0-1.5.67-1.5 1.5v1.64a1.5 1.5 0 1 0 3 .01v-1.64c0-.82-.67-1.5-1.5-1.5zm5.319-8.457c-.83 0-1.5.68-1.5 1.5v5.328a1.5 1.5 0 0 0 3 0v-5.329c0-.83-.67-1.5-1.5-1.5zm-5.319-4.77c-.83 0-1.5.68-1.5 1.5v8.728a1.5 1.5 0 0 0 3 0v-8.718c0-.83-.67-1.5-1.5-1.5z"/></svg>