<svg viewBox="0 0 24 24" xmlns="http://www.w3.org/2000/svg"><path fill="currentColor" d="m12 0a12 12 0 0 0 -12 12 12 12 0 0 0 12 12 12 12 0 0 0 12-12 12 12 0 0 0 -12-12zm-7.089 7.089h11.456a2.197 2.197 0 0 1 2.165 2.19v5.863a2.213 2.213 0 0 1 -2.177 2.178h-8.315c-1.174 0-2.04-.99-2.04-2.178v-4.639l-1.497-2.598c-.31-.42-.05-.816.408-.816zm3.415 2.19c-.347 0-.68.21-.68.544s.333.544.68.544h7.905c.346 0 .68-.21.68-.544s-.334-.545-.68-.545zm0 2.177c-.347 0-.68.21-.68.544s.333.544.68.544h7.905c.346 0 .68-.21.68-.544s-.334-.544-.68-.544zm-.013 2.19c-.346 0-.68.21-.68.544s.334.544.68.544h5.728c.347 0 .68-.21.68-.544s-.333-.545-.68-.545z"/></svg>