<svg viewBox="0 0 24 24" xmlns="http://www.w3.org/2000/svg"><path fill="currentColor" d="m12 0c-3.074 0-6.148 1.17-8.489 3.511-4.37 4.371-4.66 11.299-.869 16.01a3.138 3.138 0 0 1 .719-3.314 3.138 3.138 0 0 1 3.672-.56 6.163 6.163 0 0 1 9.324-8.004 2.921 2.921 0 1 0 4.132-4.132 11.968 11.968 0 0 0 -8.489-3.511zm9.36 4.481a3.138 3.138 0 0 1 -.72 3.313 3.138 3.138 0 0 1 -3.672.56 6.165 6.165 0 0 1 -.61 8.003 2.921 2.921 0 1 0 4.131 4.132c4.37-4.37 4.66-11.298.87-16.008zm-15.784 11.02a2.92 2.92 0 0 0 -2.922 2.922 2.92 2.92 0 0 0 2.922 2.922 2.92 2.92 0 0 0 2.922-2.922 2.92 2.92 0 0 0 -2.921-2.923zm10.07 1.467a6.168 6.168 0 0 1 -7.293 0 3.14 3.14 0 0 1 -.56 3.672 3.136 3.136 0 0 1 -3.314.718c4.376 3.523 10.665 3.523 15.04 0a3.136 3.136 0 0 1 -3.313-.718 3.138 3.138 0 0 1 -.56-3.672z"/></svg>