<svg viewBox="0 0 24 24" xmlns="http://www.w3.org/2000/svg"><path fill="currentColor" d="m1.6367 1.6367c-.9045 0-1.6367.7323-1.6367 1.6367v17.4532c0 .9045.7322 1.6367 1.6367 1.6367h20.7266c.9045 0 1.6367-.7322 1.6367-1.6367v-17.4532c0-.9045-.7322-1.6367-1.6367-1.6367zm.545 2.1817h19.6367v16.3632h-2.7266v-1.0898h-4.9102v1.0898h-12v-16.3632zm9.8183 4.3632c-.9046 0-1.6367.7322-1.6367 1.6368 0 .9045.7321 1.6367 1.6367 1.6367s1.6367-.7322 1.6367-1.6367c0-.9046-.7321-1.6368-1.6367-1.6368zm-4.3633 1.9102c-.6773 0-1.2285.5493-1.2285 1.2266 0 .6772.5512 1.2265 1.2285 1.2265s1.2266-.5493 1.2266-1.2265c0-.6773-.5493-1.2266-1.2266-1.2266zm8.7266 0c-.6773 0-1.2266.5493-1.2266 1.2266 0 .6772.5493 1.2265 1.2266 1.2265s1.2285-.5493 1.2285-1.2265c0-.6773-.5512-1.2266-1.2285-1.2266zm-4.3633 2.4531c-1.179 0-2.4128.4012-3.1484 1.0059-.384-.1198-.8043-.1875-1.2149-.1875-1.3136 0-2.7285.695-2.7285 1.5586v.8965h14.1836v-.8965c0-.8637-1.4149-1.5586-2.7285-1.5586-.4106 0-.831.0677-1.2149.1875-.7356-.6047-1.9694-1.0059-3.1484-1.0059z"/></svg>