<svg viewBox="0 0 24 24" xmlns="http://www.w3.org/2000/svg"><path fill="currentColor" d="m12 0c-3.79 0-7.169 1.757-9.368 4.501l3.953 6.848a5.454 5.454 0 0 1 5.415-4.804h10.691a12 12 0 0 0 -10.691-6.545zm-10.069 5.47a11.943 11.943 0 0 0 -1.931 6.53c0 6.012 4.42 10.991 10.189 11.864l3.953-6.847a5.45 5.45 0 0 1 -6.865-2.29zm13.342 2.166a5.446 5.446 0 0 1 1.45 7.09l.002.001h-.002l-5.344 9.257c.206.01.413.016.621.016 6.627 0 12-5.373 12-12 0-1.54-.29-3.011-.818-4.364zm-3.273 8.728a4.364 4.364 0 1 1 0-8.728 4.364 4.364 0 0 1 0 8.728z"/></svg>