<svg viewBox="0 0 24 24" xmlns="http://www.w3.org/2000/svg"><path fill="currentColor" d="m12.002 0a2.138 2.138 0 1 0 0 4.277 2.138 2.138 0 1 0 0-4.277zm8.54 4.931a2.138 2.138 0 1 0 0 4.277 2.138 2.138 0 1 0 0-4.277zm0 9.862a2.138 2.138 0 1 0 0 4.277 2.138 2.138 0 1 0 0-4.277zm-8.54 4.931a2.138 2.138 0 1 0 0 4.276 2.138 2.138 0 1 0 0-4.276zm-8.542-4.93a2.138 2.138 0 1 0 0 4.276 2.138 2.138 0 1 0 0-4.277zm0-9.863a2.138 2.138 0 1 0 0 4.277 2.138 2.138 0 1 0 0-4.277zm8.542-3.378-9.049 5.224v10.448l9.049 5.224 9.047-5.224v-10.448zm0 1.601 7.66 13.27h-15.322zm-1.387.371-6.645 11.512v-7.674zm2.774 0 6.646 3.838v7.674zm-8.034 13.915h13.293l-6.646 3.836z"/></svg>