<svg viewBox="0 0 24 24" xmlns="http://www.w3.org/2000/svg"><path fill="currentColor" d="m11.1597 6.57419h1.6801v1.59479h-1.6801zm7.04-6.57419h-12.39959c-2.65113 0-4.80011 2.03979-4.80011 4.55577v11.76853c0 2.5159 2.14898 4.5557 4.80011 4.5557h4.12704l2.05145 3.12 2.052-3.12h4.1691c2.6509 0 4.8003-2.0398 4.8003-4.5557v-11.76856c0-2.51598-2.1494-4.55574-4.8003-4.55574zm-10.63137 8.16895h1.77922v-1.59479h-1.77922v-1.71969h1.77922v-1.6886h1.81215v1.6886h1.6801v-1.6886h1.8121v1.6886h1.7789v1.71969h-1.7789v1.59479h1.7789v1.71957h-1.7789v1.68868h-1.8121v-1.68868h-1.6801v1.68868h-1.81215v-1.68868h-1.77922zm12.74387 5.26315s-2.392 4.2759-8.0716 4.2759c-.0787 0-.1563-.001-.2336-.0023-.0771.0013-.1548.0023-.2333.0023-5.67954 0-8.07159-4.2759-8.07159-4.2759s-.15482-.2785-.15482-.5787c-.00975-.2166.10186-.5271.39481-.7101.1629-.1016.3169-.1519.45969-.1676.68387-.0688 1.08023.3538 1.40615.8364.35994.5326 2.43651 2.8659 6.19906 2.9551 3.7628-.0892 5.8394-2.4225 6.1993-2.9551.3259-.4826.7366-.9059 1.4062-.8364.1428.0157.2969.066.4597.1676.293.183.407.4406.3968.7099-.023.3962-.1568.5789-.1568.5789z"/></svg>