<svg viewBox="0 0 24 24" xmlns="http://www.w3.org/2000/svg"><path fill="currentColor" d="m3.316 20.334c2.302 2.402 5.238 3.666 8.696 3.666 3.988 0 7.739-1.95 9.978-5.163 1.353-1.95 2.01-4.158 2.01-6.755 0-.484-.032-1.006-.063-1.529h-13.342v4.61h6.687c-1.155 2.012-3.094 3.12-5.27 3.12-3.229 0-6.125-2.824-6.125-6.497 0-3.315 2.699-6.069 6.125-6.069 1.844 0 3.355.749 4.811 2.239h6.52c-1.875-4.937-6.259-7.956-11.26-7.956-3.323 0-6.22 1.17-8.53 3.409-2.303 2.238-3.553 5.163-3.553 8.345-.008 3.417 1.108 6.271 3.316 8.58z"/></svg>