<svg viewBox="0 0 24 24" xmlns="http://www.w3.org/2000/svg"><path fill="currentColor" d="m20.348 7.829-1.491-2.65 2.889.001c.077 0 .167.051.21.12l1.533 2.529zm-5.344 16.046c-.07.125-.161.125-.19.125h-2.956l4.591-8.243a.442.442 0 0 0 -.384-.657l-7.825.01-1.556-2.694h11.397c.248-.017.362-.158.393-.231l1.879-3.473h3.101zm-3.91-.314-1.522-2.506c-.023-.037-.034-.128.014-.214l2.694-4.853 3.034-.004zm-5.174-5.158-1.508-2.68 1.52-2.848 1.524 2.64c-.474.891-1.213 2.283-1.536 2.888zm-3.668.417a.268.268 0 0 1 -.207-.12l-1.535-2.53h3.141l1.491 2.65-2.891-.001zm6.744-18.694c.07-.126.16-.126.19-.126h2.968l-4.603 8.243c-.11.167-.11.712.58.657l7.63-.01c.527.92 1.002 1.752 1.51 2.642h-11.349a.465.465 0 0 0 -.397.234l-1.879 3.522h-3.1zm3.917.323 1.515 2.496c.023.037.034.128-.015.214l-2.693 4.853-3.032.004zm5.166 5.145 1.509 2.68-1.538 2.844c-.517-.905-.997-1.745-1.529-2.673.328-.6 1.195-2.189 1.558-2.851z"/></svg>