<svg viewBox="0 0 24 24" xmlns="http://www.w3.org/2000/svg"><path fill="currentColor" d="m11.591.007c-6.623.226-11.809 5.778-11.584 12.402.226 6.624 5.778 11.81 12.402 11.584 6.624-.232 11.809-5.786 11.584-12.411-.231-6.619-5.782-11.801-12.402-11.575zm.821 21.902a9.894 9.894 0 0 1 -.845-.01l-.043-1.479-4.699-1.824-.096 1.776a9.886 9.886 0 0 1 -4.589-7.974c-.21-5.463 4.049-10.062 9.512-10.272h.014a9.857 9.857 0 0 1 5.498 1.431l-5.17 5.673 7.52-3.686a9.906 9.906 0 0 1 1.228 1.79l-8.461 2.787 9.393-.323c.13.567.212 1.151.241 1.752l-9.314-.613 9.086 3.218c-.948 4.291-4.68 7.577-9.275 7.754zm-5.726-12.871h.288v2.539h-.234v.88h.408l-.067 1.323 4.197 1.509-.127-2.832h.415v-.88h-.235v-2.539h.283l-2.426-2.821zm3.835 2.539h-.912v-1.611h-.912v1.611h-.912v-2.539h2.736zm.8 4.533.032.725-4.352-1.563.048-.816zm-4.347-.33 4.411 1.712.032.72-4.485-1.611zm4.48 3.088.032.715-4.624-1.653.048-.821z"/></svg>