<svg viewBox="0 0 24 24" xmlns="http://www.w3.org/2000/svg"><path fill="currentColor" d="m12 10.71 6.12-5.31h-6.12c-2.16 0-4.32.06-6.36.21-.84.06-1.5.69-1.56 1.53-.12 1.26-.18 2.85-.18 4.41v.87c0 1.59.06 3.15.18 4.41.09.81.75 1.47 1.56 1.5a90 90 0 0 0 12.72 0c.81-.03 1.5-.69 1.56-1.5.09-1.2.15-2.67.18-4.17l3.9-3.36v3.36c0 1.59-.06 3.18-.18 4.47a5.57 5.57 0 0 1 -5.19 5.1c-2.13.18-4.38.27-6.63.27s-4.5-.09-6.63-.24a5.57 5.57 0 0 1 -5.19-5.1c-.12-1.35-.18-3.03-.18-4.71v-.87c0-1.68.06-3.36.18-4.74a5.57 5.57 0 0 1 5.19-5.1c2.13-.15 4.38-.24 6.63-.24h12v3.9l-12 10.41-5.61-4.86 2.94-2.55z"/></svg>