<svg viewBox="0 0 24 24" xmlns="http://www.w3.org/2000/svg"><path fill="currentColor" d="m3.497 14.044 7.022-7.021a4.946 4.946 0 0 0 1.474-3.526 4.99 4.99 0 0 0 -1.43-3.497l-7.023 7.024a4.945 4.945 0 0 0 -1.473 3.525c0 1.373.55 2.6 1.43 3.496zm17.007-4.103-7.023 7.022a4.946 4.946 0 0 0 -1.473 3.525c0 1.36.55 2.601 1.43 3.497l7.022-7.022a4.943 4.943 0 0 0 1.474-3.526c0-1.373-.55-2.6-1.43-3.496zm-.044-2.904a4.944 4.944 0 0 0 1.474-3.525c0-1.36-.55-2.6-1.43-3.497l-16.964 16.95a4.986 4.986 0 0 0 -.043 7.035z"/></svg>