<svg viewBox="0 0 24 24" xmlns="http://www.w3.org/2000/svg"><path fill="currentColor" d="m20.61 0h-17.22c-1.201 0-2.16.96-2.16 2.16v19.681c0 1.198.959 2.159 2.16 2.159h17.22c1.2 0 2.159-.961 2.159-2.159v-19.681c.001-1.2-.958-2.16-2.159-2.16zm.96 21.841c0 .539-.421.96-.96.96h-17.22c-.54 0-.96-.421-.96-.96v-19.681c0-.54.42-.961.96-.961h17.22c.539 0 .96.421.96.961zm-14.94-1.442 2.7-2.399-2.7-2.4zm9.72-9.719c-.479-.48-1.379-1.08-2.879-1.08-1.621 0-3.301.421-4.5.84v-6.84h-2.4v10.38l1.68-.78s2.76-1.26 5.16-1.26c1.2 0 1.5.66 1.5 1.26v7.2h2.4v-7.2c.059-.179.059-1.501-.961-2.52zm-3.18-3.18h2.4c1.08-1.26 1.62-2.521 1.8-3.9h-2.399c-.241 1.379-.841 2.64-1.801 3.9z"/></svg>