<svg viewBox="0 0 24 24" xmlns="http://www.w3.org/2000/svg"><path fill="currentColor" d="m11.9922 1.3945a.7041.7041 0 0 0 -.498.211l-11.3321 11.4922a.5634.5634 0 0 0 -.1621.3963.567.567 0 0 0 .5664.5664h2.1036v8.0743c0 .2603.2104.4707.4707.4707h7.9473v-3.6836l-3.051-3.0546a2.42 2.42 0 0 1 -.9473.1933c-1.3379 0-2.4218-1.0868-2.4218-2.4257 0-1.339 1.084-2.4239 2.4218-2.4239 1.338 0 2.422 1.085 2.422 2.4239 0 .3359-.068.6563-.1915.9472l1.7676 1.7676v-5.375c-.8878-.3596-1.5155-1.2306-1.5155-2.248 0-1.339 1.0859-2.4258 2.4238-2.4258 1.338 0 2.4219 1.0868 2.4219 2.4258 0 1.0174-.6259 1.8884-1.5137 2.248v5.375l1.7656-1.7676a2.4205 2.4205 0 0 1 -.1914-.9472c0-1.339 1.086-2.4239 2.4238-2.4239 1.338 0 2.422 1.085 2.422 2.4239s-1.084 2.4257-2.422 2.4257a2.42 2.42 0 0 1 -.9472-.1933l-3.0508 3.0547v3.6836h7.9473a.4702.4702 0 0 0 .4707-.4707v-8.0743h2.1113a.5686.5686 0 0 0 .3965-.162c.2233-.2185.2262-.5775.0078-.8008l-2.5156-2.5723v-4.0547c0-.2603-.2104-.4727-.4707-.4727h-1.9649c-.2603 0-.4707.2124-.4707.4727v1.1035l-5.916-5.9707a.7056.7056 0 0 0 -.5078-.209zm.0039 6.3614c-.5352 0-.9688.4351-.9688.9707 0 .5355.4336.9687.9688.9687a.9683.9683 0 0 0 .9687-.9687c0-.5356-.4335-.9707-.9687-.9707zm-4.9063 4.9101a.9683.9683 0 0 0 -.9687.9688c0 .5355.4336.9707.9687.9707.5352 0 .9688-.4352.9688-.9707a.9683.9683 0 0 0 -.9688-.9688zm9.8125 0c-.5351 0-.9707.4332-.9707.9688 0 .5355.4356.9707.9707.9707.5352 0 .9688-.4352.9688-.9707a.9683.9683 0 0 0 -.9688-.9688z"/></svg>