<svg viewBox="0 0 24 24" xmlns="http://www.w3.org/2000/svg"><path fill="currentColor" d="m1.63.47a.393.393 0 0 0 -.39.39v2.417c0 .212.177.39.39.39h20.74c.213 0 .39-.178.39-.39v-2.418a.393.393 0 0 0 -.39-.39zm-.045 4.126a.41.41 0 0 0 -.407.337l-1.17 6.314c-.008.027-.008.053-.008.08v2.117c0 .23.186.416.416.416h23.168c.23 0 .416-.186.416-.416v-2.126c0-.027 0-.053-.009-.08l-1.169-6.305a.41.41 0 0 0 -.407-.337zm.115 10.185a.457.457 0 0 0 -.46.46v7.829c0 .257.203.46.46.46h14.108c.257 0 .46-.203.46-.46v-6.589c0-.257.204-.46.461-.46h4.02c.258 0 .461.203.461.46v6.589c0 .257.204.46.46.46h.62a.456.456 0 0 0 .461-.46v-7.829a.458.458 0 0 0 -.46-.46zm1.842 1.55h7.847c.212 0 .39.177.39.39v4.879c0 .212-.178.39-.39.39h-7.847a.393.393 0 0 1 -.39-.39v-4.88c0-.221.178-.39.39-.39z"/></svg>