<svg viewBox="0 0 24 24" xmlns="http://www.w3.org/2000/svg"><path fill="currentColor" d="m12.002 0h.023c1.311.004 2.603.322 3.766.928 1.157-.596 2.439-.906 3.741-.906h.676v23.978l-.656-.002c-4.183.002-8.196-1.662-11.152-4.625-2.97-2.943-4.63-6.959-4.609-11.143v-8.209h.677c1.301 0 2.586.311 3.741.906 1.172-.609 2.473-.927 3.793-.927zm0 .654c-1.381 0-2.676.373-3.791 1.021-1.138-.655-2.428-1.001-3.742-1h-.022v7.555c-.025 8.35 6.764 15.09 15.107 15.113v-22.668h-.022c-1.313-.001-2.604.343-3.743.999-1.144-.666-2.443-1.018-3.766-1.02zm3.252 2.754c1.79.002 3.238 1.453 3.237 3.242-.003 1.791-1.454 3.238-3.244 3.236-.616 0-1.22-.176-1.739-.508l-1.516 1.508-1.507-1.516c-1.514.952-3.515.495-4.465-1.02-.952-1.516-.495-3.516 1.021-4.467s3.516-.494 4.467 1.022c.273.437.44.933.483 1.446l.016-.02.015.018c.154-1.667 1.556-2.945 3.232-2.941zm-6.494 5.381c1.192.006 2.163-.959 2.168-2.15.001-.219-.031-.436-.096-.644-.243.544-.882.788-1.426.546-.545-.244-.79-.883-.546-1.428.109-.243.304-.437.548-.547-1.137-.355-2.347.276-2.705 1.414-.066.207-.099.424-.1.642-.003 1.192.96 2.163 2.153 2.167zm6.478.019c1.193.003 2.163-.962 2.166-2.155s-.963-2.162-2.155-2.164c-.216-.002-.431.03-.638.094.545.244.789.883.547 1.428-.244.543-.883.787-1.428.545-.245-.109-.439-.307-.549-.553-.355 1.139.279 2.352 1.417 2.707.209.063.423.097.64.098z"/></svg>