<svg viewBox="0 0 24 24" xmlns="http://www.w3.org/2000/svg"><path fill="currentColor" d="m0 19.635v4.365h3.824a8.662 8.662 0 0 1 -3.824-4.365zm16.042-4.555c0-4.037-3.253-7.92-8.111-8.089-3.448-.118-6.13 1.145-7.931 3.014v4.209c1.224-3.549 4.595-5.158 7.419-5.128 3.531.041 6.251 2.703 6.275 5.72 0 2.878-1.183 4.992-4.436 5.516-1.774.296-4.548-.754-4.436-3.434.065-1.381 1.138-2.162 2.366-2.106-1.207 1.618.39 2.801 1.52 2.561a2.51 2.51 0 0 0 1.966-2.502c0-1.017-.958-2.662-3.333-2.6-2.936.068-4.785 2.183-4.85 4.797-.071 3.28 3.007 5.457 6.174 5.483 4.633.059 7.395-2.984 7.377-7.441zm-16.042-15.08v6.906a12.855 12.855 0 0 1 7.931-2.609c6.801 0 11.134 4.762 11.131 10.765 0 4.17-1.946 7.308-4.995 8.938h9.933v-24z"/></svg>