<svg viewBox="0 0 24 24" xmlns="http://www.w3.org/2000/svg"><path fill="currentColor" d="m12 24h-.354l2.46-6.745h3.372c.597 0 1.249-.448 1.454-1.007l2.664-7.304c.429-1.192-.242-2.18-1.528-2.18h-4.695l-6.15 16.92c-5.29-1.269-9.223-6.021-9.223-11.684 0-5.497 3.708-10.137 8.758-11.553l-6.112 16.808h2.534l3.242-8.926h1.92l-3.243 8.926h2.535l3.037-8.33c.428-1.192-.242-2.18-1.528-2.18h-2.143l2.46-6.725c.186 0 .354-.019.54-.019 6.634 0 12 5.366 12 12s-5.366 12-12 12zm7.267-15.67h-1.92l-2.682 7.34h1.919z"/></svg>