<svg viewBox="0 0 24 24" xmlns="http://www.w3.org/2000/svg"><path fill="currentColor" d="m12 0-9.476.994v17.368l9.476 5.638 9.476-5.638v-17.368l-9.377-.984zm8.236 17.657-8.236 4.9-8.236-4.9v-7.119l8.2 4.881.014.885-5.626-3.349-.008.86 5.648 3.394.015.908-5.647-3.36-.008.86 5.648 3.393 5.703-3.412v-.862l-.008.004v-2.805l2.54-1.517v7.238zm-.006-8.162-2.254 1.328-1.04.613-4.96-2.951-.009.858 4.24 2.521-.037.023-.092.054-.602.355-3.5-2.083-.009.859 2.763 1.643-.652.436-.015.01-2.088-1.23-.008.858 1.37.807-1.395.837-8.16-4.85 8.172-4.912v.001zm.006-.864-8.28-4.882h-.002l-8.19 4.877v-6.516l8.236-.864 8.237.864v6.52z"/></svg>