<svg viewBox="0 0 24 24" xmlns="http://www.w3.org/2000/svg"><path fill="currentColor" d="m14.707 15.957h1.912v-7.914h-1.912zm-3.357-2.256a.517.517 0 0 1 -.512.511h-1.111a.517.517 0 0 1 -.512-.511v-3.19h-1.912v3.345c0 1.368.879 2.09 2.168 2.09h1.868c1.189 0 1.912-.856 1.912-2.09v-3.346h-1.912c.01 0 .01 3.09.01 3.19zm10.75-3.19v3.19a.517.517 0 0 1 -.512.511h-1.112a.517.517 0 0 1 -.511-.511v-3.19h-1.912v3.345c0 1.368.878 2.09 2.167 2.09h1.868c1.19 0 1.912-.856 1.912-2.09v-3.346zm-18.32 0h-1.223c-.434 0-.645.11-.645.11v-2.577h-1.912v7.903h1.9v-3.179c0-.278.234-.511.512-.511h1.112c.278 0 .511.233.511.511v3.19h1.912v-3.446c0-1.445-.967-2-2.167-2z"/></svg>