<svg viewBox="0 0 24 24" xmlns="http://www.w3.org/2000/svg"><path fill="currentColor" d="m6.893 14.606c-1.723-.146-4.713-1.276-4.713-3.247 0-2.5 4.343-4.818 9.819-4.818 5.75 0 9.82 2.318 9.82 4.818 0 1.97-2.978 3.087-4.702 3.233-.475-.609-5.118-6.791-5.118-6.791s-4.662 6.232-5.106 6.805zm13.744 2.115c2.284-1.121 3.363-2.987 3.363-4.633 0-3.533-4.928-6.264-12.001-6.264-7.072 0-11.999 2.731-11.999 6.264 0 1.646 1.079 3.511 3.363 4.633 2.118 1.041 5.116 1.403 5.55 1.455l3.086-8.982 3.118 8.982c.432-.052 3.401-.414 5.52-1.455z"/></svg>