<svg viewBox="0 0 24 24" xmlns="http://www.w3.org/2000/svg"><path fill="currentColor" d="m22.55 6.55v10.9c0 .434-.184.749-.55.95l-9.45 5.45c-.367.2-.733.2-1.1 0l-9.45-5.45c-.366-.201-.55-.516-.55-.95v-10.9c0-.434.184-.749.55-.95l9.45-5.45c.367-.2.733-.2 1.1 0l9.45 5.45c.366.201.55.516.55.95zm-1.55 11.25-3.9-2.25.5-.9 3.9 2.249v-10.35l-.05-.048-8.95-5.2v4.5h-1v-4.5l-9 5.2v10.398l3.9-2.248.5.899-3.9 2.25 8.95 5.15h.1zm-16.45-10.125c0-.016.016-.025.05-.025h14.8c.033 0 .05.009.05.025v.075l-7.4 12.799c0 .034-.017.05-.05.05-.034 0-.05-.016-.05-.05l-7.4-12.799zm6.95 5.076c0-.301-.15-.533-.45-.7l-4.15-2.401h-.05v.05l4.6 7.9c.033 0 .05-.019.05-.051v-4.8zm.9-1.601 4.2-2.45h-9.2l.05.051 4.15 2.399a.701.701 0 0 0 .8 0zm4.75-1.45v-.05h-.05l-4.15 2.4c-.3.167-.45.417-.45.749v4.8h.1z"/></svg>