<svg viewBox="0 0 24 24" xmlns="http://www.w3.org/2000/svg"><path fill="currentColor" d="m16.994 21.028c3.5843-1.91 5.471-5.759 5.0561-9.5637-1.3206 1.0851-2.6237 2.3203-3.8709 3.6906-2.0656 2.2694-3.7476 4.6559-4.9953 6.9817 1.2946-.09715 2.5907-.45868 3.8101-1.1086zm-13.394-2.5626c-1.3408 1.8191-2.3771 4.4991-1.3032 5.3066 1.5151 1.1394 8.404-2.0133 13.908-8.8051s7.3265-13.796 4.879-14.873c-1.1283-.49644-3.486 1.083-4.8394 2.3943l.58412.31415c1.332-.85276 3.5528-1.7338 1.4995 1.9758-.0097.01768-.01962.03541-.02949.05317-2.9067-2.2075-6.9471-2.662-10.379-.8328-4.7026 2.506-6.4831 8.3499-3.9771 13.052.58979 1.1067 1.3644 2.0516 2.2655 2.8168-3.5586 2.7493-2.6905.35965-2.1925-.8162z"/></svg>