<svg viewBox="0 0 24 24" xmlns="http://www.w3.org/2000/svg"><path fill="currentColor" d="m22.667 22.884v1.116h-21.334v-1.116zm-.842-1.675v1.396h-19.65v-1.396zm-17.592-15.069.234.118.118 1.882.117 3.058v2.941l-.117 3.666-.02 2.47-.332.098h-1.171l-.352-.098-.136-2.47-.118-3.646v-2.941l.118-3.078.107-1.892.244-.107zm16.842 0 .235.118.117 1.882.117 3.058v2.941l-.117 3.666-.02 2.47-.332.098h-1.171l-.352-.098-.137-2.47-.117-3.646v-2.941l.117-3.078.108-1.892.244-.107zm-11.79 0 .235.118.117 1.882.117 3.058v2.941l-.117 3.666-.02 2.47-.331.098h-1.172l-.352-.098-.136-2.47-.117-3.646v-2.941l.117-3.078.107-1.892.244-.107zm6.457 0 .234.118.117 1.882.118 3.058v2.941l-.118 3.666-.019 2.47-.332.098h-1.172l-.351-.098-.137-2.47-.117-3.646v-2.941l.117-3.078.108-1.892.244-.107zm6.083-2.511v1.951h-19.65v-1.952zm-10.027-3.629 10.307 2.347-.413.723h-19.741l-.618-.587z"/></svg>