<svg viewBox="0 0 24 24" xmlns="http://www.w3.org/2000/svg"><path fill="currentColor" d="m22.922 7.027-.103-.23-.169.188c-.408.464-.928.82-1.505 1.036l-.159.061.066.155a9.745 9.745 0 0 1 .75 3.759c0 5.405-4.397 9.806-9.806 9.806s-9.802-4.397-9.802-9.802 4.402-9.806 9.806-9.806c1.467 0 2.883.319 4.2.947l.155.075.066-.155a3.767 3.767 0 0 1 1.106-1.453l.197-.159-.225-.117a11.905 11.905 0 0 0 -5.498-1.331c-6.619 0-12 5.381-12 12s5.381 12 12 12 12-5.381 12-12c0-1.73-.361-3.403-1.078-4.973zm-10.922-.497a5.476 5.476 0 0 0 -5.47 5.47 5.476 5.476 0 0 0 5.47 5.47 5.476 5.476 0 0 0 5.47-5.47 5.479 5.479 0 0 0 -5.47-5.47zm10.345-2.007a2.494 2.494 0 1 1 -4.988 0 2.494 2.494 0 0 1 4.988 0z"/></svg>