<svg viewBox="0 0 24 24" xmlns="http://www.w3.org/2000/svg"><path fill="currentColor" d="m11.591 19.649h.771v-3.786h-.77zm-6.874-5.03-.238-.733 3.6-1.17.238.735-3.6 1.17m4.645-5.762-2.224-3.063.624-.453 2.224 3.062zm5.315.028-.624-.454 2.225-3.062.624.453zm4.592 5.78-3.6-1.17.238-.734 3.6 1.17-.238.733m-7.269-14.665c-6.617 0-12 5.383-12 11.997 0 6.619 5.383 12.002 12 12.002s12-5.382 12-12c0-6.617-5.383-12-12-12zm0 2.43c5.284 0 9.569 4.283 9.569 9.567 0 5.287-4.285 9.573-9.569 9.573-5.286 0-9.57-4.286-9.57-9.573 0-5.284 4.285-9.567 9.57-9.567m1.552 7.96.575 1.768.747.242 4.736-1.538-.86-2.645-4.736 1.539-.462.635m.337 2.5-1.504 1.093v.785l2.927 4.03 2.25-1.636-2.927-4.029zm-2.275 1.093-1.504-1.093-.747.243-2.927 4.029 2.25 1.635 2.928-4.029zm-1.741-1.825.574-1.767-.462-.635-4.736-1.54-.86 2.646 4.737 1.54zm1.198-2.22h1.859l.462-.636v-4.98h-2.782v4.98z"/></svg>