<svg viewBox="0 0 24 24" xmlns="http://www.w3.org/2000/svg"><path fill="currentColor" d="m16.719 14.759-2.499 2.501-2.37 2.37-.462.466c-1.368 1.365-3.297 1.83-5.047 1.397-.327 1.424-1.604 2.49-3.13 2.49-1.773 0-3.211-1.436-3.211-3.211 0-1.518 1.055-2.789 2.469-3.123-.446-1.76.016-3.705 1.396-5.08l.179-.18 2.37 2.37-.184.181c-.769.779-.769 2.024 0 2.789.771.78 2.022.78 2.787 0l.465-.465 2.367-2.371 2.502-2.506zm.924 6.652c-1.822.563-3.885.12-5.328-1.318l-.18-.185 2.365-2.369.18.184c.771.768 2.018.768 2.787 0 .765-.765.769-2.01-.004-2.781l-.466-.465-2.365-2.37-2.502-2.503 2.37-2.369 2.499 2.505 2.367 2.37.464.464c1.365 1.36 1.846 3.278 1.411 5.021 1.56.224 2.759 1.56 2.759 3.18 0 1.784-1.439 3.21-3.209 3.21-1.545 0-2.851-1.096-3.135-2.565zm-10.668-11.95 2.508-2.505 2.37-2.369.462-.461c1.425-1.426 3.457-1.875 5.265-1.336.212-1.561 1.555-2.775 3.179-2.775 1.772 0 3.211 1.437 3.211 3.209 0 1.631-1.216 2.978-2.79 3.186.519 1.799.068 3.816-1.35 5.234l-.182.184-2.369-2.369.184-.184c.769-.77.769-2.016 0-2.783-.766-.766-2.011-.768-2.781.003l-.462.461-2.37 2.369-2.505 2.502zm-2.653 2.647-.461-.462c-1.431-1.431-1.875-3.476-1.332-5.288-1.429-.329-2.499-1.604-2.499-3.134 0-1.77 1.44-3.209 3.21-3.209 1.596 0 2.92 1.166 3.17 2.691 1.73-.405 3.626.065 4.979 1.415l.184.185-2.37 2.37-.183-.181c-.77-.765-2.016-.765-2.785 0-.771.781-.77 2.025-.005 2.79l.465.466 2.37 2.369 2.505 2.505-2.367 2.37-2.51-2.505-2.371-2.37z"/></svg>