<svg viewBox="0 0 24 24" xmlns="http://www.w3.org/2000/svg"><path fill="currentColor" d="m7.157 22.201a1.784 1.799 0 0 1 -1.783 1.799 1.784 1.799 0 0 1 -1.784-1.799 1.784 1.799 0 0 1 1.784-1.799 1.784 1.799 0 0 1 1.783 1.799zm13.425-20.774a1.415 1.427 0 0 1 -1.415 1.428 1.415 1.427 0 0 1 -1.416-1.428 1.415 1.427 0 0 1 1.416-1.427 1.415 1.427 0 0 1 1.415 1.427zm-15.59 1.909a1.047 1.056 0 0 1 -1.046 1.054 1.047 1.056 0 0 1 -1.047-1.055 1.047 1.056 0 0 1 1.047-1.055 1.047 1.056 0 0 1 1.046 1.056zm7.336 1.517c3.769 0 7.06 1.38 8.768 3.424a9.363 9.363 0 0 0 -3.393-4.547 9.238 9.238 0 0 0 -5.377-1.728 9.238 9.238 0 0 0 -5.376 1.728 9.363 9.363 0 0 0 -3.394 4.547c1.713-2.04 5.004-3.424 8.772-3.424zm.001 13.295c-3.768 0-7.06-1.381-8.768-3.425a9.363 9.363 0 0 0 3.394 4.547 9.238 9.238 0 0 0 5.375 1.73 9.238 9.238 0 0 0 5.377-1.729 9.363 9.363 0 0 0 3.393-4.547c-1.712 2.044-5.003 3.425-8.772 3.425z"/></svg>