<svg viewBox="0 0 24 24" xmlns="http://www.w3.org/2000/svg"><path fill="currentColor" d="m21.46 2.172h-18.92a2.548 2.548 0 0 0 -2.54 2.54v14.575a2.548 2.548 0 0 0 2.54 2.54h18.92a2.548 2.548 0 0 0 2.54-2.54v-14.574a2.548 2.548 0 0 0 -2.54-2.54zm-11.32 14.293-4.616 2.685a1.235 1.235 0 1 1 -1.242-2.137l4.618-2.683a1.235 1.235 0 1 1 1.241 2.136zm1.817-4.088h-.006a1.235 1.235 0 0 1 -1.23-1.24l.023-5.32a1.236 1.236 0 0 1 1.236-1.23h.005a1.235 1.235 0 0 1 1.23 1.241l-.023 5.32a1.236 1.236 0 0 1 -1.235 1.23zm8.17 6.32a1.235 1.235 0 0 1 -1.688.453l-4.624-2.67a1.235 1.235 0 1 1 1.235-2.14l4.624 2.67a1.235 1.235 0 0 1 .452 1.688z"/></svg>