<svg viewBox="0 0 24 24" xmlns="http://www.w3.org/2000/svg"><path fill="currentColor" d="m12.91 6.089c-2.491 2.4-6.153 4.238-11.265 4.3l-.397 1.745h22.316l.436-1.746h-14.691c2.984-1.01 4.688-2.676 6.56-4.3zm10.45 6.721c-5.723.013-8.441 2.712-10.095 5.101h2.49c2.6-3.296 5.827-3.428 7.196-3.442zm-22.307.475-1.053 4.602h1.236l.488-2.173 1.097 2.173h1.449l-1.34-2.368 2.23-2.234h-1.585l-1.723 1.869.436-1.87zm4.237 0 .509 4.602h1.517l2.63-4.602h-1.32l-1.852 3.463-.265-3.463zm4.89 0 .503 4.602h1.54l2.62-4.602h-1.32l-1.852 3.463-.268-3.463z"/></svg>