<svg viewBox="0 0 24 24" xmlns="http://www.w3.org/2000/svg"><path fill="currentColor" d="m21.724 4.973-8.306-4.645a3.214 3.214 0 0 0 -2.828 0l-8.314 4.645a3.05 3.05 0 0 0 -1.414 2.398v9.256a3.05 3.05 0 0 0 1.414 2.4l8.306 4.645a3.214 3.214 0 0 0 2.828 0l8.314-4.645a3.05 3.05 0 0 0 1.414-2.4v-9.254a3.05 3.05 0 0 0 -1.414-2.4zm-9.724-.052a2.571 2.571 0 1 1 .001 5.143 2.571 2.571 0 0 1 -.001-5.144zm3.094 13.627a9.119 9.119 0 0 1 -3.103.549 8.972 8.972 0 0 1 -3.076-.55 8.493 8.493 0 0 1 -5.486-7.987v-.857c4.646.017 8.074 3.823 8.074 8.51v.198h.926v-.197c0-4.688 3.445-8.51 8.056-8.51.026.29.043.582.086.856a8.502 8.502 0 0 1 -5.477 7.988z"/></svg>