<svg viewBox="0 0 24 24" xmlns="http://www.w3.org/2000/svg"><path fill="currentColor" d="m6.75 13.034h-2.25l-2.25 2.257v-2.257h-2.25v6.018h2.25v-2.257l2.25 2.257h3l-3.375-3.385zm3 0h-2.25v6.018h6v-1.518h-3.75zm10.5 0-1.125 3.385-1.125-3.385h-3.75v6.018h2.25v-4.514l1.5 4.514h2.25l1.5-4.514v4.514h2.25v-6.018zm-9.75-3.385c.725 0 1.313-.589 1.313-1.316s-.588-1.317-1.313-1.317-1.312.589-1.312 1.317.587 1.316 1.312 1.316zm1.688-1.316c0 .727.588 1.316 1.312 1.316.725 0 1.313-.589 1.313-1.316s-.588-1.317-1.313-1.317-1.312.589-1.312 1.317zm2.999 0c0 .727.588 1.316 1.312 1.316.725 0 1.313-.589 1.313-1.316s-.588-1.317-1.313-1.317-1.312.589-1.312 1.317zm-6.375 0c0-.727-.588-1.317-1.313-1.317s-1.312.589-1.312 1.317.588 1.316 1.313 1.316 1.312-.589 1.312-1.316zm-1.312 1.692h9v1.505h-9zm4.125-2.821h.75v-.752h.75v-.752h-.75v-.753h-.75v.753h-.75v.752h.75z"/></svg>