<svg viewBox="0 0 24 24" xmlns="http://www.w3.org/2000/svg"><path fill="currentColor" d="m4.8 0a4.79 4.79 0 0 0 -4.8 4.8v14.4c0 2.66 2.14 4.8 4.8 4.8h14.4c2.66 0 4.8-2.14 4.8-4.8v-14.4c0-2.66-2.14-4.8-4.8-4.8zm7.2 3.449v.001c4.242 0 7.833 1.904 7.833 6.17 0 2.932-3.86 7.815-6.164 10.164-.99 1.008-2.32 1.036-3.338 0-2.303-2.349-6.164-7.232-6.164-10.164 0-4.162 3.476-6.171 7.833-6.171zm3.54 2.155-5.05 4.96 5.05 4.956a1.84 1.84 0 0 0 0-2.634v-.001l-2.366-2.323 2.366-2.323a1.84 1.84 0 0 0 0-2.635zm-7.349.144v9.772a1.86 1.86 0 0 0 1.868-1.852v-6.066a1.86 1.86 0 0 0 -1.866-1.854z"/></svg>