<svg viewBox="0 0 24 24" xmlns="http://www.w3.org/2000/svg"><path fill="currentColor" d="m18.387 16.926h.604v1.936h-6.086v-1.936h.904s.333-.072.26-.386l-2.392-3.776-1.893 1.847v1.322c0 .653.324.993.687.993h.844v1.936h-5.901v-1.936h.741c.364 0 .688-.34.688-.993v-7.941c0-.364-.324-.855-.688-.855h-.741v-1.936h5.901v1.936h-.844c-.363 0-.687.491-.687.855v3.83l4.087-4.144a.316.316 0 0 0 -.219-.541h-.747v-1.936h6.095v1.936h-.872c-.363 0-.867.176-1.225.525l-3.058 2.985 3.396 5.276c.304.434.772 1.003 1.146 1.003zm5.613-4.926c0 6.627-5.373 12-12 12s-12-5.373-12-12 5.373-12 12-12 12 5.373 12 12zm-1.684 0c0-5.697-4.619-10.316-10.316-10.316s-10.316 4.619-10.316 10.316 4.619 10.316 10.316 10.316 10.316-4.619 10.316-10.316z"/></svg>