<svg viewBox="0 0 24 24" xmlns="http://www.w3.org/2000/svg"><path fill="currentColor" d="m18.315 12.264c2.33 0 4.218 1.88 4.218 4.2v3.336c0 2.32-1.888 4.2-4.218 4.2h-6.202a4.218 4.218 0 0 1 -4.023-2.938l-3.676 1.833a2.04 2.04 0 0 1 -2.731-.903 2.015 2.015 0 0 1 -.216-.907v-5.94a2.03 2.03 0 0 1 2.035-2.024 2.044 2.044 0 0 1 .919.218l3.673 1.85a4.218 4.218 0 0 1 4.02-2.925zm-.062 2.162h-6.078c-1.153 0-2.09.921-2.108 2.065v3.247c0 1.148.925 2.081 2.073 2.1h6.113c1.153 0 2.09-.922 2.109-2.065v-3.247a2.104 2.104 0 0 0 -2.074-2.1zm-14.073 1.294a.554.554 0 0 0 -.555.542v3.734a.556.556 0 0 0 .798.496l.01-.004 3.463-1.756v-1.222l-3.467-1.73a.557.557 0 0 0 -.249-.06zm5.1-15.72a5.667 5.667 0 0 1 4.98 2.965 4.921 4.921 0 0 1 3.36-1.317c2.714 0 4.913 2.177 4.913 4.863s-2.2 4.863-4.912 4.863a4.921 4.921 0 0 1 -3.996-2.034 5.651 5.651 0 0 1 -4.345 2.034c-3.131 0-5.67-2.546-5.67-5.687 0-3.141 2.539-5.687 5.67-5.687zm8.34 3.926c-1.441 0-2.61 1.157-2.61 2.585s1.169 2.585 2.61 2.585c1.443 0 2.612-1.157 2.612-2.585s-1.169-2.585-2.611-2.585zm-8.34-1.639a3.395 3.395 0 0 0 -3.39 3.4c0 1.877 1.518 3.4 3.39 3.4a3.395 3.395 0 0 0 3.39-3.4c0-1.878-1.518-3.4-3.39-3.4z"/></svg>