<svg viewBox="0 0 24 24" xmlns="http://www.w3.org/2000/svg"><path fill="currentColor" d="m21.333 4.319c-4.773-3.933-11.88-3.687-16.36.738a7.571 7.571 0 0 0 0 10.8c3.018 2.982 7.912 2.982 10.931 0a3.245 3.245 0 0 0 0-4.628 3.342 3.342 0 0 0 -4.685 0 1.114 1.114 0 0 1 -1.561 0 1.082 1.082 0 0 1 0-1.543 5.57 5.57 0 0 1 7.808 0 5.408 5.408 0 0 1 0 7.714c-3.881 3.834-10.174 3.834-14.055 0a9.734 9.734 0 0 1 -.015-13.87c2.2-2.18 5.242-3.53 8.604-3.53 3.75 0 7.105 1.68 9.333 4.319zm-.714 16.136a12.184 12.184 0 0 1 -8.619 3.545 12.18 12.18 0 0 1 -9.333-4.319c4.772 3.933 11.88 3.687 16.36-.738a7.571 7.571 0 0 0 0-10.8c-3.018-2.982-7.912-2.982-10.931 0a3.245 3.245 0 0 0 0 4.628 3.342 3.342 0 0 0 4.685 0 1.114 1.114 0 0 1 1.561 0 1.082 1.082 0 0 1 0 1.543 5.57 5.57 0 0 1 -7.808 0 5.408 5.408 0 0 1 0-7.714c3.881-3.834 10.174-3.834 14.055 0a9.734 9.734 0 0 1 .03 13.855z"/></svg>