<svg viewBox="0 0 24 24" xmlns="http://www.w3.org/2000/svg"><path fill="currentColor" d="m12.843.979c-2.12-.096-3.477 1.439-3.477 1.439-6.846.082-8.575 6.011-8.616 6.134l-.248.74c-2.268 8.78 3.889 12.22 3.889 12.22.188.091.375-.066.375-.066.5-.31.252-.53.252-.53-1.43-1.742-1.595-5.864-1.596-5.899-.64-.532-1.248-1.318-1.111-2.342 0 0 .084-.51.584-.197 0 0 1.186.644 2.123.83-.001 0 .476.043.5.177 0 0 .374 1.752-.78 2.32.745.437 1.465.85 1.465.85.124 1.263.81 5.32.81 5.32.064.797.906.954.906.954.483.172 4.12.062 4.12.062 1.014-.044 1.062-.953 1.062-.953.015-.545.03-3.62.03-3.62.096-.575.766-.5.766-.5.703-.03.688.454.688.454-.017.515.045 3.496.045 3.496.03.858.781 1.125.781 1.125.488 0 .828-.004 1.365 0 .252.002 1.473 0 1.473 0 .55-.307 1.377-.969 1.377-.969 5.868-4.91 4.135-11.9 4.135-11.9-.831-4.244-5.969-5.024-5.969-5.024-.582-1.811-1.643-2.682-1.643-2.682-1.222-1.015-2.343-1.396-3.306-1.44zm5.006 4.273s1.845 3.08-1.727 7.86c.001.001-2.94 4.116-8.232 1.223 1.084.523 5.536 2.312 8.375-1.98 0 0 2.632-3.437 1.584-7.103zm-11.146 3.616s1.296.036 1.341 1.82c0 0-1.02-2.668-3.271-.2 0 0 .404-1.729 1.93-1.62z"/></svg>