<svg viewBox="0 0 24 24" xmlns="http://www.w3.org/2000/svg"><path fill="currentColor" d="m22.629 6.857c0-.379.304-.686.686-.686.378 0 .685.312.685.686v10.286c0 .379-.304.686-.686.686-.379 0-.686-.312-.686-.686v-10.286zm-20.572 3.429c1.136 0 2.057.921 2.057 2.057s-.921 2.057-2.057 2.057-2.057-.921-2.057-2.057.921-2.057 2.057-2.057zm7.543 0c1.136 0 2.057.921 2.057 2.057s-.921 2.057-2.057 2.057-2.057-.921-2.057-2.057.921-2.057 2.057-2.057zm7.543 0c1.136 0 2.057.921 2.057 2.057s-.921 2.057-2.057 2.057-2.057-.921-2.057-2.057.921-2.057 2.057-2.057z"/></svg>