<svg viewBox="0 0 24 24" xmlns="http://www.w3.org/2000/svg"><path fill="currentColor" d="m22.329 5.04v9.034l1.666.964v-9.034zm-22.329 9.998 1.666-.964v-9.034l-1.666.964zm8.165-.089 7.665 4.424v-1.923l-7.176-4.142-.489.282zm8.105 6.989-8.105-4.681v1.923l2.164 1.25-2.604 1.503a.263.263 0 0 0 0 .454l1.27.737 3-1.73 3 1.73 1.27-.737c.178-.093.178-.35.005-.449zm6.059-11.511v8.012c0 .202.218.331.396.227l1.142-.657a.267.267 0 0 0 .133-.228v-8.313zm-3.271 10.354 1.072-.623a.39.39 0 0 0 .198-.341v-8.233l-1.666.963v8.012c0 .198.218.326.396.222zm-4.063 2.348 1.537-.885a.265.265 0 0 0 .134-.227v-8.318l-1.671.964zm-7.532-.89 1.537.885v-8.461l-1.666-.964v8.313c0 .094.05.183.129.227zm-3.598-2.076 1.072.623a.265.265 0 0 0 .396-.227v-8.017l-1.666-.963v8.238c0 .144.074.277.198.346zm-3.667-2.115 1.072.623a.265.265 0 0 0 .396-.228v-8.016l-1.666-.959v8.239c0 .138.074.267.198.341zm23.797-12.044-1.666-.964-3 1.73-1.996-1.152 2.604-1.502a.264.264 0 0 0 0-.455l-1.077-.623a.403.403 0 0 0 -.395 0l-2.803 1.616-1.996-1.151 2.604-1.503a.263.263 0 0 0 0-.454l-1.077-.623a.405.405 0 0 0 -.396 0l-2.802 1.616-2.802-1.616a.405.405 0 0 0 -.396 0l-1.077.623a.263.263 0 0 0 0 .454l14.6 8.432 1.665-.964-3-1.73zm-18.86-2.966-1.072.623a.264.264 0 0 0 0 .455l14.599 8.431 1.666-.963-14.798-8.546a.403.403 0 0 0 -.395 0zm-5.135 2.966 3 1.729-3 1.735 1.671.959 2.995-1.73 2.001 1.157-3 1.73 1.666.963 3-1.734 1.996 1.156-3 1.73 1.671.964 2.995-1.735 3 1.735 1.666-.964-14.995-8.659z"/></svg>