<svg viewBox="0 0 24 24" xmlns="http://www.w3.org/2000/svg"><path fill="currentColor" d="m18.09 14.696c-1.512.664-2.726 1.885-3.381 3.399l4.27.883-.886-4.282zm-15.615-6.379-2.475-2.467c1.125-2.613 3.216-4.71 5.823-5.85h.006l2.469 2.463c1.368-.591 2.876-.921 4.463-.921 6.206 0 11.239 5.027 11.239 11.229s-5.033 11.229-11.239 11.229c-6.21 0-11.241-5.024-11.241-11.229 0-1.591.355-3.081.952-4.451l9.143 9.114c1.125-2.613 3.218-4.71 5.823-5.85l-9.135-9.12h-.008c-2.606 1.14-4.695 3.24-5.823 5.85l.003.003z"/></svg>