<svg viewBox="0 0 24 24" xmlns="http://www.w3.org/2000/svg"><path fill="currentColor" d="m24 10.665h-7.018l6.078-3.509-1.335-2.312-6.078 3.509 3.508-6.077-2.312-1.336-3.508 6.077v-7.017h-2.67v7.018l-3.509-6.078-2.312 1.335 3.509 6.077-6.078-3.508-1.335 2.312 6.078 3.509h-7.018v2.67h7.017l-6.077 3.509 1.335 2.313 6.077-3.508-3.509 6.077 2.312 1.335 3.509-6.078v7.017h2.67v-7.017l3.508 6.077 2.312-1.335-3.509-6.078 6.078 3.509 1.335-2.313-6.077-3.508h7.017v-2.67zm-12 4.966a3.645 3.645 0 1 1 0-7.29 3.645 3.645 0 0 1 0 7.29z"/></svg>