<svg viewBox="0 0 24 24" xmlns="http://www.w3.org/2000/svg"><path fill="currentColor" d="m12 0c-6.629 0-12 5.371-12 12s5.371 12 12 12 12-5.371 12-12c.011-6.629-5.371-12-12-12zm.7 22.611c-5.863 0-10.611-4.748-10.611-10.611s4.748-10.611 10.611-10.611 10.611 4.748 10.611 10.611-4.748 10.611-10.611 10.611zm-5.655-19.198c-4.747 2.735-6.366 8.795-3.632 13.542 2.735 4.737 8.806 6.366 13.542 3.632 4.747-2.735 6.366-8.806 3.632-13.542-2.735-4.748-8.795-6.367-13.542-3.632zm9.823 15.621c-4.08 2.352-9.287.952-11.639-3.118-2.352-4.08-.952-9.287 3.118-11.639 4.08-2.352 9.287-.952 11.639 3.118 2.351 4.069.962 9.287-3.118 11.639zm-11.639-10.95c-2.166 3.741-.875 8.532 2.866 10.687 3.741 2.166 8.532.875 10.698-2.866s.875-8.532-2.866-10.687c-3.752-2.155-8.543-.875-10.698 2.866zm12.842 6.618c-1.827 3.161-5.863 4.244-9.025 2.417-3.161-1.827-4.244-5.863-2.418-9.025s5.863-4.244 9.025-2.418c3.162 1.817 4.245 5.865 2.418 9.026zm-11.978-2.702c0 3.271 2.647 5.918 5.918 5.918s5.918-2.647 5.918-5.918-2.647-5.918-5.918-5.918-5.918 2.647-5.918 5.918zm10.611-.7c0 2.593-2.1 4.693-4.693 4.693s-4.693-2.1-4.693-4.693 2.1-4.693 4.693-4.693c2.582 0 4.693 2.1 4.693 4.693z"/></svg>