<svg viewBox="0 0 24 24" xmlns="http://www.w3.org/2000/svg"><path fill="currentColor" d="m12 0c-6.6246 0-12 5.3754-12 12s5.3754 12 12 12 12-5.3754 12-12-5.3754-12-12-12zm-11.2555 12c0-6.2208 5.0347-11.2555 11.2555-11.2555 1.2871 0 2.511.2271 3.6593.6183l-6.2713 12.5678-8.1135 1.4764a11.256 11.256 0 0 1 -.53-3.407zm11.2555 11.2555c-4.9968 0-9.2366-3.2682-10.7003-7.7728h7.836l7.0788 6.9526c-1.2997.5174-2.7256.8202-4.2145.8202zm4.2271-.8328a2.246 2.246 0 0 0 .6309-1.5647c0-.7066-.328-1.3501-.8454-1.7539l-4.7319-3.6214h11.4195c-1.0346 3.1545-3.4194 5.7034-6.4731 6.94zm5.1609-8.0883h-2.7003l.2019.2902h.9211l.4669.5678h-5.0851c0-1.0094-.8202-1.8422-1.8423-1.8422-.101 0-.2019.0126-.2902.0252l-1.8297.2776 5.4006-8.9842c.2146-.3533.3281-.7571.3281-1.1861 0-.9085-.5047-1.7161-1.2492-2.0946 4.3911 1.5267 7.5457 5.6907 7.5457 10.6119 0 1.1104-.164 2.1829-.4669 3.1924a1.7505 1.7505 0 0 1 -1.4006-.858z"/></svg>