<svg viewBox="0 0 24 24" xmlns="http://www.w3.org/2000/svg"><path fill="currentColor" d="m24 12c0-6.648-5.352-12-12-12-6.624 0-12 5.352-12 12 0 6.624 5.376 12 12 12 6.648 0 12-5.376 12-12zm-.864 0c0 6.12-4.992 11.136-11.136 11.136-6.12 0-11.136-5.015-11.136-11.136 0-6.144 5.016-11.136 11.136-11.136 6.144 0 11.136 4.992 11.136 11.136zm-6.888-.72c-.264 0-.6 0-1.032.024l.312-.528h.504c1.8 0 3.144.096 4.368.312l.552-.528c-1.368-.24-3.024-.384-4.704-.384h-.408l.264-.504h.456c1.752 0 3.336.144 4.872.432l.576-.552c-1.728-.336-3.576-.503-5.568-.503-.849.003-1.698.043-2.544.12-.96 2.063-2.496 3.264-4.224 3.24-.672-.025-1.513-.312-2.592-.889l-1.008-.576.312-.288 2.328 1.008.504-.384-4.704-2.136-.72.552-1.68-.696.024.696c2.256 1.032 3.192 1.608 5.568 3.312 3.096 2.208 5.856 3.408 9.696 4.176l1.008-.96h-.24c-2.544 0-4.824-.84-6.144-2.256 1.104-.672 2.471-.983 4.368-.983.504 0 1.224.047 1.896.119l.576-.552c-.9-.11-1.805-.166-2.712-.168-.609-.001-1.217.023-1.824.072l.432-.528c.511-.03 1.024-.046 1.536-.048 1.272 0 2.112.048 3.072.192l.552-.528c-1.008-.167-2.4-.264-3.672-.264z"/></svg>