<svg viewBox="0 0 24 24" xmlns="http://www.w3.org/2000/svg"><path fill="currentColor" d="m4.38 15.883c.036.042.125.135.125.135s-.094.059-.152.086a3.046 3.046 0 0 1 -1.28.286c-1.48 0-3.073-1.1-3.073-3.512v-8.78h3.512v9.365c0 .95.306 1.781.867 2.42zm19.62-4.761v-3.512h-1.253c-.524-2.76-3.425-4.574-6.341-3.484-1.624.607-2.943 2.548-2.943 4.282v7.979a1608.8 1608.8 0 0 0 .153 0 3.495 3.495 0 0 0 2.38-1.077c.632-.658.98-1.522.98-2.432h1.463v-3.512h-1.463v-.966c0-.375.198-.726.526-.909.9-.5 1.815.143 1.815.996v3.22c0 1.273.48 2.456 1.354 3.329a4.666 4.666 0 0 0 3.178 1.351h.151v-3.51a1.17 1.17 0 0 1 -1.17-1.17v-.586h1.17zm-14.927 1.17a.585.585 0 0 1 -1.17 0v-4.682h-3.513v5.853a2.928 2.928 0 0 0 4.83 2.224c-.055.433-.294.792-.69 1.04-.373.234-.857.357-1.402.357a3.83 3.83 0 0 1 -1.65-.382s-.093-.044-.21-.11v3.119a6.65 6.65 0 0 0 2.468.484c1.312 0 2.51-.41 3.371-1.155.967-.836 1.478-2.056 1.478-3.528v-7.902h-3.512v4.683z"/></svg>