<svg viewBox="0 0 24 24" xmlns="http://www.w3.org/2000/svg"><path fill="currentColor" d="m12 0c-6.617 0-12 5.384-12 12s5.383 12 12 12 12-5.384 12-12-5.383-12-12-12zm-5.657 6.257h11.314c.284 0 .514.23.514.515v.685c0 .285-.23.515-.514.515h-11.314a.515.515 0 0 1 -.515-.515v-.685c0-.284.23-.515.515-.515zm0 3.257h11.314c.284 0 .514.23.514.515v.685c0 .285-.23.515-.514.515h-11.314a.515.515 0 0 1 -.515-.515v-.685c0-.284.23-.515.515-.515zm0 3.257h11.314c.284 0 .514.23.514.515v.685c0 .285-.23.515-.514.515h-11.314a.515.515 0 0 1 -.514-.515v-.685c0-.284.23-.515.514-.515zm0 3.258h11.314c.284 0 .514.23.514.513v.687c0 .284-.23.515-.514.515h-11.314a.515.515 0 0 1 -.514-.515v-.687c0-.284.23-.513.514-.513z"/></svg>