<svg viewBox="0 0 24 24" xmlns="http://www.w3.org/2000/svg"><path fill="currentColor" d="m12.095.1c-6.377-.006-11.551 5.16-11.557 11.537v.022c0 2.069.547 4.005 1.496 5.683l2.869-2.868a7.685 7.685 0 0 1 -.54-2.815c0-4.262 3.47-7.73 7.732-7.73s7.732 3.468 7.732 7.73-3.47 7.732-7.732 7.732a7.685 7.685 0 0 1 -2.6-.46l-2.899 2.899a11.515 11.515 0 0 0 5.499 1.388c2.316 0 4.467-.686 6.275-1.856l2.393 2.392 3.237-3.242-2.349-2.349c1.262-1.852 2-4.09 2-6.505.009-6.389-5.199-11.58-11.555-11.557zm0 9.34c-1.225 0-2.214.991-2.214 2.217s.989 2.215 2.214 2.215a2.216 2.216 0 1 0 0-4.432zm-4.24 3.368c-.285.282-7.582 7.582-7.855 7.854l3.24 3.238 7.855-7.855-3.24-3.238z"/></svg>