<svg viewBox="0 0 24 24" xmlns="http://www.w3.org/2000/svg"><path fill="currentColor" d="m9.678 21.213h4.67v.909h-4.67zm.87 2.787h2.93v-1.409h-2.93zm-.844-5.313c.575.523.881 1.28.83 2.056h2.944a2.575 2.575 0 0 1 .818-2.056zm-3.052-2.17v.683h10.696v-.683zm.478 3.087a3.833 3.833 0 0 0 1.74-.917h-1.861zm9.74 0 .121-.917h-1.86c.49.451 1.089.768 1.739.917zm-8.666-4.556a73.645 73.645 0 0 0 -2.291-6.418c.644.102 1.283.237 1.913.405a18.885 18.885 0 0 0 -4.316-3.452c1.226 2.378 2.378 5.987 2.965 9.465h1.73zm9.326 0c.587-3.478 1.74-7.087 2.961-9.465a18.877 18.877 0 0 0 -4.308 3.452c.63-.169 1.268-.304 1.913-.405a65.966 65.966 0 0 0 -2.292 6.418zm-11.443 1.122h11.83v-.679h-11.83zm5.135-1.144c.312-.74.569-1.5.77-2.278.203.777.462 1.538.773 2.278h2.052c-1.743-2.87-2.234-6.665-2.343-10-.009-.343.13-.43.46-.283l1.053.474a15.501 15.501 0 0 1 -1.996-5.217 15.494 15.494 0 0 1 -1.991 5.217l1.052-.474c.33-.152.457-.06.457.283-.109 3.313-.6 7.109-2.34 10zm-5.135 3.191h11.83v-.678h-11.83z"/></svg>