<svg viewBox="0 0 24 24" xmlns="http://www.w3.org/2000/svg"><path fill="currentColor" d="m11.343 18.031c.058.049.12.098.181.146-1.177.783-2.59 1.238-4.107 1.238-4.097.001-7.417-3.319-7.417-7.415 0-4.095 3.32-7.416 7.416-7.416 1.518 0 2.931.456 4.105 1.238-.06.051-.12.098-.165.15-1.756 1.517-2.761 3.716-2.761 6.028 0 2.311 1.001 4.51 2.748 6.031zm5.241-13.447c-1.52 0-2.931.456-4.105 1.238.06.051.12.098.165.15 1.756 1.517 2.761 3.716 2.761 6.028 0 2.31-1.001 4.507-2.748 6.031-.058.049-.12.098-.181.146 1.177.783 2.588 1.238 4.107 1.238 4.097.001 7.417-3.319 7.417-7.415 0-4.094-3.32-7.416-7.416-7.416zm-4.584 1.59c-.096.075-.189.15-.28.231-1.564 1.359-2.551 3.36-2.551 5.595 0 2.236.987 4.236 2.551 5.595.09.08.185.158.28.232.096-.074.189-.152.28-.232 1.563-1.359 2.551-3.359 2.551-5.595 0-2.235-.987-4.236-2.551-5.595-.09-.08-.184-.156-.28-.231z"/></svg>