<svg viewBox="0 0 24 24" xmlns="http://www.w3.org/2000/svg"><path fill="currentColor" d="m12 0c-6.623 0-12 5.377-12 12s5.377 12 12 12 12-5.377 12-12-5.377-12-12-12zm0 .75c2.871 0 5.482 1.082 7.469 2.85h-14.939a11.197 11.197 0 0 1 7.47-2.85zm-7.186 3.6h14.372l-7.186 14.373zm-1.214.18v14.94a11.197 11.197 0 0 1 -2.85-7.47c0-2.87 1.082-5.481 2.85-7.468zm16.8 0a11.197 11.197 0 0 1 2.85 7.47c0 2.871-1.082 5.482-2.85 7.469zm-16.05.57 7.275 14.55h-7.275zm15.3 0v14.55h-7.275l7.276-14.55zm-15.117 15.3h14.936a11.197 11.197 0 0 1 -7.469 2.85 11.197 11.197 0 0 1 -7.468-2.85z"/></svg>