<svg viewBox="0 0 24 24" xmlns="http://www.w3.org/2000/svg"><path fill="currentColor" d="m.79 7.12h22.42c.436 0 .79.355.79.792v8.176c0 .436-.354.79-.79.79h-22.42a.79.79 0 0 1 -.79-.79v-8.176a.79.79 0 0 1 .79-.791zm2.507 7.605v-3.122l1.89 1.89 1.933-1.933v3.122h1.055v-5.67l-2.99 2.99-2.945-2.946v5.67h1.055v-.001zm8.44-1.845-1.474-1.473-.746.746 2.747 2.747 2.745-2.747-.746-.746-1.473 1.473v-4h-1.054v4zm10.041.987-2.175-2.175 2.22-2.22-.746-.746-2.22 2.22-2.22-2.22-.747.746 2.22 2.22-2.176 2.177.746.746 2.177-2.177 2.176 2.175z"/></svg>