<svg viewBox="0 0 24 24" xmlns="http://www.w3.org/2000/svg"><path fill="currentColor" d="m12 0c-6.628 0-12 5.372-12 12s5.372 12 12 12 12-5.372 12-12-5.372-12-12-12zm6.23 16.244a.371.371 0 0 1 -.373.372h-1.567a.371.371 0 0 1 -.372-.372v-4.828c0-.04-.046-.06-.08-.033l-3.32 3.32a.742.742 0 0 1 -1.043 0l-3.32-3.32c-.027-.027-.08-.007-.08.033v4.828a.371.371 0 0 1 -.372.372h-1.567a.371.371 0 0 1 -.372-.372v-8.487c0-.206.166-.372.372-.372h1.076a.75.75 0 0 1 .525.22l4.13 4.13a.18.18 0 0 0 .26 0l4.13-4.13c.14-.14.325-.22.525-.22h1.075c.206 0 .372.166.372.372z"/></svg>