<svg viewBox="0 0 24 24" xmlns="http://www.w3.org/2000/svg"><path fill="currentColor" d="m5.385 6.136c0 .807-.644 1.461-1.438 1.461s-1.438-.654-1.438-1.461.644-1.461 1.438-1.461 1.438.654 1.438 1.461zm-1.438 2.63c-.794 0-1.438.654-1.438 1.461s.644 1.461 1.438 1.461 1.438-.654 1.438-1.461-.644-1.461-1.438-1.461zm5.465-2.63c0 .807-.644 1.461-1.438 1.461s-1.438-.654-1.438-1.461.644-1.461 1.438-1.461 1.438.654 1.438 1.461zm-.35 0c0-.613-.488-1.111-1.088-1.111s-1.088.499-1.088 1.111.488 1.111 1.088 1.111 1.088-.498 1.088-1.111zm-1.088 5.592c.794 0 1.438-.654 1.438-1.461s-.644-1.461-1.438-1.461-1.438.654-1.438 1.461.643 1.461 1.438 1.461zm5.464-5.592c0 .807-.644 1.461-1.438 1.461s-1.438-.654-1.438-1.461.644-1.461 1.438-1.461 1.438.654 1.438 1.461zm-.35 0c0-.613-.488-1.111-1.088-1.111s-1.088.498-1.088 1.111.488 1.111 1.088 1.111 1.088-.498 1.088-1.111zm.35-4.675c0 .807-.644 1.461-1.438 1.461s-1.438-.654-1.438-1.461.644-1.461 1.438-1.461 1.438.654 1.438 1.461zm-.35 0c0-.613-.488-1.111-1.088-1.111s-1.088.498-1.088 1.111.488 1.111 1.088 1.111 1.088-.498 1.088-1.111zm.35 8.806c0 .807-.644 1.461-1.438 1.461s-1.438-.654-1.438-1.461.644-1.461 1.438-1.461 1.438.654 1.438 1.461zm-.35 0c0-.613-.488-1.111-1.088-1.111s-1.088.498-1.088 1.111.488 1.111 1.088 1.111 1.088-.499 1.088-1.111zm4.376-4.131c0 .807-.644 1.461-1.438 1.461s-1.438-.654-1.438-1.461.644-1.461 1.438-1.461 1.438.654 1.438 1.461zm-.35 0c0-.613-.488-1.111-1.088-1.111s-1.088.498-1.088 1.111.488 1.111 1.088 1.111 1.088-.498 1.088-1.111zm2.939 1.461c.794 0 1.438-.654 1.438-1.461s-.644-1.461-1.438-1.461-1.438.654-1.438 1.461.644 1.461 1.438 1.461zm-4.027 1.209c-.794 0-1.438.654-1.438 1.461s.644 1.461 1.438 1.461 1.438-.654 1.438-1.461-.643-1.461-1.438-1.461zm4.027 0c-.794 0-1.438.654-1.438 1.461s.644 1.461 1.438 1.461 1.438-.654 1.438-1.461-.644-1.461-1.438-1.461zm-16.106 4.051a1.45 1.45 0 0 0 -1.438 1.461c0 .807.644 1.461 1.438 1.461s1.438-.654 1.438-1.461a1.45 1.45 0 0 0 -1.438-1.461zm5.465 1.5c0 .807-.644 1.461-1.438 1.461s-1.438-.654-1.438-1.461.644-1.461 1.438-1.461 1.438.655 1.438 1.461zm-.35 0c0-.613-.488-1.111-1.088-1.111s-1.088.498-1.088 1.111.488 1.111 1.088 1.111 1.088-.498 1.088-1.111zm2.938-1.461c-.794 0-1.438.654-1.438 1.461s.644 1.461 1.438 1.461 1.438-.654 1.438-1.461-.644-1.461-1.438-1.461zm5.464 1.461c0 .807-.644 1.461-1.438 1.461s-1.438-.654-1.438-1.461.644-1.461 1.438-1.461 1.438.655 1.438 1.461zm-.35 0c0-.613-.488-1.111-1.088-1.111s-1.088.498-1.088 1.111.488 1.111 1.088 1.111 1.088-.498 1.088-1.111zm2.939-1.461c-.794 0-1.438.654-1.438 1.461s.644 1.461 1.438 1.461 1.438-.654 1.438-1.461-.644-1.461-1.438-1.461zm-16.106 4.052c-.794 0-1.438.654-1.438 1.461s.644 1.461 1.438 1.461 1.438-.654 1.438-1.461-.644-1.461-1.438-1.461zm5.465 1.5c0 .807-.644 1.461-1.438 1.461s-1.438-.654-1.438-1.461.644-1.461 1.438-1.461 1.438.654 1.438 1.461zm-.35 0c0-.613-.488-1.111-1.088-1.111s-1.088.498-1.088 1.111.488 1.111 1.088 1.111 1.088-.498 1.088-1.111zm4.376 0c0 .807-.644 1.461-1.438 1.461s-1.438-.654-1.438-1.461.644-1.461 1.438-1.461 1.438.654 1.438 1.461zm-.35 0c0-.613-.488-1.111-1.088-1.111s-1.088.498-1.088 1.111.488 1.111 1.088 1.111 1.088-.498 1.088-1.111zm.35 4.091c0 .807-.644 1.461-1.438 1.461s-1.438-.654-1.438-1.461.644-1.461 1.438-1.461 1.438.654 1.438 1.461zm-.35 0c0-.613-.488-1.111-1.088-1.111s-1.088.498-1.088 1.111.488 1.111 1.088 1.111 1.088-.498 1.088-1.111zm4.376-4.091c0 .807-.644 1.461-1.438 1.461s-1.438-.654-1.438-1.461.644-1.461 1.438-1.461 1.438.654 1.438 1.461zm-.35 0c0-.613-.488-1.111-1.088-1.111s-1.088.498-1.088 1.111.488 1.111 1.088 1.111 1.088-.498 1.088-1.111zm2.939-1.461c-.794 0-1.438.654-1.438 1.461s.644 1.461 1.438 1.461 1.438-.654 1.438-1.461-.644-1.461-1.438-1.461z"/></svg>