<svg viewBox="0 0 24 24" xmlns="http://www.w3.org/2000/svg"><path fill="currentColor" d="m17.708 18.099c-.202.152-.44.228-.714.228-.242 0-.471-.076-.688-.228-.218-.152-.327-.373-.327-.66v-7.813h-.023l-2.984 6.057a1.453 1.453 0 0 1 -.385.505c-.145.112-.337.168-.578.168-.24 0-.433-.056-.577-.168a1.442 1.442 0 0 1 -.385-.505l-2.984-6.056h-.023v7.811a.748.748 0 0 1 -.339.66 1.23 1.23 0 0 1 -.7.229c-.275 0-.508-.076-.702-.228-.193-.152-.29-.373-.29-.66v-10.481c0-.304.096-.589.29-.853.192-.264.537-.396 1.036-.396.37 0 .655.084.856.252.2.169.38.421.542.757l3.277 6.754h.024l3.253-6.754c.16-.336.342-.588.543-.757.2-.168.485-.252.855-.252.498 0 .844.132 1.036.396.193.265.29.55.29.854v10.478c0 .288-.101.509-.302.66zm-5.732 4.156c5.658 0 10.279-4.64 10.279-10.327 0-5.62-4.603-10.183-10.279-10.183-5.674 0-10.23 4.536-10.23 10.183 0 5.59 4.715 10.327 10.23 10.327zm0 1.745c-6.481 0-11.976-5.52-11.976-12.072 0-6.613 5.34-11.928 11.976-11.928 6.637 0 12.024 5.34 12.024 11.928 0 6.649-5.4 12.072-12.024 12.072z"/></svg>