<svg viewBox="0 0 24 24" xmlns="http://www.w3.org/2000/svg"><path fill="currentColor" d="m19.056 23.992c-4.018-2.966-10.695-8.022-19-9.125l3.55-3.472c10.19 3.935 15.45 12.597 15.45 12.597zm-18.576-5.555 2.77-2.217c8.084 1.988 14.94 7.78 14.94 7.78-2.887-1.63-11.077-5.64-17.71-5.563zm2.543-8.042 9.25-8.23 1.992 1.153-4.485 5.092c4.83 3.983 10.19 8.22 9.71 15.127-4.756-6.738-10.363-11.557-16.466-13.142zm7.907-2.131 7.105-8.264c3.791 3.1 5.91 7.913 5.91 10.513-.309 3.322-3.558 11.35-3.858 12.236-.225-2.007 1.434-5.56-9.157-14.485z"/></svg>