<svg viewBox="0 0 24 24" xmlns="http://www.w3.org/2000/svg"><path fill="currentColor" d="m22.379 23.343a1.62 1.62 0 0 0 1.536-2.14v.002l-6.565-19.445a1.62 1.62 0 0 0 -1.534-1.103h-7.632a1.62 1.62 0 0 0 -1.534 1.103l-6.564 19.444a1.62 1.62 0 0 0 1.536 2.139h4.741a1.62 1.62 0 0 0 1.535-1.103l.977-2.892 4.947 3.675c.28.208.618.32.966.32m-3.084-12.531 3.624 10.739a.54.54 0 0 1 -.51.713v-.001h-.03a.54.54 0 0 1 -.322-.106l-9.287-6.9h4.853m6.313 7.006c.116-.326.13-.694.007-1.058l-6.562-19.445a1.722 1.722 0 0 0 -.007-.02h6.034a.54.54 0 0 1 .512.366l6.562 19.445a.54.54 0 0 1 -.338.684"/></svg>