<svg viewBox="0 0 24 24" xmlns="http://www.w3.org/2000/svg"><path fill="currentColor" d="m7.88 12.04q0 .45-.11.87-.1.41-.33.74-.22.33-.58.52-.37.2-.87.2t-.85-.2q-.35-.21-.57-.55-.22-.33-.33-.75-.1-.42-.1-.86t.1-.87q.1-.43.34-.76.22-.34.59-.54.36-.2.87-.2t.86.2q.35.21.57.55.22.34.31.77.1.43.1.88zm16.12-.04v9.38q0 .46-.33.8-.33.32-.8.32h-15.74q-.46 0-.8-.33-.32-.33-.32-.8v-3.37h-5.01q-.41 0-.7-.3-.3-.29-.3-.7v-10q0-.41.3-.7.28-.3.7-.3h6.5v-3.45q0-.44.3-.75.3-.3.75-.3h12.9q.44 0 .75.3.3.3.3.75v8.3l1.24.72h.01q.1.07.18.18.07.12.07.25zm-6-8.25v3h3v-3zm0 4.5v3h3v-3zm0 4.5v1.83l3.05-1.83zm-5.25-9v3h3.75v-3zm0 4.5v3h3.75v-3zm0 4.5v2.03l2.41 1.5 1.34-.8v-2.73zm-3.75-9v2.25h2l.13.01.12.04v-2.3zm-3.02 12.23q.9 0 1.6-.3.7-.32 1.19-.86.48-.55.73-1.28.25-.74.25-1.61 0-.83-.25-1.55-.24-.71-.71-1.24t-1.15-.83q-.68-.3-1.55-.3-.92 0-1.64.3-.71.3-1.2.85-.5.54-.75 1.3-.25.74-.25 1.63 0 .85.26 1.56.26.72.74 1.23.48.52 1.17.81.69.3 1.56.3zm1.52 5.02h12.39l-7.89-4.92v.92q0 .41-.3.7-.29.3-.7.3h-3.5zm15-.13v-7.24l-5.9 3.54z"/></svg>