<svg viewBox="0 0 24 24" xmlns="http://www.w3.org/2000/svg"><path fill="currentColor" d="m13.5 1.5q1.453 0 2.795.375 1.342.375 2.508 1.06 1.166.686 2.12 1.641.956.955 1.641 2.121.686 1.166 1.061 2.508.375 1.342.375 2.795 0 1.453-.375 2.795-.375 1.342-1.06 2.508-.686 1.166-1.641 2.12-.955.956-2.121 1.641-1.166.686-2.508 1.061-1.342.375-2.795.375-1.29 0-2.52-.305-1.23-.304-2.337-.884-1.108-.58-2.063-1.418-.955-.838-1.693-1.893h-3.89q-.411 0-.704-.293t-.293-.703v-10.008q0-.41.293-.703t.703-.293h3.89q.739-1.055 1.694-1.893.955-.837 2.063-1.418 1.107-.58 2.337-.884 1.23-.305 2.52-.305zm.75 1.535v8.215h8.215q-.14-1.64-.826-3.076-.686-1.436-1.782-2.531-1.095-1.096-2.537-1.782-1.441-.685-3.07-.826zm-5.262 7.57q0-.68-.228-1.166-.229-.486-.627-.79-.399-.305-.938-.446-.539-.14-1.172-.14h-3.175v7.863h1.84v-2.742h1.242q.574 0 1.119-.17t.978-.493q.434-.322.698-.802.263-.48.263-1.114zm4.512 10.395q1.172 0 2.262-.287t2.056-.82q.967-.534 1.776-1.278.808-.744 1.418-1.664.61-.92.984-1.986.375-1.067.469-2.227h-9.703v-9.703q-1.735.14-3.27.908t-2.695 2.057h4.207q.41 0 .703.293t.293.703v10.008q0 .41-.293.703t-.703.293h-4.207q.644.715 1.412 1.271.768.557 1.623.944.855.387 1.781.586.927.199 1.887.199zm-7.688-11.402q.575 0 .915.228.34.229.34.838 0 .27-.124.44-.123.17-.31.275-.188.105-.422.146-.234.041-.445.041h-1.079v-1.968z"/></svg>