<svg viewBox="0 0 24 24" xmlns="http://www.w3.org/2000/svg"><path fill="currentColor" d="m23 1.5q.41 0 .7.3.3.29.3.7v19q0 .41-.3.7-.29.3-.7.3h-16q-.41 0-.7-.3-.3-.29-.3-.7v-3.5h-5q-.41 0-.7-.3-.3-.29-.3-.7v-10q0-.41.3-.7.28-.3.7-.3h5v-3.5q0-.41.3-.7.29-.3.7-.3zm-17 11.78 1.42 2.66h2.14l-2.38-3.87 2.34-3.8h-2.06l-1.3 2.4-.05.08-.04.09-.64-1.28-.66-1.29h-2.18l2.27 3.82-2.48 3.85h2.16zm8.25 7.72v-3h-6.75v3zm0-4.5v-3.75h-2.25v3.75zm0-5.25v-3.75h-2.25v3.75zm0-5.25v-3h-6.75v3zm8.25 15v-3h-6.75v3zm0-4.5v-3.75h-6.75v3.75zm0-5.25v-3.75h-6.75v3.75zm0-5.25v-3h-6.75v3z"/></svg>