<svg viewBox="0 0 24 24" xmlns="http://www.w3.org/2000/svg"><path fill="currentColor" d="m1.402 0c-.777 0-1.402.625-1.402 1.402v21.196c0 .777.625 1.402 1.402 1.402h21.196c.777 0 1.402-.625 1.402-1.402v-21.196c0-.777-.625-1.402-1.402-1.402zm2.882 5.465h3.038v13.068h-3.038v-.986h1.863v-11.097h-1.863zm12.394 0h3.038v.985h-1.863v11.098h1.863v.986h-3.038zm-7.856 3.55h1.35c.108.441.234.914.378 1.418.153.495.31.99.472 1.485.171.486.342.958.513 1.417.171.46.333.869.486 1.229.153-.36.315-.77.486-1.229s.338-.931.5-1.417c.17-.495.328-.99.472-1.485.153-.504.284-.977.392-1.418h1.296a34.295 34.295 0 0 1 -1.242 3.78 56.44 56.44 0 0 1 -1.364 3.24h-1.134a63.191 63.191 0 0 1 -1.377-3.24 36.226 36.226 0 0 1 -1.228-3.78z"/></svg>