<svg viewBox="0 0 24 24" xmlns="http://www.w3.org/2000/svg"><path fill="currentColor" d="m15.442.718a2.58 2.58 0 0 0 -2.579 2.579 2.58 2.58 0 0 0 1.368 2.275l-1.422 2.698a3.505 3.505 0 0 0 -1.077-.172 3.505 3.505 0 0 0 -3.505 3.505 3.505 3.505 0 0 0 .085.745l-2.83 1.036a2.97 2.97 0 0 0 -2.513-1.39 2.97 2.97 0 0 0 -2.969 2.968 2.97 2.97 0 0 0 2.97 2.97 2.97 2.97 0 0 0 2.969-2.97 2.97 2.97 0 0 0 -.072-.634l2.716-1.193a3.505 3.505 0 0 0 3.15 1.972 3.505 3.505 0 0 0 2.129-.724l2.276 2.167a4.305 4.305 0 0 0 -.749 2.426 4.305 4.305 0 0 0 4.306 4.305 4.305 4.305 0 0 0 4.305-4.304 4.305 4.305 0 0 0 -4.305-4.305 4.305 4.305 0 0 0 -2.718.969l-2.424-1.964a3.505 3.505 0 0 0 .684-2.074 3.505 3.505 0 0 0 -1.521-2.89l1.204-2.891a2.58 2.58 0 0 0 .522.054 2.58 2.58 0 0 0 2.58-2.58 2.58 2.58 0 0 0 -2.58-2.578z"/></svg>