<svg viewBox="0 0 24 24" xmlns="http://www.w3.org/2000/svg"><path fill="currentColor" d="m24 12c0 6.6274-5.3726 12-12 12s-12-5.3726-12-12c0-1.8257.4071-3.5554 1.1374-5.1051-.486 1.2308-.7044 2.4497-.7044 3.5914 0 5.4334 4.3868 6.2203 6.2537 6.2023 2.8371-.0257 6.1543-1.416 8.9485-3.9909l-.4714 2.6494c-.1054.606.2906 1.1392.8957 1.1426h.2503c.6274 0 1.0732-.5108 1.1863-1.1426l1.0063-5.6622c.12-.6283-.2932-1.14-.9214-1.14h-5.6726c-.6309 0-1.2077.3342-1.32.9677l-.0446.2554c-.09.6026.33 1.0569.9317 1.0569h2.9589a9.48 9.48 0 0 0 -.1414.1388c-2.04 1.9312-4.5558 2.988-6.6403 2.988-2.0803 0-4.41-1.3123-4.41-4.2686-.0001-6.1285 5.7479-9.6831 8.7573-9.6831 6.6137 0 12 5.3726 12 12"/></svg>