<svg viewBox="0 0 24 24" xmlns="http://www.w3.org/2000/svg"><path fill="currentColor" d="m4.244 1.174a.443.443 0 0 0 -.271.13l-3.97 3.97-.001.001c3.884 3.882 8.093 8.092 11.748 11.748v-8.57l-7.148-7.148a.443.443 0 0 0 -.358-.131zm15.483 0a.443.443 0 0 0 -.329.13l-7.148 7.152v8.568l11.75-11.749c-1.316-1.322-2.647-2.648-3.97-3.97a.443.443 0 0 0 -.301-.131zm-19.727 4.805.002 10.955c0 .294.118.577.326.785l4.973 4.976c.28.282.76.083.758-.314v-10.344zm23.998.003-6.06 6.061v10.338c-.004.399.48.6.76.314l4.974-4.976c.208-.208.326-.49.326-.785z"/></svg>