<svg viewBox="0 0 24 24" xmlns="http://www.w3.org/2000/svg"><path fill="currentColor" d="m15.171 10.07-1.293-.109v6.861l-1.926.34-.004-7.371-1.637-.145v-2.702l4.86.85zm3.668 5.884-1.142.198-.134-1-1.113.145-.14 1.1-1.473.26 1.458-8.651 1.385.24zm-1.48-2.492-.305-2.642h-.068l-.31 2.682zm-6.368 10.538c6.59 0 11.932-5.373 11.932-12 0-6.628-5.342-12-11.932-12-4.131 0-7.771 2.112-9.914 5.323l3.307.583.91 6.965c.003-.012.066-.004.066-.004l.998-6.615 3.309.58v10.735l-2.089.367v-4.614s.078-1.987.032-2.327c0 0-.09.002-.092-.005l-1.246 7.18-2.075.366-1.525-7.734-.092-.007c-.032.28.112 2.707.112 2.707v5.298l-1.364.24c2.17 3.006 5.688 4.962 9.663 4.962z"/></svg>