<svg viewBox="0 0 24 24" xmlns="http://www.w3.org/2000/svg"><path fill="currentColor" d="m11.987 1.913c-1.9 0-3.693.321-5.298.883-3.933 1.472-6.689 5.03-6.689 9.204 0 4.147 2.756 7.706 6.689 9.204 1.632.562 3.425.883 5.325.883a16.74 16.74 0 0 0 5.27-.856c3.933-1.472 6.716-5.057 6.716-9.204v-.027c0-4.174-2.783-7.732-6.716-9.204a16.295 16.295 0 0 0 -5.297-.883zm-1.097 3.344h2.167v3.827c1.525-.402 2.702-1.766 2.782-3.399l2.168.027c-.16 2.73-2.22 4.95-4.897 5.378v1.793c2.676.428 4.736 2.675 4.924 5.404l-2.167.028c-.08-1.633-1.258-2.997-2.783-3.425v3.853h-2.167v-3.853a3.775 3.775 0 0 0 -2.81 3.425l-2.167-.028a5.868 5.868 0 0 1 4.923-5.404v-1.766c-2.676-.401-4.763-2.649-4.923-5.377l2.167-.027a3.711 3.711 0 0 0 2.783 3.397z"/></svg>