<svg viewBox="0 0 24 24" xmlns="http://www.w3.org/2000/svg"><path fill="currentColor" d="m21.272 14.815h-.098c-.747 2.049-2.335 3.681-4.363 4.483v-4.483l2.444-2.182-2.444-2.182v-3.054c2.138.006 3.885-1.703 3.927-3.84 0-2.629-2.509-3.556-3.927-3.556-.367-.007-.734.033-1.091.12v.131h.556c.801-.141 1.565.394 1.706 1.195.008.044.014.09.018.136-.033.789-.7 1.401-1.488 1.367-.02-.001-.041-.002-.061-.004-2.444 0-5.323-1.985-8.454-1.985-2.45-.131-4.549 1.731-4.713 4.178-.076 1.532.974 2.892 2.476 3.207v-.12c-.459-.295-.719-.819-.676-1.364.074-1.015.957-1.779 1.973-1.705.011.002.023.003.034.004 2.629 0 6.872 2.182 9.501 2.182h.098v3.142l-2.444 2.182 2.444 2.182v4.549c-.978.322-2.003.481-3.033.469-1.673.084-3.318-.456-4.614-1.516l4.429-1.985v-8.915l-6.196 2.727c.592-1.75 1.895-3.168 3.589-3.905v-.098c-4.516 1.004-8.138 4.243-8.138 8.705 0 5.193 4.025 9.12 9.818 9.12 6.011 0 8.727-4.363 8.727-8.814zm-12.414 3.371c-1.363-1.362-2.091-3.235-2.007-5.16-.016-.88.109-1.756.371-2.596l2.051-.938v8.476z"/></svg>