<svg viewBox="0 0 24 24" xmlns="http://www.w3.org/2000/svg"><path fill="currentColor" d="m.4787 7.534v12.1279a2.0213 2.0213 0 0 0 2.0213 2.0213h2.3888l1.323 2.0948a.4778.4778 0 0 0 .4043.2205.4778.4778 0 0 0 .441-.2205l1.323-2.0948h6.9828l1.323 2.0948a.4778.4778 0 0 0 .441.2205c.1838 0 .3308-.0735.4043-.2205l1.323-2.0948h2.6462a2.0213 2.0213 0 0 0 2.0213-2.0213v-12.128a2.0213 2.0213 0 0 0 -2.0213-1.9845h-7.681l4.4468-4.4469-1.1025-1.1025-5.1452 5.1452-5.2185-5.1452-1.1027 1.1025 4.4102 4.4102h-7.5708a2.0213 2.0213 0 0 0 -2.058 2.058z"/></svg>