<svg viewBox="0 0 24 24" xmlns="http://www.w3.org/2000/svg"><path fill="currentColor" d="m14.176 24h3.674c3.376 0 6.15-2.774 6.15-6.15v-11.7c0-3.375-2.774-6.15-6.15-6.15h-3.75c-.074 0-.15.074-.15.15v23.7c-.001.076.075.15.226.15zm4.574-13.199c1.351 0 2.399 1.125 2.399 2.398 0 1.352-1.125 2.4-2.399 2.4-1.35 0-2.4-1.049-2.4-2.4-.075-1.349 1.05-2.398 2.4-2.398zm-7.35-10.801h-5.25c-3.375 0-6.15 2.775-6.15 6.15v11.7c0 3.376 2.775 6.15 6.15 6.15h5.25c.074 0 .15-.074.15-.149v-23.701c.001-.076-.075-.15-.15-.15zm-1.724 22.051h-3.526c-2.326 0-4.201-1.875-4.201-4.201v-11.7c0-2.326 1.875-4.201 4.201-4.201h3.45zm-5.926-14.852c0 1.275.975 2.25 2.25 2.25s2.25-.975 2.25-2.25c0-1.273-.975-2.25-2.25-2.25s-2.25.977-2.25 2.25z"/></svg>