<svg viewBox="0 0 24 24" xmlns="http://www.w3.org/2000/svg"><path fill="currentColor" d="m20.576 14.955-.01.028c-1.247 3.643-4.685 6.086-8.561 6.086s-7.32-2.448-8.562-6.09l-.01-.029h-2.723v.329l1.133.133c.7.08.847.39 1.038.78l.048.096c1.638 3.495 5.204 5.752 9.08 5.752 3.877 0 7.443-2.257 9.081-5.747l.048-.095c.19-.39.338-.7 1.038-.781l1.134-.134v-.328zm-17.133-5.943c1.247-3.643 4.686-6.09 8.562-6.09s7.319 2.447 8.562 6.09l.01.028h2.728v-.328l-1.134-.133c-.7-.081-.847-.39-1.038-.781l-.047-.096c-1.638-3.485-5.206-5.742-9.081-5.742-3.881 0-7.443 2.257-9.081 5.752l-.048.095c-.19.39-.338.7-1.038.781l-1.133.133v.329h2.724zm13.862 1.586-1.743 2.795h.752l.31-.5h2.033l.31.5h.747l-1.743-2.795zm1.033 1.766h-1.395l.7-1.124zm2.81-1.066 2.071 2.095h.781v-2.795h-.614v2.085l-2.062-2.085h-.795v2.795h.619zm-21.148 2.095h.619v-2.095l2.076 2.095h.781v-2.795h-.619v2.085l-2.062-2.085h-.795zm4.843-2.795h.619v2.795h-.62zm4.486 2.204c-.02.005-.096.005-.124.005h-2.462v.572h2.5c.019 0 .167 0 .195-.005.51-.048.743-.472.743-.843 0-.381-.243-.79-.705-.833-.09-.01-.166-.01-.2-.01h-1.633a.83.83 0 0 1 -.181-.014c-.129-.034-.176-.148-.176-.243 0-.086.047-.2.18-.238a.68.68 0 0 1 .172-.014h2.357v-.562h-2.395c-.1 0-.176.004-.238.014a.792.792 0 0 0 -.695.805c0 .343.214.743.685.81.086.009.205.009.258.009h1.59c.029 0 .1 0 .114.005.181.023.243.157.243.276a.262.262 0 0 1 -.228.266zm4.657 0c-.02.005-.096.005-.129.005h-2.457v.572h2.5c.019 0 .167 0 .195-.005.51-.048.743-.472.743-.843 0-.381-.243-.79-.705-.833-.09-.01-.166-.01-.2-.01h-1.633a.83.83 0 0 1 -.181-.014c-.129-.034-.176-.148-.176-.243 0-.086.047-.2.18-.238a.68.68 0 0 1 .172-.014h2.357v-.562h-2.395c-.1 0-.176.004-.238.014a.792.792 0 0 0 -.695.805c0 .343.214.743.686.81.085.009.204.009.257.009h1.59c.029 0 .1 0 .114.005.181.023.243.157.243.276a.267.267 0 0 1 -.228.266z"/></svg>