<svg viewBox="0 0 24 24" xmlns="http://www.w3.org/2000/svg"><path fill="currentColor" d="m16.419 15.204s7.235-5.335 4.305-8.786c-3.398-4.003-12.921 4.486-13.962 2.76-1.04-1.725 8.452-5.86 9.481-6.55.112-.075.144-.218.112-.383l1.099-.127-.685-.345.175-.685-.796.621c-.298-.536-.808-1.114-1.099-1.316-1.035-.685-2.93-.52-5.685.86-2.756 1.38-9.147 5.685-5.877 10.51 2.93 4.306 11.35-3.094 12.756-1.9 1.205 1.035-8.095 7.411-8.095 7.411h3.965c-.683 1.725-3.965 6.726-3.965 6.726l11.934-8.621c-1.253-.186-3.663-.175-3.663-.175zm-3.244-14.296a.776.776 0 0 1 .823.716.776.776 0 0 1 -.717.823.776.776 0 0 1 -.823-.716.768.768 0 0 1 .717-.823z"/></svg>