<svg viewBox="0 0 24 24" xmlns="http://www.w3.org/2000/svg"><path fill="currentColor" d="m10.315 4.876-4.0102-2.0243-4.401 2.1965 4.1186 2.0683zm1.8381.9277 4.2045 2.1223-4.3622 2.1906-4.125-2.0718zm5.6153-2.9213 4.3193 2.1658-3.863 1.9402-4.2131-2.1252zm-1.859-.9329-3.8884-1.9495-3.8468 1.9193 4.0068 2.0208zm-3.0401 16.7443v5.3062l4.7107-2.3507-.0053-5.3085zm4.7037-4.2057-.0052-5.2528-4.6985 2.3356v5.2546zm5.6553-.9845v5.327l-4.0178 2.0052-.0029-5.3028zm0-1.8626v-5.2196l-4.0253 2.001.0034 5.2633zm-12.0221-.07-3.1729-1.5954v6.895s-3.8804-8.2564-4.2399-8.998c-.0463-.0957-.2371-.2007-.2858-.2262-.6958-.3652-2.7346-1.3979-2.7346-1.3979v12.1815l2.8204 1.5076v-6.3674s3.8392 7.3775 3.878 7.458c.0389.0807.4245.8582.8362 1.1314.5485.363 2.8992 1.7766 2.8992 1.7766z"/></svg>