<svg viewBox="0 0 24 24" xmlns="http://www.w3.org/2000/svg"><path fill="currentColor" d="m12 20c-1.065 0-1.988-.232-2.77-.696a4.7 4.7 0 0 1 -1.794-1.89 9.97 9.97 0 0 1 -.916-2.53 13.613 13.613 0 0 1 -.29-2.884c0-.766.05-1.499.152-2.2.1-.699.285-1.41.556-2.132a6.803 6.803 0 0 1 1.042-1.878 4.725 4.725 0 0 1 1.668-1.293c.689-.332 1.472-.497 2.352-.497 1.065 0 1.988.232 2.77.696a4.7 4.7 0 0 1 1.794 1.89c.418.795.723 1.639.916 2.53.192.891.29 1.853.29 2.884 0 .766-.05 1.499-.152 2.2a9.812 9.812 0 0 1 -.567 2.132 7.226 7.226 0 0 1 -1.042 1.878c-.418.53-.97.962-1.657 1.293-.688.332-1.471.497-2.352.497zm2.037-5.882c.551-.554.858-1.32.848-2.118 0-.824-.276-1.53-.827-2.118-.552-.588-1.238-.882-2.058-.882s-1.506.294-2.058.882a2.987 2.987 0 0 0 -.827 2.118c0 .824.276 1.53.827 2.118.552.588 1.238.882 2.058.882s1.5-.294 2.037-.882zm-2.037 9.882c6.372 0 11.538-5.373 11.538-12s-5.166-12-11.538-12-11.538 5.373-11.538 12 5.166 12 11.538 12z"/></svg>