<svg viewBox="0 0 24 24" xmlns="http://www.w3.org/2000/svg"><path fill="currentColor" d="m11.71 0c-3.47 3.9-4.79 6-5.07 9.14-.01-.01-.03-.01-.04-.02-1.28-.73-2.3-2.22-2.91-3.73l-2.23.87c1.64 4.95 2.81 7.13 5.39 8.94-.02.01-.03.02-.05.03-1.27.74-3.07.89-4.68.66l-.36 2.37c5.11 1.06 7.59 1.15 10.46-.19v.06c0 1.47-.77 3.09-1.78 4.38l1.86 1.49c3.46-3.89 4.78-5.99 5.06-9.13.02.01.03.01.05.02 1.27.73 2.29 2.21 2.9 3.73l2.23-.87c-1.64-4.95-2.8-7.14-5.39-8.95.02-.01.03-.02.05-.03 1.27-.74 3.07-.88 4.68-.65l.36-2.38c-5.1-1.06-7.58-1.14-10.44.19v-.06c0-1.47.77-3.09 1.78-4.38zm.19 8.82a3.181 3.181 0 0 1 3.28 3.07 3.181 3.181 0 0 1 -3.07 3.28 3.181 3.181 0 0 1 -3.28-3.07 3.181 3.181 0 0 1 3.07-3.28z"/></svg>