<svg viewBox="0 0 24 24" xmlns="http://www.w3.org/2000/svg"><path fill="currentColor" d="m18.135 13.949c-.319.221-.675.355-1.057.416s-.761.049-1.142.049h-7.873c-.382 0-.762.014-1.145-.049-.381-.063-.734-.195-1.057-.416-.643-.451-1.027-1.17-1.027-1.951 0-.796.387-1.515 1.029-1.95.314-.225.674-.359 1.049-.42s.75-.061 1.141-.061h7.875c.375 0 .765-.014 1.14.046s.735.194 1.051.405c.645.434 1.02 1.17 1.02 1.949 0 .78-.391 1.5-1.035 1.95zm3.174-7.555c-.845-.678-1.812-1.146-2.865-1.398-.6-.146-1.203-.211-1.822-.23-.449-.015-.899-.01-1.364-.01h-6.498c-.457 0-.915-.005-1.372.01-.618.021-1.222.083-1.825.23-1.051.254-2.025.723-2.865 1.4-1.708 1.365-2.698 3.424-2.698 5.604 0 2.182.99 4.241 2.689 5.606.846.678 1.815 1.146 2.865 1.4.603.146 1.206.211 1.823.229.45.016.9.012 1.365.012h6.496c.449 0 .914.004 1.364-.012.615-.018 1.215-.082 1.814-.229 1.05-.256 2.011-.723 2.866-1.402 1.728-1.364 2.718-3.424 2.718-5.604 0-2.181-.99-4.241-2.691-5.606z"/></svg>