<svg viewBox="0 0 24 24" xmlns="http://www.w3.org/2000/svg"><path fill="currentColor" d="m18.575 9.29h5.418v5.42h-5.418zm-18.575 0h5.419v5.42h-5.419zm18.575 7.827a1.207 1.207 0 0 1 -1.206 1.206h-10.746a1.207 1.207 0 0 1 -1.205-1.206v-.858h-5.418v5.252a2.236 2.236 0 0 0 2.229 2.23h19.53a2.237 2.237 0 0 0 2.241-2.229v-5.252h-5.425zm3.188-16.859h-19.53a2.236 2.236 0 0 0 -2.23 2.23v5.252h5.419v-.858a1.206 1.206 0 0 1 1.205-1.206h10.746a1.206 1.206 0 0 1 1.205 1.206v.858h5.422v-5.253a2.237 2.237 0 0 0 -2.237-2.229z"/></svg>