<svg viewBox="0 0 24 24" xmlns="http://www.w3.org/2000/svg"><path fill="currentColor" d="m1.961 13.532c-.303 0-.575-.052-.818-.157s-.448-.25-.616-.437-.298-.408-.389-.664c-.092-.256-.138-.533-.138-.832s.046-.576.137-.832.221-.477.389-.664c.169-.187.374-.333.617-.438s.516-.157.818-.157c.303 0 .575.052.818.157s.448.25.616.437.298.408.389.664.137.533.137.832-.046.576-.137.832c-.092.256-.221.477-.389.664s-.374.333-.616.437c-.243.105-.515.158-.818.158zm0-.443c.235 0 .443-.042.622-.126s.331-.199.454-.345.216-.319.277-.521c.062-.202.092-.42.092-.656 0-.235-.031-.454-.092-.656-.062-.202-.154-.376-.277-.524s-.275-.263-.454-.347-.386-.125-.622-.125c-.235 0-.443.042-.622.126s-.331.2-.454.347c-.123.148-.216.322-.277.524-.062.202-.092.42-.092.656 0 .235.031.454.092.656.062.202.154.375.277.521s.275.261.454.345c.18.083.387.125.622.125zm2.494-2.538h.454v.409h.011c.108-.149.237-.266.387-.35.149-.084.331-.126.544-.126.183 0 .351.035.504.104s.284.168.392.297.193.289.255.479c.062.191.092.405.092.644 0 .232-.029.442-.087.63-.058.189-.141.349-.249.482s-.241.234-.398.305-.333.106-.527.106c-.198 0-.37-.032-.516-.095s-.278-.174-.398-.331h-.01v1.557h-.454zm1.345 2.6c.138 0 .26-.029.364-.087.105-.058.191-.137.261-.238.069-.101.12-.22.154-.359.034-.138.05-.289.05-.454 0-.161-.017-.311-.05-.451-.034-.14-.085-.261-.154-.364s-.155-.183-.258-.241-.223-.087-.361-.087c-.157 0-.294.03-.412.09s-.214.142-.289.247-.131.226-.168.364-.056.286-.056.443.017.305.05.443c.034.138.087.259.16.361.073.103.167.184.283.244.116.059.258.089.426.089zm3.037.375c-.22 0-.417-.04-.591-.12s-.32-.19-.44-.328-.211-.3-.275-.485-.095-.382-.095-.591.033-.406.098-.591.159-.346.28-.485c.121-.138.266-.247.434-.328.168-.08.355-.12.56-.12.217 0 .408.04.574.12s.305.192.417.336.197.316.255.516.087.419.087.658h-2.24c.007.146.034.282.078.409.045.127.106.237.185.331.078.093.174.166.286.219.112.052.241.078.387.078.213 0 .387-.049.521-.148s.228-.247.28-.445h.443c-.067.314-.209.555-.426.723-.217.167-.49.251-.818.251zm-.028-2.689c-.134 0-.254.023-.359.07s-.193.112-.266.196-.133.183-.179.297c-.047.114-.078.236-.092.367h1.743c-.015-.291-.094-.519-.238-.684-.145-.164-.348-.246-.609-.246zm2.311.095h.011c.105-.138.231-.247.378-.328.148-.08.328-.12.541-.12.303 0 .541.079.714.238.174.159.261.389.261.692v2.034h-.454v-1.995c0-.191-.058-.336-.174-.437s-.276-.151-.482-.151c-.116 0-.222.02-.319.059s-.181.093-.252.163c-.071.069-.126.153-.165.252s-.059.208-.059.328v1.782h-.454v-2.897h.454zm4.289 2.598c-.549 0-.972-.116-1.271-.347s-.456-.561-.47-.989h.8c.03.244.116.418.259.521s.359.155.648.155c.105 0 .205-.009.299-.028s.177-.049.248-.09.129-.095.172-.161.065-.146.065-.24c0-.098-.024-.178-.07-.242-.047-.064-.114-.117-.2-.161-.086-.043-.191-.081-.313-.113s-.26-.065-.414-.099c-.18-.041-.354-.087-.521-.138s-.314-.119-.44-.206c-.126-.086-.227-.197-.304-.332s-.116-.308-.116-.518c0-.199.038-.374.116-.524.077-.15.184-.276.321-.378.137-.101.3-.178.487-.228.188-.051.394-.076.62-.076.454 0 .82.107 1.096.321s.429.526.459.935h-.783c-.023-.203-.105-.355-.248-.456s-.319-.152-.53-.152c-.222 0-.398.043-.53.13-.132.086-.197.201-.197.344 0 .083.018.151.054.206s.09.102.163.144c.073.041.164.077.273.107s.238.062.389.096c.207.045.401.095.583.149.182.055.342.127.479.217s.245.205.324.344.118.318.118.535c0 .203-.039.384-.118.544s-.188.293-.327.4-.304.189-.496.245c-.191.056-.399.085-.625.085zm3.759 0c-.549 0-.972-.116-1.271-.347s-.456-.561-.47-.989h.8c.03.244.116.418.259.521s.359.155.648.155c.105 0 .205-.009.299-.028s.177-.049.248-.09.129-.095.172-.161.065-.146.065-.24c0-.098-.024-.178-.07-.242-.047-.064-.114-.117-.2-.161-.086-.043-.191-.081-.313-.113s-.26-.065-.414-.099c-.18-.041-.354-.087-.521-.138s-.314-.119-.44-.206c-.126-.086-.227-.197-.304-.332s-.116-.308-.116-.518c0-.199.038-.374.116-.524.077-.15.184-.276.321-.378.137-.101.3-.178.487-.228.188-.051.394-.076.62-.076.454 0 .82.107 1.096.321s.429.526.459.935h-.783c-.023-.203-.105-.355-.248-.456s-.319-.152-.53-.152c-.222 0-.398.043-.53.13-.132.086-.197.201-.197.344 0 .083.018.151.054.206s.09.102.163.144c.073.041.164.077.273.107s.238.062.389.096c.207.045.401.095.583.149.182.055.342.127.479.217s.245.205.324.344.118.318.118.535c0 .203-.039.384-.118.544s-.188.293-.327.4-.304.189-.496.245c-.191.056-.4.085-.625.085zm2.122-4.12h.817v3.347h1.893v.682h-2.71z"/></svg>