<svg viewBox="0 0 24 24" xmlns="http://www.w3.org/2000/svg"><path fill="currentColor" d="m12 .357c-6.615 0-12 5.333-12 11.897 0 4.36 2.358 8.153 5.896 10.204l.77-5.076a7.046 7.046 0 0 1 -1.846-4.719c0-3.897 3.18-7.076 7.13-7.076 3.948 0 7.126 3.18 7.126 7.076 0 1.847-.717 3.488-1.846 4.77l.77 5.077c3.59-2.05 6-5.899 6-10.258 0-6.562-5.385-11.895-12-11.895zm-.05 8.157a3.786 3.786 0 0 0 -3.796 3.795 3.738 3.738 0 0 0 2.461 3.54l-1.485 7.794h5.64l-1.435-7.795c1.385-.564 2.41-1.898 2.41-3.54a3.786 3.786 0 0 0 -3.795-3.794z"/></svg>