<svg viewBox="0 0 24 24" xmlns="http://www.w3.org/2000/svg"><path fill="currentColor" d="m8.051 5.238c-1.328 1.566-2.186 3.883-2.246 6.48v.564c.061 2.598.918 4.912 2.246 6.479 1.721 2.236 4.279 3.654 7.139 3.654 1.756 0 3.4-.537 4.807-1.471-2.118 1.902-4.923 3.056-7.997 3.056-.192 0-.383-.004-.57-.014-6.366-.297-11.43-5.55-11.43-11.986 0-6.629 5.373-12 12-12h.045c3.055.012 5.84 1.166 7.953 3.055-1.408-.93-3.051-1.471-4.81-1.471-2.858 0-5.417 1.42-7.14 3.654zm15.949 6.762c0 3.556-1.545 6.748-4.002 8.945-3.078 1.5-5.946.451-6.896-.205 3.023-.664 5.307-4.32 5.307-8.74 0-4.422-2.283-8.075-5.307-8.74.949-.654 3.818-1.703 6.896-.205 2.457 2.195 4.002 5.39 4.002 8.945z"/></svg>