<svg viewBox="0 0 24 24" xmlns="http://www.w3.org/2000/svg"><path fill="currentColor" d="m18.419 11.08h5.259v1.847h-5.254l1.66.885v1.847l-5.111-2.732h-.005v-1.847l5.111-2.737v1.847zm.005 5.54 5.255 2.808v1.841c.01 1.453-1.176 2.744-2.655 2.731h-20.702v-4.573l5.252-2.808h-3.455v-1.847h1.297v1.719l3.216-1.719h2.395v1.846l-3.453 1.847h12.85l-3.455-1.847v-1.846h2.4l3.216 1.719v-1.719h1.297v1.847h-3.458zm-14.475 3.687v-.972l-1.83.979v1.84h18.905c.481-.004.848-.393.857-.879v-.96l-1.764-.943v.936h-16.168zm-.033-6.496v1.847l5.111-2.732v-1.846l-5.111-2.737v1.847l1.665.89h-5.259v1.847h5.254zm19.763-13.811v4.572l-5.259 2.814h3.462v1.847h-1.303v-1.725l-3.222 1.725h-2.39v-1.847l3.451-1.847h-12.84l3.449 1.847v1.847h-2.389l-3.222-1.725v1.725h-1.297v-1.847h3.459l-5.256-2.814v-1.841c-.022-1.44 1.173-2.743 2.654-2.731zm-1.798 1.846h-18.905c-.488.009-.847.394-.857.88v.962l1.797.962v-.957h16.168v.956l1.797-.962z"/></svg>