<svg viewBox="0 0 24 24" xmlns="http://www.w3.org/2000/svg"><path fill="currentColor" d="m11.998 0-4.6953 2.7168v2.045l-4.875 2.7929v5.0098l-2.0897 1.209v5.4355l4.6973 2.7187 1.662-.9629 5.3027 3.0352 5.3008-3.0352 1.664.963 4.6973-2.7188v-5.4356l-2.0898-1.207v-5.0117l-4.877-2.793v-2.0449zm0 1.1953 3.127 1.8125-3.125 1.795-3.125-1.797zm-3.6582 2.6992 3.1426 1.8067v3.6758l-3.1426-1.8223zm7.3184 0v3.6602l-3.1387 1.8183v-3.6738zm1.0371 2.0625 3.8418 2.1973v3.8125l-1.5723-.9102-4.6972 2.7168v5.4356l1.998 1.1562-4.2656 2.4395-4.2637-2.4395 1.9961-1.1562v-5.4356l-4.6972-2.7168-1.5704.9082v-3.8105l3.838-2.1953v2.1953h.0019l4.6953 2.7168 4.6953-2.7168zm-11.6601 6.297 3.125 1.8085-3.125 1.7969-3.125-1.7969.5175-.3008 2.6075-1.5078zm13.9296 0 2.6075 1.5097.5156.2988-3.123 1.7969-3.125-1.7969 3.125-1.8086zm-17.5878 2.6951 3.1425 1.8086v3.6758l-3.1425-1.8222v-3.662zm7.3183 0v3.6621l-3.0371 1.7578-.1016.0606v-3.6738zm6.6094 0 3.1445 1.8086v3.6758l-.1074-.0645-3.0371-1.7578v-3.662zm7.3183 0v3.6621l-3.1386 1.8184v-3.6719z"/></svg>