<svg viewBox="0 0 24 24" xmlns="http://www.w3.org/2000/svg"><path fill="currentColor" d="m12.07 10.679v-.672h-2.75v3.97h2.751v-.656h-2.096v-1h2.002v-.657h-2.002v-.985zm2.049 3.299v-3.971h.656v3.314h1.908v.657zm3.111 0v-3.971h.657v3.314h1.907v.657zm-4.456-3.971h.657v3.97h-.657zm-11.695 1.016c-.25.25-.407.594-.407.985 0 .39.157.735.407 1a1.418 1.418 0 0 0 1.986 0c.25-.265.406-.61.406-1 0-.391-.156-.735-.407-.985a1.418 1.418 0 0 0 -1.985 0m-1.079.985c0-1.142.922-2.064 2.064-2.064 1.141 0 2.064.922 2.064 2.064a2.062 2.062 0 0 1 -2.064 2.064 2.062 2.062 0 0 1 -2.064-2.064zm6.176-.344v-.985h1.329a.5.5 0 0 1 .5.485c0 .281-.234.5-.5.5zm1.657.61c.485-.141.829-.579.829-1.11 0-.642-.516-1.157-1.157-1.157h-1.986v3.97h.657v-1.656h.922l.985 1.657h.782zm-2.783-1.845a.477.477 0 0 1 -.485.484.468.468 0 0 1 -.484-.484c0-.266.203-.485.484-.485.266 0 .485.219.485.485zm17.684-.422h-.798l-1.016 1.47-1.016-1.47h-.813l1.485 2.157v1.814h.672v-1.814zm.781.813a.404.404 0 0 1 -.406-.407c0-.219.172-.406.406-.406.22 0 .407.187.407.406a.414.414 0 0 1 -.407.407m0-.892a.487.487 0 0 0 -.484.485c0 .266.219.485.484.485a.487.487 0 0 0 .485-.485.487.487 0 0 0 -.485-.485zm-.125.313h.203c.032 0 .063.031.063.063a.067.067 0 0 1 -.063.062h-.203zm.344.063a.14.14 0 0 0 -.14-.141h-.282v.5h.078v-.219h.14l.11.22h.094l-.11-.22a.15.15 0 0 0 .11-.14"/></svg>