<svg viewBox="0 0 24 24" xmlns="http://www.w3.org/2000/svg"><path fill="currentColor" d="m8.925 9.864v-2.632c0-.414.183-.517.449-.517h5.335c.265 0 .428.145.428.537v2.612h-1.57v-1.207c0-.227 0-.29-.225-.29h-2.622c-.246 0-.246.063-.246.27v1.227h-1.55zm4.641 4.979v.48c0 .226-.041.288-.224.288h-2.54c-.306 0-.327 0-.327-.289v-.479h-1.55v1.925c0 .413.163.517.428.517h5.335c.245 0 .449-.145.449-.538v-1.904h-1.57zm-2.036-1.905h.876v1.384h1.047v-2.012c0-.087-.043-.433-.342-.433h-.534l.897-1.492h-1.111l-.833 1.297v-1.297h-.983v3.937h.983zm11.466-1.072h-.898v-1.47h-1.004v3.915h1.004v-1.298h.898v1.298h1.004v-3.915h-1.004zm-18.34-.043v-.39h1.773v-1.037h-2.543a.381.381 0 0 0 -.385.367v1.73c0 .217.086.37.278.37h1.496v.432h-1.775v1.016h2.564c.214 0 .364-.194.364-.41v-1.71a.362.362 0 0 0 -.364-.368h-1.41zm14.07 0v-.39h1.772v-1.037h-2.542a.381.381 0 0 0 -.385.367v1.73c0 .217.086.37.278.37h1.496v.432h-1.775v1.016h2.564c.214 0 .363-.194.363-.41v-1.71a.362.362 0 0 0 -.363-.368h-1.41zm-9.8.021h-.876v-1.448h-1.026v3.915h1.026v-1.298h.876v1.298h1.024v-3.915h-1.024zm-6.02-1.066v3.15c0 .21-.173.383-.383.383h-2.14a.384.384 0 0 1 -.383-.383v-3.15c0-.21.172-.382.383-.382h2.14c.21 0 .383.172.383.382zm-1 .804a.17.17 0 0 0 -.17-.17h-.566a.17.17 0 0 0 -.17.17v1.542c0 .094.077.17.17.17h.567a.17.17 0 0 0 .17-.17v-1.542zm15.07-.804v3.15c0 .21-.173.383-.383.383h-2.14a.384.384 0 0 1 -.383-.383v-3.15c0-.21.172-.382.383-.382h2.14c.21 0 .382.172.382.382zm-1 .804a.17.17 0 0 0 -.17-.17h-.567a.17.17 0 0 0 -.17.17v1.542c0 .094.076.17.17.17h.567a.17.17 0 0 0 .17-.17z"/></svg>