<svg viewBox="0 0 24 24" xmlns="http://www.w3.org/2000/svg"><path fill="currentColor" d="m19.843 16.185c2.292 0 4.157-1.878 4.157-4.185 0-2.309-1.865-4.185-4.157-4.185-2.293 0-4.158 1.876-4.158 4.185 0 2.307 1.865 4.185 4.158 4.185zm0-5.677c.817 0 1.482.67 1.482 1.492s-.666 1.49-1.483 1.49a1.488 1.488 0 0 1 -1.482-1.49c0-.824.665-1.493 1.482-1.493zm-15.686 5.677c2.293 0 4.158-1.878 4.158-4.185 0-2.309-1.865-4.185-4.158-4.185-2.291 0-4.157 1.876-4.157 4.185 0 2.307 1.866 4.185 4.157 4.185zm0-5.677c.818 0 1.483.67 1.483 1.492s-.665 1.49-1.483 1.49a1.488 1.488 0 0 1 -1.48-1.49c0-.824.664-1.493 1.48-1.493zm7.84-.094-1.275-2.544h-2.989l2.791 5.564v2.62h2.948v-2.62l2.791-5.564h-2.99l-1.275 2.544z"/></svg>