<svg viewBox="0 0 24 24" xmlns="http://www.w3.org/2000/svg"><path fill="currentColor" d="m17.482 9.712c1.64 0 3.108.69 4.1 1.813.044-.388.087-.777.087-1.208.001-5.31-4.316-9.627-9.669-9.627s-9.67 4.316-9.67 9.626c0 .345 0 .69.044 1.036a8.688 8.688 0 0 1 7.943-5.137c2.848 0 5.352 1.381 6.95 3.496h.215zm-7.122-2.72c-4.36 0-7.9 3.54-7.9 7.9s3.54 7.9 7.9 7.9c2.158 0 4.1-.864 5.525-2.245a5.53 5.53 0 0 1 -3.928-5.31c0-2.676 1.9-4.92 4.446-5.438-1.468-1.684-3.626-2.806-6.043-2.806zm-5.57 14.591a11.958 11.958 0 0 1 -4.79-9.583c0-6.647 5.396-12 12-12s12 5.396 12 12-5.396 12-12 12c-1.554 0-3.022-.302-4.36-.82-1.079-.389-2.028-.907-2.849-1.597zm12.777-1.51a4.827 4.827 0 0 0 4.835-4.835 4.827 4.827 0 0 0 -4.835-4.834 4.827 4.827 0 0 0 -4.834 4.834 4.827 4.827 0 0 0 4.834 4.835z"/></svg>