<svg viewBox="0 0 24 24" xmlns="http://www.w3.org/2000/svg"><path fill="currentColor" d="m12.254 0-10.459 6.038-.254-.152-.008.008v.652l.576-.33-.254-.144 10.458-6.038zm1.677.965-10.459 6.039-.212-.128-1.727 1v.601l2.252-1.296-.211-.118 10.458-6.038zm1.677.966-10.46 6.038-.169-.102-3.446 1.99v.56l3.93-2.27-.17-.093 10.45-6.039zm1.668.957-6.512 3.777-.33-.186-1.864 1.075v.381l-1.744 1.008-.127-.076-5.166 2.972v.517l5.606-3.244-.127-.076 1.558-.898v.398l1.152.66-1.212.704-.085-.051-6.885 3.98v.458l7.283-4.2-.084-.052 1.21-.703 1.178.686-2.55 1.465v.271l-7.035 4.066v.407l7.038-4.067v.313l1.092.627-8.13 4.7v.178l.161.093 8.282-4.776 1.127.652-2.532 1.448v.33l-5.471 3.16.27.151 5.2-3.006v.381l3.414-1.973 1.024.593-1.008.584v.102l-7.19 4.15.23.126 6.951-4.013v.102l1.414-.813 1.118.643-1.82 1.059.16.093-.864.5v.144l-5.47 3.159.186.11 5.284-3.049v.144l1.305-.754.254.153 1.82-1.05v-.305l7.08-4.082v-.517l-7.071 4.09v-.186l-1.118-.643 8.19-4.726v-.457l-8.58 4.954-1.024-.593 2.532-1.473v-.34l7.071-4.072v-.407l-7.071 4.082v-.254l-1.143-.66 8.214-4.743-.008-.203-.153-.085-8.375 4.827-1.084-.618 2.54-1.474v-.372l5.505-3.176-.271-.152-5.242 3.023v-.313l-3.404 1.964-1.178-.686 8.376-4.835-.229-.127-8.358 4.835-1.144-.66 1.855-1.076-.347-.203 6.512-3.76zm-5.293 7.612 1.084.627-1.211.703-1.33.762-1.084-.618zm1.389.813 1.152.66-2.558 1.466-1.135-.652 1.169-.677zm9.087 2.134-10.459 6.039v.195l-3.743 2.16.135.084 3.608-2.083v.195l10.459-6.03zm0 1.931-10.459 6.039v.246l-2.032 1.177.101.05 1.931-1.108v.237l10.459-6.03zm0 1.94-10.459 6.029v.296l-.313.187.059.025.254-.144v.289l10.459-6.03z"/></svg>