<svg viewBox="0 0 24 24" xmlns="http://www.w3.org/2000/svg"><path fill="currentColor" d="m2.053 11.914h.368c.419 0 .675-.245.718-.556.043-.27-.154-.556-.547-.556h-.352zm18.611-.638.839-1.504h1.924l-2.908 4.399h-1.959l.933-1.26-1.07-3.049-.727 4.309h-1.54l-.949-2.036-.342 2.036h-1.54l.745-4.4h1.582l.915 1.971.334-1.97h3.37zm-7.21-1.504-.744 4.399h-1.54l-.949-2.036-.342 2.036h-1.54l.745-4.4h1.582l.915 1.971.334-1.97zm-10.418-.065c1.07 0 1.788.547 1.797 1.438l.23-1.373h3.49l-.188 1.112h-1.848l-.094.523h1.668l-.188 1.104h-1.668l-.094.548h1.873l-.188 1.112h-3.506l.402-2.38c-.273.77-1.009 1.227-1.967 1.227h-.88l-.198 1.153h-1.677l.753-4.464zm20.964 3.638c0 .523-.445.948-.992.948s-.992-.425-.992-.948.445-.948.992-.948c.556.008.992.425.992.948z"/></svg>