<svg viewBox="0 0 24 24" xmlns="http://www.w3.org/2000/svg"><path fill="currentColor" d="m5.463 3.476c1.227 1.749 2.034 3.923 2.217 6.322a12.9 12.9 0 0 1 -.672 5.254 4.29 4.29 0 0 1 2.969-1.523c.05-.004.099-.006.148-.008.08-.491.47-3.45-.977-6.68-1.068-2.386-3-3.16-3.685-3.365zm1.777.037s2.406 1.066 3.326 5.547c.607 2.955.049 4.836-.402 5.773a7.347 7.347 0 0 1 4.506-1.994c.86-.065 1.695.02 2.482.233-.1-.741-.593-3.414-2.732-5.92-3.263-3.823-7.18-3.64-7.18-3.64zm14.817 9.701-17.92 3.049a2.284 2.284 0 0 1 1.535 2.254 2.31 2.31 0 0 1 -.106.61c.055-.027 2.689-1.275 6.342-2.034 3.238-.673 5.723-.36 6.285-.273a6.46 6.46 0 0 1 3.864-3.606zm-6.213 4.078c-2.318 0-4.641.495-6.614 1.166-2.868.976-2.951 1.348-5.55 1.043-1.836-.215-3.68-1.115-3.68-1.115s2.406 1.97 4.914 2.127c1.986.125 3.505-.822 5.315-1.414 2.661-.871 4.511-.97 6.253-.975 2.879-.008 7.518 1.229 7.518 1.229s-2.11-1.044-5.033-1.72a13.885 13.885 0 0 0 -3.123-.34z"/></svg>