<svg viewBox="0 0 24 24" xmlns="http://www.w3.org/2000/svg"><path fill="currentColor" d="m11.96 17.804 7.959-3.396-7.049 7.241c-.124-1.315-.432-2.61-.91-3.844zm12.04-6.686c-5.101-.236-10.208.414-15.087 1.92 1.024 1.073 1.881 2.292 2.535 3.621 4.042-2.25 9.646-5.123 12.552-5.531v-.015zm-12.574.275.207-.06c1.538-.459 3.049-1.015 4.523-1.656 1.492-.585 2.896-1.38 4.159-2.367 1.345-1.069 2.355-2.499 2.915-4.122.12-.267.211-.549.267-.837-2.024 2.76-10.041 3.048-10.041 3.048l1.89-1.734c-5.506.019-10.876 1.759-15.346 4.98 3.03.322 5.877 1.596 8.139 3.634 1.086-.336 2.196-.576 3.286-.879v-.006z"/></svg>