<svg viewBox="0 0 24 24" xmlns="http://www.w3.org/2000/svg"><path fill="currentColor" d="m12.002 0c-6.617 0-12 5.382-12 11.998 0 6.618 5.384 12.002 12 12.002s11.998-5.384 11.998-12.002c0-6.616-5.381-11.998-11.998-11.998zm0 2.43a9.568 9.568 0 0 1 9.568 9.568c0 5.286-4.283 9.572-9.568 9.572s-9.57-4.286-9.57-9.572c0-5.285 4.285-9.568 9.57-9.568zm-.135 1.31-3.045 1.758v.002l2.68 4.64c.425-.113.888-.08 1.31.118l1.41-2.442zm4.17 2.256-2.68 4.643c.325.324.52.749.557 1.195h2.816l2.356-4.076zm-11.256 1.988v3.55h.002v-.03h5.36a1.904 1.904 0 0 1 .756-1.08l-1.409-2.44zm2.487 4.182-2.356 4.074 3.049 1.762 2.682-4.645a1.929 1.929 0 0 1 -.557-1.191zm6.59.33a1.904 1.904 0 0 1 -.756 1.078l1.41 2.442h4.707v-3.52h-5.362zm-2.67 1.244-1.41 2.442 2.353 4.076 3.049-1.76-2.68-4.64c-.425.114-.89.08-1.313-.118z"/></svg>