<svg viewBox="0 0 24 24" xmlns="http://www.w3.org/2000/svg"><path fill="currentColor" d="m5.283 18.36a3.505 3.505 0 0 0 2.493-1.032l3.6-3.6a.684.684 0 0 1 .946 0l3.613 3.613a3.504 3.504 0 0 0 2.493 1.032h.71l-4.56 4.56a3.647 3.647 0 0 1 -5.156 0l-4.572-4.573zm13.145-12.733a3.505 3.505 0 0 0 -2.493 1.032l-3.613 3.614a.67.67 0 0 1 -.946 0l-3.6-3.6a3.505 3.505 0 0 0 -2.493-1.033h-.434l4.573-4.572a3.646 3.646 0 0 1 5.156 0l4.559 4.559zm-17.36 3.795 2.722-2.723h1.492a2.483 2.483 0 0 1 1.744.722l3.6 3.6a1.73 1.73 0 0 0 2.443 0l3.614-3.613a2.482 2.482 0 0 1 1.744-.723h1.767l2.737 2.737a3.646 3.646 0 0 1 0 5.156l-2.736 2.736h-1.768a2.482 2.482 0 0 1 -1.744-.722l-3.613-3.613a1.77 1.77 0 0 0 -2.444 0l-3.6 3.6a2.483 2.483 0 0 1 -1.744.722h-1.491l-2.723-2.723a3.646 3.646 0 0 1 0-5.156"/></svg>