<svg viewBox="0 0 24 24" xmlns="http://www.w3.org/2000/svg"><path fill="currentColor" d="m5.627 10.234a.888.888 0 0 1 -.887-.888h-3.04c0 .49-.398.888-.888.888h-.812v9.447h15.56v-9.447h-9.92zm-.886 2.796h-3.04v-1.323h3.04zm5.344 5.234a3.271 3.271 0 0 1 -3.267-3.269c0-1.802 1.466-3.193 3.267-3.193s3.267 1.39 3.267 3.193a3.271 3.271 0 0 1 -3.267 3.269zm1.756-3.269c0 .969-.788 1.757-1.756 1.757a1.759 1.759 0 0 1 -1.756-1.757c0-.969.788-1.757 1.756-1.757s1.756.788 1.756 1.757zm12.159-5.494-3.93 10.156-3.164-1.226v-1.731l2.242.869 2.765-7.146-10.363-4.016-.96 2.482h-1.73l1.769-4.57z"/></svg>