<svg viewBox="0 0 24 24" xmlns="http://www.w3.org/2000/svg"><path fill="currentColor" d="m16.6 0c2.6 0 4.262.009 5.828 1.574 1.562 1.567 1.572 3.22 1.572 5.827v9.2c0 2.6-.01 4.261-1.574 5.828-1.567 1.562-3.219 1.571-5.828 1.571h-9.2c-2.599 0-4.26-.009-5.827-1.574-1.561-1.565-1.571-3.219-1.571-5.827v-9.2c0-2.599.01-4.261 1.574-5.827 1.567-1.562 3.219-1.572 5.826-1.572h9.201zm4.398 11.151c-.428-4.573-4.314-8.149-8.998-8.149-4.971 0-9 4.027-9 8.998 0 4.801 3.752 8.734 8.485 9h7.136c1.313-.003 2.375-1.066 2.379-2.381v-7.47zm-2.285 8.589c-.564 0-1.023-.46-1.023-1.024 0-.566.459-1.024 1.023-1.024.566 0 1.025.458 1.025 1.024 0 .564-.459 1.024-1.025 1.024zm-6.713-.791c-3.837-.004-6.945-3.113-6.949-6.949.004-3.836 3.112-6.945 6.949-6.949 3.836.004 6.945 3.113 6.949 6.949-.004 3.836-3.113 6.945-6.949 6.949z"/></svg>