<svg viewBox="0 0 24 24" xmlns="http://www.w3.org/2000/svg"><path fill="currentColor" d="m12.1835.0017c-.6378-.0097-1.2884.022-1.7246.0996-1.8579.3227-3.4239 1.1103-4.7205 2.3769-1.3324 1.3024-2.1564 2.8208-2.5566 4.7147l-.1387.6445c-.0118 5.3872-.0233 10.7744-.035 16.1617.2914.0081.591-.0392.8416-.0606 2.348-.2868 4.3442-1.7083 5.4315-3.8651.2749-.5497.472-1.182.6094-1.9707.1135-.6691.1195-.8915.1016-4.3807l-.0176-3.6737.1425-.3574c.1972-.49.7425-1.0352 1.2324-1.2324l.3574-.1426 3.3457-.0058c1.8401 0 3.4545-.025 3.58-.0489.5854-.1135 1.2118-.6027 1.4628-1.1464.0717-.1494.1671-.4415.209-.6387.0657-.3286.0604-.4186-.0352-.789-.2987-1.0993-1.3503-2.6234-2.4257-3.5136-1.2188-1.0097-2.5637-1.6848-4.0155-2.0253-.3824-.0866-1.0067-.1368-1.6445-.1465zm8.5369 6.8006c-.0506.1798-.098.3662-.172.5215-.3358.7278-1.0382 1.2776-1.8221 1.4296-3.6737.0566-2.5392.0561-3.6737.0566l-3.248.0059-.2695.1074c-.3135.1262-.827.6397-.9531.9531l-.1074.2676.0175 3.576c.0149 2.8888.007 3.5821-.0605 4.125a8.9918 8.9918 0 0 0 1.5683.1386c4.9662.0001 8.992-4.0258 8.992-8.992a8.9918 8.9918 0 0 0 -.2715-2.1893z"/></svg>