<svg viewBox="0 0 24 24" xmlns="http://www.w3.org/2000/svg"><path fill="currentColor" d="m19.125 0h-14.25a4.865 4.865 0 0 0 -4.875 4.875v14.25c0 2.7 2.175 4.875 4.875 4.875h6.6c2.7 0 4.875-2.175 4.875-4.875v-2.475h2.775c2.7 0 4.875-2.175 4.875-4.875v-6.9c0-2.7-2.175-4.875-4.875-4.875zm-2.625 1.275h2.625a3.6 3.6 0 0 1 3.6 3.6v2.7h-6.225zm-1.425 7.725v6.45h-6.225v-6.45zm-6.225-7.8h6.225v6.375h-6.225zm-7.575 3.6a3.6 3.6 0 0 1 3.6-3.6h2.625v6.375h-6.225zm6.225 4.2v6.45h-6.3v-6.45zm0 13.725h-2.7a3.6 3.6 0 0 1 -3.6-3.6v-2.325h6.3zm7.575-3.525a3.6 3.6 0 0 1 -3.6 3.6h-2.625v-5.925h6.225zm7.65-7.35a3.6 3.6 0 0 1 -3.6 3.6h-2.625v-6.45h6.225z"/></svg>