<svg viewBox="0 0 24 24" xmlns="http://www.w3.org/2000/svg"><path fill="currentColor" d="m12 10.406a1.594 1.594 0 0 0 -1.594 1.594 1.594 1.594 0 0 0 1.594 1.594 1.594 1.594 0 0 0 1.594-1.594 1.594 1.594 0 0 0 -1.594-1.594zm5.499-4.33a2.998 2.998 0 0 1 .643.054 1.668 1.668 0 0 1 .48.172 1.085 1.085 0 0 1 .29.235 1.032 1.032 0 0 1 .185.315 1.454 1.454 0 0 1 .084.452c.007.195-.015.398-.058.603-.054.261-.14.521-.244.778-.137.334-.304.66-.49.978-.245.417-.52.818-.817 1.207-.145.191-.3.376-.455.561-.22-.238-.443-.472-.673-.7a23.61 23.61 0 0 0 -2.05-1.797l-.23.296.23-.296-.018-.014-.461.592.018.014a22.864 22.864 0 0 1 1.984 1.74c.241.237.475.48.703.73-.099.108-.194.22-.296.326-.099.104-.2.207-.301.308l.53.53c.106-.105.21-.212.313-.32.085-.088.164-.182.248-.272.065.078.135.152.198.231a13.317 13.317 0 0 1 .909 1.262c.211.336.404.681.564 1.036a5.23 5.23 0 0 1 .293.806 3.019 3.019 0 0 1 .102.637c.008.178-.007.351-.05.508-.034.123-.087.239-.157.338h-.001c-.068.098-.157.186-.26.256-.121.083-.264.146-.418.191-.188.054-.39.081-.6.09-.266.01-.538-.01-.814-.05-.357-.051-.713-.134-1.067-.238-.464-.137-.92-.307-1.369-.5h-.001c-.584-.253-1.153-.543-1.71-.86l-.025-.015c.578-.377 1.144-.77 1.686-1.194l-.21-.27.211.27.018-.015-.463-.59-.017.014c-.695.542-1.418 1.047-2.168 1.505a18.53 18.53 0 0 1 -1.827.983c-.473.219-.954.415-1.444.576a8.68 8.68 0 0 1 -1.142.296c-.286.052-.571.086-.853.09-.222.003-.438-.013-.643-.055-.175-.036-.338-.092-.48-.172-.111-.063-.21-.142-.29-.234-.079-.091-.142-.199-.185-.315-.051-.137-.078-.292-.084-.453a2.54 2.54 0 0 1 .058-.603c.055-.261.14-.52.245-.777a7.704 7.704 0 0 1 .49-.978 12.09 12.09 0 0 1 1.271-1.767c.232.251.469.497.712.737a23.645 23.645 0 0 0 2.02 1.765l.461-.591a22.9 22.9 0 0 1 -1.955-1.709c-.254-.25-.501-.506-.741-.769.099-.108.195-.219.295-.325.103-.107.206-.213.31-.317l-.53-.53c-.108.108-.215.218-.321.328-.085.089-.165.183-.248.273-.055-.066-.114-.128-.169-.195-.329-.406-.638-.827-.916-1.263-.214-.338-.408-.683-.571-1.04-.126-.275-.233-.555-.308-.838-.057-.215-.094-.428-.102-.637a1.67 1.67 0 0 1 .05-.507c.034-.124.087-.239.157-.339h.001c.068-.098.158-.186.26-.256a1.446 1.446 0 0 1 .419-.19c.187-.055.389-.082.599-.09a4.545 4.545 0 0 1 .814.048 7.708 7.708 0 0 1 1.067.24 12.092 12.092 0 0 1 1.369.5 17.248 17.248 0 0 1 1.736.874 24.003 24.003 0 0 0 -1.694 1.202l.462.59c.683-.534 1.393-1.031 2.13-1.484.594-.363 1.203-.697 1.83-.99.474-.222.956-.42 1.448-.583a8.816 8.816 0 0 1 1.146-.303c.298-.056.595-.092.887-.096zm-.01-.75h-.001c-.346.005-.684.047-1.014.108a9.546 9.546 0 0 0 -1.245.329 14.202 14.202 0 0 0 -1.529.616c-.583.272-1.146.582-1.696.91-.121-.073-.243-.145-.367-.215-.577-.329-1.171-.632-1.785-.897-.472-.203-.955-.385-1.455-.531-.38-.112-.772-.204-1.172-.262-.309-.044-.626-.068-.95-.055-.254.01-.516.043-.776.117-.218.064-.436.156-.636.294a1.774 1.774 0 0 0 -.717 1.014c-.068.247-.087.497-.077.737a3.728 3.728 0 0 0 .127.798 6.016 6.016 0 0 0 .351.959 9.548 9.548 0 0 0 .62 1.128 14.203 14.203 0 0 0 .967 1.335c.08.098.166.19.248.286-.189.222-.375.446-.552.679-.311.408-.604.834-.867 1.282a8.44 8.44 0 0 0 -.538 1.075 5.28 5.28 0 0 0 -.283.908c-.053.249-.083.512-.073.782a2.182 2.182 0 0 0 .13.688v.001a1.775 1.775 0 0 0 .81.94 2.403 2.403 0 0 0 .697.253 3.699 3.699 0 0 0 .805.07 5.97 5.97 0 0 0 .977-.102l.001-.001a9.412 9.412 0 0 0 1.24-.32c.523-.173 1.031-.38 1.526-.61.599-.278 1.178-.593 1.742-.93.121.072.243.144.366.214a17.99 17.99 0 0 0 1.785.898 12.832 12.832 0 0 0 1.455.53c.38.112.772.204 1.172.262a5.284 5.284 0 0 0 .95.056c.254-.01.516-.044.776-.118.218-.063.436-.156.636-.294a1.775 1.775 0 0 0 .717-1.014c.068-.248.087-.497.077-.736-.011-.277-.06-.544-.127-.799-.085-.322-.202-.629-.335-.923-.178-.393-.387-.767-.612-1.127-.294-.466-.618-.908-.959-1.333-.09-.111-.188-.216-.28-.324.189-.222.374-.447.552-.679.311-.409.604-.835.867-1.283a8.441 8.441 0 0 0 .538-1.075 5.277 5.277 0 0 0 .283-.907c.053-.25.083-.513.073-.783-.007-.226-.045-.46-.13-.688v-.001a1.775 1.775 0 0 0 -.81-.94c-.224-.126-.462-.204-.697-.252a3.7 3.7 0 0 0 -.805-.07zm-5.489-5.326 10.392 6v12l-10.392 6-10.393-6v-12z"/></svg>