<svg viewBox="0 0 24 24" xmlns="http://www.w3.org/2000/svg"><path fill="currentColor" d="m23.235 6.825v11.997a.924.924 0 0 1 -.419.725l-.393.235c-1.961 1.135-3.687 2.134-5.431 3.14v-12.974l-11.233-6.494c1.944-1.116 3.881-2.243 5.827-3.354a.927.927 0 0 1 .837 0l10.81 6.243v.482zm-8.741 4.562a9631.706 9631.706 0 0 0 -7.694-4.444.94.94 0 0 0 -.837 0c-1.733 1.001-3.467 2-5.199 3.004l8.113 4.684v9.369c1.732-.999 3.46-2.006 5.197-2.995a.927.927 0 0 0 .419-.724zm-13.729 7.93 5.613 3.241v-6.488z"/></svg>