<svg viewBox="0 0 24 24" xmlns="http://www.w3.org/2000/svg"><path fill="currentColor" d="m12 20.351s-1.096-.108-1.955-.705c-.86-.596-6.58-4.688-6.58-4.688v8.098s.048.944 1.085.944h14.9c1.036 0 1.085-.942 1.085-.942v-8.1s-5.723 4.092-6.58 4.69c-.86.595-1.955.704-1.955.704zm0-20.35s-7.075-.231-8.535 7.622v5.35s.06.572 1.67 1.735c1.607 1.162 5.773 4.436 6.867 4.436 1.088 0 5.254-3.273 6.865-4.437 1.607-1.164 1.668-1.737 1.668-1.737v-5.35c-1.46-7.849-8.535-7.617-8.535-7.617zm4.846 10.536h-9.69v-2.914c.984-3.9 4.844-3.953 4.844-3.953s3.863.054 4.846 3.954z"/></svg>