<svg viewBox="0 0 24 24" xmlns="http://www.w3.org/2000/svg"><path fill="currentColor" d="m12 0c-6.63 0-12 5.372-12 12s5.371 12 12 12c6.628 0 12-5.372 12-12s-5.373-12-12-12zm-.273 3.789v1.71h.545v-1.71a9.055 9.055 0 0 1 5.961 2.468l-1.277 1.278.386.386 1.277-1.278a9.057 9.057 0 0 1 2.469 5.96h-1.71v.546h1.717v2.001h-18.19v-2h1.715v-.546h-1.71a9.058 9.058 0 0 1 2.469-5.96l1.279 1.276.386-.386-1.278-1.278a9.056 9.056 0 0 1 5.96-2.468zm.273 3.176a5.912 5.912 0 0 0 -5.913 5.912h11.824a5.91 5.91 0 0 0 -5.911-5.912z"/></svg>