<svg viewBox="0 0 24 24" xmlns="http://www.w3.org/2000/svg"><path fill="currentColor" d="m12 11.997c-.728 0-1.316-.59-1.316-1.317s.588-1.317 1.316-1.317 1.316.589 1.316 1.316-.588 1.318-1.316 1.318zm2.916-.021c0-2.828-1.109-5.397-2.916-7.298-1.807 1.9-2.916 4.47-2.916 7.298 0 1.297.234 2.535.66 3.683-.618.9-1.074 2.16-1.275 3.616.639-.767 1.422-1.306 2.292-1.591.363.555.78 1.096 1.239 1.574.461-.494.876-1.02 1.239-1.59.87.271 1.653.826 2.29 1.576-.199-1.456-.655-2.716-1.275-3.615.427-1.155.66-2.385.66-3.69zm-2.916 10.024c-5.523 0-10-4.477-10-10s4.477-10 10-10 10 4.477 10 10-4.477 10-10 10zm0-22c-6.627 0-12 5.373-12 12s5.373 12 12 12 12-5.373 12-12-5.373-12-12-12z"/></svg>