<svg viewBox="0 0 24 24" xmlns="http://www.w3.org/2000/svg"><path fill="currentColor" d="m12.879 13.006v3.65l-3.004-3.048v-3.495h3.582l2.852 2.893zm10.886 7.606v3.388h-3.654l-5.73-5.9v-3.55h3.354zm-10.828-1.448 3.372 3.371c-1.309.442-2.557.726-4.325.726-6.848-.001-11.984-5.018-11.984-11.696 0-6.645 5.136-11.565 11.984-11.565 6.88 0 12.016 4.952 12.016 11.565 0 2.12-.523 4.076-1.457 5.759l-3.625-3.725a8.393 8.393 0 0 0 .24-2.005c0-4.291-3.148-7.527-7.1-7.527-3.954 0-7.248 3.236-7.248 7.527s3.33 7.6 7.247 7.6c.548 0 .661.017.88-.03z"/></svg>