<svg viewBox="0 0 24 24" xmlns="http://www.w3.org/2000/svg"><path fill="currentColor" d="m11.9986 0c-6.5633 0-9.8604 3.5117-9.8604 3.5117s-.3775 2.5993-.1366 7.8332c.3638 7.9064 9.9974 12.6556 9.9983 12.6551.001-.0005 9.6347-4.7488 9.9985-12.6551.2408-5.2339-.1364-7.8332-.1364-7.8332s-3.3-3.5117-9.8634-3.5117zm-.6782 2.9194a7.3657 7.3657 0 0 1 8.0454 7.3343 7.1158 7.1158 0 0 1 -2.7712 5.6342c-1.1788-.108-2.4098-.4423-2.9676-.7605 1.4379-.9177 3.3036-2.7033 3.3036-4.8737a4.9361 4.9361 0 0 0 -4.9305-4.9305c-2.7165 0-4.9266 2.2743-4.9266 5.0698 0 2.332 1.2355 4.1624 3.6718 5.4404 1.5943.8363 3.9724 1.449 6.4852 1.7723-.418.6225-1.533 1.686-2.1847 2.0462-3.0087-.4934-5.6513-1.5354-7.4578-3.0964-1.9323-1.6699-2.9536-3.8488-2.9536-6.3018a7.3657 7.3657 0 0 1 6.686-7.3343z"/></svg>