<svg viewBox="0 0 24 24" xmlns="http://www.w3.org/2000/svg"><path fill="currentColor" d="m24 12c0 6.6274-5.3726 12-12 12v-2.8065c5.0774 0 9.1935-4.116 9.1935-9.1934 0-5.0775-4.1161-9.1935-9.1935-9.1935s-9.1935 4.116-9.1935 9.1934h-2.8065c0-6.6274 5.3726-12 12-12s12 5.3726 12 12zm-3.5446 0c0-4.6698-3.7856-8.4554-8.4554-8.4554v2.7973c3.1249 0 5.6581 2.5332 5.6581 5.6581s-2.5332 5.6581-5.6581 5.6581-5.6581-2.5333-5.6581-5.6581h-2.7973c0 4.6698 3.7856 8.4554 8.4554 8.4554s8.4554-3.7856 8.4554-8.4554zm-8.4554-2.1181v-2.8332c-2.7436 0-4.9677 2.2167-4.9677 4.9513 0 2.7345 2.2241 4.9513 4.9677 4.9513s4.9677-2.2168 4.9677-4.9513h-2.8425c0 1.1698-.9515 2.1182-2.1252 2.1182s-2.1252-.9484-2.1252-2.1182.9515-2.1181 2.1252-2.1181z"/></svg>