<svg viewBox="0 0 24 24" xmlns="http://www.w3.org/2000/svg"><path fill="currentColor" d="m3.981 0a3.993 3.993 0 0 0 -3.981 3.981v16.039a3.993 3.993 0 0 0 3.981 3.98h10.983l-2.964-7.2-2.15 4.546h-5.87c-.72 0-1.327-.608-1.327-1.327v-16.039c0-.72.608-1.327 1.327-1.327h16.04c.72 0 1.327.608 1.327 1.327v16.04c0 .72-.608 1.327-1.327 1.327h-3.48l1.09 2.653h2.388a3.993 3.993 0 0 0 3.982-3.981v-16.039a3.993 3.993 0 0 0 -3.981-3.98zm4.324 4.217v3.858l3.341-1.93zm7.39 0-3.341 1.929 3.34 1.929zm-3.695 2.133-3.695 2.133 3.695 2.134 3.695-2.134zm-3.896 2.482v4.266l3.695 2.133v-4.266zm7.792 0-3.696 2.133v4.266l3.695-2.133zm-8.146.204-3.34 1.93 3.34 1.928zm8.5 0v3.858l3.34-1.929zm-8.146 4.47v3.859l3.341-1.93zm7.792 0-3.341 1.93 3.34 1.929z"/></svg>