<svg viewBox="0 0 24 24" xmlns="http://www.w3.org/2000/svg"><path fill="currentColor" d="m12 0a12 12 0 0 0 -12 12 12 12 0 0 0 12 12 12 12 0 0 0 12-12 12 12 0 0 0 -12-12zm.642 4.1335c.9554 0 1.7296.776 1.7296 1.7332v9.0667h1.6c1.614 0 2.9275-1.3156 2.9275-2.933 0-1.6173-1.3136-2.9333-2.9276-2.9333h-.6654v-1.7337h.6654c2.5722 0 4.6577 2.0897 4.6577 4.667 0 2.5774-2.0855 4.6666-4.6577 4.6666h-3.3295zm-4.6583 3.1995h3.3291v12.533c-.9555 0-1.73-.7759-1.73-1.7332v-9.0666h-1.5991c-1.6146 0-2.9277 1.316-2.9277 2.9334 0 1.6175 1.3131 2.9333 2.9277 2.9333h.6654v1.7332h-.6654c-2.5725 0-4.6577-2.0892-4.6577-4.6665 0-2.5771 2.0852-4.6666 4.6577-4.6666z"/></svg>