<svg viewBox="0 0 24 24" xmlns="http://www.w3.org/2000/svg"><path fill="currentColor" d="m16.633 16.324h-3.199a.321.321 0 0 1 -.32-.322v-8.028a.32.32 0 0 1 .32-.32h2.966c2.226 0 2.693 1.31 2.693 2.408 0 .636-.169 1.14-.504 1.511.816.337 1.256 1.096 1.256 2.194 0 1.601-1.201 2.557-3.212 2.557m-4.644 0h-6.644a.32.32 0 0 1 -.32-.322v-8.028a.32.32 0 0 1 .32-.32h3.103c1.939 0 3.096 1.043 3.096 2.791 0 1.163-.585 2.077-1.527 2.448l2.21 2.897a.322.322 0 0 1 -.24.533m.013-16.323c-6.627 0-12 5.373-12 12s5.373 12 12 12c6.628 0 12-5.373 12-12s-5.37-12-11.999-12"/></svg>