<svg viewBox="0 0 24 24" xmlns="http://www.w3.org/2000/svg"><path fill="currentColor" d="m21.665 11.812c-.11-1.377-.476-2.724-1.08-3.966l3.415-1.247c-.268-.556-.585-1.092-.943-1.595l-1.601.583c-3.534-4.95-10.412-6.098-15.363-2.565-3.144 2.244-4.883 5.972-4.582 9.823l1.604-.584c.051.615.153 1.224.305 1.822l-3.42 1.252c.338 1.339.922 2.604 1.721 3.731l1.812-.659c3.526 4.95 10.398 6.106 15.349 2.58 1.555-1.107 2.796-2.6 3.599-4.332.802-1.715 1.144-3.61.991-5.497zm-4.74-2.635c.687 1.227.998 2.629.895 4.032l1.809-.657c-.063.856-.282 1.694-.646 2.471-1.67 3.584-5.928 5.138-9.514 3.472-.782-.365-1.491-.87-2.092-1.49l-1.813.66c-.979-1.01-1.64-2.285-1.903-3.667l3.426-1.242c-.121-.624-.159-1.262-.111-1.896h-.006l-1.604.583c.294-3.932 3.72-6.881 7.652-6.587.868.065 1.716.288 2.504.658v-.006c.778.364 1.483.867 2.082 1.483l1.599-.582c.002.002.004.003.006.005.441.454.82.965 1.128 1.518z"/></svg>