<svg viewBox="0 0 24 24" xmlns="http://www.w3.org/2000/svg"><path fill="currentColor" d="m10.5 2.661.54.997-1.797.644 2.409.218.748 1.246.467-1.121 2.077-.208-1.61-.613.426-1.017-1.578.519zm6.905 2.077-3.645 1.444 3.292 1.298.353-.146 3.293-1.298zm-10.51.312a2.97 1.153 0 0 0 -2.97 1.152 2.97 1.153 0 0 0 2.97 1.153 2.97 1.153 0 0 0 2.97-1.153 2.97 1.153 0 0 0 -2.97-1.152zm17.105 1.755s-8.983 4.278-10.395 4.953c-1.226.561-1.901.561-3.261.094-2.026-.83-10.344-4.611-10.344-4.611v1.038c0 .24.332.499.966.8 1.277.613 8.34 3.677 9.45 4.206 1.112.53 1.9.54 3.313-.197 1.412-.738 8.049-3.905 9.326-4.57.654-.342.945-.602.945-.84zm-10.042.602-5.568.853 3.884 1.61zm10.042 3.23s-8.983 4.279-10.395 4.954c-1.226.56-1.901.56-3.261.093-2.026-.83-10.344-4.61-10.344-4.61v1.038c0 .238.332.498.966.8 1.277.612 8.34 3.676 9.45 4.205 1.112.53 1.9.54 3.313-.197 1.412-.737 8.049-3.905 9.326-4.57.654-.332.945-.602.945-.84zm0 3.842-10.395 4.954c-1.226.56-1.901.56-3.261.094-2.026-.831-10.344-4.611-10.344-4.611v1.038c0 .239.332.499.966.8 1.277.613 8.34 3.676 9.45 4.206 1.112.53 1.9.54 3.313-.198 1.412-.737 8.049-3.904 9.326-4.569.654-.343.945-.613.945-.841z"/></svg>