<svg viewBox="0 0 24 24" xmlns="http://www.w3.org/2000/svg"><path fill="currentColor" d="m21.3906 5.5833c-1.3467.0115-3.4338.19541-5.9375.97657-1.6024.49851-3.916 2.74203-8.22459 6.90823-.56973.3204-2.67017-.8912-3.88085-1.461 0 0 1.9929 3.1699 2.70507 4.0957 1.06825 1.46 3.02735 2.3145 3.02735 2.3145-.17804-.1781-1.53019-1.6029-1.92188-2.4219-.24926-.3917.03418-.9624 1.95703-2.3867 1.74477-1.2819 7.94167-6.51512 13.92387-7.93946 0 0-.601-.09488-1.6485-.08593zm2.6094 2.1875c-2.0653.21366-4.06.81878-5.9473 1.70899-3.7744 1.78041-10.1484 6.33791-10.1484 6.33791.28486.178.5706.3556.85546.498 3.06234 1.3531 7.58484 2.1716 8.43944 1.8867 2.3858-.7833 5.056-5.8026 5.875-8.1172 0 0-2.4933.9968-5.0215 2.1719-2.1009.9971-4.414 2.1368-4.414 2.1368l5.875-1.7813s-1.5676 3.7036-3.6328 4.1309c-2.0653.4273-5.6973-1.0332-5.6973-1.0332.2849-.2493 4.1302-3.0629 13.1035-6.73051.3917-.28487.6417-.74608.7129-1.20898zm-24 3.5234c.35608.9615.8194 1.8525 1.35352 2.7071.64094.819 3.27477 1.4952 3.63086 1.5664-1.638-1.1395-4.98438-4.2735-4.98438-4.2735z"/></svg>