<svg viewBox="0 0 24 24" xmlns="http://www.w3.org/2000/svg"><path fill="currentColor" d="m23.29 1.8c-.3-.4-.6-.7-.9-.9-1.3-.9-2.899-.9-6.098-.9h-8.596c-3.198 0-4.796 0-5.896.8-.4.3-.7.6-1 1-.8 1.1-.8 2.7-.8 5.9v8.6c0 3.2 0 4.8.8 5.9.3.4.6.7.9.9 1.199.9 2.798.9 5.996.9h8.596c3.199 0 4.798 0 5.898-.8.4-.3.7-.6.9-.9.799-1.1.799-2.7.799-5.9v-8.7c.2-3.2.2-4.8-.6-5.9zm-12.096 14.7c0 .2 0 .5-.1.8 0 .2-.1.3-.1.5-.1.1-.2.3-.4.5s-.4.3-.6.4c-.3.1-.7.1-1.399.1-.8 0-1.1 0-1.4-.1-.4-.2-.699-.5-.899-.9-.1-.3-.1-.7-.1-1.4v-8c0-.9 0-1.4.2-1.7s.4-.5.8-.7c.3-.2.8-.2 1.699-.2h2.299zm5.097-4.9c-1.599 0-2.798-1.3-2.798-2.8 0-1.6 1.3-2.8 2.798-2.8 1.5 0 2.8 1.3 2.8 2.8s-1.3 2.8-2.8 2.8z"/></svg>