<svg viewBox="0 0 24 24" xmlns="http://www.w3.org/2000/svg"><path fill="currentColor" d="m4.271 1.352a.774.774 0 0 0 -.787.775v19.761c0 .49.45.857.93.758l6.676-1.382-2.77-.614-3.675.762v-18.805l3.101.686 2.777-.574-6.097-1.35a.774.774 0 0 0 -.155-.017zm15.315.002-14.441 2.99v15.092l14.43 3.195a.774.774 0 0 0 .94-.758v-19.762a.773.773 0 0 0 -.93-.757zm-16.602 3.436-2.367.49a.774.774 0 0 0 -.617.76v11.639a.774.774 0 0 0 .607.754l2.377.525v-14.167zm18.034.252v1.188l1.822.405v11.011l-1.822.377v1.186l2.365-.49a.774.774 0 0 0 .617-.759v-11.638a.774.774 0 0 0 -.607-.754l-2.375-.525z"/></svg>