<svg viewBox="0 0 24 24" xmlns="http://www.w3.org/2000/svg"><path fill="currentColor" d="m21.422 1.317c-2.994-.829-6.228-1.334-9.415-1.317-3.188-.017-6.421.487-9.413 1.317a.488.488 0 0 0 -.342.455c0 7.95 2.976 17.802 9.479 22.142a.464.464 0 0 0 .537 0c6.503-4.34 9.495-14.175 9.479-22.142.016-.21-.13-.39-.326-.455zm-5.512 15.738c-1.025 1.723-2.244 3.267-3.691 4.454a.32.319 0 0 1 -.407 0c-3.967-3.268-6.275-9.039-7.154-14.616l-1.008-.537h7.479c2.407 0 2.715.78 2.715 1.35s-.308 1.35-2.714 1.35h-2.196a.128.128 0 0 0 -.13.13c0 .032.016.065.05.097l7.332 7.332.78.78zm1.333-2.65-4.374-4.374c-.065-.065-.016-.162.065-.18l.862-.096c1.805-.195 2.845-1.106 2.845-2.244 0-1.317-1.398-2.049-3.723-2.049h-8.472a24.735 24.733 0 0 1 -.178-2.162.462.462 0 0 1 .374-.487 32.298 32.296 0 0 1 7.3-.862h.13c2.39 0 4.878.293 7.301.862.227.049.39.26.373.487-.179 3.625-.99 7.593-2.503 11.104z"/></svg>