<svg viewBox="0 0 24 24" xmlns="http://www.w3.org/2000/svg"><path fill="currentColor" d="m16.34 9.853-2.254 2.254v-2.26h-1.956v5.744h1.957v-2.33l2.353 2.33h2.46l-2.988-2.99 2.477-2.476v3.411c0 1.133.679 2.177 2.393 2.177.815 0 1.56-.462 1.922-.88l.88.759h.416v-5.74h-1.951v3.718c-.22.384-.528.627-1.002.627-.482 0-.703-.286-.703-1.198v-3.146zm-4.591 2.869a3.004 3.004 0 1 1 -3.011-2.992 2.997 2.997 0 0 1 3.011 2.99m-3.011-1.57c-.518 0-.956.704-.956 1.572 0 .867.438 1.57.956 1.57.528 0 .968-.702.968-1.57 0-.869-.438-1.572-.968-1.572zm-2.206 4.447h-2.219l-1.763-2.444h-.594v2.44h-1.956v-7.333h2.8c1.616 0 2.935 1.1 2.935 2.45 0 .826-.505 1.562-1.273 2.013l2.07 2.875m-2.75-4.888a1.226 1.226 0 0 0 -1.222-1.232h-.604v2.453h.605a1.225 1.225 0 0 0 1.22-1.221z"/></svg>