<svg viewBox="0 0 24 24" xmlns="http://www.w3.org/2000/svg"><path fill="currentColor" d="m3.42.0002a.37.37 0 0 0 -.369.37v19.5148c.577-1.488 1.557-3.6168 3.1378-6.5297 5.6997-10.4793 6.4467-11.5362 9.4155-11.5362 1.56 0 3.1338.704 4.1518 1.9549a7.9616 7.9616 0 0 0 -6.6547-3.7738zm12.7193 2.5438c-1.19.01-2.257.466-2.6979 1.498-.967 2.2558 1.624 4.7667 2.7569 4.5677 1.4419-.255-.255-3.5628-.255-3.5628 2.2049 4.1558 1.6969 2.8838-2.2899 6.6996s-8.0574 11.8723-8.6514 12.2103a.477.477 0 0 1 -.08.043h15.636a.373.373 0 0 0 .33-.538l-4.0878-8.0915a.37.37 0 0 1 .144-.488 7.9596 7.9596 0 0 0 4.0048-6.9126c0-1.4249-.373-2.7608-1.03-3.9198-.9269-.9519-2.4298-1.5159-3.7787-1.5059z"/></svg>