<svg viewBox="0 0 24 24" xmlns="http://www.w3.org/2000/svg"><path fill="currentColor" d="m8.513 12.27-5.913 5.907a.244.244 0 0 1 -.174.072l-.02-.001a.248.248 0 0 1 -.178-.102 11.973 11.973 0 0 1 -.889-1.452.247.247 0 0 1 .045-.287l5.638-5.628a9.403 9.403 0 0 0 2.776-6.694.245.245 0 0 1 .49 0v3.911a6 6 0 0 1 -1.774 4.274zm9.487-11.428a.242.242 0 0 0 -.245 0 .246.246 0 0 0 -.122.212v10.855a6 6 0 0 0 1.773 4.273l1.997 1.995a.246.246 0 0 0 .173.072l.021-.001a.256.256 0 0 0 .18-.102 11.902 11.902 0 0 0 2.223-6.936c0-4.255-2.298-8.228-6-10.367zm-11.633 3.243v-3.031a.244.244 0 0 0 -.367-.212c-3.7 2.14-6 6.112-6 10.368 0 .34.018.705.056 1.115.01.094.072.174.161.208a.294.294 0 0 0 .084.014.245.245 0 0 0 .172-.071l4.123-4.118a5.999 5.999 0 0 0 1.771-4.273zm10.614 14.52a9.402 9.402 0 0 1 -2.778-6.696v-3.913a.245.245 0 1 0 -.489 0 9.401 9.401 0 0 1 -2.776 6.696l-5.915 5.905a.244.244 0 0 0 -.071.193.243.243 0 0 0 .102.18 11.929 11.929 0 0 0 6.946 2.222 11.93 11.93 0 0 0 6.947-2.222.237.237 0 0 0 .1-.18.239.239 0 0 0 -.068-.193z"/></svg>