<svg viewBox="0 0 24 24" xmlns="http://www.w3.org/2000/svg"><path fill="currentColor" d="m2.807 0c-1.454 0-2.634 1.22-2.634 2.722 0 1.504 1.18 2.723 2.634 2.723 1.455 0 2.635-1.22 2.635-2.723s-1.18-2.722-2.635-2.722zm9.193 0c-1.455 0-2.634 1.22-2.634 2.722 0 1.504 1.18 2.723 2.634 2.723 1.455 0 2.634-1.22 2.634-2.723s-1.18-2.722-2.634-2.722zm9.193 0c-1.455 0-2.635 1.22-2.635 2.722 0 1.504 1.18 2.723 2.635 2.723s2.634-1.22 2.634-2.723-1.18-2.722-2.634-2.722zm-18.386 9.277c-1.454 0-2.634 1.22-2.634 2.723s1.18 2.722 2.634 2.722c1.455 0 2.635-1.219 2.635-2.722 0-1.504-1.18-2.723-2.635-2.723zm9.193 0c-1.455 0-2.634 1.22-2.634 2.723s1.18 2.722 2.634 2.722c1.455 0 2.634-1.219 2.634-2.722 0-1.504-1.18-2.723-2.634-2.723zm9.193 0c-1.455 0-2.635 1.22-2.635 2.723s1.18 2.722 2.635 2.722 2.634-1.219 2.634-2.722c0-1.504-1.18-2.723-2.634-2.723zm-18.386 9.278c-1.454 0-2.634 1.22-2.634 2.722 0 1.504 1.18 2.723 2.634 2.723 1.455 0 2.635-1.22 2.635-2.723s-1.18-2.722-2.635-2.722zm9.193 0c-1.455 0-2.634 1.22-2.634 2.722 0 1.504 1.18 2.723 2.634 2.723 1.455 0 2.634-1.22 2.634-2.723s-1.18-2.722-2.634-2.722zm9.193 0c-1.455 0-2.635 1.22-2.635 2.722 0 1.504 1.18 2.723 2.635 2.723s2.634-1.22 2.634-2.723-1.18-2.722-2.634-2.722z"/></svg>