<svg viewBox="0 0 24 24" xmlns="http://www.w3.org/2000/svg"><path fill="currentColor" d="m5.866 0-1.531 1.262 2.082 1.8c-2.629-.989-4.842 1.4-5.012 2.338 1.384-.323 2.24-.422 3.344-.335-7.042 4.634-4.978 13.148-1.434 16.094 5.784 4.612 13.77 3.202 17.91-1.316 6.035-6.48 1.768-19.193-10.365-17.077.107-1.17.633-1.503 1.243-1.602-.89-1.493-3.67-.734-4.556 1.374-.027.064-1.681-2.538-1.681-2.538zm-1.444 7.217h2.478c2.673 0 2.898.012 3.55.202 1.06.307 1.868.973 2.313 1.904.05.106.092.206.13.305l7.623.008.027 2.912-2.745-.024v7.549l-2.982-.016v-7.522l-2.127.016a2.92 2.92 0 0 1 -1.056 1.134c-.287.176-.3.19-.254.264.127.2 2.125 3.642 2.125 3.659l-3.39.019-2.013-3.376c-.034-.047-.122-.068-.344-.084l-.297-.02.037 3.48-3.075-.038zm3.016 2.288.024.338c.014.186.024.729.024 1.206v.867l.582-.025c.32-.013.695-.049.833-.078.694-.146 1.048-.478 1.087-1.018.027-.378-.063-.636-.303-.87-.318-.309-.761-.416-1.733-.418z"/></svg>