<svg viewBox="0 0 24 24" xmlns="http://www.w3.org/2000/svg"><path fill="currentColor" d="m20.156.083c3.033.525 3.893 2.598 3.829 4.77l.015-.031-1.365 17.888-17.745 1.216h.016c-1.473-.062-4.756-.197-4.906-4.787l1.645-3 2.819 6.586.503 1.172 2.805-9.144-.03.007.016-.03 9.255 2.956-1.396-5.431-.99-3.9 8.82-.569-.615-.51-6.332-5.162 3.659-2.041zm-15.026 4.99c3.561-3.533 8.157-5.621 9.922-3.84 1.762 1.777-.105 6.105-3.673 9.636-3.563 3.532-8.103 5.734-9.864 3.957-1.766-1.777.045-6.217 3.612-9.75z"/></svg>