<svg viewBox="0 0 24 24" xmlns="http://www.w3.org/2000/svg"><path fill="currentColor" d="m12.004 0c-6.629 0-12.004 5.373-12.004 12.002 0 6.63 5.375 11.998 12.004 11.998 6.626 0 11.996-5.368 11.996-11.998 0-6.629-5.369-12.002-11.996-12.002zm-.875 5.739h1.705l-.834 2.086h-1.168c-1.255 0-2.061.004-2.496.148-.423.132-.735.29-.906.54-.157.202-.21.477-.21.716 0 .25.027.487.275.806.305.305.809.699 1.797 1.307 1.97 1.229 2.552 2.204 2.552 3.487 0 2.09-1.97 4.084-5.272 4.084-.992 0-2.377-.146-2.961-.332l-.307-.09c.12-.397.512-1.493.685-1.956l.31.078c.648.16 1.664.252 2.338.252 1.932 0 2.682-.872 2.682-1.638 0-.7-.382-1.084-2.299-2.246-1.796-1.11-2.417-2.076-2.417-3.409 0-1.6 1.03-2.818 2.522-3.399.888-.33 2.114-.434 4.004-.434zm2.959 0h5.871c.276 0 .329.195.223.407-.384.952-4.007 10.028-4.007 10.028h-2.421s2.861-7.291 3.336-8.377c-.33 0-.581.028-1.89.028h-1.947z"/></svg>