<svg viewBox="0 0 24 24" xmlns="http://www.w3.org/2000/svg"><path fill="currentColor" d="m6.703 17.387.617-1.5-1.205-2.795h.724l.817 1.98.776-1.98h.711l-1.752 4.295zm-2.492-1.295c-.708 0-1.445-.569-1.445-1.528 0-.975.712-1.531 1.455-1.531.387 0 .735.16.946.411v-.352h.677v2.94h-.677v-.382a1.222 1.222 0 0 1 -.956.442zm-4.206-.06v-3.666h1.258c.759 0 1.32.581 1.32 1.305 0 .728-.562 1.312-1.325 1.312h-.568v1.05zm4.315-.562c.503 0 .88-.407.88-.914 0-.497-.377-.906-.88-.906a.886.886 0 0 0 -.888.906c0 .512.386.914.888.914zm-3.63-1.122h.52c.408 0 .686-.3.686-.677a.66.66 0 0 0 -.685-.672h-.521zm.557-4.063c-.644 0-1.247-.23-1.247-.995v-.265h.92l.002.333c0 .187.13.31.344.31.228 0 .305-.117.333-.232a.44.44 0 0 0 -.005-.252c-.177-.444-1.396-.646-1.545-1.347a1.192 1.192 0 0 1 -.007-.463c.09-.56.588-.76 1.198-.76.485 0 1.156.114 1.156.861v.242h-.854v-.213c0-.187-.12-.31-.32-.31-.215 0-.289.122-.313.232a.435.435 0 0 0 .002.18c.098.401 1.4.615 1.545 1.333.014.072.044.266.002.562-.081.573-.59.784-1.21.784zm11.154-.018c-.638 0-1.234-.227-1.234-.984v-.263h.911v.328c0 .185.129.31.341.31.227 0 .303-.117.331-.23a.438.438 0 0 0 -.005-.25c-.175-.44-1.382-.641-1.529-1.336a1.166 1.166 0 0 1 -.008-.458c.09-.554.585-.753 1.188-.753.48 0 1.143.115 1.143.855v.24h-.846v-.212c0-.185-.116-.307-.315-.307-.212 0-.289.12-.313.23a.435.435 0 0 0 .005.176c.096.398 1.385.61 1.529 1.32.015.073.044.265.003.558-.081.567-.586.776-1.2.776zm3.224-.013c-.63 0-1.138-.21-1.198-.85a2.792 2.792 0 0 1 -.008-.223v-2.461h.867v2.538c0 .044 0 .093.008.13.017.085.092.248.331.248.238 0 .311-.163.328-.248a.718.718 0 0 0 .008-.13v-2.538h.867v2.461a2.94 2.94 0 0 1 -.008.224c-.06.64-.564.849-1.195.849zm7.156-.037c-.608 0-1.148-.221-1.205-.846a2.518 2.518 0 0 1 -.014-.227v-1.442c0-.061.009-.17.016-.227.077-.641.595-.846 1.203-.846s1.14.203 1.203.846c.011.11.008.227.008.227v.114h-.864v-.193s0-.08-.01-.13c-.016-.075-.082-.25-.345-.25-.249 0-.322.166-.34.25a.816.816 0 0 0 -.014.162v1.567a.89.89 0 0 0 .008.13c.016.092.104.25.352.25s.333-.158.349-.25a.722.722 0 0 0 .008-.13v-.497h-.352v-.5h1.216v.92c0 .064-.003.112-.013.226-.057.625-.598.846-1.206.846zm-19.745-.065.636-3.432h1.526l.633 3.432h-.922l-.456-3.114-.02.002-.47 3.112zm3.48 0 .074-3.432h1.4l.421 2.625h.021l.422-2.625h1.399l.075 3.432h-.857l-.02-3.083h-.021l-.573 3.083h-.87l-.573-3.082h-.018l-.021 3.083zm11.268-.036v-3.396h1.273l.79 2.693h.018l-.047-2.693h.851v3.396h-1.221l-.849-2.787h-.018l.047 2.787z"/></svg>