<svg viewBox="0 0 24 24" xmlns="http://www.w3.org/2000/svg"><path fill="currentColor" d="m2.93 15.475 6.396.004-3.582 6.758c-3.566-2.18-5.742-6.057-5.744-10.237 0-6.617 5.383-12 12-12 1.761 0 3.436.381 4.94 1.064l-11.512 11.516h10.25l-7.539 7.614 3.115-5.876h-7.459c-.34-1.154-.318-2.318-.318-2.318.006-4.713 3.831-8.529 8.544-8.523.093 0 .187.002.28.005l1.094-1.099c-.455-.065-.915-.098-1.375-.098-5.356 0-9.73 4.357-9.73 9.715-.001 0-.061 1.719.64 3.475zm15.325-13.711c3.565 2.179 5.742 6.056 5.745 10.236 0 6.616-5.384 12-12 12-1.704.003-3.389-.36-4.941-1.065l11.426-11.513h-10.28l7.656-7.616-3.115 5.876h7.46c.319 1.079.319 2.318.319 2.318-.008 4.714-3.834 8.529-8.547 8.522-.105 0-.21-.002-.314-.006l-1.084 1.096c5.314.777 10.256-2.901 11.032-8.218.067-.461.103-.928.103-1.395 0-1.189-.22-2.369-.647-3.479h-6.394z"/></svg>