<svg viewBox="0 0 24 24" xmlns="http://www.w3.org/2000/svg"><path fill="currentColor" d="m16.73.313c-3.56-.049-7.797 1.68-11.288 5.02-.87.83-1.607 1.725-2.28 2.642h3.042l-.707 2.015h-3.633c-.346.636-.672 1.266-.922 1.906h4.307l-.687 2.016h-4.235c-.724 3.079-.262 5.953 1.559 7.777 3.54 3.538 11.01 2.292 16.591-3.048.977-.93 1.783-1.931 2.511-2.96h-3.906l.596-2.013h4.568c.334-.64.643-1.274.883-1.914h-4.992l.554-2.01h5.051c.623-2.917.132-5.62-1.638-7.39-1.344-1.344-3.237-2.014-5.374-2.042zm-1.044 4.714h4.968l-.634 2.938h-3.002c-.323 0-.46.054-.592.201-.05.058-.07.115-.09.23l-1.639 6.22c-.385 2.179-3.065 4.359-6.555 4.359h-4.854l.842-3.198h3.119a.984.984 0 0 0 .775-.347c.076-.09.177-.232.19-.377l1.295-5.433c.381-2.182 2.686-4.592 6.177-4.592z"/></svg>