<svg viewBox="0 0 24 24" xmlns="http://www.w3.org/2000/svg"><path fill="currentColor" d="m1.714 2.857a1.71 1.71 0 0 0 -1.714 1.714v6.858c0 .95.765 1.714 1.714 1.714a1.71 1.71 0 0 0 1.715-1.714v-6.859a1.71 1.71 0 0 0 -1.715-1.714zm6.857 0a1.71 1.71 0 0 0 -1.714 1.714v1.143c0 .95.765 1.715 1.714 1.715a1.71 1.71 0 0 0 1.715-1.715v-1.143a1.71 1.71 0 0 0 -1.716-1.714zm6.858 0a1.71 1.71 0 0 0 -1.715 1.714v14.859c0 .95.765 1.714 1.715 1.714a1.71 1.71 0 0 0 1.714-1.714v-14.86a1.71 1.71 0 0 0 -1.714-1.714zm6.857 0a1.71 1.71 0 0 0 -1.715 1.714v6.858c0 .95.765 1.714 1.715 1.714a1.71 1.71 0 0 0 1.714-1.714v-6.859a1.71 1.71 0 0 0 -1.714-1.714zm-13.715 8a1.71 1.71 0 0 0 -1.714 1.714v6.858c0 .95.765 1.714 1.714 1.714a1.71 1.71 0 0 0 1.715-1.714v-6.859a1.71 1.71 0 0 0 -1.715-1.714zm-6.857 5.714a1.71 1.71 0 0 0 -1.714 1.715v1.143c0 .95.765 1.714 1.714 1.714a1.71 1.71 0 0 0 1.715-1.714v-1.143a1.71 1.71 0 0 0 -1.715-1.715zm20.572 0a1.71 1.71 0 0 0 -1.715 1.715v1.143c0 .95.765 1.714 1.715 1.714a1.71 1.71 0 0 0 1.714-1.714v-1.143a1.71 1.71 0 0 0 -1.714-1.715z"/></svg>