<svg viewBox="0 0 24 24" xmlns="http://www.w3.org/2000/svg"><path fill="currentColor" d="m19.615 15.412c-.62 2.915-2.733 4.152-7.425 4.152-11.54 0-7.45-9.28-5.84-11.186.678-.85 1.152-1.553 2.874-1.553h3.273c4.567 0 5.437.217 6.582 2.55.617 1.258.975 3.971.536 6.036m1.238-5.79c-.385-2.492-.889-5.202-3.052-6.706-1.31-.911-2.663-.981-4.177-.981-1.026 0-4.666-.041-6.257-.041-1.534 0-2.588-1.275-2.588-1.893-1.002 1.234-1.778 2.597-1.507 4.245.244 1.484 1.261 2.433 2.75 2.622-1.684 2.383-3.212 5.127-3.141 8.033.046 1.83.467 9.1 8.686 9.1h1.497c3.507 0 5.632-2.606 6.25-3.614 1.822-2.963 2.122-7.548 1.537-10.764z"/></svg>