<svg viewBox="0 0 24 24" xmlns="http://www.w3.org/2000/svg"><path fill="currentColor" d="m24 18.185v2.274h-4.89v-2.274zm-24-.106h11.505v2.274h-11.505zm12.89 0h4.89v2.274h-4.89zm6.221-3.607h4.889v2.274h-4.89zm-19.111-.105h11.505v2.274h-11.505zm12.89 0h4.89v2.274h-4.89zm6.221-3.346h4.889v2.273h-4.89zm-19.111-.105h11.505v2.271h-11.505zm12.89 0h4.89v2.271h-4.89zm6.22-3.609h4.89v2.279h-4.89zm-19.11-.101h11.505v2.274h-11.505v-2.279zm12.89 0h4.89v2.274h-4.89v-2.279zm6.221-3.556h4.889v2.276h-4.89v-2.28zm-19.111-.109h11.505v2.274h-11.505zm12.89 0h4.89v2.274h-4.89z"/></svg>