<svg viewBox="0 0 24 24" xmlns="http://www.w3.org/2000/svg"><path fill="currentColor" d="m20.383 11.664h-1.716l-3.432-4.487-3.073 3.606-2.852-3.606-3.513 4.487h-2.167c.185-4.464 3.872-8.047 8.383-8.047 3.953 0 7.27 2.748 8.15 6.424h3.687c-.94-5.682-5.89-10.031-11.85-10.031-6.632 0-12 5.369-12 12 0 1.102.15 2.169.429 3.177h6.516l2.412-2.55 2.805 3.478 2.945-3.502 1.902 2.61h2.69c-1.287 2.967-4.256 5.495-7.699 5.495-2.84 0-5.357-1.681-6.875-3.942h-4.128c1.855 4.244 6.075 7.212 11.003 7.212 6.632 0 12-5.368 12-12 0-.116 0-.231-.012-.347z"/></svg>