<svg viewBox="0 0 24 24" xmlns="http://www.w3.org/2000/svg"><path fill="currentColor" d="m.27 0v.155c0 4.69 3.033 8.751 7.331 10.434v2.736c-4.298 1.665-7.33 5.694-7.33 10.443v.232h4.089v-.232c0-2.459 1.278-4.623 3.24-5.934v6.166h3.165v-7.384c.408-.065.82-.098 1.234-.1.423 0 .834.038 1.235.1v7.384h3.165v-6.148c1.925 1.313 3.163 3.469 3.163 5.916v.232h4.168v-.232c0-4.691-3.033-8.751-7.331-10.434v-2.734c4.298-1.665 7.33-5.696 7.33-10.446v-.153h-4.09v.154c0 2.458-1.277 4.622-3.24 5.934v-6.089h-3.165v7.305c-.408.066-.821.1-1.235.103a8.11 8.11 0 0 1 -1.234-.103v-7.304h-3.165v6.069c-1.925-1.313-3.162-3.468-3.162-5.916v-.153zm10.495 11.358c.82.084 1.648.084 2.469.001v1.205a12.236 12.236 0 0 0 -2.47 0z"/></svg>