<svg viewBox="0 0 24 24" xmlns="http://www.w3.org/2000/svg"><path fill="currentColor" d="m12 0c-3.312 0-6 2.688-6 6s2.688 6 6 6c1.066 0 2.1171.2862 3.0371.8262 2.858 1.678 3.8167 5.3539 2.1387 8.2129h1.6797a7.4925 7.4925 0 0 0 .6425-3.0293c.003-4.144-3.356-7.5048-7.498-7.5098-2.484 0-4.5-2.016-4.5-4.5s2.016-4.5 4.5-4.5 4.5 2.016 4.5 4.5h1.5c0-3.312-2.688-6-6-6zm0 3c-1.597.04-2.8799 1.3259-2.9219 2.9219-.043 1.658 1.2649 3.0351 2.9219 3.0781 1.597-.04 2.8799-1.3259 2.9219-2.9219.043-1.658-1.2659-3.0351-2.9219-3.0781zm0 1.5c.828 0 1.5.672 1.5 1.5v.002c0 .828-.672 1.5-1.5 1.5-.83 0-1.5-.673-1.5-1.502 0-.83.67-1.5 1.5-1.5zm-4.5 10.5v1.5h1.5v6h-4.5v1.5h15v-1.5h-4.5v-6h1.5v-1.5zm3 1.5h3v6h-3zm-6 1.4707v.0293a7.418 7.418 0 0 0 .6445 3.039h1.6836c-.528-.892-.8281-1.929-.8281-3.039v-.0293z"/></svg>