<svg viewBox="0 0 24 24" xmlns="http://www.w3.org/2000/svg"><path fill="currentColor" d="m3.466 3.62c-.004.052-.014.104-.018.158-.406 4.626 2.747 8.548 8.03 9.994 2.024.553 5.374 2.018 5.06 5.599a5.063 5.063 0 0 1 -1.803 3.46c-1.022.857-2.308 1.21-3.64 1.166-5.948-.203-11.095-5.63-11.095-11.947 0-3.285 1.325-6.262 3.467-8.428zm6.354-2.588c.907-.762 2.056-1.078 3.235-1.027 5.941.265 10.945 5.665 10.945 11.931 0 2.855-1.001 5.478-2.667 7.536.332-4.908-2.94-8.897-8.59-10.441-2.337-.64-4.749-2.274-4.514-4.948a4.467 4.467 0 0 1 1.591-3.053z"/></svg>