<svg viewBox="0 0 24 24" xmlns="http://www.w3.org/2000/svg"><path fill="currentColor" d="m17.029 5.063c-.914-1.916-2.8-3.432-5.114-4.033-.515-.143-1.057-.2-1.657-.23-.886 0-1.743.114-2.629.343-2.2.658-3.742 1.945-4.657 2.947-1.171 1.345-1.942 2.747-2.4 4.148 0 .029-.028.057-.028.115-.029.114-.144.457-.144.543-.029.057-.029.143-.057.2l-.086.344c0 .028 0 .057-.028.086-.743 3.69.49 7.001 1.234 8.231.185.308.338.564.49.8-1.683-9.154 3.163-13.522 8.677-13.637 2.886-.057 5.771 1.116 7.171 3.461-.086-1.287-.171-2.002-.771-3.318zm-4.486-5.063c2.572.715 4.914 2.517 5.886 4.72 1.485 3.575 1.143 8.095-.486 10.784-1.371 2.203-3.485 3.375-5.914 3.347-3.771-.029-6.828-3.032-6.857-6.808 0-3.776 2.971-6.894 6.857-6.894.629 0 1.535.087 2.563.516 0 0-.739-.438-2.638-.732-5.457-.715-11.896 3.42-10.41 12.945 2.057 3.662 6 6.15 10.485 6.122 6.6-.029 12-5.435 11.97-12.072.001-6.35-5.169-11.756-11.455-11.928z"/></svg>