<svg viewBox="0 0 24 24" xmlns="http://www.w3.org/2000/svg"><path fill="currentColor" d="m.968 9.027 7.717 4.428-.006 1.32-4.39-2.518-2.763 1.57 7.148 4.12.005 1.27-7.658-4.405c.02.516.488 2.106 1.383 3.337.91 1.247 1.946 1.776 1.946 1.776l7.078 4.075v-12.151l-10.453-6.003zm22.064-3.8-7.812-4.504s-1.238-.723-3.212-.723c-2.056 0-3.248.746-3.248.746l-7.236 4.14 11.009 6.328v12.786l7.245-4.136s1.295-.715 2.279-2.414c.867-1.496.975-2.943.975-2.943zm-11.781 2.081s1.615-.298 2.98.49l2.171 1.25s.003 1.097.003 2.736c0 1.313-1.112 2.674-1.112 2.674l.002-4.816zm6.402 10.562-2.358 1.353v-1.269l1.835-1.05c1.748-1.26 2.037-3.117 2.037-3.761l-.007-5.705-5.006-2.881s-.76-.499-2.129-.499c-1.367 0-2.113.461-2.113.461l-1.758 1.011-1.11-.641 2.429-1.389s.95-.527 2.544-.527c1.462 0 2.6.571 2.6.571l5.653 3.266-.007 6.226c.04.957-.406 3.296-2.61 4.835z"/></svg>