<svg viewBox="0 0 24 24" xmlns="http://www.w3.org/2000/svg"><path fill="currentColor" d="m11.3 0a11.983 11.983 0 0 0 -11.263 11 13.656 13.656 0 0 0 0 2 11.983 11.983 0 0 0 11.29 11h1.346a12.045 12.045 0 0 0 11.3-11.36 13.836 13.836 0 0 0 0-1.7 12.049 12.049 0 0 0 -11.299-10.94zm3.7 6.51 2.99 1.74s-6.064 3.24-6.084 3.24-6.094-3.22-6.106-3.23l2.994-1.77 2.992-1.76zm-6.476 5.126 2.476 1.364v5.92l-2.527-1.4-2.46-1.43v-5.76zm9.461 1.572v2.924l-2.485 1.442-2.5 1.443v-6.024l2.489-1.345 2.5-1.355z"/></svg>