<svg viewBox="0 0 24 24" xmlns="http://www.w3.org/2000/svg"><path fill="currentColor" d="m17.048 2.611c.318 3.819.248 16.941.012 18.605-.016.125-.018.341.113.239a23.879 23.879 0 0 0 6.827-9.452c-1.467-3.684-3.722-6.74-6.604-9.258-.167-.147-.267-.229-.314-.229-.03 0-.04.03-.034.095m-17.048 9.391c0 6.215 5.064 11.252 11.245 11.252 1.612 0 3.138-.35 4.332-.86.34-.146.32-.377.325-.478l.001-4.945c0-.244-.192-.139-.29-.087-2.292 1.228-4.374 1.15-4.374 1.15-3.416 0-6.032-2.797-6.032-6.03 0-3.306 2.671-6.055 6.049-6.055 1.788 0 3.19.56 4.385 1.164.106.054.256.042.263-.117l-.002-4.729s.023-.53-.42-.705c-1.531-.602-2.898-.816-4.222-.816a11.245 11.245 0 0 0 -11.26 11.256z"/></svg>