<svg viewBox="0 0 24 24" xmlns="http://www.w3.org/2000/svg"><path fill="currentColor" d="m6.55 18.779c-1.855 0-3.372-.339-4.598-1.602l1.92-1.908c.63.631 1.74.853 2.715.853 1.186 0 1.739-.391 1.739-1.089 0-.291-.06-.529-.239-.717-.15-.154-.404-.273-.795-.324l-1.455-.205c-1.064-.152-1.891-.51-2.43-1.072-.555-.578-.84-1.395-.84-2.434-.031-2.215 1.633-3.831 4.393-3.831 1.74 0 3.048.407 4.086 1.448l-1.875 1.872c-.765-.766-1.77-.715-2.295-.715-1.039 0-1.465.597-1.465 1.125 0 .152.051.375.24.561.15.153.404.307.832.359l1.467.203c1.09.153 1.875.495 2.385 1.005.645.63.9 1.53.9 2.655 0 2.47-2.127 3.819-4.68 3.819zm14.263-16.128c-1.635-1.219-3.443-2.039-5.724-2.414v10.875l3.261-4.539h3.565l-4.095 5.72s.944 1.51 1.515 2.405c.586.899 1.139 1.14 1.965 1.14h.57v2.806h-.872c-1.812 0-2.9-.33-3.72-1.575-.504-.811-2.175-3.436-2.175-3.436v4.995h-2.983v-18.629h-.12c-3.852 0-6.509.931-8.811 2.652-3.321 2.486-3.188 5.8-3.188 9.346 0 3.547-.133 6.867 3.188 9.352 2.302 1.725 4.959 2.651 8.811 2.651s6.51-.927 8.812-2.651c3.319-2.484 3.188-5.805 3.188-9.352 0-3.546.132-6.859-3.188-9.346z"/></svg>