<svg viewBox="0 0 24 24" xmlns="http://www.w3.org/2000/svg"><path fill="currentColor" d="m9.4616.0014a2.4132 2.4132 0 0 0 -.7215.085c-1.2869.3521-2.0451 1.6825-1.6925 2.9703l1.4312 5.2318-5.0803-1.681c-1.2675-.4194-2.634.2681-3.0531 1.5362-.4188 1.2678.269 2.6354 1.535 3.0546h.0004l5.8776 1.9448-4.131 4.6646c-.8855.9996-.793 2.5278.2057 3.4135.9986.8856 2.5257.7932 3.4112-.206l3.6032-4.0682 1.4423 5.273c.3523 1.2878 1.6817 2.0462 2.9688 1.6935 1.288-.3527 2.0457-1.6823 1.6932-2.97l-1.4315-5.2324 5.081 1.6813c1.267.419 2.6337-.2685 3.0527-1.5365.42-1.268-.2675-2.6354-1.535-3.055l-5.878-1.9444 4.1306-4.6643c.8855-.9996.793-2.5276-.2056-3.4135-.999-.8863-2.5265-.7937-3.4113.2053v.0003l-3.6031 4.069-1.4427-5.2737c-.2864-1.046-1.2178-1.7429-2.2473-1.7782z"/></svg>