<svg viewBox="0 0 24 24" xmlns="http://www.w3.org/2000/svg"><path fill="currentColor" d="m22.163 2.419c-1.125-1.2-2.813-1.839-4.726-1.839-2.062 0-3.637.675-4.725 1.275 2.063 1.163 6.526 3.75 11.175 7.163.075-.45.113-.938.113-1.388-.038-2.175-.675-4.012-1.837-5.212zm1.35 8.212c-5.327-4.387-8.513-6.6-11.963-8.661-.938-.564-2.775-1.39-4.875-1.39-1.987.001-3.675.64-4.838 1.84-.75.786-1.274 1.76-1.575 2.96 2.738 1.914 10.2 7.276 17.738 13.201 2.512-2.362 4.613-5.1 5.512-7.95zm-23.513-2.85c0 6.15 6.487 11.85 12 15.638 1.575-1.088 3.225-2.325 4.8-3.713a736.871 736.871 0 0 0 -16.65-13.575c-.112.489-.15 1.05-.15 1.65z"/></svg>