<svg viewBox="0 0 24 24" xmlns="http://www.w3.org/2000/svg"><path fill="currentColor" d="m10.025 13.875h-5.338a4.688 4.688 0 0 1 0-9.375h6.227a1.875 1.875 0 0 1 0 3.75h-6.322a.937.937 0 1 0 0 1.875h5.337a4.687 4.687 0 1 1 0 9.375h-8.054a1.875 1.875 0 0 1 0-3.75h8.15a.938.938 0 0 0 0-1.875zm3.945 5.625a5.635 5.635 0 0 0 2.396-3.75h3.026a.93.93 0 0 0 .921-.938v-5.623a.93.93 0 0 0 -.921-.938h-5.497c.438-.498.704-1.155.704-1.875s-.266-1.377-.704-1.875h6.418c2.037-.001 3.687 1.678 3.687 3.749v7.5c0 2.071-1.65 3.75-3.687 3.75z"/></svg>