<svg viewBox="0 0 24 24" xmlns="http://www.w3.org/2000/svg"><path fill="currentColor" d="m20.59 2.066-8.597-2.066-8.583 2.066v6.612h4.557a3.804 3.804 0 0 0 0 .954h-4.557v3.106c0 7.129 8.584 11.262 8.584 11.262s8.582-4.133 8.582-11.258v-3.107h-4.545a3.616 3.616 0 0 0 0-.954h4.558zm-8.59 10.196h-.006a3.109 3.109 0 1 1 .006 0zm-.006-4.579a.804.804 0 0 0 -.37 1.52v.208l.238.237v.159l.159.159v.159l-.14.14.15.246v.159l-.16.189.223.222.246-.246v-1.617a.804.804 0 0 0 -.346-1.535zm0 .836a.299.299 0 1 1 .298-.299.299.299 0 0 1 -.298.3z"/></svg>