<svg viewBox="0 0 24 24" xmlns="http://www.w3.org/2000/svg"><path fill="currentColor" d="m6 0c-3.311 0-6 2.689-6 6v12c0 3.311 2.689 6 6 6h12c3.311 0 6-2.689 6-6v-12c0-3.311-2.689-6-6-6zm.227 1.871h11.546a3.98 3.98 0 0 1 3.977 3.979v11.545a3.978 3.978 0 0 1 -3.977 3.976h-11.546a3.978 3.978 0 0 1 -3.977-3.976v-11.545a3.98 3.98 0 0 1 3.977-3.98zm-.223 2.31v1.829h-1.371v1.69h1.37v1.903h-1.37v1.689h1.37v1.828h1.4v-1.828h1.695v1.828h1.398v-1.828h1.371v-1.69h-1.37v-1.9h1.37v-1.692h-1.37v-1.828h-1.4v1.828h-1.694v-1.828h-1.399zm1.398 3.52h1.696v1.903h-1.696v-1.904z"/></svg>