<svg viewBox="0 0 24 24" xmlns="http://www.w3.org/2000/svg"><path fill="currentColor" d="m11.847 20.095a7.805 7.805 0 0 1 -6.286-3.238l1.714-1.238c1.048 1.429 2.762 2.381 4.572 2.381s3.523-.857 4.571-2.381l1.714 1.238a7.805 7.805 0 0 1 -6.285 3.238zm.19-18c1.62 0 3.238.476 4.762 1.334l1.048.476 2.857-.572-.477 2.857c2.381 3.715 2.191 9.239-1.047 12.667a9.748 9.748 0 0 1 -7.048 3.048 9.98 9.98 0 0 1 -6.857-2.762c-3.905-3.81-4-10-.286-13.905 1.905-2.095 4.477-3.143 7.048-3.143m0-2.095c-3.238 0-6.286 1.333-8.571 3.714-4.572 4.762-4.477 12.381.285 16.953a11.91 11.91 0 0 0 8.286 3.333c3.238 0 6.381-1.333 8.571-3.619 3.62-3.714 4.286-9.81 1.81-14.571l.38-2.096.477-2.952-2.952.571-2.19.381-.382-.19c-1.81-1.048-3.714-1.524-5.714-1.524z"/></svg>