<svg viewBox="0 0 24 24" xmlns="http://www.w3.org/2000/svg"><path fill="currentColor" d="m14.08008 0c-1.00234 0-1.8125.80893-1.8125 1.8086v2.57226c-4.01871.7444-7.19505 3.9119-7.93946 7.91992h-2.51562c-1.001 0-1.8125.80698-1.8125 1.80664 0 .99833.8115 1.8086 1.8125 1.8086h2.51563c.85264 4.59338 4.90062 8.08398 9.75195 8.08398 5.46876 0 9.91992-4.43852 9.91992-9.89258 0-4.83662-3.50067-8.87524-8.10742-9.72656v-2.57227c0-.99966-.8115-1.80859-1.8125-1.80859zm-9.38672 3.17578c-1.00368 0-1.8164.80955-1.8164 1.81055 0 .99966.81272 1.8125 1.8164 1.8125 1.001 0 1.8164-.81284 1.8164-1.8125 0-1.001-.8154-1.81055-1.8164-1.81055zm9.38672 4.65625c3.46809 0 6.29297 2.81398 6.29297 6.2754 0 3.46006-2.82488 6.27734-6.29297 6.27734-3.46943 0-6.29297-2.81728-6.29297-6.27735 0-3.4614 2.82354-6.27539 6.29297-6.27539zm-.01758 2.4043c-2.14634 0-3.89258 1.73986-3.89258 3.88086s1.74624 3.88281 3.89258 3.88281 3.89258-1.74182 3.89258-3.88281c0-2.141-1.74624-3.88086-3.89258-3.88086zm0 2.7168c.6455 0 1.16797.51989 1.16797 1.16406 0 .64283-.52246 1.16797-1.16797 1.16797-.64417 0-1.16992-.52514-1.16992-1.16797 0-.64417.52575-1.16407 1.16992-1.16407z"/></svg>