<svg viewBox="0 0 24 24" xmlns="http://www.w3.org/2000/svg"><path fill="currentColor" d="m14.36 2.675c-.959.12-1.901.366-2.783.759l-2.188-1.812.433 2.835c-.758.567-1.41 1.25-1.935 2.038l-2.905-.495 1.951 2.352c-.31.817-.502 1.677-.589 2.548l-2.97 1.1 2.952 1.099c.083.883.258 1.763.565 2.597l-1.894 2.283 2.819-.426c.541.811 1.229 1.518 2.025 2.08l-.47 2.751 2.247-1.806c.864.333 1.78.523 2.705.597l1.049 2.825 1.059-2.846c1.418-.144 2.841-.46 4.103-1.144-.229-1.019-.468-2.035-.692-3.055-2.042 1.044-4.605 1.442-6.736.403-1.763-.896-2.773-2.842-2.911-4.785-.152-2.15.502-4.51 2.314-5.801 1.724-1.192 4.024-1.208 5.964-.586.428.149.836.353 1.224.603.306-1.052.616-2.104.93-3.154-1.32-.674-2.811-.98-4.291-1.044l-.964-2.591z"/></svg>