<svg viewBox="0 0 24 24" xmlns="http://www.w3.org/2000/svg"><path fill="currentColor" d="m23.818 5.61h-17.416c-1.277-.001-2.434.752-2.95 1.919l-3.438 8.282c-.05.12.038.252.168.25h7.864c.555 0 .802-.538.366-.968l-2.888-2.705c-1.516-1.488-.866-4.938 2.286-4.938h15.396c.077.001.146-.048.172-.121l.609-1.472c.009-.022.014-.046.013-.07-.003-.098-.083-.177-.182-.177m-1.736 4.216h-2.956c-.194-.001-.37.114-.445.292l-3.312 8c-.014.026-.022.055-.022.084.001.1.082.181.182.179h1.103c1.298.006 2.473-.768 2.98-1.963l2.632-6.355c.008-.021.013-.044.013-.067-.004-.094-.081-.168-.175-.17m-5.811.179c0-.1-.082-.18-.182-.18h-8.383c-.455 0-.853.555-.371 1l2.769 2.579s1.12 1.033.88 2.512c-.206 1.303-1.095 2.1-1.743 2.386-.033.008-.045.049-.022.074.011.011.027.016.042.012h3.228c.194.002.37-.113.445-.293l3.322-8.027c.01-.019.015-.041.015-.063"/></svg>