<svg viewBox="0 0 24 24" xmlns="http://www.w3.org/2000/svg"><path fill="currentColor" d="m12 4.983c3.004 0 6.224.612 8.786 2.239 1.665 1.064 3.214 2.678 3.214 4.78 0 2.456-2.097 4.242-4.106 5.287-2.391 1.238-5.216 1.728-7.894 1.728-3.003 0-6.217-.605-8.78-2.238-1.664-1.065-3.22-2.678-3.22-4.776 0-2.467 2.092-4.246 4.106-5.293 2.398-1.236 5.217-1.727 7.894-1.727zm-.025.746c-2.793 0-5.802.523-8.225 1.983-1.524.912-3.03 2.347-3.03 4.253 0 2.239 2.04 3.806 3.864 4.706 2.258 1.102 4.897 1.53 7.391 1.53 2.798 0 5.809-.523 8.232-1.983 1.517-.918 3.029-2.346 3.029-4.253 0-2.243-2.035-3.813-3.864-4.705-2.258-1.104-4.898-1.53-7.397-1.53zm-10.54 4.686 4.597-.784 1.384-3.003 1.378 3.002 4.596.784-4.596.792-1.378 3.01-1.384-3.01zm10.106 2.289 2.028-.356.605-1.359.606 1.359 2.028.356-2.028.35-.606 1.36-.605-1.36zm4.196-3.621 2.028-.35.605-1.365.606 1.364 2.028.35-2.028.357-.606 1.36-.606-1.36zm-2.167 6.427 2.02-.35.607-1.365.612 1.365 2.027.35-2.027.357-.612 1.36-.606-1.36zm-6.23.491 2.028-.35.612-1.366.605 1.366 2.028.35-2.028.357-.605 1.359-.612-1.359zm10.196-3.353 2.022-.357.605-1.359.612 1.359 2.028.357-2.028.35-.612 1.357-.606-1.357z"/></svg>