<svg viewBox="0 0 24 24" xmlns="http://www.w3.org/2000/svg"><path fill="currentColor" d="m20.953.004a.397.397 0 0 0 -.18.017l-17.548 5.564c-.175.055-.323.214-.402.398a.42.42 0 0 0 -.06.22v5.726a.42.42 0 0 0 .06.22c.079.183.227.341.402.397l7.454 2.364-7.454 2.363c-.255.08-.463.374-.463.655v5.688c0 .282.208.444.463.363l17.55-5.565c.237-.075.426-.336.452-.6.003-.022.013-.04.013-.065v-5.689c0-.281-.208-.575-.463-.656l-7.377-2.339 7.375-2.339c.255-.08.462-.375.462-.656v-5.686c0-.211-.117-.355-.283-.38z"/></svg>