<svg viewBox="0 0 24 24" xmlns="http://www.w3.org/2000/svg"><path fill="currentColor" d="m12.034 24c-.376-.411-2.075-2.584-3.95-5.513-.547-.916-.901-1.63-.833-1.814.178-.48 3.355-.743 4.333-.308.298.132.29.307.29.409 0 .44-.022 1.619-.022 1.619a.441.441 0 1 0 .883-.002l-.005-2.939c0-.255-.278-.319-.331-.329-.511-.002-1.548-.006-2.661-.006-2.457 0-3.006.101-3.423-.172-.904-.591-2.383-4.577-2.417-6.819-.049-3.162 1.825-5.901 4.464-7.258a8.13 8.13 0 0 1 3.664-.868c4.177 0 7.617 3.153 8.075 7.209l.001.011c.084.981-5.321 1.189-6.39.904-.164-.044-.206-.212-.206-.284l-.006-2.844a.442.442 0 0 0 -.884.002l.009 3.866a.33.33 0 0 0 .268.32l3.354-.001c1.79 0 2.542.207 3.042.588.333.254.461.739.349 1.37-1.005 5.614-7.365 12.569-7.604 12.859z"/></svg>