<svg viewBox="0 0 24 24" xmlns="http://www.w3.org/2000/svg"><path fill="currentColor" d="m22.877 0v.738h.738v-.738zm0 .738h-.738v.739h.738zm0 .739v.738h.738v-.738zm-.738 0h-1.477v.738h-.738v1.475h-.738v.74h-1.479v.725a10.572 10.572 0 0 0 -6.707-2.385c-5.864 0-10.615 4.75-10.615 10.615 0 5.863 4.751 10.615 10.615 10.615s10.615-4.752 10.615-10.615c0-2.56-.904-4.906-2.412-6.739h.72v-.738h.74v-1.478h.737v-.74h.739v-.738h-.739v-.738h.739v-.738zm-2.953 2.213v-.738h-.74v.738zm-8.186 2.464a7.193 7.193 0 0 1 4.033 1.23h-.28v.739h-.737c-1.927 2.409-2.414 3.466-3.182 5.414-.871-1.763-1.911-2.978-3.711-3.783l-.02-.006c-.327-.083-.493-.125-.718.19-.23.322-.092.613.183.955a35.212 35.212 0 0 0 .586.703c.547.646 1.095 1.289 1.508 2.035.408.738.877 1.772 1.242 2.574.223.49.406.894.51 1.088.22.406.752.584.955.584.985-.117 1.08-.582 1.242-1.379l.057-.264c.336-1.574.771-3.203 2.824-5.158v-.736h.738v-.74h.74v-.295a7.193 7.193 0 0 1 1.26 4.08c0 3.99-3.24 7.23-7.23 7.23s-7.2-3.24-7.2-7.23 3.21-7.23 7.2-7.23z"/></svg>