<svg viewBox="0 0 24 24" xmlns="http://www.w3.org/2000/svg"><path fill="currentColor" d="m20.471 8.118v-4.22c0-.864-.468-1.677-1.22-2.12-1.127-.665-3.567-1.778-7.251-1.778s-6.124 1.113-7.25 1.777a2.476 2.476 0 0 0 -1.22 2.12v6.338l13.412 3.882v2.824c0 .382-.24.65-.648.849l-4.294 2.151-4.315-2.162c-.386-.188-.626-.456-.626-.838v-2.118l-3.529-1.059v3.177c0 1.744 1 3.228 2.588 4.001l5.882 3.058 5.86-3.047c1.61-.784 2.61-2.268 2.61-4.011v-5.294l-13.411-3.883v-3.223c.958-.462 2.592-1.013 4.941-1.013s3.983.55 4.941 1.013v2.517z"/></svg>