<svg viewBox="0 0 24 24" xmlns="http://www.w3.org/2000/svg"><path fill="currentColor" d="m11.654.174v2.203h-1.972v.58h1.972v2.203h.696v-2.203h1.97v-.58h-1.97v-2.203h-.348zm6.03 2.262-.002 1.623v1.623h-2.957v.927h2.957v3.188h1.043l.011-1.582.02-1.576 1.465-.02 1.46-.01v-.927h-2.953v-3.246h-.522zm-12.407.06v3.19h-2.986v.925h2.986v3.19h.985v-3.191h3.013v-.925h-3.013v-3.189h-.492zm6.086 5.27v3.593h-3.303v1.188h3.304v3.596h1.28v-3.596h3.309v-1.188h-3.31v-3.593h-.637zm9.721 1.55v2.221h-2.012v.811h2.012v2.261h.887v-2.261h2.029v-.811h-2.029v-2.22h-.422zm-19.111.131v2.174h-1.973v.621h1.973v2.194h.667v-2.194h2v-.62h-2.031v-2.176h-.318zm15.709 4.516v3.254h-3.016v.927h3.016v3.217h1.072v-3.216h2.986v-.928h-2.986v-3.254h-.533zm-12.463.008v3.246h-2.957v.928h2.957v3.189h1.101v-3.189h2.955v-.928h-2.955v-3.247h-.55zm6.316 4.578.002 1.103v1.1h-1.971v.812h1.971v2.262h.928l.012-1.119.017-1.143h1.969v-.812h-2v-2.203h-.465z"/></svg>