<svg viewBox="0 0 24 24" xmlns="http://www.w3.org/2000/svg"><path fill="currentColor" d="m21.356 11.162v3.98c0 .122-.081.154-.181.071l-2.032-1.682a.55.55 0 0 1 -.181-.37v-.501l-.635-.516c-.68-.554-1.226-1.677-1.226-2.5 0-.822.549-1.036 1.226-.478l.635.516v-.502c0-.122.081-.154.181-.071l2.032 1.682c.1.082.181.248.181.37zm-2.993-1.265c-.358-.296-.648-.182-.648.253s.29 1.027.648 1.323l.599.486v-1.576zm2.839 10.037.013-.01a.334.334 0 0 0 .037-.036l.004-.004a.36.36 0 0 0 .032-.046l.007-.013a.299.299 0 0 0 .019-.042l.004-.01a.329.329 0 0 0 .013-.055v-.014l.003-.027.003-.152-5.223-4.28.022-12.91-.147-.111-.004-.003-.034-.02c-.007-.004-.014-.01-.022-.013l-.03-.01c-.01-.004-.02-.009-.03-.011l-.026-.004c-.013-.002-.026-.005-.039-.005h-.004l-.023.001c-.013 0-.025.001-.037.003l-.03.007c-.01.003-.021.005-.031.01-.01.003-.02.008-.029.012l-.029.015a.202.202 0 0 0 -.014.01c-.012.004-.024.007-.035.013l-3.444 1.726.72.57.027 10.067-5.246-4.32-.003-5.241-.003-4.703-.001-.01a.283.283 0 0 0 -.004-.035c-.001-.01-.002-.02-.005-.03l-.008-.03c-.005-.01-.008-.022-.015-.033l-.002-.009-.01-.015c-.006-.01-.012-.021-.02-.031l-.018-.023a.354.354 0 0 0 -.074-.062.294.294 0 0 0 -.026-.015c-.01-.004-.02-.01-.03-.013a.365.365 0 0 0 -.061-.016l-.035-.004-.02-.002-.009.001a.3.3 0 0 0 -.036.004c-.01.001-.02.002-.03.005-.01.002-.019.006-.029.009a.286.286 0 0 0 -.033.012l-.009.004-4.323 2.165-.016.01a.336.336 0 0 0 -.077.061.303.303 0 0 0 -.053.078.402.402 0 0 0 -.023.06.284.284 0 0 0 -.01.065c-.001.006-.003.013-.002.02l.006 10.108v.02l.002.008c0 .015.003.03.006.044l.002.009.004.011a.32.32 0 0 0 .02.054v.001h.001c.009.018.02.034.031.05l.007.01.006.006a.31.31 0 0 0 .031.032l.006.006c.004.003.008.005.01.008.002 0 .003.003.005.004l4.7 3.909-.107 2.673v.038l.004.025.002.015c0 .005.002.01.004.015 0 .004.002.007.003.011l.001.005.003.01c.005.014.01.028.017.04v.002a.32.32 0 0 0 .031.049l.006.008.005.005a.342.342 0 0 0 .037.039l.005.003.003.002.003.004 5.317 4.212c.1.078.236.092.35.035l7.988-4 .004-.002a.321.321 0 0 0 .045-.029zm-15.727-8.949-1.656-1.279v1.1l.844.585-1.392.698-.006-9.376 2.176-1.09.023 2.392-1.546-1.236v1.1l1.554 1.235.024 1.182-1.595-1.276v1.1l1.603 1.275-.006 1.283-1.573-1.257v1.1l1.58 1.256.01 1.187zm3.433 6.038-5.309-4.365 3.668-1.837 5.309 4.365zm-2.785-15.741.733-.367.079 9.34-.733.366zm2.494 7.114-.001-1.59 1.309 1.024.001 1.591zm1.309-1.828-1.31-1.025v-1.591l1.309 1.025zm1.092-.752c.507.646 1.026 1.907 1.026 3.073 0 1.165-.519 1.562-1.026 1.362z"/></svg>