<svg viewBox="0 0 24 24" xmlns="http://www.w3.org/2000/svg"><path fill="currentColor" d="m22.597 24h-21.191a1.41 1.41 0 0 1 -1.406-1.406v-21.188a1.41 1.41 0 0 1 1.406-1.406h21.191a1.41 1.41 0 0 1 1.406 1.406v21.188a1.41 1.41 0 0 1 -1.406 1.406zm-10.686-21.891c-5.405.047-9.763 4.482-9.802 9.89-.04 5.507 4.381 9.885 9.89 9.89 5.415.003 9.796-4.5 9.89-9.89.097-5.572-4.406-9.939-9.978-9.89zm-2.261 6.524-.889 2.159h6.539l-.889-2.159 6.642 3.365-6.642 3.365.889-2.159h-6.539l.882 2.159-6.659-3.365z"/></svg>