<svg viewBox="0 0 24 24" xmlns="http://www.w3.org/2000/svg"><path fill="currentColor" d="m16.206 7.794c-.566-4.248-2.002-7.794-4.206-7.794s-3.639 3.546-4.206 7.794c-4.248.566-7.794 2.002-7.794 4.206s3.546 3.639 7.794 4.206c.566 4.247 2.002 7.794 4.206 7.794s3.639-3.546 4.206-7.794c4.248-.566 7.794-2.002 7.794-4.206s-3.547-3.64-7.794-4.206zm-8.55 7.174c-4.069-.587-6.44-1.932-6.44-2.969 0-1.036 2.372-2.381 6.44-2.969-.09.98-.137 1.98-.137 2.97s.047 1.99.137 2.968zm4.344-13.753c1.036 0 2.381 2.372 2.969 6.44a32.718 32.718 0 0 0 -5.938 0c.587-4.068 1.932-6.44 2.969-6.44zm4.344 13.753c-.2.03-1.022.126-1.23.146-.02.209-.117 1.03-.145 1.23-.588 4.068-1.933 6.44-2.97 6.44-1.036 0-2.38-2.372-2.968-6.44-.03-.2-.126-1.022-.147-1.23a31.833 31.833 0 0 1 0-6.23 31.813 31.813 0 0 1 7.46.146c4.068.587 6.442 1.933 6.442 2.969-.001 1.036-2.374 2.382-6.442 2.97z"/></svg>