<svg viewBox="0 0 24 24" xmlns="http://www.w3.org/2000/svg"><path fill="currentColor" d="m12 5.362 2.475-3.026s4.245.09 8.471 2.054c-1.082 1.636-3.231 2.438-3.231 2.438-.146-1.439-1.154-1.79-4.354-1.79l-3.361 18.962-3.381-18.966c-3.18 0-4.188.354-4.335 1.792 0 0-2.146-.795-3.229-2.43 4.225-1.965 8.47-2.056 8.47-2.056l2.475 3.022-.004.002h.004zm0-3.899c3.415-.03 7.326.528 11.328 2.28.535-.968.672-1.395.672-1.395-4.375-1.736-8.472-2.333-12-2.348-3.528.015-7.625.61-12 2.349 0 0 .195.525.672 1.396 4.002-1.756 7.913-2.31 11.328-2.285z"/></svg>