<svg viewBox="0 0 24 24" xmlns="http://www.w3.org/2000/svg"><path fill="currentColor" d="m8.226 19.857h-6.873l1.79-4.225h4.812l5.353-12.422h-5.744l-4.226 9.82h2.587c.18.3.511.51.887.51a1.04 1.04 0 0 0 1.038-1.037c0-.572-.467-1.023-1.038-1.023-.421 0-.767.24-.932.602h-1.233l3.503-7.94h3.76l-4.527 10.542-4.766.03-2.617 6.076h8.842l1.158-2.527h3.835l1.278 2.526h8.887l-8.015-17.578zm2.27-2.586 1.384-3.023 1.503 3.023zm5.218 2.691-.872-1.759h2.737c.18.33.526.556.917.556a1.04 1.04 0 0 0 1.038-1.037 1.04 1.04 0 0 0 -1.038-1.038c-.42 0-.782.256-.947.617h-3.129l-2.09-4.06 1.534-3.369 1.729 3.519h.812c.165.346.526.601.932.601a1.04 1.04 0 0 0 1.038-1.037 1.04 1.04 0 0 0 -1.038-1.038c-.436 0-.812.271-.962.662h-.3l-1.79-3.64 1.699-3.728 6.677 14.751z"/></svg>