<svg viewBox="0 0 24 24" xmlns="http://www.w3.org/2000/svg"><path fill="currentColor" d="m1.25 0c-.693 0-1.25.557-1.25 1.25v21.5c0 .692.557 1.25 1.25 1.25h21.5c.692 0 1.25-.558 1.25-1.25v-21.5c0-.693-.558-1.25-1.25-1.25h-2.734c1.667 1.037 1.521 11.428 1.68 18.734.023 1.1.616 3.805.616 3.805s-1.702.913-3.15 1.373c-.652-2.478-.633-3.488-.633-3.488l-.181-10.67-.4-4.62c-2.156 3.08-3.445 6.123-3.987 8.007-1.442.915-1.92 1.09-2.957 1.384-1.056-.552-3.91-3.216-4.961-3.921 2.096 6.826 2.238 9.642 2.238 9.642s-2.231 1.759-2.797 1.606c-.232-.064-.495-.275-.507-.516-.183-3.672-.76-5.902-1.508-8.773-.893-3.433-3.149-8.493-3.149-8.493.948-.641 1.52-.883 2.836-1.265l8.454 8.195s4.463-7.384 5.494-10.094c0 0 2.244-.748 2.71-.906z"/></svg>