<svg viewBox="0 0 24 24" xmlns="http://www.w3.org/2000/svg"><path fill="currentColor" d="m24 15.366v-8.444l-2.188-1.998-2.426 2.569v-1.833h-.357v2.236l-.571.595v-1.902l-1.808-1.665-2.164 2.212.261.261.547-.547.69.619v2.093h-.119c-1.046 0-1.689.714-1.689 1.689 0 .5.072.737.143.904h.238a1.033 1.033 0 0 1 1.023-.833h.404v3.782c-1.26.428-1.998 1.522-2.14 3.02l.166.096c.57-.69 1.308-1.118 1.974-1.284v5.209l.048.023 2.26-2.069 1.07 1 .047-.025v-4.043c.476.142.904.475 1.213.904zm-2.426.523c-.571-.57-1.26-.88-2.165-.999v-7.04l1.023-1.095 1.142 1.047zm-2.545 4.4-.571-.523v-10.941l.57-.571zm-5.78-6.017v-7.232l-2.189-2.14-2.26 2.355-2.401-2.355-2.284 2.402v-.785c0-2.021-1.26-1.688-1.26-2.997 0-.832.523-1.237 1.165-1.546l-.143-.142c-1.95.69-2.997 1.712-2.997 2.83 0 1 .761 1.047.761 2.212v2.973c-1.427 0-1.641 1.333-1.641 1.856 0 .309.048.594.095.737h.19c.072-.404.31-.69.81-.69h.546v3.806l2.807 2.426 2.07-2.33 2.71 2.33zm-2.45 1.879-1.927-1.642v-6.779l.833-.832 1.094 1.094zm-4.424-.904-.595.69-1.665-1.428v-6.707l.904-.928 1.356 1.356z"/></svg>