<svg viewBox="0 0 24 24" xmlns="http://www.w3.org/2000/svg"><path fill="currentColor" d="m11.955.005c-6.53-.157-12.046 5.48-11.948 11.8-.235 6.756 5.537 12.25 12.052 12.196 6.562-.101 11.853-5.406 11.941-11.971.031-6.547-5.495-12.21-12.045-12.025zm-.047 1.701a10.276 10.276 0 0 1 7.36 17.529 10.275 10.275 0 0 1 -17.556-7.287c-.002-5.64 4.556-10.22 10.195-10.242zm-5.55 4.781c-.322 0-.358.033-.358.361v2.248c0 .351.04.391.398.391h3.823c.274 0 .274.004.274.265v9.736a.176.176 0 0 0 .051.146c.04.038.093.059.148.053h2.555c.247-.003.283-.035.283-.28v-9.32c0-.124.004-.239 0-.39s.055-.21.218-.21h3.9c.319.004.35-.032.35-.344v-2.288c0-.34-.024-.363-.37-.363h-5.626z"/></svg>