<svg viewBox="0 0 24 24" xmlns="http://www.w3.org/2000/svg"><path fill="currentColor" d="m.38 0a.268.268 0 0 0 -.256.332l2.894 11.716a.268.268 0 0 0 .01.04l2.89 11.708a.268.268 0 0 0 .447.128l17.437-16.774a.268.268 0 0 0 -.112-.45l-5.784-1.667a.268.268 0 0 0 -.123-.035l-11.403-3.283a.268.268 0 0 0 -.144-.04l-5.78-1.665a.268.268 0 0 0 -.076-.01zm.374.654 4.956 1.426-3.72 3.584zm5.856 1.686 4.864 1.4-3.65 3.515zm-.522.12 1.217 4.926-4.877-1.4zm6.28 1.538 4.878 1.404-3.662 3.53zm-.52.13 1.208 4.9-4.853-1.392zm6.3 1.534 4.947 1.424-3.715 3.574zm-.524.12 1.215 4.926-4.876-1.398zm-15.432.696 4.964 1.424-3.726 3.586zm5.855 1.672 4.877 1.4-3.66 3.527zm-.518.137 1.236 5.017-4.963-1.432zm6.274 1.535 4.965 1.425-3.73 3.586zm-.52.127 1.235 5.012-4.958-1.43zm-9.63 2.438 4.873 1.406-3.656 3.523zm5.854 1.687 4.863 1.403-3.648 3.51zm-.54.04 1.214 4.927-4.875-1.4zm-3.896 4.02 5.037 1.442-3.782 3.638z"/></svg>