<svg viewBox="0 0 24 24" xmlns="http://www.w3.org/2000/svg"><path fill="currentColor" d="m21 0h-18c-1.65 0-3 1.35-3 3v3.858s3.854 2.24 4.098 2.38c.31.18.694.177 1.004 0 .26-.147 8.02-4.608 8.136-4.675.279-.161.58-.107.748-.01.164.097.606.348.84.48.232.134.221.502.013.622l-9.712 5.59c-.346.2-.69.204-1.048.002-.601-.34-3.081-1.784-4.079-2.365v2.02l4.098 2.38c.31.18.694.177 1.004 0 .26-.147 8.02-4.609 8.136-4.676.279-.16.58-.106.748-.008.164.096.606.347.84.48.232.133.221.5.013.62-.208.121-9.288 5.346-9.712 5.59-.346.2-.69.205-1.048.002-.601-.339-3.081-1.784-4.079-2.364v2.02l4.098 2.38c.31.18.694.177 1.004 0 .26-.147 8.02-4.609 8.136-4.676.279-.16.58-.106.748-.009.164.097.606.348.84.48.232.133.221.502.013.622l-9.712 5.59c-.346.199-.69.204-1.048.001-.601-.34-3.081-1.784-4.079-2.364v4.03c0 1.65 1.35 3 3 3h18c1.65 0 3-1.35 3-3v-18c0-1.65-1.35-3-3-3z"/></svg>