<svg viewBox="0 0 24 24" xmlns="http://www.w3.org/2000/svg"><path fill="currentColor" d="m12 24c-6.615 0-12-5.385-12-12s5.385-12 12-12 12 5.385 12 12-5.385 12-12 12zm0-22.789c-5.95 0-10.789 4.839-10.789 10.789s4.839 10.79 10.789 10.79 10.79-4.84 10.79-10.79-4.84-10.789-10.79-10.789zm-7.11 17.32c1.756 1.92 4.294 3.113 7.11 3.113 1.439 0 2.801-.313 4.027-.876l-6.697-6.68zm14.288-.067c1.541-1.71 2.484-3.99 2.484-6.466 0-3.885-2.287-7.215-5.568-8.76l-6.089 6.076 9.164 9.15zm-9.877-8.429-5.074 5.055-.679-.68 5.337-5.336 6.23-6.225c-.978-.328-2.02-.509-3.115-.509-5.337-.003-9.663 4.323-9.663 9.66 0 2.172.713 4.178 1.939 5.801l5.056-5.055.359.329 7.245 7.245c.15-.082.285-.164.42-.266l-8.026-8.004-4.854 4.855-.679-.679 5.535-5.535.359.331 8.46 8.437c.135-.1.255-.215.375-.316l-9.136-9.116-.083.015zm3.047 1.028-.678-.676 4.788-4.79.679.689-4.789 4.785zm4.542-6.578-5.52 5.52-.68-.679 5.521-5.52.679.684z"/></svg>