<svg viewBox="0 0 24 24" xmlns="http://www.w3.org/2000/svg"><path fill="currentColor" d="m12.006 4.295c-2.67 0-5.338.784-7.645 2.353h-4.361l1.963 2.135a5.997 5.997 0 0 0 4.04 10.43 5.976 5.976 0 0 0 4.075-1.6l1.922 2.092 1.922-2.09a5.972 5.972 0 0 0 4.072 1.598 6 6 0 0 0 6-5.998 5.982 5.982 0 0 0 -1.957-4.432l1.963-2.135h-4.35a13.573 13.573 0 0 0 -7.644-2.353zm-.006 1.96c1.531 0 3.063.303 4.504.903-2.561.98-4.504 3.272-4.504 5.942 0-2.671-1.942-4.962-4.504-5.942a11.72 11.72 0 0 1 4.504-.902zm-5.998 2.902a4.059 4.059 0 1 1 0 8.118 4.059 4.059 0 0 1 0-8.118zm11.992.002a4.057 4.057 0 1 1 .003 8.115 4.057 4.057 0 0 1 -.003-8.115zm-11.992 1.93a2.128 2.128 0 0 0 0 4.256 2.128 2.128 0 0 0 0-4.256zm11.992 0a2.128 2.128 0 0 0 0 4.256 2.128 2.128 0 0 0 0-4.256z"/></svg>