<svg viewBox="0 0 24 24" xmlns="http://www.w3.org/2000/svg"><path fill="currentColor" d="m24 4.5167a2.117 2.117 0 0 1 -2.117 2.117 2.117 2.117 0 0 1 -2.117-2.117 2.117 2.117 0 0 1 2.117-2.117 2.117 2.117 0 0 1 2.117 2.1171zm-22.8603 3.2308h5.7055c.5642 0 .9806.1772 1.1465.9716.185.8836.1129 1.4986-.8858 1.5686l-1.7909.132c1.318 8.3303 9.0277 11.0453 13.2221 2.073.6952-1.485.922-1.7548 1.6826-1.5663 1.0314.2561 1.1724.7899.677 2.2828-3.6234 11.0566-15.8186 12.166-18.211-2.6044l-1.4546.105c-1.1848.0844-1.2311-.9142-1.2311-1.4694 0-1.0992.4074-1.493 1.1397-1.493z"/></svg>