<svg viewBox="0 0 24 24" xmlns="http://www.w3.org/2000/svg"><path fill="currentColor" d="m6.155 12.058c0 .503.095.967.285 1.392.19.424.447.793.771 1.106s.699.56 1.123.738c.437.168.895.252 1.375.252.481 0 .934-.084 1.359-.252a3.578 3.578 0 0 0 1.14-.738 3.37 3.37 0 0 0 1.073-2.498 3.371 3.371 0 0 0 -1.073-2.498 3.356 3.356 0 0 0 -1.14-.721 3.463 3.463 0 0 0 -1.359-.269c-.48 0-.938.09-1.374.269-.425.167-.8.408-1.124.72a3.52 3.52 0 0 0 -.771 1.107 3.37 3.37 0 0 0 -.285 1.392zm-3.437 0c0-.939.173-1.81.52-2.616a6.524 6.524 0 0 1 1.441-2.13 6.503 6.503 0 0 1 2.197-1.408c.86-.346 1.805-.52 2.833-.52 1.018 0 1.957.174 2.817.52a6.47 6.47 0 0 1 2.213 1.409 6.542 6.542 0 0 1 1.979 4.745c0 .939-.173 1.816-.52 2.632a6.45 6.45 0 0 1 -1.459 2.113 6.678 6.678 0 0 1 -2.213 1.425c-.86.335-1.8.503-2.817.503-1.028 0-1.973-.168-2.833-.503a6.717 6.717 0 0 1 -2.197-1.425 6.572 6.572 0 0 1 -1.442-2.113 6.663 6.663 0 0 1 -.52-2.632zm7.426-12.05c-2.76-.096-5.52.76-7.805 2.569l1.523.857c1.808-1.334 4.093-1.904 6.282-1.809v-1.618zm8.09 3.616c-1.903-1.999-4.378-3.236-7.043-3.522v1.618a10.725 10.725 0 0 1 5.901 3.046zm3.427 7.805c-.095-2.475-1.047-4.95-2.665-7.043l-1.142 1.142c1.332 1.808 2.094 3.807 2.189 5.9h1.618zm-2.665 8.185c1.618-2.094 2.57-4.568 2.665-7.043h-1.618c-.095 2.094-.857 4.093-2.19 5.901zm-7.805 4.284c2.57-.286 5.14-1.523 7.043-3.522l-1.142-1.142c-1.618 1.713-3.712 2.76-5.901 3.046zm-8.852-2.475a11.867 11.867 0 0 0 7.805 2.57v-1.618c-2.19.095-4.378-.476-6.282-1.809z"/></svg>