<svg viewBox="0 0 24 24" xmlns="http://www.w3.org/2000/svg"><path fill="currentColor" d="m1.125 0c-.623 0-1.125.502-1.125 1.125v21.75c0 .623.502 1.125 1.125 1.125h21.75c.623 0 1.125-.502 1.125-1.125v-21.75c0-.623-.502-1.125-1.125-1.125zm17.363 9.75c.612 0 1.154.037 1.627.111a6.38 6.38 0 0 1 1.306.34v2.458a3.95 3.95 0 0 0 -.643-.361 5.093 5.093 0 0 0 -.717-.26 5.453 5.453 0 0 0 -1.426-.2c-.3 0-.573.028-.819.086a2.1 2.1 0 0 0 -.623.242c-.17.104-.3.229-.393.374a.888.888 0 0 0 -.14.49c0 .196.053.373.156.529.104.156.252.304.443.444s.423.276.696.41c.273.135.582.274.926.416.47.197.892.407 1.266.628.374.222.695.473.963.753.268.279.472.598.614.957s.214.776.214 1.253c0 .657-.125 1.21-.373 1.656a3.033 3.033 0 0 1 -1.012 1.085 4.38 4.38 0 0 1 -1.487.596c-.566.12-1.163.18-1.79.18a9.916 9.916 0 0 1 -1.84-.164 5.544 5.544 0 0 1 -1.512-.493v-2.63a5.033 5.033 0 0 0 3.237 1.2c.333 0 .624-.03.872-.09.249-.06.456-.144.623-.25.166-.108.29-.234.373-.38a1.023 1.023 0 0 0 -.074-1.089 2.12 2.12 0 0 0 -.537-.5 5.597 5.597 0 0 0 -.807-.444 27.72 27.72 0 0 0 -1.007-.436c-.918-.383-1.602-.852-2.053-1.405-.45-.553-.676-1.222-.676-2.005 0-.614.123-1.141.369-1.582s.58-.804 1.004-1.089a4.494 4.494 0 0 1 1.47-.629 7.536 7.536 0 0 1 1.77-.201zm-15.113.188h9.563v2.166h-3.432v9.646h-2.717v-9.646h-3.414z"/></svg>