<svg viewBox="0 0 24 24" xmlns="http://www.w3.org/2000/svg"><path fill="currentColor" d="m15.954 12c-.089.066-.195.142-.324.233-.826.585-2.023.985-3.58.985h-.104c-1.556 0-2.755-.4-3.58-.985a36.43 36.43 0 0 1 -.324-.233c.09-.067.196-.143.324-.234.825-.584 2.024-.985 3.58-.985h.104c1.557 0 2.756.401 3.58.985.129.09.235.167.325.234m8.045-4.819s-.709-.541-2.95-1.365c-1.968-.721-3.452-.883-3.452-.883l.006 4.243c0 .598-.162 1.143-.618 1.765-1.672-.61-3.254-.985-4.981-.985-1.728 0-3.308.375-4.98.985-.457-.619-.62-1.168-.62-1.765l.007-4.243s-1.494.16-3.463.883c-2.24.826-2.949 1.365-2.949 1.365.093 1.926 1.78 3.638 4.435 4.82-2.658 1.179-4.345 2.886-4.435 4.817 0 0 .709.54 2.949 1.365 1.968.721 3.453.883 3.453.883l-.007-4.244c0-.597.164-1.143.619-1.764 1.672.61 3.252.983 4.98.983 1.727 0 3.309-.374 4.98-.983.457.62.62 1.167.62 1.764l-.006 4.244s1.484-.16 3.452-.883c2.241-.826 2.95-1.365 2.95-1.365-.093-1.927-1.78-3.64-4.435-4.819 2.657-1.182 4.343-2.888 4.435-4.82"/></svg>