<svg viewBox="0 0 24 24" xmlns="http://www.w3.org/2000/svg"><path fill="currentColor" d="m12.9288 4.2939 3.7997 2.1929c.1366.077.1415.2905 0 .3675l-4.515 2.6076a.4192.4192 0 0 1 -.4246 0l-4.5149-2.6076c-.139-.0745-.1415-.293 0-.3675l3.7972-2.193v-4.2938l-9.6954 5.5977v11.1953l3.7177-2.1456v-4.3858c-.0025-.1565.1813-.2682.318-.1838l4.5148 2.6076a.4252.4252 0 0 1 .2136.3676v5.2127c.0025.1565-.1813.2682-.3179.1838l-3.7996-2.1929-3.7178 2.1457 9.6954 5.5977 9.6954-5.5977-3.7178-2.1457-3.7996 2.1929c-.1341.082-.3229-.0248-.3179-.1838v-5.2127c0-.1565.087-.2956.2136-.3676l4.5149-2.6076c.134-.082.3228.0224.3179.1838v4.3858l3.7177 2.1456v-11.1953l-9.6954-5.5977z"/></svg>