<svg viewBox="0 0 24 24" xmlns="http://www.w3.org/2000/svg"><path fill="currentColor" d="m22.1155 12.9964a1.8845 1.8845 0 1 1 0 3.769h-13.4512v-4.8954h.888v4.0072h12.5849a1.0078 1.0078 0 0 0 .9964-.9964 1.0317 1.0317 0 0 0 -1.0397-.9964h-11.6969v-.888zm-8.6859-5.7617h-4.7653v1.9927h.888v-1.1263h3.899a1.0078 1.0078 0 0 1 .9964.9964 1.0653 1.0653 0 0 1 -1.018 1.0397h-11.5452a1.8845 1.8845 0 1 0 0 3.769h5.8917v-.8881h-5.8917a.9964.9964 0 0 1 0-1.9928h11.5668a1.8999 1.8999 0 0 0 1.8844-1.8845 1.9375 1.9375 0 0 0 -1.9061-1.9061z"/></svg>