<svg viewBox="0 0 24 24" xmlns="http://www.w3.org/2000/svg"><path fill="currentColor" d="m14.651 13.862c0 2.5477-2.0653 4.613-4.613 4.613s-4.613-2.0653-4.613-4.613c0-6.1507 9.226-6.1507 9.226 0zm3.497 6.04c-1.33 1.334-3.109 3.957-8.119 4.095-5.451.148-9.959-4.484-9.978-10.282-.01-2.945.774-4.659 2.82-6.792 1.224-1.278 7.004-6.923 7.004-6.923 2.052 2.052.96 4.873-.108 5.93l-3.732 3.705c-.47.465-1.968 1.925-1.931 4.444.045 3.202 2.51 5.85 5.799 5.8 2.632-.042 3.756-1.356 4.376-1.98l3.841-3.828c1.103-1.093 3.77-2.027 5.829.005z"/></svg>