<svg viewBox="0 0 24 24" xmlns="http://www.w3.org/2000/svg"><path fill="currentColor" d="m13.8027 0c-2.6097 0-5.2197.9952-7.2109 2.9863-3.9823 3.9823-3.9823 10.4396 0 14.4219 1.9911 1.9911 5.2198 1.9911 7.211 0 1.991-1.9911 1.991-5.2198 0-7.211l-1.8028 1.8028c.9956.9956.9956 2.6098 0 3.6055-.9956.9955-2.6099.9955-3.6055 0-2.9866-2.9868-2.9866-7.8297 0-10.8164 2.9868-2.9868 7.8297-2.9868 10.8164 0l1.8028-1.8028c-1.9912-1.9911-4.6012-2.9863-7.211-2.9863zm-1.8027 12c-.9956-.9956-.9956-2.6098 0-3.6055.9956-.9955 2.6098-.9955 3.6055 0 2.9867 2.9868 2.9867 7.8297 0 10.8164-2.9867 2.9868-7.8297 2.9868-10.8164 0l-1.8028 1.8028c3.9823 3.9822 10.4396 3.9822 14.4219 0 3.9823-3.9824 3.9823-10.4396 0-14.4219-.9956-.9956-2.3006-1.4922-3.6055-1.4922-1.3048 0-2.6099.4966-3.6054 1.4922-1.9912 1.9912-1.9912 5.2198 0 7.211z"/></svg>