<svg viewBox="0 0 24 24" xmlns="http://www.w3.org/2000/svg"><path fill="currentColor" d="m6.832 6c0-.161.008-.322.023-.479.019-.207.07-.401.112-.599l-.694-1.377h-6.273l2.182 3.818h1.527l2.097 3.98a6.534 6.534 0 0 1 1.727-2.745 5.123 5.123 0 0 1 -.701-2.598zm3.533 13.663 1.635 2.974 1.637-2.975c-.535.138-1.079.234-1.637.234s-1.101-.096-1.635-.233zm7.363-16.118-.717 1.258c.056.238.112.476.134.726a5.148 5.148 0 0 1 -.677 3.07 6.565 6.565 0 0 1 1.727 2.746l2.097-3.981h1.527l2.181-3.819zm.118 8.462a6 6 0 0 0 -2.073-3.31 4.64 4.64 0 0 0 -3.773-7.334 4.635 4.635 0 0 0 -4.637 4.637 4.62 4.62 0 0 0 .865 2.697 5.988 5.988 0 0 0 -2.228 4.666 6.01 6.01 0 0 0 3.814 5.592 6.02 6.02 0 0 0 4.375-.003 6.006 6.006 0 0 0 3.657-6.945zm-5.846-7.78c1.129 0 2.046.917 2.046 2.045a2.046 2.046 0 0 1 -4.092 0c0-1.128.918-2.045 2.046-2.045zm0 11.456a2.32 2.32 0 0 1 0-4.637c1.282 0 2.318 1.037 2.318 2.318s-1.036 2.319-2.318 2.319z"/></svg>