<svg viewBox="0 0 24 24" xmlns="http://www.w3.org/2000/svg"><path fill="currentColor" d="m12 0c-6.6 0-12 5.4-12 12s5.4 12 12 12 12-5.4 12-12-5.4-12-12-12zm0 22.725c-5.925 0-10.725-4.8-10.725-10.725s4.8-10.725 10.725-10.725 10.725 4.8 10.725 10.725-4.8 10.725-10.725 10.725zm-3.225-15.225h-2.25c-.15 0-.208.086-.15.225l4.425 10.65c.04.098.15.225.3.225h1.95c.15 0 .206-.086.15-.225l-4.35-10.8c-.028-.07-.035-.075-.075-.075zm8.7 0h-2.25c-.075 0-.13.023-.15.075l-1.725 4.275a.6.6 0 0 0 0 .375l1.05 2.55c.075.15.225.15.3 0l2.925-7.05c.057-.139 0-.225-.15-.225z"/></svg>