<svg viewBox="0 0 24 24" xmlns="http://www.w3.org/2000/svg"><path fill="currentColor" d="m8.787 16.045a23.43 23.43 0 0 0 -1.402 2.185c.16-.301.331-.6.509-.898q.569-.948 1.225-1.88c3.684-5.16 9.117-9.202 14.354-11.112l-.43-1.317c-.018-.012-.032-.02-.04-.014-7.366 2.68-14.173 9.534-16.55 17.194.116-.28.237-.559.37-.836 3.407-5.592 9.963-10.16 16.079-12.157l-.183-1.252c-5.385 1.683-10.555 5.398-13.932 10.087zm14.253-13.022v-.014h-.03s.011.002.03.014zm-15.655 15.207.509-.898c-.178.298-.348.597-.51.898zm15.665-10.172a11.447 11.447 0 0 1 .798 4.092 11.792 11.792 0 0 1 -18.604 9.683 12.084 12.084 0 0 1 -1.006-18.917 11.847 11.847 0 0 1 3.67-2.203 11.525 11.525 0 0 1 4.196-.711 11.181 11.181 0 0 1 7.616 3.11 11.423 11.423 0 0 0 -7.61-2.512 10.878 10.878 0 0 0 -3.9.843 11.236 11.236 0 0 0 -3.34 2.173 11.46 11.46 0 0 0 -2.37 3.165 11.186 11.186 0 0 0 .711 11.266 11.032 11.032 0 0 0 2.72 2.827 10.9 10.9 0 0 0 3.554 1.658 11.072 11.072 0 0 0 7.7-.732 11.435 11.435 0 0 0 5.386-5.715 11.826 11.826 0 0 0 .948-3.938 12.084 12.084 0 0 0 -.47-4.09zm-13.877-1.185h-2.383l3.504 4.872a29.78 29.78 0 0 1 1.277-1.529zm5.971 11.61h2.358l-3.98-5.551q-.764.597-1.477 1.234zm-1.01 0h.385l-2.843-3.966-.237.22zm-7.952-11.61h-.422l4.01 5.563c.065-.092.137-.184.21-.274zm-.837 0h-.421l4.436 6.137c.064-.095.132-.187.199-.28zm7.957 11.61h.381l-2.516-3.509-.237.237z"/></svg>