<svg viewBox="0 0 24 24" xmlns="http://www.w3.org/2000/svg"><path fill="currentColor" d="m22.316 5.923c-.01-.014-.027-.024-.04-.035a.412.412 0 0 0 -.06-.047l-9.993-5.78a.427.427 0 0 0 -.08-.033c-.015-.008-.03-.008-.043-.013a.41.41 0 0 0 -.325.046l-9.992 5.78a.418.418 0 0 0 -.143.141c-.015.014-.02.034-.028.05a.423.423 0 0 0 -.048.191v11.56a.418.418 0 0 0 .007.05c.007.14.088.266.212.331l9.992 5.78a.555.555 0 0 0 .487 0l9.888-5.756a.437.437 0 0 0 .284-.406v-11.559a.408.408 0 0 0 -.119-.3zm-19.866 11.092v-10.025l8.665 5.012-8.665 5.012zm10.452-5.023 8.648-5.001v10.024c-2.905-1.676-5.634-3.268-8.648-5.023zm-.46-.757v-10.024l8.666 5.012zm-.885 0-8.666-5.012 8.666-5.012zm0 1.535v10.024l-8.665-5.012zm.925.023 5.477 3.168 3.129 1.821-8.606 5.01z"/></svg>