<svg viewBox="0 0 24 24" xmlns="http://www.w3.org/2000/svg"><path fill="currentColor" d="m12 0c-6.64 0-12 5.36-12 12s5.36 12 12 12 12-5.36 12-12-5.36-12-12-12m0 1.41c1.2 0 2.36.22 3.43.59l-3.3 7.13c-.04.04-.04.13-.13.13s-.09-.09-.13-.13l-3.3-7.13c1.07-.37 2.23-.58 3.43-.58m-5.1 1.32 3.82 8.23c.08.17.17.22.28.22h2c.12 0 .2-.05.29-.22l3.77-8.23c1.58.9 2.94 2.19 3.9 3.73l-5.36 10.37c-.04.09-.1.13-.13.13-.08 0-.08-.08-.13-.13l-2.05-4.54c-.09-.17-.17-.21-.29-.21h-2c-.11 0-.2.04-.29.21l-2.05 4.54c-.05.05-.04.13-.13.13s-.09-.08-.13-.13l-5.4-10.37c.94-1.54 2.32-2.83 3.9-3.73m-4.84 5.79 6.17 12c.08.17.17.3.39.3.21 0 .29-.13.38-.3l2.87-6.39c.04-.08.09-.14.13-.14.09 0 .09.1.13.14l2.91 6.39c.09.17.17.3.39.3.21 0 .3-.13.38-.3l6.19-12c.37 1.07.59 2.23.59 3.47-.05 5.79-4.8 10.59-10.59 10.59s-10.54-4.8-10.54-10.59c0-1.2.21-2.35.6-3.47z"/></svg>