<svg viewBox="0 0 24 24" xmlns="http://www.w3.org/2000/svg"><path fill="currentColor" d="m12 0c-6.624 0-12 5.376-12 12s5.376 12 12 12 12-5.376 12-12-5.376-12-12-12zm11.52 12c0 .408-.023.792-.072 1.176l-2.04-.24c.024-.312.05-.624.05-.936 0-.288-.025-.6-.05-.888l2.04-.24c.072.384.072.744.072 1.128zm-23.041 0c0-.384.024-.769.049-1.152l2.04.24c-.024.312-.047.6-.047.912s.023.6.047.912l-2.04.24c-.049-.383-.049-.768-.049-1.152zm20.472-3.096 1.921-.72c.264.72.433 1.464.552 2.232l-2.04.24c-.097-.6-.24-1.2-.433-1.752zm.049 3.096c0 .6-.072 1.176-.167 1.752l-2.017-.455c.071-.409.119-.841.119-1.297s-.048-.912-.119-1.344l2.017-.457c.118.577.167 1.177.167 1.801zm-9 6.456c-3.565-.001-6.455-2.891-6.456-6.456.001-3.565 2.891-6.455 6.456-6.456 3.565.001 6.455 2.891 6.456 6.456.008 3.559-2.871 6.448-6.429 6.456zm.216 2.544v-2.064c.885-.029 1.756-.224 2.568-.575l.888 1.872c-1.09.482-2.264.742-3.456.767zm-3.936-.791.912-1.873c.792.359 1.656.575 2.568.6v2.064c-1.202-.023-2.386-.293-3.48-.791zm-5.28-8.209c0-.624.072-1.224.192-1.824l2.016.456c-.098.45-.146.908-.144 1.368 0 .432.048.864.12 1.272l-2.016.455c-.117-.568-.174-1.147-.168-1.727zm8.76-9v2.064c-.877.029-1.74.224-2.544.576l-.888-1.871c1.083-.478 2.249-.739 3.432-.769zm3.935.792-.911 1.872c-.809-.363-1.682-.559-2.568-.576v-2.064c1.248 0 2.424.288 3.479.768zm5.088 4.656c-.231-.56-.513-1.098-.84-1.608l1.681-1.152c.407.648.768 1.32 1.056 2.04zm-.07 1.296-2.018.456c-.23-.85-.621-1.648-1.151-2.352l1.632-1.295c.72.959 1.248 2.015 1.537 3.191zm-3.457-2.256c-.572-.667-1.264-1.22-2.04-1.633l.912-1.871c1.056.549 1.993 1.299 2.76 2.208zm-.6-3.744.96-1.824c.672.384 1.295.816 1.896 1.32l-1.367 1.56c-.461-.401-.959-.754-1.489-1.056zm-.408-.216c-.54-.266-1.102-.483-1.68-.648l.504-1.992c.744.216 1.464.48 2.159.84zm-2.16-.768c-.6-.144-1.2-.216-1.824-.239v-2.042c.793.024 1.584.12 2.328.289zm-2.28-.239c-.605.021-1.207.094-1.8.216l-.48-1.993c.72-.168 1.487-.265 2.28-.265zm-2.28.334c-.586.167-1.156.384-1.704.649l-.96-1.824c.691-.343 1.415-.616 2.16-.816zm-2.112.865c-.529.294-1.027.64-1.488 1.032l-1.368-1.536c.6-.504 1.224-.936 1.896-1.319zm.48.264.888 1.871c-.792.408-1.464.96-2.04 1.608l-1.608-1.295c.775-.895 1.711-1.636 2.76-2.184zm-3.048 2.568 1.608 1.295c-.53.705-.921 1.503-1.152 2.353l-2.016-.456c.312-1.2.84-2.28 1.56-3.192zm-1.608 1.848-1.92-.72c.287-.72.648-1.416 1.08-2.04l1.68 1.176c-.341.494-.623 1.025-.84 1.584zm-.168.455c-.192.577-.36 1.152-.432 1.776l-2.04-.238c.12-.769.288-1.537.553-2.257zm-.456 4.513c.096.6.239 1.2.432 1.776l-1.92.72c-.271-.728-.456-1.485-.552-2.257zm.624 2.208c.239.576.528 1.104.84 1.607l-1.68 1.153c-.435-.629-.797-1.306-1.08-2.016zm.024-1.392 2.017-.456c.216.864.624 1.681 1.128 2.376l-1.609 1.296c-.725-.957-1.247-2.051-1.536-3.216zm3.432 2.28c.577.672 1.272 1.248 2.064 1.656l-.912 1.872c-1.063-.557-2.009-1.315-2.784-2.232zm.72 3.815-.96 1.825c-.674-.376-1.31-.819-1.896-1.321l1.368-1.535c.456.407.936.744 1.488 1.031zm.408.217c.528.264 1.104.48 1.705.647l-.504 1.992c-.747-.196-1.471-.469-2.16-.815zm2.16.768c.576.12 1.176.193 1.8.217v2.039c-.774-.026-1.544-.114-2.305-.264zm2.28.216c.605-.021 1.207-.094 1.801-.217l.479 1.992c-.749.168-1.513.264-2.28.287zm2.257-.336c.586-.165 1.155-.382 1.703-.647l.96 1.824c-.688.35-1.412.623-2.159.815zm2.086-.865c.528-.287 1.032-.647 1.488-1.031l1.369 1.535c-.588.502-1.223.945-1.896 1.321zm-.479-.263-.888-1.871c.788-.414 1.489-.977 2.064-1.656l1.606 1.296c-.778.91-1.722 1.668-2.782 2.231zm3.071-2.592-1.607-1.296c.532-.708.916-1.517 1.128-2.376l2.017.456c-.311 1.157-.831 2.248-1.538 3.216zm1.561-1.824 1.92.721c-.288.72-.648 1.392-1.079 2.04l-1.682-1.177c.337-.504.624-1.032.841-1.584zm.168-.455c.192-.553.336-1.152.433-1.752l2.039.239c-.11.761-.294 1.508-.551 2.232zm.456-9.841-1.681 1.152c-.358-.49-.76-.947-1.199-1.368l1.368-1.536c.552.552 1.056 1.128 1.512 1.752zm-17.184-1.776 1.368 1.536c-.456.408-.84.864-1.2 1.368l-1.68-1.176c.431-.636.94-1.216 1.512-1.728zm-1.536 15.216 1.68-1.152c.36.48.769.937 1.2 1.369l-1.368 1.535c-.548-.545-1.054-1.131-1.512-1.752zm17.16 1.729-1.368-1.537c.432-.407.841-.863 1.199-1.344l1.682 1.176c-.457.6-.961 1.175-1.513 1.705z"/></svg>