<svg viewBox="0 0 24 24" xmlns="http://www.w3.org/2000/svg"><path fill="currentColor" d="m22.2027 1.7925h-17.9215c-1.3897 0-2.2795 1.4698-1.6293 2.6917l1.7927 3.3773h-3.2499a1.2 1.2 0 0 0 -.5873.1537 1.1924 1.1924 0 0 0 -.4356.421 1.1847 1.1847 0 0 0 -.0342 1.1683l5.766 10.858c.1017.191.2537.3507.4399.4622a1.1996 1.1996 0 0 0 1.2326 0 1.1913 1.1913 0 0 0 .4398-.4623l1.566-2.933 1.9647 3.7006c.6914 1.3016 2.5645 1.304 3.2584.0038l8.9828-16.8178c.635-1.1895-.2314-2.6235-1.5851-2.6235zm-8.0503 7.1855-3.8733 7.2533a.7932.7932 0 0 1 -.2927.3074.7986.7986 0 0 1 -.82 0 .7933.7933 0 0 1 -.2927-.3074l-3.8359-7.2227a.7883.7883 0 0 1 .0208-.7776.7933.7933 0 0 1 .2891-.281.7985.7985 0 0 1 .3906-.1033h7.7307a.7769.7769 0 0 1 .381.0998.7717.7717 0 0 1 .2823.2736.7672.7672 0 0 1 .02.758z"/></svg>