<svg viewBox="0 0 24 24" xmlns="http://www.w3.org/2000/svg"><path fill="currentColor" d="m11.943.1825c1.8723 0 3.6538.429 5.2524 1.1964.2507.1131.503.2485.7529.384l-1.0961.971-1.6433-1.6933-2.8315 2.483-1.6674-1.7836-5.2068 4.628 3.3336 3.6347-1.3014 1.1285 3.2889 3.6346-1.3015 1.128 4.7045 5.1698 2.7844-2.5285 2.4217 2.7097c-.48.3613-1.0052.7232-1.5754 1.0387a12.0418 12.0418 0 0 1 -5.892 1.534c-6.6003 0-11.966-5.304-11.966-11.8276-.0231-6.4795 5.3435-11.8074 11.943-11.8074zm-2.1928 11.0845 2.8546-2.5285 2.5582 2.8218-2.8552 2.5283zm2.033 4.8764 2.8314-2.551 2.5807 2.8216-2.8548 2.5286zm-4.0642-9.6847 2.8537-2.5285 2.5577 2.8217-2.8548 2.5285zm5.2284-1.355 2.124-1.8961 1.9186 2.0994-2.124 1.9186zm3.7912 8.6914 2.1232-1.8963 1.9186 2.1215-2.124 1.8975zm1.8723 4.267 2.124-1.8966 1.9171 2.0995-2.1232 1.9183zm.868-9.7527 1.4156-1.2643 1.2784 1.4002-1.4155 1.2638zm-1.8269-4.1764 1.4158-1.2864 1.2793 1.422-1.4168 1.2641zm3.6308 8.3531 1.4156-1.2642 1.3016 1.3997-1.4381 1.2639zm-6.3711-3.138 2.124-1.8963 1.9178 2.099-2.1231 1.8967z"/></svg>