<svg viewBox="0 0 24 24" xmlns="http://www.w3.org/2000/svg"><path fill="currentColor" d="m22.1987 18.498-9.7699 5.5022v-4.2855l6.0872-3.3338 3.6826 2.117zm.6683-.6026v-11.507l-3.5752 2.0544v7.396zm-21.0657.6026 9.7699 5.5022v-4.2855l-6.0872-3.3338-3.6826 2.117zm-.6683-.6026v-11.507l3.5751 2.0544v7.396zm.4183-12.2515 10.0199-5.644v4.1434l-6.4192 3.5153-.0489.028zm20.8975 0-10.02-5.644v4.1434l6.4192 3.5154.0489.028 3.5518-2.0427zm-10.8775 13.096-6.0056-3.2873v-6.5142l6.0054 3.4525v6.349zm.8575 0 6.0053-3.2873v-6.5142l-6.0053 3.4525zm-6.4564-10.5554 6.0287-3.3015 6.0289 3.3015-6.0288 3.4665z"/></svg>