<svg viewBox="0 0 24 24" xmlns="http://www.w3.org/2000/svg"><path fill="currentColor" d="m11.9998.3598c-2.8272 0-5.1456 2.1733-5.3793 4.94a5.4117 5.4117 0 0 0 -1.2207-.1401c-2.9818 0-5.3998 2.4182-5.3998 5.4006 0 2.2203 1.341 4.1274 3.2568 4.957a5.3734 5.3734 0 0 0 -.7372 2.7227c0 2.9823 2.4175 5.4002 5.4002 5.4002 1.6627 0 3.1492-.7522 4.1397-1.934.9906 1.1818 2.4773 1.934 4.1398 1.934 2.983 0 5.4004-2.418 5.4004-5.4002 0-.9719-.258-1.883-.7073-2.6708 1.8359-.8624 3.1076-2.7274 3.1076-4.8897 0-2.9823-2.4175-5.4006-5.3998-5.4006-.417 0-.8223.049-1.2121.1384-.1769-2.8224-2.5211-5.0575-5.3883-5.0575zm-5.717 6.8683h10.5924c.7458 0 1.352.605 1.352 1.3487v7.6463c0 .7438-.6062 1.3482-1.352 1.3482h-3.6085l-7.24 3.5491 1.1008-3.5491h-.8447c-.7458 0-1.3522-.6044-1.3522-1.3482v-7.6463c0-.7438.6064-1.3487 1.3522-1.3487z"/></svg>