<svg viewBox="0 0 24 24" xmlns="http://www.w3.org/2000/svg"><path fill="currentColor" d="m0 0v24h24v-24zm17.889 2.889c1.444 0 2.667.444 3.667 1.278l-1.111 1.667c-.889-.611-1.722-1-2.556-1s-1.278.389-1.278.889v.056c0 .667.444.889 2.111 1.333 2 .556 3.111 1.278 3.111 3v.056c0 2-1.5 3.111-3.611 3.111-1.5-.056-3-.611-4.167-1.667l1.278-1.556c.889.722 1.833 1.222 2.944 1.222.889 0 1.389-.333 1.389-.944v-.056c0-.556-.333-.833-2-1.278-2-.5-3.222-1.056-3.222-3.056v-.056c0-1.833 1.444-3 3.444-3zm-16.111.222h2.278l1.5 5.778 1.722-5.778h1.667l1.667 5.778 1.5-5.778h2.333l-2.833 9.944h-1.889l-1.611-5.778-1.667 5.778h-1.833l-2.833-9.944zm.5 16.389h9v1.5h-9z"/></svg>