<svg viewBox="0 0 24 24" xmlns="http://www.w3.org/2000/svg"><path fill="currentColor" d="m2.48 0a1.55 1.55 0 1 0 0 3.1 1.55 1.55 0 0 0 0-3.1zm19.04 0a1.55 1.55 0 1 0 0 3.101 1.55 1.55 0 0 0 0-3.101zm-9.52 2.295a1.55 1.55 0 1 0 0 3.1 1.55 1.55 0 0 0 0-3.1zm-9.52 2.977a2.48 2.48 0 1 0 0 4.96 2.48 2.48 0 0 0 0-4.96zm19.04 0a2.48 2.48 0 1 0 0 4.96 2.48 2.48 0 0 0 0-4.96zm-9.52 3.224a1.55 1.55 0 1 0 0 3.1 1.55 1.55 0 0 0 0-3.1zm-9.52 3.907a1.55 1.55 0 1 0 0 3.1 1.55 1.55 0 0 0 0-3.1zm19.04 0a1.55 1.55 0 1 0 0 3.102 1.55 1.55 0 0 0 0-3.102zm-9.52 1.364a2.48 2.48 0 1 0 0 4.962 2.48 2.48 0 0 0 0-4.962zm-9.52 3.907a2.48 2.48 0 1 0 .001 4.962 2.48 2.48 0 0 0 0-4.962zm19.04.93a1.55 1.55 0 1 0 0 3.102 1.55 1.55 0 0 0 0-3.101zm-9.52 2.296a1.55 1.55 0 1 0 0 3.1 1.55 1.55 0 0 0 0-3.1z"/></svg>