<svg viewBox="0 0 24 24" xmlns="http://www.w3.org/2000/svg"><path fill="currentColor" d="m1.494 4.957a1.478 1.478 0 0 0 -1.494 1.498v11.09a1.478 1.478 0 0 0 .432 1.062 1.477 1.477 0 0 0 1.062.436h21.012a1.48 1.48 0 0 0 1.384-.924c.075-.182.112-.377.11-.574v-11.09a1.477 1.477 0 0 0 -.432-1.062 1.478 1.478 0 0 0 -1.063-.436h-21.009zm2.457 3.287h2.139l-.238 1.408h-2.084zm3.996 0h1.753l.156 1.408h-2.784zm3.807 0h1.877l-.469 1.408h-1.851zm2.695 0h4.06c2.062 0 3.228 1.643 2.481 3.74a5.63 5.63 0 0 1 -1.924 2.641 5.628 5.628 0 0 1 -3.064 1.13h-4.062l1.7-5.171 2.75.092-1.015 3.011c.277.031.559.031.836 0a2.865 2.865 0 0 0 2.539-1.917c.358-1.034-.15-1.886-1.166-1.916h-3.674l.54-1.61zm-10.607 1.877 2.056.063-.357 2.677 1.31-2.615 2.98.094.269 2.707.834-2.676 2.054.094-1.758 5.29h-2.533l-.445-4.575-2.176 4.576h-2.83z"/></svg>