<svg viewBox="0 0 24 24" xmlns="http://www.w3.org/2000/svg"><path fill="currentColor" d="m12 24c-6.658 0-12-5.418-12-12 0-6.658 5.342-12 12-12s12 5.342 12 12c0 6.582-5.342 12-12 12zm0-21.986c-5.497 0-9.987 4.489-9.987 9.986 0 5.498 4.49 9.988 9.987 9.988 5.498 0 9.987-4.49 9.987-9.988 0-5.497-4.489-9.986-9.987-9.986zm5.885 11.148h-8.672c-.384 0-.695-.309-.698-.691v-1.012c0-.387.311-.697.698-.697h8.748c.387 0 .697.311.697.697v1.006c-.077.387-.387.697-.773.697zm-2.246-3.871h-8.748c-.383.002-.697-.307-.698-.691v-1.01c0-.311.31-.621.697-.621h8.748c.31 0 .62.311.62.619v1.006c.001.386-.31.697-.619.697zm-8.748 5.418h8.748c.388 0 .696.311.696.697v1.006c.002.383-.309.695-.691.697h-8.753c-.388-.076-.697-.387-.697-.773v-1.006c-.001-.31.309-.621.697-.621z"/></svg>