<svg viewBox="0 0 24 24" xmlns="http://www.w3.org/2000/svg"><path fill="currentColor" d="m12 0c-6.627 0-12 5.372-12 12 0 6.627 5.373 12 12 12 6.628 0 12-5.373 12-12 0-6.628-5.372-12-12-12zm-1.58 4.916h3.167v5.268h.657v-4.366c2.971 1.432 2.554 5.28 2.586 5.136h.718v1.014h-11.096v-1.014h.718s-.687-3.559 2.587-5.136v4.366h.662zm-3.968 8.002h3.18v.546a2.376 2.376 0 0 0 2.368 2.369 2.376 2.376 0 0 0 2.369-2.369v-.546h3.18v2.066h-1.292l-.416.928.872.768-1.596 1.697-.911-.919-.988.424v1.202h-2.436v-1.202l-.987-.424-.912.919-1.595-1.697.871-.768-.415-.928h-1.292z"/></svg>