<svg viewBox="0 0 24 24" xmlns="http://www.w3.org/2000/svg"><path fill="currentColor" d="m5.785 4.058-4.473.004-.001-4.052 18.158-.01c3.514.42 3.199 4.047 3.199 4.047l-2.156-.002-2.769 15.888-2.953-15.884-4.731.005.856 7.376-2.137 8.507zm-1.294 17.315-3.174-12.853.009 12.338c.43 3.125 3.303 3.142 3.303 3.142l1.687-.001c-1.393-.69-1.825-2.626-1.825-2.626zm9.237.659-1.724-6.724-1.673 6.678c-.517 1.652-1.702 2.009-1.702 2.009l6.602-.002c-1.206-.499-1.503-1.961-1.503-1.961zm8.949-17.643-2.844 15.865c-.711 3.767-2.285 3.738-2.285 3.738l5.141-.008z"/></svg>