<svg viewBox="0 0 24 24" xmlns="http://www.w3.org/2000/svg"><path fill="currentColor" d="m24 1.047-8.33 17.033-3.474-8.53-3.474 8.53-8.329-17.032 3.228 8.977 3.286 8.5c-3.033.809-5.575 1.935-6.907 3.225.443-.168 3.47-1.24 7.409-1.927l1.21 3.129 1.552-3.518a36.769 36.769 0 0 1 3.96-.204l1.644 3.722 1.4-3.62c2.132.145 3.861.426 4.675.692 0 0 .92-1.962 1.338-2.866a54.838 54.838 0 0 0 -5.138-.092l2.722-7.042zm-21.84.026 6.48 12.787 3.568-9.155 3.567 9.155 6.481-12.788-6.433 8.452-3.615-8.22-3.615 8.22zm10.036 13.776 1.115 2.523a42.482 42.482 0 0 0 -2.363.306z"/></svg>