<svg viewBox="0 0 24 24" xmlns="http://www.w3.org/2000/svg"><path fill="currentColor" d="m6.3912 1.5373a.7847.7847 0 0 0 -.679.3914l-5.6065 9.678a.7847.7847 0 0 0 0 .7867l5.6065 9.6779a.7847.7847 0 0 0 .679.3914h11.2176c.28 0 .5387-.1492.679-.3914l5.6065-9.678a.7847.7847 0 0 0 0-.7867l-5.6065-9.6779a.7848.7848 0 0 0 -.679-.3914zm.0302.837h10.542l-5.2093 9.2112h-5.7862l4.7196-8.1747a.1308.1308 0 0 0 -.1132-.1962l-3.0681-.0016a.2615.2615 0 0 0 -.2266.1307l-4.7633 8.2419h-1.431zm11.3325.3025 5.401 9.3232-5.3722 9.2735-5.2987-9.2784zm.1712 2.8248a.1295.1295 0 0 0 -.1132.0665l-1.5186 2.689a.2616.2616 0 0 0 .0013.2595l1.943 3.3611a.2615.2615 0 0 1 0 .2617l-1.9268 3.3375a.2616.2616 0 0 0 -.0006.2605l1.5272 2.6742c.05.0877.1763.088.2268.0006l3.5503-6.1431a.5231.5231 0 0 0 -.0001-.5238l-3.5754-6.1783a.1295.1295 0 0 0 -.1139-.0653zm-16.8351 6.9209h1.4363l4.7634 8.2314a.2616.2616 0 0 0 .2262.1305l3.0718.0018a.1308.1308 0 0 0 .1133-.1962l-4.7215-8.1675h5.7848l5.2557 9.2032h-10.5986z"/></svg>