<svg viewBox="0 0 24 24" xmlns="http://www.w3.org/2000/svg"><path fill="currentColor" d="m22.088 5.499 1.894-1.894-3.587-3.587-1.894 1.894c-1.874-1.21-4.105-1.912-6.501-1.912-6.627 0-12 5.373-12 12 0 2.396.702 4.627 1.912 6.501l-1.894 1.894 3.587 3.587 1.894-1.894c1.874 1.21 4.105 1.912 6.501 1.912 6.627 0 12-5.373 12-12 0-2.396-.702-4.627-1.912-6.501zm-17.519 6.501c0-4.104 3.327-7.431 7.431-7.431 1.125 0 2.191.25 3.146.698l-9.88 9.88c-.447-.956-.697-2.022-.697-3.147zm7.431 7.431c-1.125 0-2.191-.25-3.146-.698l9.88-9.88c.447.956.698 2.022.698 3.146-.001 4.105-3.328 7.432-7.432 7.432z"/></svg>