<svg viewBox="0 0 24 24" xmlns="http://www.w3.org/2000/svg"><path fill="currentColor" d="m5.721 0c-3.47 0-5.721 2.25-5.721 5.719v12.561c0 3.471 2.252 5.72 5.721 5.72h12.56c3.47 0 5.719-2.25 5.719-5.719v-12.561c0-3.471-2.25-5.72-5.719-5.72zm1.964 4.078c-.271.73-.5 1.434-.68 2.11h4.587c.545-.006.445 1.168.445 1.171h-2.653a58.104 58.104 0 0 1 -.112 3.797h2.712c.388.023.393 1.251.393 1.266h-3.194a9.223 9.223 0 0 1 -.408 2.102l.757-.604c.452.456 1.512 1.712 1.906 2.177.473.681.063 2.081.063 2.081l-2.794-3.382c-.653 2.518-1.845 3.607-1.845 3.607-.523.468-1.58.82-2.64.516 2.218-1.73 3.44-3.917 3.667-6.497h-3.398c0-.015.197-1.243.806-1.266h2.71c.024-.32.086-3.254.086-3.797h-1.495c-.136.406-.158.447-.268.753-.594 1.095-1.603 1.122-1.907 1.155.906-1.821 1.416-3.6 1.591-4.064.425-1.124 1.671-1.125 1.671-1.125zm5.393 1.922h6.377v11.33h-2.573l-2.184 1.373-.401-1.373h-1.219zm1.313 1.219v8.86h.623l.263.937 1.455-.938h1.456v-8.86z"/></svg>