<svg viewBox="0 0 24 24" xmlns="http://www.w3.org/2000/svg"><path fill="currentColor" d="m11.988 0a11.85 11.85 0 0 0 -8.617 3.696c7.02-.875 11.401-.583 13.289-.34 3.752.583 3.558 3.404 3.558 3.404l-11.981 12.352c2.299.22 6.897.366 13.796-.631a11.86 11.86 0 0 0 1.912-6.469c0-6.638-5.35-12.012-11.957-12.012zm.232 4.31c-2.451-.014-5.772.146-9.963.723-1.403 1.97-2.202 4.377-2.202 6.979 0 6.614 5.325 11.988 11.933 11.988 3.63 0 6.85-1.63 9.053-4.182-7.286.948-11.813.631-13.75.388-3.775-.56-3.557-3.404-3.557-3.404l11.957-12.328a38.635 38.635 0 0 0 -3.471-.163z"/></svg>