<svg viewBox="0 0 28.2 28.2" xmlns="http://www.w3.org/2000/svg"><path fill="currentColor" d="m19.2 8.4h-1.8c-.3 0-.5.2-.5.5v1.8c0 .3.2.5.5.5h1.8c.3 0 .5-.2.5-.5v-1.8c.1-.3-.2-.5-.5-.5z"/><path fill="currentColor" d="m18.7 14c0 2.5-2.1 4.6-4.6 4.6s-4.6-2.1-4.6-4.6c0-.4 0-.7.1-1.1h-1.2v6.3c0 .4.3.5.7.5h10.1c.4 0 .7-.2.7-.5 0-.4 0-6.3 0-6.3h-1.2c-.1.4 0 .7 0 1.1z"/><circle fill="currentColor" cx="14.1" cy="14.1" r="2.9"/><path fill="currentColor" d="m14.1 0c-7.8 0-14.1 6.3-14.1 14.1s6.3 14.1 14.1 14.1 14.1-6.3 14.1-14.1c-.1-7.8-6.4-14.1-14.1-14.1zm7.3 19.9c0 .9-.7 1.5-1.5 1.5h-11.7c-.9 0-1.5-.7-1.5-1.5v-11.7c0-.9.7-1.5 1.5-1.5h11.7c.9 0 1.5.7 1.5 1.5z"/></svg>