<svg viewBox="0 0 29.3 29.2" xmlns="http://www.w3.org/2000/svg"><path fill="currentColor" d="m14.6 0c-8.1 0-14.6 6.5-14.6 14.6 0 6 3.6 11.1 8.8 13.4 0-1 0-2.2.3-3.4s1.9-8 1.9-8-.5-.9-.5-2.3c0-2.2 1.3-3.8 2.8-3.8 1.3 0 2 1 2 2.2 0 1.3-.9 3.3-1.3 5.2-.4 1.6.8 2.8 2.3 2.8 2.8 0 4.6-3.6 4.6-7.8 0-3.2-2.2-5.6-6.1-5.6-4.4 0-7.2 3.3-7.2 7 0 1.3.4 2.2 1 2.9.3.3.3.4.2.8-.1.3-.2.9-.3 1.2-.1.4-.4.5-.7.4-2-.8-3-3.1-3-5.6 0-4.2 3.5-9.1 10.5-9.1 5.6 0 9.3 4 9.3 8.4 0 5.7-3.2 10-7.9 10-1.6 0-3.1-.9-3.6-1.8 0 0-.8 3.4-1 4-.3 1.1-.9 2.3-1.5 3.1 1.3.4 2.7.6 4.1.6 8.1 0 14.6-6.5 14.6-14.6-.1-8.1-6.6-14.6-14.7-14.6"/></svg>