<svg viewBox="0 0 28.6 28.6" xmlns="http://www.w3.org/2000/svg"><path fill="currentColor" d="m14.3 0c-7.9 0-14.3 6.4-14.3 14.3s6.4 14.3 14.3 14.3c7.2 0 13.2-5.3 14.2-12.3.1-.5.1-1 .1-1.5 0-.2 0-.4 0-.6 0-7.8-6.4-14.2-14.3-14.2zm6.6 11.7v.4c0 4.1-3.1 8.8-8.8 8.8-1.8 0-3.4-.5-4.7-1.4h.7c1.5 0 2.8-.5 3.8-1.3-1.4 0-2.5-.9-2.9-2.2.2 0 .4.1.6.1.3 0 .6 0 .8-.1-1.4-.3-2.5-1.5-2.5-3 .4.2.9.4 1.4.4-.8-.6-1.4-1.5-1.4-2.6 0-.6.2-1.1.4-1.6 1.5 1.9 3.8 3.1 6.4 3.2-.1-.2-.1-.5-.1-.7 0-1.7 1.4-3.1 3.1-3.1.9 0 1.7.4 2.3 1 .7-.1 1.4-.4 2-.8-.2.7-.7 1.3-1.4 1.7.6-.1 1.2-.2 1.8-.5-.4.8-.9 1.3-1.5 1.7z"/></svg>